<svg width="26" height="30" viewBox="0 0 26 30" fill="none" xmlns="http://www.w3.org/2000/svg">
<path fill-rule="evenodd" clip-rule="evenodd" d="M5.26057 14.5242C3.60337 14.9325 2.76472 16.591 2.89622 19.2C3.07744 22.793 4.99888 25.2922 8.36886 26.3179C10.9925 27.1165 15.0348 27.1255 17.6326 26.3387C20.3721 25.5089 22.2072 23.6357 22.8919 20.9701C23.1559 19.9422 23.1787 17.689 22.9331 16.9108C22.4732 15.4536 21.7631 14.7282 20.5668 14.4932C19.9634 14.3748 19.5863 14.4119 17.9821 14.7473C15.9416 15.174 14.8656 15.2904 12.9579 15.2907C11.0771 15.291 10.1896 15.1932 8.01533 14.7461C6.52196 14.4391 5.83159 14.3834 5.26057 14.5242ZM4.14721 18.7761C4.13768 17.1262 4.52983 16.1614 5.35608 15.8021C5.75557 15.6284 6.13304 15.656 7.68548 15.9728C11.8629 16.825 14.5428 16.7881 19.0744 15.8157C20.126 15.59 20.5959 15.6545 21.0702 16.0896C21.6496 16.6211 21.8736 17.4341 21.857 18.9457C21.8479 19.7687 21.7979 20.2196 21.6596 20.7261C20.7815 23.9431 18.3443 25.4697 13.788 25.6571C11.2625 25.7609 9.11104 25.4051 7.40945 24.6023C6.58487 24.2132 5.40492 23.1067 4.9939 22.337C4.43031 21.2816 4.15507 20.1242 4.14721 18.7761Z" fill="#E5DFD9"/>
<path d="M5.83893 18.4311C5.72866 18.7125 5.85771 19.3833 6.13531 19.9717C6.58557 20.926 7.56979 21.6278 8.66996 21.779C9.88984 21.9466 11.3927 21.4459 10.8827 21.0419C10.6479 20.8558 6.2988 18.3289 6.11714 18.2731C5.96213 18.2253 5.90743 18.2564 5.83893 18.4311Z" fill="#E5DFD9"/>
<path d="M18.0258 19.3149C17.0166 19.9122 15.9353 20.5536 15.6229 20.7402C15.3106 20.9267 15.0433 21.1379 15.029 21.2095C14.9927 21.3908 15.7074 21.7015 16.3705 21.7926C18.1908 22.0427 19.8121 20.8866 20.1637 19.0877C20.2557 18.6168 20.1682 18.2236 19.9722 18.2269C19.9109 18.228 19.035 18.7176 18.0258 19.3149Z" fill="#E5DFD9"/>
<path fill-rule="evenodd" clip-rule="evenodd" d="M12.1175 0.113519C10.9154 0.530317 10.1332 1.66761 10.2298 2.85832C10.3127 3.88005 11.0291 4.82387 11.9669 5.14706L12.39 5.29281V6.35829V7.42377L11.3196 7.52797C8.08654 7.8426 5.51091 8.95115 3.51634 10.8865C-0.824141 15.0982 -1.21245 22.7838 2.72042 26.6417C4.57291 28.4589 7.3641 29.575 10.9421 29.9293C12.3759 30.0712 15.0908 29.9908 16.453 29.7661C20.4689 29.1034 23.2093 27.4312 24.7134 24.7256C27.0995 20.4331 26.0733 14.2259 22.409 10.7862C20.3872 8.88841 17.8929 7.83599 14.6836 7.52687L13.6133 7.42377L13.6147 6.35964L13.6162 5.29543L14.1172 5.08517C14.7209 4.83175 15.2466 4.34306 15.5327 3.76932C15.8259 3.18101 15.8329 2.16665 15.5475 1.5958C15.244 0.988829 14.7971 0.541594 14.2093 0.25655C13.7579 0.0377222 13.5744 -0.00297433 13.0532 0.000162682C12.7125 0.0021975 12.2914 0.0532373 12.1175 0.113519ZM11.5599 2.65874C11.5599 2.06347 11.7076 1.79479 12.2233 1.4515C12.6241 1.18468 13.4331 1.2169 13.8674 1.51703C14.1934 1.7423 14.4832 2.28348 14.4832 2.66713C14.4832 3.049 14.194 3.59161 13.8717 3.81426C13.2409 4.25013 12.2748 4.09854 11.7953 3.48843C11.5976 3.23713 11.5599 3.10394 11.5599 2.65874ZM1.96661 15.5612C3.3567 11.8072 6.56416 9.41 10.9919 8.81592C11.999 8.68086 15.0278 8.77743 15.9725 8.97472C18.1531 9.43027 19.9599 10.3023 21.3957 11.5922C23.6088 13.5804 24.8368 16.7524 24.6855 20.0897C24.5803 22.4118 23.8426 24.2609 22.4453 25.7059C21.1556 27.0395 19.638 27.8337 17.4142 28.3388C15.886 28.6859 14.9365 28.7795 13.0016 28.7738C8.89111 28.7617 5.92866 27.8796 3.94248 26.0765C2.76586 25.0083 2.02856 23.7856 1.58512 22.1675C1.37244 21.3913 1.35217 21.1763 1.34475 19.6239C1.33601 17.7812 1.47092 16.8999 1.96661 15.5612Z" fill="#E5DFD9"/>
<path fill-rule="evenodd" clip-rule="evenodd" d="M11.5599 2.65874C11.5599 2.06347 11.7076 1.79479 12.2233 1.4515C12.6241 1.18468 13.4331 1.2169 13.8674 1.51703C14.1934 1.7423 14.4832 2.28348 14.4832 2.66713C14.4832 3.049 14.194 3.59161 13.8717 3.81426C13.2409 4.25013 12.2748 4.09854 11.7953 3.48843C11.5976 3.23713 11.5599 3.10394 11.5599 2.65874Z" fill="#E5DFD9"/>
</svg>
