<svg width="14" height="16" viewBox="0 0 14 16" fill="none" xmlns="http://www.w3.org/2000/svg">
<path fill-rule="evenodd" clip-rule="evenodd" d="M2.83262 7.74623C1.94028 7.964 1.4887 8.84856 1.5595 10.24C1.65709 12.1563 2.6917 13.4892 4.50631 14.0362C5.91906 14.4621 8.09566 14.467 9.49449 14.0473C10.9696 13.6047 11.9577 12.6057 12.3264 11.184C12.4685 10.6358 12.4809 9.43413 12.3486 9.01912C12.1009 8.24191 11.7186 7.85502 11.0744 7.72972C10.7495 7.66655 10.5465 7.68636 9.68269 7.86524C8.58395 8.09282 8.00453 8.15486 6.97735 8.15504C5.96461 8.15518 5.48673 8.10304 4.31595 7.86461C3.51182 7.70083 3.14008 7.67117 2.83262 7.74623ZM2.23311 10.0139C2.22798 9.13397 2.43914 8.61944 2.88404 8.4278C3.09915 8.33515 3.30241 8.34989 4.13833 8.51882C6.38772 8.97336 7.83073 8.95364 10.2708 8.43504C10.8371 8.31466 11.0901 8.34908 11.3455 8.58113C11.6575 8.86461 11.7781 9.2982 11.7691 10.1044C11.7643 10.5433 11.7373 10.7838 11.6629 11.0539C11.19 12.7696 9.87771 13.5838 7.42432 13.6838C6.06445 13.7392 4.90595 13.5494 3.9897 13.1212C3.5457 12.9137 2.91034 12.3236 2.68902 11.9131C2.38555 11.3502 2.23735 10.7329 2.23311 10.0139Z" fill="url(#paint0_linear_4083_32149)"/>
<path d="M3.14404 9.82992C3.08466 9.98 3.15415 10.3378 3.30363 10.6516C3.54607 11.1606 4.07604 11.5348 4.66844 11.6155C5.3253 11.7049 6.13455 11.4378 5.85992 11.2223C5.7335 11.1231 3.39166 9.77544 3.29384 9.74564C3.21038 9.72018 3.18092 9.73673 3.14404 9.82992Z" fill="url(#paint1_linear_4083_32149)"/>
<path d="M9.70622 10.3013C9.1628 10.6198 8.58056 10.9619 8.41236 11.0614C8.24415 11.1609 8.10023 11.2736 8.09251 11.3117C8.07299 11.4084 8.4578 11.5741 8.81486 11.6227C9.79505 11.7561 10.668 11.1395 10.8574 10.1801C10.9069 9.92895 10.8598 9.71923 10.7542 9.72104C10.7213 9.72158 10.2496 9.98272 9.70622 10.3013Z" fill="url(#paint2_linear_4083_32149)"/>
<path fill-rule="evenodd" clip-rule="evenodd" d="M6.52482 0.0605433C5.87752 0.282836 5.45633 0.889392 5.50837 1.52444C5.55302 2.06936 5.93873 2.57273 6.44371 2.7451L6.67152 2.82283V3.39109V3.95934L6.09517 4.01492C4.35429 4.18272 2.96741 4.77395 1.89342 5.80614C-0.443768 8.0524 -0.652856 12.1513 1.46484 14.2089C2.46234 15.1781 3.96528 15.7733 5.89191 15.9623C6.66395 16.038 8.12582 15.9951 8.85933 15.8752C11.0217 15.5218 12.4973 14.63 13.3072 13.187C14.592 10.8977 14.0395 7.58715 12.0664 5.75265C10.9777 4.74049 9.63465 4.17919 7.90657 4.01433L7.33022 3.95934L7.33102 3.39181L7.33182 2.82423L7.60155 2.71209C7.92662 2.57693 8.20971 2.3163 8.36375 2.0103C8.52165 1.69654 8.52541 1.15555 8.3717 0.851092C8.2083 0.527376 7.96764 0.28885 7.65114 0.136827C7.40808 0.0201185 7.30928 -0.00158631 7.02863 8.67637e-05C6.84518 0.001172 6.61845 0.0283932 6.52482 0.0605433ZM6.22455 1.41799C6.22455 1.10052 6.30407 0.95722 6.58175 0.774131C6.79762 0.63183 7.2332 0.649012 7.46708 0.809085C7.64263 0.929229 7.79864 1.21786 7.79864 1.42247C7.79864 1.62613 7.64291 1.91553 7.46939 2.03427C7.12974 2.26674 6.60951 2.18589 6.35131 1.8605C6.24488 1.72647 6.22455 1.65543 6.22455 1.41799ZM1.05895 8.29929C1.80746 6.29717 3.53455 5.01867 5.91873 4.70182C6.46103 4.62979 8.0919 4.6813 8.60055 4.78652C9.77477 5.02948 10.7477 5.49454 11.5208 6.18249C12.7124 7.24286 13.3737 8.93461 13.2922 10.7145C13.2355 11.953 12.8383 12.9392 12.0859 13.7098C11.3915 14.4211 10.5743 14.8446 9.37687 15.114C8.55402 15.2992 8.04274 15.3491 7.00087 15.346C4.78752 15.3396 3.19236 14.8691 2.12288 13.9075C1.48931 13.3378 1.0923 12.6857 0.853527 11.8226C0.739009 11.4087 0.728093 11.294 0.724094 10.4661C0.719389 9.48328 0.792033 9.01328 1.05895 8.29929Z" fill="url(#paint3_linear_4083_32149)"/>
<path fill-rule="evenodd" clip-rule="evenodd" d="M6.22455 1.41799C6.22455 1.10052 6.30407 0.95722 6.58175 0.774131C6.79762 0.63183 7.2332 0.649012 7.46708 0.809085C7.64263 0.929229 7.79864 1.21786 7.79864 1.42247C7.79864 1.62613 7.64291 1.91553 7.46939 2.03427C7.12974 2.26674 6.60951 2.18589 6.35131 1.8605C6.24488 1.72647 6.22455 1.65543 6.22455 1.41799Z" fill="url(#paint4_linear_4083_32149)"/>
<defs>
<linearGradient id="paint0_linear_4083_32149" x1="7" y1="0" x2="7" y2="16" gradientUnits="userSpaceOnUse">
<stop stop-color="#880000"/>
<stop offset="1" stop-color="#FFA040"/>
</linearGradient>
<linearGradient id="paint1_linear_4083_32149" x1="7" y1="0" x2="7" y2="16" gradientUnits="userSpaceOnUse">
<stop stop-color="#880000"/>
<stop offset="1" stop-color="#FFA040"/>
</linearGradient>
<linearGradient id="paint2_linear_4083_32149" x1="7" y1="0" x2="7" y2="16" gradientUnits="userSpaceOnUse">
<stop stop-color="#880000"/>
<stop offset="1" stop-color="#FFA040"/>
</linearGradient>
<linearGradient id="paint3_linear_4083_32149" x1="7" y1="0" x2="7" y2="16" gradientUnits="userSpaceOnUse">
<stop stop-color="#880000"/>
<stop offset="1" stop-color="#FFA040"/>
</linearGradient>
<linearGradient id="paint4_linear_4083_32149" x1="7" y1="0" x2="7" y2="16" gradientUnits="userSpaceOnUse">
<stop stop-color="#880000"/>
<stop offset="1" stop-color="#FFA040"/>
</linearGradient>
</defs>
</svg>
