<svg width="25" height="25" viewBox="0 0 25 25" fill="none" xmlns="http://www.w3.org/2000/svg">
<g clip-path="url(#clip0_4692_5945)">
<path d="M23.1338 10.513L12.7771 0.151163C12.6798 0.053817 12.5483 0 12.4106 0C12.273 0 12.1415 0.0548846 12.0442 0.152182L1.71854 10.513C1.57048 10.6611 1.527 10.8836 1.60673 11.0772C1.68748 11.2708 1.87592 11.3961 2.08502 11.3961H7.7789V24.3368C7.7789 24.6225 8.01081 24.8544 8.29654 24.8544H16.5786C16.8643 24.8544 17.0962 24.6225 17.0962 24.3368V11.396H22.7684C22.9775 11.396 23.1659 11.2697 23.2466 11.0762C23.3274 10.8826 23.2818 10.6611 23.1338 10.513Z" fill="url(#paint0_linear_4692_5945)"/>
</g>
<defs>
<linearGradient id="paint0_linear_4692_5945" x1="12.4268" y1="0" x2="12.4268" y2="24.8544" gradientUnits="userSpaceOnUse">
<stop stop-color="#FF723A"/>
<stop offset="1" stop-color="#B52F02"/>
</linearGradient>
<clipPath id="clip0_4692_5945">
<rect width="24.8544" height="24.8544" fill="white"/>
</clipPath>
</defs>
</svg>
