<svg width="13" height="25" viewBox="0 0 13 25" fill="none" xmlns="http://www.w3.org/2000/svg">
<path d="M9.89577 11.2903C8.92046 10.7513 7.88354 10.3406 6.85689 9.91459C6.26143 9.66819 5.69164 9.38073 5.18859 8.98033C4.19787 8.18981 4.3878 6.9065 5.54791 6.39831C5.87644 6.25458 6.22037 6.20838 6.56943 6.18785C7.91434 6.11598 9.19252 6.36238 10.4091 6.94757C11.0148 7.24016 11.215 7.14776 11.4204 6.51637C11.6359 5.84905 11.8156 5.17146 12.0158 4.49901C12.1493 4.04728 11.985 3.74955 11.5589 3.55962C10.7787 3.2157 9.97791 2.9693 9.13605 2.83583C8.03754 2.66644 8.03754 2.6613 8.03241 1.55766C8.02727 0.00228147 8.02727 0.00228144 6.46677 0.00228144C6.2409 0.00228144 6.01504 -0.0028518 5.78918 0.00228144C5.06025 0.0228144 4.93706 0.151146 4.91652 0.8852C4.90626 1.21373 4.91652 1.54226 4.91139 1.87592C4.90626 2.85123 4.90112 2.83583 3.96687 3.17463C1.70824 3.99595 0.312 5.53592 0.163135 7.99988C0.029671 10.1815 1.16925 11.6548 2.96076 12.7276C4.0644 13.3898 5.28612 13.7799 6.4565 14.2984C6.91336 14.4986 7.34968 14.7296 7.72954 15.0478C8.85373 15.977 8.6484 17.5221 7.31375 18.1073C6.60023 18.4204 5.84564 18.4974 5.07052 18.3998C3.87447 18.251 2.72976 17.9379 1.65178 17.3783C1.02039 17.0498 0.835591 17.1371 0.619994 17.8198C0.435197 18.4101 0.270934 19.0056 0.10667 19.601C-0.11406 20.4018 -0.0319285 20.5917 0.732926 20.9665C1.70824 21.4387 2.75029 21.68 3.81288 21.8494C4.64446 21.9829 4.67013 22.0188 4.68039 22.8812C4.68553 23.2713 4.68553 23.6666 4.69066 24.0567C4.69579 24.5495 4.93192 24.8369 5.44012 24.8472C6.01504 24.8575 6.5951 24.8575 7.17002 24.8421C7.64228 24.8318 7.88354 24.5751 7.88354 24.0978C7.88354 23.5639 7.90921 23.0249 7.88867 22.491C7.86301 21.9469 8.09914 21.6697 8.62273 21.526C9.82904 21.1975 10.8557 20.5507 11.6462 19.5856C13.8432 16.9163 13.0065 13.0099 9.89577 11.2903Z" fill="url(#paint0_linear_4692_5917)"/>
<defs>
<linearGradient id="paint0_linear_4692_5917" x1="6.43915" y1="0" x2="6.43915" y2="24.8544" gradientUnits="userSpaceOnUse">
<stop stop-color="#FF723A"/>
<stop offset="1" stop-color="#B52F02"/>
</linearGradient>
</defs>
</svg>
