<svg width="18" height="18" viewBox="0 0 18 18" fill="none" xmlns="http://www.w3.org/2000/svg">
<path fill-rule="evenodd" clip-rule="evenodd" d="M17.25 2.25C17.6642 2.25 18 2.58579 18 3V7.5C18 7.91421 17.6642 8.25 17.25 8.25H12.75C12.3358 8.25 12 7.91421 12 7.5C12 7.08579 12.3358 6.75 12.75 6.75H16.5V3C16.5 2.58579 16.8358 2.25 17.25 2.25Z" fill="#E5DFD9"/>
<path fill-rule="evenodd" clip-rule="evenodd" d="M9.84564 3.06094C8.55762 2.87824 7.24511 3.11912 6.1059 3.74727C4.96669 4.37542 4.0625 5.35681 3.52957 6.54355C2.99665 7.7303 2.86387 9.0581 3.15124 10.3269C3.43861 11.5957 4.13057 12.7367 5.12283 13.578C6.1151 14.4193 7.35392 14.9153 8.65261 14.9912C9.9513 15.0672 11.2395 14.719 12.3231 13.9992C13.4067 13.2793 14.227 12.2268 14.6603 11.0002C14.7983 10.6096 15.2268 10.4049 15.6173 10.5428C16.0079 10.6808 16.2126 11.1093 16.0747 11.4998C15.533 13.0331 14.5076 14.3488 13.1531 15.2486C11.7986 16.1484 10.1884 16.5836 8.56501 16.4887C6.94164 16.3937 5.39312 15.7737 4.15279 14.7221C2.91245 13.6705 2.04751 12.2442 1.6883 10.6582C1.32908 9.07226 1.49506 7.4125 2.16121 5.92907C2.82736 4.44564 3.95761 3.2189 5.38162 2.43371C6.80563 1.64853 8.44627 1.34743 10.0563 1.5758C11.6625 1.80363 13.1514 2.54607 14.2998 3.69161L17.7642 6.954C18.0657 7.23797 18.08 7.71263 17.796 8.01418C17.512 8.31574 17.0374 8.32999 16.7358 8.04602L13.2633 4.77602C13.2578 4.77082 13.2524 4.76554 13.247 4.76017C12.3274 3.84 11.1337 3.24363 9.84564 3.06094Z" fill="#E5DFD9"/>
</svg>
