<svg width="18" height="18" viewBox="0 0 18 18" fill="none" xmlns="http://www.w3.org/2000/svg">
<path d="M3.64582 12.6502V5.13333C3.64582 4.48284 3.76147 3.1963 4.8023 2.67591C5.84314 2.15551 8.1272 1.88086 9.06684 1.88086C10.127 1.88086 12.4496 2.15551 13.2591 2.67591C14.0686 3.1963 14.3674 4.48284 14.4156 5.13333C14.4156 5.13333 14.271 12.9393 14.1265 13.662C13.9819 14.3848 13.0567 15.5991 11.9581 15.8303C10.8594 16.0616 9.47643 16.1195 8.92228 16.1195C8.51269 16.1195 7.31766 16.0472 5.81423 15.7581C4.3108 15.469 3.74219 13.5657 3.64582 12.6502Z" stroke="#E5DFD9" stroke-width="1.125"/>
<path d="M5.73717 10.0385C5.90582 9.77347 6.38769 9.40245 6.96593 10.0385M11.077 10.0382C11.2457 9.77319 11.7275 9.40216 12.3058 10.0382" stroke="#E5DFD9" stroke-width="0.75" stroke-linecap="round"/>
<path d="M15.6375 6.94019C15.6303 6.88253 15.6148 6.81978 15.5926 6.75344C15.387 6.13948 14.566 6.36571 14.4956 7.00933C14.2389 9.35711 14.0483 12.236 14.5533 12.1441C15.1894 12.0285 15.3966 11.4696 15.4207 11.2045C15.517 9.97583 15.6953 7.40277 15.6375 6.94019Z" fill="#E5DFD9"/>
<path d="M2.36222 6.94019C2.36943 6.88253 2.38495 6.81978 2.40716 6.75344C2.6127 6.13948 3.43371 6.36571 3.5041 7.00933C3.76084 9.35711 3.95144 12.236 3.44642 12.1441C2.81036 12.0285 2.60315 11.4696 2.57906 11.2045C2.48269 9.97583 2.3044 7.40277 2.36222 6.94019Z" fill="#E5DFD9"/>
</svg>
