<svg width="18" height="18" viewBox="0 0 18 18" fill="none" xmlns="http://www.w3.org/2000/svg">
<path fill-rule="evenodd" clip-rule="evenodd" d="M3 3.75C3 3.75067 2.99999 3.75391 3.00229 3.76147C3.00484 3.76983 3.01112 3.78634 3.02631 3.81107C3.05814 3.86293 3.12306 3.9409 3.24468 4.03674C3.49231 4.2319 3.89712 4.44045 4.4642 4.62948C5.59052 5.00492 7.19422 5.25 9 5.25C10.8058 5.25 12.4095 5.00492 13.5358 4.62948C14.1029 4.44045 14.5077 4.2319 14.7553 4.03674C14.8769 3.9409 14.9419 3.86293 14.9737 3.81107C14.9889 3.78634 14.9952 3.76983 14.9977 3.76147C15 3.75391 15 3.75072 15 3.75005C15 3.7495 15.0001 3.74629 14.9977 3.73853C14.9952 3.73017 14.9889 3.71366 14.9737 3.68893C14.9419 3.63707 14.8769 3.5591 14.7553 3.46326C14.5077 3.2681 14.1029 3.05955 13.5358 2.87052C12.4095 2.49508 10.8058 2.25 9 2.25C7.19422 2.25 5.59052 2.49508 4.4642 2.87052C3.89712 3.05955 3.49231 3.2681 3.24468 3.46326C3.12306 3.5591 3.05814 3.63707 3.02631 3.68893C3.01112 3.71366 3.00484 3.73017 3.00229 3.73853C2.99999 3.74609 3 3.74933 3 3.75ZM3.98986 1.4475C5.30656 1.0086 7.07786 0.75 9 0.75C10.9221 0.75 12.6934 1.0086 14.0101 1.4475C14.6646 1.66564 15.2483 1.94192 15.6838 2.28514C16.1108 2.62169 16.5 3.11104 16.5 3.75C16.5 4.38896 16.1108 4.87831 15.6838 5.21486C15.2483 5.55808 14.6646 5.83436 14.0101 6.0525C12.6934 6.4914 10.9221 6.75 9 6.75C7.07786 6.75 5.30656 6.4914 3.98986 6.0525C3.33543 5.83436 2.75172 5.55808 2.31622 5.21486C1.88917 4.87831 1.5 4.38896 1.5 3.75C1.5 3.11104 1.88917 2.62169 2.31622 2.28514C2.75172 1.94192 3.33543 1.66564 3.98986 1.4475Z" fill="#E5DFD9"/>
<path fill-rule="evenodd" clip-rule="evenodd" d="M2.25 8.25C2.66421 8.25 3 8.58579 3 9C3 9.00142 3.00006 9.00527 3.00255 9.01351C3.00521 9.02232 3.01158 9.03907 3.02668 9.06385C3.05829 9.11571 3.12261 9.19347 3.24314 9.28898C3.48869 9.48355 3.89091 9.69173 4.45625 9.88047C5.57918 10.2554 7.18257 10.5 9 10.5C10.8174 10.5 12.4208 10.2554 13.5438 9.88047C14.1091 9.69173 14.5113 9.48355 14.7569 9.28898C14.8774 9.19347 14.9417 9.11571 14.9733 9.06385C14.9884 9.03907 14.9948 9.02232 14.9974 9.01351C14.9999 9.00527 15 9.00142 15 9C15 8.58579 15.3358 8.25 15.75 8.25C16.1642 8.25 16.5 8.58579 16.5 9C16.5 9.63704 16.1151 10.1265 15.6885 10.4646C15.2543 10.8086 14.6722 11.0851 14.0187 11.3033C12.7042 11.7421 10.9326 12 9 12C7.06743 12 5.29582 11.7421 3.98125 11.3033C3.32784 11.0851 2.74568 10.8086 2.31155 10.4646C1.8849 10.1265 1.5 9.63704 1.5 9C1.5 8.58579 1.83579 8.25 2.25 8.25Z" fill="#E5DFD9"/>
<path fill-rule="evenodd" clip-rule="evenodd" d="M2.25 3C2.66421 3 3 3.33579 3 3.75V14.25C3 14.2514 3.00006 14.2553 3.00255 14.2635C3.00521 14.2723 3.01158 14.2891 3.02668 14.3138C3.05829 14.3657 3.12261 14.4435 3.24314 14.539C3.48869 14.7336 3.89091 14.9417 4.45625 15.1305C5.57918 15.5054 7.18257 15.75 9 15.75C10.8174 15.75 12.4208 15.5054 13.5438 15.1305C14.1091 14.9417 14.5113 14.7336 14.7569 14.539C14.8774 14.4435 14.9417 14.3657 14.9733 14.3138C14.9884 14.2891 14.9948 14.2723 14.9974 14.2635C14.9999 14.2553 15 14.2514 15 14.25V3.75005C15 3.33583 15.3358 3 15.75 3C16.1642 3 16.5 3.33579 16.5 3.75V14.25C16.5 14.887 16.1151 15.3765 15.6885 15.7146C15.2543 16.0586 14.6722 16.3351 14.0187 16.5533C12.7042 16.9921 10.9326 17.25 9 17.25C7.06743 17.25 5.29582 16.9921 3.98125 16.5533C3.32784 16.3351 2.74568 16.0586 2.31155 15.7146C1.8849 15.3765 1.5 14.887 1.5 14.25V3.75C1.5 3.33579 1.83579 3 2.25 3Z" fill="#E5DFD9"/>
</svg>
