<svg width="142" height="67" viewBox="0 0 142 67" fill="none" xmlns="http://www.w3.org/2000/svg">
<g filter="url(#filter0_d_4692_6667)">
<path d="M79.7476 22.1646C95.1215 1.77871 108.472 -1.67149 118.304 0.612793C123.117 1.73109 126.885 4.18673 129.43 6.33154C130.707 7.40725 131.69 8.41634 132.358 9.16162C132.692 9.53439 132.948 9.84271 133.125 10.062C133.213 10.1716 133.281 10.2593 133.329 10.3218C133.352 10.353 133.372 10.3787 133.385 10.397C133.392 10.4059 133.398 10.4138 133.402 10.4194C133.404 10.422 133.405 10.4244 133.407 10.4263C133.407 10.4272 133.408 10.4287 133.409 10.4292C133.408 10.4312 133.367 10.4627 132.101 11.3862L133.411 10.4312C133.938 11.1542 133.779 12.1683 133.056 12.6958C132.334 13.2228 131.321 13.0642 130.793 12.3423V12.3433C130.793 12.3421 130.791 12.3394 130.788 12.3354C130.781 12.3268 130.77 12.3116 130.753 12.2905C130.721 12.2479 130.668 12.18 130.597 12.0913C130.455 11.9138 130.236 11.6505 129.944 11.3247C129.359 10.6718 128.483 9.77235 127.341 8.81006C125.049 6.87868 121.734 4.73737 117.571 3.77002C109.45 1.88333 97.2721 4.30984 82.3354 24.1157C74.0413 35.1138 65.2723 41.5936 56.73 45.063C48.1903 48.5312 39.9718 48.9524 32.8335 47.981C25.7058 47.0109 19.6455 44.6516 15.3745 42.5435C13.236 41.4879 11.5366 40.4908 10.3667 39.7534C9.78172 39.3847 9.32794 39.0805 9.01709 38.8657C8.86175 38.7584 8.74152 38.6734 8.65869 38.6138C8.61749 38.5841 8.5857 38.5601 8.56299 38.5435C8.55175 38.5352 8.54228 38.5288 8.53564 38.5239C8.53239 38.5215 8.52899 38.5196 8.52686 38.5181L8.5249 38.5161L9.49268 37.2163L8.52295 38.5142C7.80591 37.9785 7.65821 36.9627 8.19385 36.2456C8.72922 35.529 9.74446 35.382 10.4614 35.9165C10.4619 35.9168 10.4631 35.9176 10.4644 35.9185C10.4672 35.9206 10.4727 35.9248 10.48 35.9302C10.495 35.9412 10.5193 35.9592 10.5522 35.9829C10.6189 36.0309 10.7222 36.1036 10.8599 36.1987C11.1358 36.3893 11.5513 36.6684 12.0952 37.0112C13.184 37.6974 14.7849 38.638 16.8091 39.6372C20.8637 41.6386 26.5828 43.8589 33.27 44.769C39.9471 45.6777 47.581 45.2803 55.5103 42.0601C63.4367 38.8408 71.7552 32.7624 79.7476 22.1646Z" fill="url(#paint0_linear_4692_6667)" shape-rendering="crispEdges"/>
</g>
<defs>
<filter id="filter0_d_4692_6667" x="-0.000126839" y="0" width="141.594" height="66.4932" filterUnits="userSpaceOnUse" color-interpolation-filters="sRGB">
<feFlood flood-opacity="0" result="BackgroundImageFix"/>
<feColorMatrix in="SourceAlpha" type="matrix" values="0 0 0 0 0 0 0 0 0 0 0 0 0 0 0 0 0 0 127 0" result="hardAlpha"/>
<feOffset dy="10.1869"/>
<feGaussianBlur stdDeviation="3.93585"/>
<feComposite in2="hardAlpha" operator="out"/>
<feColorMatrix type="matrix" values="0 0 0 0 0 0 0 0 0 0 0 0 0 0 0 0 0 0 0.2 0"/>
<feBlend mode="normal" in2="BackgroundImageFix" result="effect1_dropShadow_4692_6667"/>
<feBlend mode="normal" in="SourceGraphic" in2="effect1_dropShadow_4692_6667" result="shape"/>
</filter>
<linearGradient id="paint0_linear_4692_6667" x1="120.311" y1="-83.7828" x2="11.0434" y2="-86.7444" gradientUnits="userSpaceOnUse">
<stop stop-color="#FF5800"/>
<stop offset="1" stop-color="#702003" stop-opacity="0"/>
</linearGradient>
</defs>
</svg>
