<svg width="699" height="213" viewBox="0 0 699 213" fill="none" xmlns="http://www.w3.org/2000/svg">
<g filter="url(#filter0_d_4692_5887)">
<path d="M399.523 70.0488C479.434 4.88193 547.309 -5.02664 595.587 1.87207C619.627 5.30748 638.616 12.8831 651.622 19.623C658.126 22.9937 663.144 26.1599 666.561 28.5049C668.271 29.6777 669.581 30.6468 670.478 31.334C670.927 31.6774 671.272 31.951 671.513 32.1445C671.633 32.2413 671.727 32.3183 671.795 32.374C671.829 32.4019 671.856 32.4243 671.877 32.4414C671.887 32.4498 671.895 32.4571 671.902 32.4629C671.906 32.4658 671.91 32.4692 671.912 32.4707C671.915 32.4737 671.897 32.5016 668.946 36.0029L671.919 32.4766C674.109 34.3231 674.388 37.5964 672.542 39.7871C670.696 41.9766 667.426 42.2561 665.235 40.4131L665.233 40.4121C665.228 40.4073 665.216 40.397 665.197 40.3818C665.16 40.3511 665.097 40.299 665.008 40.2275C664.83 40.0846 664.55 39.8629 664.169 39.5713C663.407 38.9878 662.242 38.1257 660.69 37.0605C657.585 34.9297 652.933 31.9884 646.848 28.835C634.673 22.5262 616.8 15.3846 594.119 12.1436C548.953 5.68949 483.942 14.5939 406.081 78.0898C319.967 148.316 225.39 159.713 152.582 153.619C116.184 150.573 85.1609 143.155 63.2274 136.496C52.2565 133.166 43.5464 130.021 37.5605 127.7C34.5675 126.54 32.2541 125.585 30.6786 124.916C29.8913 124.581 29.2877 124.318 28.8759 124.136C28.6701 124.045 28.5115 123.973 28.4023 123.924C28.3479 123.899 28.3054 123.88 28.2753 123.866C28.2605 123.859 28.248 123.855 28.2392 123.851C28.235 123.849 28.2307 123.846 28.2284 123.845C28.2248 123.843 28.2217 123.842 30.3876 119.128L28.2216 123.842C25.6182 122.646 24.4776 119.565 25.6737 116.962C26.8699 114.359 29.9487 113.218 32.5517 114.413C32.5524 114.413 32.5532 114.413 32.5546 114.414C32.5581 114.416 32.5649 114.419 32.5741 114.423C32.5933 114.432 32.6255 114.446 32.6689 114.466C32.7559 114.505 32.8915 114.567 33.0741 114.647C33.4403 114.81 33.9971 115.052 34.7362 115.366C36.2151 115.995 38.4259 116.907 41.3105 118.025C47.0811 120.262 55.5455 123.32 66.2421 126.567C87.6445 133.065 117.935 140.307 153.447 143.279C224.459 149.223 316.09 138.089 399.523 70.0488Z" fill="url(#paint0_linear_4692_5887)" shape-rendering="crispEdges"/>
</g>
<defs>
<filter id="filter0_d_4692_5887" x="-1.90735e-06" y="0" width="698.962" height="212.85" filterUnits="userSpaceOnUse" color-interpolation-filters="sRGB">
<feFlood flood-opacity="0" result="BackgroundImageFix"/>
<feColorMatrix in="SourceAlpha" type="matrix" values="0 0 0 0 0 0 0 0 0 0 0 0 0 0 0 0 0 0 127 0" result="hardAlpha"/>
<feOffset dy="32.6101"/>
<feGaussianBlur stdDeviation="12.5993"/>
<feComposite in2="hardAlpha" operator="out"/>
<feColorMatrix type="matrix" values="0 0 0 0 0 0 0 0 0 0 0 0 0 0 0 0 0 0 0.2 0"/>
<feBlend mode="normal" in2="BackgroundImageFix" result="effect1_dropShadow_4692_5887"/>
<feBlend mode="normal" in="SourceGraphic" in2="effect1_dropShadow_4692_5887" result="shape"/>
</filter>
<linearGradient id="paint0_linear_4692_5887" x1="604.65" y1="-268.192" x2="42.2016" y2="-292.735" gradientUnits="userSpaceOnUse">
<stop stop-color="#FF5800"/>
<stop offset="1" stop-color="#702003" stop-opacity="0"/>
</linearGradient>
</defs>
</svg>
