<?xml version="1.0" standalone="no"?>
<!DOCTYPE svg PUBLIC "-//W3C//DTD SVG 1.1//EN" "http://www.w3.org/Graphics/SVG/1.1/DTD/svg11.dtd" >
<svg xmlns="http://www.w3.org/2000/svg" xmlns:xlink="http://www.w3.org/1999/xlink" version="1.1">
<metadata>
Created by FontForge 20201107 at Fri Nov 10 15:46:21 2023
 By 
</metadata>
<defs>
<font id="?" horiz-adv-x="1016" >
  <font-face 
    font-family="?"
    font-weight="700"
    font-stretch="normal"
    units-per-em="1200"
    panose-1="0 0 0 0 0 0 0 0 0 0"
    ascent="960"
    descent="-240"
    x-height="840"
    cap-height="840"
    bbox="-126 -470 1615 1104"
    underline-thickness="60"
    underline-position="-150"
    unicode-range="U+0020-25CA"
  />
<missing-glyph horiz-adv-x="525" 
d="M431 -150h-333v1050h333v-1050zM175 184v-119h175v119h-175zM315 100h-105v49h105v-49zM245 366v-59h35v24h35v-49h-105v84h-35v-119h175v119h-105zM315 494v-70h-140v-35h175v105h-35zM175 557v-35h70v-39h-70v-34h105v73h70v35h-175zM245 621h-35v38h35v-38zM175 694
v-109h175v36h-70v73h-105zM176 830v-35h69v-39h-70v-34h175v34h-70v39h70v35h-174zM175 41v-35h74l-74 -49v-35h175v35h-107l73 49h34v35h-175z" />
    <glyph glyph-name=".notdef" horiz-adv-x="525" 
d="M431 -150h-333v1050h333v-1050zM175 184v-119h175v119h-175zM315 100h-105v49h105v-49zM245 366v-59h35v24h35v-49h-105v84h-35v-119h175v119h-105zM315 494v-70h-140v-35h175v105h-35zM175 557v-35h70v-39h-70v-34h105v73h70v35h-175zM245 621h-35v38h35v-38zM175 694
v-109h175v36h-70v73h-105zM176 830v-35h69v-39h-70v-34h175v34h-70v39h70v35h-174zM175 41v-35h74l-74 -49v-35h175v35h-107l73 49h34v35h-175z" />
    <glyph glyph-name=".null" horiz-adv-x="0" 
 />
    <glyph glyph-name="nonmarkingreturn" horiz-adv-x="400" 
 />
    <glyph glyph-name="space" unicode=" " horiz-adv-x="260" 
 />
    <glyph glyph-name="space" unicode="&#xa0;" horiz-adv-x="260" 
 />
    <glyph glyph-name="exclam" unicode="!" horiz-adv-x="346" 
d="M30 840h286l-54 -522h-178zM104.5 2.5q-31.5 18.5 -50.5 50t-19 67.5t19 67.5t50.5 50t68.5 18.5t68.5 -18.5t50.5 -50t19 -67.5t-19 -67.5t-50.5 -50t-68.5 -18.5t-68.5 18.5z" />
    <glyph glyph-name="quotedbl" unicode="&#x22;" horiz-adv-x="625" 
d="M335 840h240l-19 -374h-202zM50 840h240l-19 -374h-202z" />
    <glyph glyph-name="numbersign" unicode="#" horiz-adv-x="770" 
d="M427 167h-84v-167h-216v167h-97v201h97v118h-97v187h97v167h216v-167h84v167h216v-167h97v-187h-97v-118h97v-201h-97v-167h-216v167zM427 368v118h-84v-118h84z" />
    <glyph glyph-name="dollar" unicode="$" horiz-adv-x="787" 
d="M348 42q-156 7 -244 70t-89 190h244q1 -36 25 -52.5t64 -20.5v116q-96 16 -158.5 33.5t-113 63t-50.5 126.5q0 102 86.5 162.5t235.5 66.5v66h86v-67q312 -19 307 -261h-238q-1 36 -18.5 54t-50.5 23v-117q97 -10 164 -26.5t119 -63t52 -132.5q0 -107 -88 -165t-247 -66
v-60h-86v60zM348 509v105q-70 -9 -70 -50q0 -37 70 -55zM513 277q0 17 -17.5 29t-61.5 22v-99q79 6 79 48z" />
    <glyph glyph-name="percent" unicode="%" horiz-adv-x="1166" 
d="M254 49l542 825l116 -78l-542 -825zM102 468q-57 63 -57 161q0 97 57 160t171 63t171 -63t57 -160q0 -98 -57 -161t-171 -63t-171 63zM313.5 591q13.5 16 13.5 38t-13.5 37.5t-40.5 15.5t-40.5 -15.5t-13.5 -37.5t13.5 -38t40.5 -16t40.5 16zM721 51q-57 63 -57 161
q0 97 57 160t171 63t171 -63t57 -160q0 -98 -57 -161t-171 -63t-171 63zM932.5 174q13.5 16 13.5 38t-13.5 37.5t-40.5 15.5t-40.5 -15.5t-13.5 -37.5t13.5 -38t40.5 -16t40.5 16z" />
    <glyph glyph-name="ampersand" unicode="&#x26;" horiz-adv-x="1026" 
d="M229 6q-98 34 -151 97t-53 148q0 76 43 136.5t134 95.5q-64 69 -64 147q0 61 41 114t122 85.5t195 32.5q175 0 275.5 -78t99.5 -243h-241q1 66 -35.5 91.5t-100.5 25.5q-50 0 -76 -14.5t-26 -40.5q0 -15 11 -30.5t38 -38t83 -62.5l203 -143q26 54 24 117h243
q-3 -150 -68 -257l75 -53l-113 -159l-102 73q-131 -78 -326 -78q-133 0 -231 34zM355 213q53 -27 133 -27q48 0 92 13l-236 170q-42 -28 -42 -74q0 -55 53 -82z" />
    <glyph glyph-name="quotesingle" unicode="'" horiz-adv-x="340" 
d="M50 840h240l-19 -374h-202z" />
    <glyph glyph-name="parenleft" unicode="(" horiz-adv-x="560" 
d="M192.5 -52.5q-111.5 92.5 -142 213t-30.5 259.5q0 138 30.5 258t142 212.5t332.5 92.5v-227q-104 0 -158.5 -42t-72.5 -113.5t-18 -180.5q0 -110 18 -182t72.5 -114t158.5 -42v-227q-221 0 -332.5 92.5z" />
    <glyph glyph-name="parenright" unicode=")" horiz-adv-x="560" 
d="M193.5 124q54.5 42 72.5 114t18 182q0 109 -18 180.5t-72.5 113.5t-158.5 42v227q221 0 332.5 -92.5t142 -212.5t30.5 -258q0 -139 -30.5 -259.5t-142 -213t-332.5 -92.5v227q104 0 158.5 42z" />
    <glyph glyph-name="asterisk" unicode="*" horiz-adv-x="658" 
d="M50 494l145 69l-145 69l80 139l131 -90l-12 159h160l-12 -159l131 90l80 -139l-145 -69l145 -69l-80 -139l-131 91l12 -160h-160l12 160l-131 -91z" />
    <glyph glyph-name="plus" unicode="+" horiz-adv-x="808" 
d="M288 311h-238v219h238v239h231v-239h239v-219h-239v-238h-231v238z" />
    <glyph glyph-name="comma" unicode="," horiz-adv-x="386" 
d="M139 0h-109v231h326v-51q0 -157 -18.5 -266t-41.5 -152h-170q15 105 13 238z" />
    <glyph glyph-name="hyphen" unicode="-" horiz-adv-x="660" 
d="M40 531h580v-231h-580v231z" />
    <glyph glyph-name="period" unicode="." horiz-adv-x="346" 
d="M104.5 2.5q-31.5 18.5 -50.5 50t-19 67.5t19 67.5t50.5 50t68.5 18.5t68.5 -18.5t50.5 -50t19 -67.5t-19 -67.5t-50.5 -50t-68.5 -18.5t-68.5 18.5z" />
    <glyph glyph-name="slash" unicode="/" horiz-adv-x="724" 
d="M398 840h316l-388 -840h-316z" />
    <glyph glyph-name="zero" unicode="0" horiz-adv-x="894" 
d="M131 92q-111 114 -111 328t111 328t316 114t316 -114t111 -328t-111 -328t-316 -114t-316 114zM562 264.5q39 53.5 39 155.5t-39 155.5t-115 53.5t-115 -53.5t-39 -155.5t39 -155.5t115 -53.5t115 53.5z" />
    <glyph glyph-name="one" unicode="1" horiz-adv-x="765" 
d="M40 210h230v365q-41 -34 -93.5 -45.5t-116.5 -11.5v232q115 0 210 90h277v-630h178v-210h-685v210z" />
    <glyph glyph-name="two" unicode="2" horiz-adv-x="816" 
d="M75 295.5q50 66.5 118.5 102t169.5 71.5q57 21 87.5 34.5t50.5 31t20 40.5q0 67 -98 67q-122 0 -120 -91h-270q0 153 95.5 232t282.5 79q182 0 281 -69.5t99 -203.5q0 -83 -37 -135t-90 -79.5t-137 -57.5q-76 -28 -117.5 -50t-60.5 -57h439v-210h-763v125q0 104 50 170.5
z" />
    <glyph glyph-name="three" unicode="3" horiz-adv-x="847" 
d="M118.5 50q-94.5 72 -93.5 231h248q3 -48 36.5 -66.5t97.5 -18.5q68 0 104.5 18t36.5 52q0 29 -30 55.5t-115 26.5h-46v156h46q84 0 113 23t29 50q0 34 -34 50.5t-92 16.5q-62 0 -95.5 -20.5t-33.5 -67.5h-246q-1 156 94.5 231t282.5 75q183 0 278.5 -63.5t95.5 -173.5
q0 -66 -32 -108.5t-88 -69.5v-14q66 -20 106.5 -71.5t40.5 -129.5q0 -79 -49 -136.5t-141.5 -87.5t-218.5 -30q-200 0 -294.5 72z" />
    <glyph glyph-name="four" unicode="4" horiz-adv-x="915" 
d="M35 352l398 488h325v-488h127v-210h-127v-142h-277v142h-446v210zM481 352v253l-206 -253h206z" />
    <glyph glyph-name="five" unicode="5" horiz-adv-x="825" 
d="M120 52q-93 74 -90 223h246q7 -42 40.5 -61.5t85.5 -19.5q70 0 104.5 30t34.5 75q0 46 -32.5 73.5t-97.5 27.5q-51 0 -80 -15.5t-49 -38.5h-244l95 494h596v-209h-391l-24 -114q24 17 68 29t110 12q85 0 155 -30.5t111.5 -92.5t41.5 -151q0 -144 -101.5 -225t-294.5 -81
q-191 0 -284 74z" />
    <glyph glyph-name="six" unicode="6" horiz-adv-x="822" 
d="M109.5 99q-89.5 121 -89.5 325q0 230 113 334t296 104q169 0 264.5 -70.5t91.5 -209.5h-220q-8 39 -45.5 56.5t-90.5 17.5q-66 0 -109 -33t-40 -119q63 34 186 34q149 0 242.5 -66.5t93.5 -201.5q0 -89 -43 -154.5t-129 -101.5t-211 -36q-220 0 -309.5 121zM517 208.5
q36 26.5 36 68.5q0 43 -35.5 68t-101.5 25t-100 -24t-34 -69q0 -42 34.5 -68.5t99.5 -26.5t101 26.5z" />
    <glyph glyph-name="seven" unicode="7" horiz-adv-x="779" 
d="M469 617h-444v223h734v-223l-406 -617h-292z" />
    <glyph glyph-name="eight" unicode="8" horiz-adv-x="858" 
d="M120 53q-95 75 -95 191q0 144 144 218v16q-38 23 -60.5 65.5t-22.5 90.5q0 67 37.5 118t114.5 80.5t191 29.5t191.5 -29.5t115.5 -80.5t38 -118q0 -48 -23.5 -90t-61.5 -66v-16q144 -74 144 -218q0 -116 -95 -191t-309 -75t-309 75zM532.5 211.5q31.5 25.5 31.5 67.5
q0 41 -32 67t-103 26t-103 -26t-32 -67q0 -42 31.5 -67.5t103.5 -25.5t103.5 25.5zM505 548.5q25 18.5 25 52.5q0 35 -26 54t-75 19t-75 -19t-26 -54q0 -34 25 -52.5t76 -18.5t76 18.5z" />
    <glyph glyph-name="nine" unicode="9" horiz-adv-x="822" 
d="M712.5 741q89.5 -121 89.5 -325q0 -230 -113 -334t-296 -104q-169 0 -264.5 70.5t-91.5 209.5h220q8 -39 45.5 -56.5t90.5 -17.5q66 0 109 33t40 119q-63 -34 -186 -34q-149 0 -242.5 66.5t-93.5 201.5q0 89 43 154.5t129 101.5t211 36q220 0 309.5 -121zM305 631.5
q-36 -26.5 -36 -68.5q0 -43 35.5 -68t101.5 -25t100 24t34 69q0 42 -34.5 68.5t-99.5 26.5t-101 -26.5z" />
    <glyph glyph-name="colon" unicode=":" horiz-adv-x="346" 
d="M104.5 84.5q-31.5 18.5 -50.5 50t-19 67.5t19 67.5t50.5 50t68.5 18.5t68.5 -18.5t50.5 -50t19 -67.5t-19 -67.5t-50.5 -50t-68.5 -18.5t-68.5 18.5zM104.5 510.5q-31.5 18.5 -50.5 50t-19 67.5t19 67.5t50.5 50t68.5 18.5t68.5 -18.5t50.5 -50t19 -67.5t-19 -67.5
t-50.5 -50t-68.5 -18.5t-68.5 18.5z" />
    <glyph glyph-name="semicolon" unicode=";" horiz-adv-x="396" 
d="M144 90h-109v231h326v-51q0 -157 -18.5 -266t-41.5 -152h-170q15 105 13 238zM134.5 510.5q-31.5 18.5 -50.5 50t-19 67.5t19 67.5t50.5 50t68.5 18.5t68.5 -18.5t50.5 -50t19 -67.5t-19 -67.5t-50.5 -50t-68.5 -18.5t-68.5 18.5z" />
    <glyph glyph-name="less" unicode="&#x3c;" horiz-adv-x="708" 
d="M50 260v316l608 196v-237l-402 -104v-26l402 -104v-233z" />
    <glyph glyph-name="equal" unicode="=" horiz-adv-x="728" 
d="M50 678h628v-231h-628v231zM50 394h628v-231h-628v231z" />
    <glyph glyph-name="greater" unicode="&#x3e;" horiz-adv-x="728" 
d="M70 301l402 104v26l-402 104v237l608 -196v-316l-608 -192v233z" />
    <glyph glyph-name="question" unicode="?" horiz-adv-x="800" 
d="M269 345q0 51 21.5 82t51.5 47t77 33q48 17 69.5 31t21.5 41q0 28 -31 45.5t-80 17.5q-55 0 -94.5 -23.5t-39.5 -85.5h-250q-7 165 92.5 247t289.5 82q181 0 284.5 -62t103.5 -189q0 -59 -20.5 -95.5t-49 -56t-75.5 -40.5q-35 -15 -55 -27.5t-34 -32t-14 -49.5h-266
q-2 12 -2 35zM334.5 2.5q-31.5 18.5 -50.5 50t-19 67.5t19 67.5t50.5 50t68.5 18.5t68.5 -18.5t50.5 -50t19 -67.5t-19 -67.5t-50.5 -50t-68.5 -18.5t-68.5 18.5z" />
    <glyph glyph-name="at" unicode="@" horiz-adv-x="974" 
d="M817 86q-59 -53 -144 -83.5t-186 -30.5q-138 0 -244 57t-164.5 159t-58.5 232t58.5 232t164.5 159t244 57q137 0 243.5 -57.5t165 -157t58.5 -221.5q0 -74 -39 -110t-113 -36q-124 0 -116 108l23 248h-85l-19 -44h-13q-23 26 -55 42t-89 16q-58 0 -107.5 -28.5t-79 -83
t-29.5 -127.5q0 -74 29.5 -128.5t80 -83.5t112.5 -29q53 0 92.5 21t61.5 58h13q19 -36 58.5 -57.5t94.5 -21.5q40 0 75 9.5t52 21.5l2 -2q-27 -66 -86 -119zM538 512q29 -36 29 -97q0 -60 -29 -95.5t-77 -35.5q-49 0 -79.5 35t-30.5 96t30.5 97t79.5 36q48 0 77 -36z" />
    <glyph glyph-name="A" unicode="A" 
d="M314 840h388l309 -840h-286l-37 111h-360l-37 -111h-286zM620 316l-88 264h-48l-88 -264h224z" />
    <glyph glyph-name="B" unicode="B" horiz-adv-x="924" 
d="M35 840h520q175 0 248.5 -63t73.5 -160q0 -65 -28 -102.5t-80 -65.5v-16q64 -32 97 -79.5t33 -116.5q0 -109 -85.5 -173t-272.5 -64h-506v840zM532 212q44 0 65.5 21.5t21.5 49.5t-21 48t-66 20h-220v-139h220zM526 502q45 0 65.5 18t20.5 44q0 27 -20.5 45.5t-65.5 18.5
h-214v-126h214z" />
    <glyph glyph-name="C" unicode="C" horiz-adv-x="955" 
d="M245 28q-107 56 -166 157.5t-59 234.5t59 234.5t166 157.5t247 56q111 0 206 -36t159.5 -119.5t77.5 -218.5h-264q-17 68 -63 101.5t-116 33.5q-55 0 -100 -26t-71 -73.5t-26 -109.5t26 -109.5t71 -73.5t100 -26q70 0 116 34t63 103h264q-19 -199 -143 -287.5t-300 -88.5
q-140 0 -247 56z" />
    <glyph glyph-name="D" unicode="D" horiz-adv-x="944" 
d="M35 840h422q243 0 352.5 -112.5t109.5 -307.5t-109.5 -307.5t-352.5 -112.5h-422v840zM457 232q85 0 134.5 46t49.5 142q0 97 -49 142.5t-135 45.5h-144v-376h144z" />
    <glyph glyph-name="E" unicode="E" horiz-adv-x="827" 
d="M35 840h757v-222h-480v-107h462v-182h-462v-107h480v-222h-757v840z" />
    <glyph glyph-name="F" unicode="F" horiz-adv-x="825" 
d="M35 840h755v-231h-478v-114h457v-200h-457v-295h-277v840z" />
    <glyph glyph-name="G" unicode="G" horiz-adv-x="979" 
d="M240 28q-102 56 -161 158t-59 234q0 133 59 234.5t168 157.5t253 56q104 0 197.5 -34.5t157.5 -107t80 -180.5h-275q-15 34 -57 58.5t-97 24.5q-63 0 -110.5 -26t-74 -73t-26.5 -110q0 -62 26.5 -110t73.5 -74.5t106 -26.5q58 0 106.5 25t63.5 86h-184v144h452v-464h-148
l-4 140q-42 -73 -121 -120.5t-199 -47.5q-125 0 -227 56z" />
    <glyph glyph-name="H" unicode="H" horiz-adv-x="950" 
d="M638 304h-326v-304h-277v840h277v-304h326v304h277v-840h-277v304z" />
    <glyph glyph-name="I" unicode="I" horiz-adv-x="347" 
d="M35 840h277v-840h-277v840z" />
    <glyph glyph-name="J" unicode="J" horiz-adv-x="830" 
d="M121.5 52q-99.5 80 -96.5 276h276q-1 -121 108 -121t109 145v488h277v-474q0 -145 -46 -232t-132 -124.5t-214 -37.5q-182 0 -281.5 80z" />
    <glyph glyph-name="K" unicode="K" horiz-adv-x="946" 
d="M35 840h276v-333h18l303 333h308l-341 -374l352 -466h-283l-224 299h-18l-115 -123v-176h-276v840z" />
    <glyph glyph-name="L" unicode="L" horiz-adv-x="795" 
d="M35 840h277v-609h448v-231h-725v840z" />
    <glyph glyph-name="M" unicode="M" horiz-adv-x="1062" 
d="M35 840h349l137 -479h20l137 479h349v-840h-264v372h-22l-107 -372h-206l-107 372h-22v-372h-264v840z" />
    <glyph glyph-name="N" unicode="N" horiz-adv-x="962" 
d="M35 840h318l279 -454h25v454h270v-840h-311l-286 454h-25v-454h-270v840z" />
    <glyph glyph-name="O" unicode="O" horiz-adv-x="992" 
d="M245 28q-108 56 -166.5 157.5t-58.5 234.5t58.5 234.5t166.5 157.5t251 56t251 -56t166.5 -157.5t58.5 -234.5t-58.5 -234.5t-166.5 -157.5t-251 -56t-251 56zM597.5 236q45.5 25 72.5 72t27 112t-27 112t-72.5 72t-101.5 25t-101.5 -25t-72.5 -72t-27 -112t27 -112
t72.5 -72t101.5 -25t101.5 25z" />
    <glyph glyph-name="P" unicode="P" horiz-adv-x="902" 
d="M35 840h477q176 0 270.5 -81t94.5 -247t-94.5 -247t-269.5 -81h-201v-184h-277v840zM568.5 439q29.5 25 29.5 73t-29 73t-80 25h-177v-196h176q51 0 80.5 25z" />
    <glyph glyph-name="Q" unicode="Q" horiz-adv-x="992" 
d="M812 -117l-137 125q-91 -36 -179 -36q-143 0 -251 56t-166.5 157.5t-58.5 234.5t58.5 234.5t166.5 157.5t251 56q142 0 250 -55.5t167 -154.5t59 -228q0 -160 -116 -278l110 -112q-62 -81 -154 -157zM597.5 236q45.5 25 72.5 72t27 112t-27 112t-72.5 72t-101.5 25
t-101.5 -25t-72.5 -72t-27 -112t27 -112t72.5 -72t101.5 -25t101.5 25z" />
    <glyph glyph-name="R" unicode="R" horiz-adv-x="928" 
d="M35 840h481q178 0 271 -79t93 -242q0 -81 -32.5 -142t-89.5 -101l150 -276h-272l-114 217h-210v-217h-277v840zM576 448q27 24 27 69t-27 69t-79 24h-185v-186h185q52 0 79 24z" />
    <glyph glyph-name="S" unicode="S" horiz-adv-x="883" 
d="M113.5 45q-103.5 73 -98.5 236h249q2 -45 44 -69t132 -24q74 0 112 19t38 49q0 24 -20.5 41.5t-76.5 25.5l-108 17l-24 4q-104 16 -169 36.5t-111 72.5t-46 147q0 127 102.5 197.5t299.5 70.5t302.5 -69t101.5 -238h-247q-16 91 -163 91q-66 0 -98 -18t-32 -48
q0 -22 17.5 -39t61.5 -24l89 -15l57 -9q108 -16 175.5 -36t115.5 -71.5t48 -146.5q0 -273 -425 -273q-223 0 -326.5 73z" />
    <glyph glyph-name="T" unicode="T" horiz-adv-x="941" 
d="M332 609h-302v231h881v-231h-302v-609h-277v609z" />
    <glyph glyph-name="U" unicode="U" horiz-adv-x="940" 
d="M143 68q-108 96 -108 298v474h279v-467q0 -81 38 -125t118 -44t119 44t39 125v467h277v-472q0 -203 -108 -299.5t-327 -96.5t-327 96z" />
    <glyph glyph-name="V" unicode="V" 
d="M5 840h286l202 -580h30l202 580h286l-309 -840h-388z" />
    <glyph glyph-name="W" unicode="W" horiz-adv-x="1290" 
d="M20 840h281l90 -544h24l120 544h220l120 -544h24l90 544h281l-163 -840h-374l-76 404h-24l-76 -404h-374z" />
    <glyph glyph-name="X" unicode="X" horiz-adv-x="930" 
d="M291 419v14l-284 407h298l147 -225h26l147 225h298l-282 -407v-14l289 -419h-301l-151 236h-26l-151 -236h-301z" />
    <glyph glyph-name="Y" unicode="Y" horiz-adv-x="964" 
d="M343 262l-343 578h291l180 -316h22l180 316h291l-344 -579v-261h-277v262z" />
    <glyph glyph-name="Z" unicode="Z" horiz-adv-x="830" 
d="M20 223l430 365v21h-420v231h780v-223l-436 -365v-21h430v-231h-784v223z" />
    <glyph glyph-name="bracketleft" unicode="[" horiz-adv-x="558" 
d="M35 975h488v-231h-211v-648h211v-231h-488v1110z" />
    <glyph glyph-name="backslash" unicode="\" horiz-adv-x="724" 
d="M398 0l-388 840h316l388 -840h-316z" />
    <glyph glyph-name="bracketright" unicode="]" horiz-adv-x="558" 
d="M35 -135v231h211v648h-211v231h488v-1110h-488z" />
    <glyph glyph-name="asciicircum" unicode="^" horiz-adv-x="784" 
d="M232 874h316l196 -608h-237l-104 402h-26l-104 -402h-233z" />
    <glyph glyph-name="underscore" unicode="_" horiz-adv-x="720" 
d="M50 0h620v-231h-620v231z" />
    <glyph glyph-name="grave" unicode="`" horiz-adv-x="317" 
d="M72 665l-72 175h245l72 -175h-245z" />
    <glyph glyph-name="a" unicode="a" 
d="M314 840h388l309 -840h-286l-37 111h-360l-37 -111h-286zM620 316l-88 264h-48l-88 -264h224z" />
    <glyph glyph-name="b" unicode="b" horiz-adv-x="924" 
d="M35 840h520q175 0 248.5 -63t73.5 -160q0 -65 -28 -102.5t-80 -65.5v-16q64 -32 97 -79.5t33 -116.5q0 -109 -85.5 -173t-272.5 -64h-506v840zM532 212q44 0 65.5 21.5t21.5 49.5t-21 48t-66 20h-220v-139h220zM526 502q45 0 65.5 18t20.5 44q0 27 -20.5 45.5t-65.5 18.5
h-214v-126h214z" />
    <glyph glyph-name="c" unicode="c" horiz-adv-x="955" 
d="M245 28q-107 56 -166 157.5t-59 234.5t59 234.5t166 157.5t247 56q111 0 206 -36t159.5 -119.5t77.5 -218.5h-264q-17 68 -63 101.5t-116 33.5q-55 0 -100 -26t-71 -73.5t-26 -109.5t26 -109.5t71 -73.5t100 -26q70 0 116 34t63 103h264q-19 -199 -143 -287.5t-300 -88.5
q-140 0 -247 56z" />
    <glyph glyph-name="d" unicode="d" horiz-adv-x="944" 
d="M35 840h422q243 0 352.5 -112.5t109.5 -307.5t-109.5 -307.5t-352.5 -112.5h-422v840zM457 232q85 0 134.5 46t49.5 142q0 97 -49 142.5t-135 45.5h-144v-376h144z" />
    <glyph glyph-name="e" unicode="e" horiz-adv-x="827" 
d="M35 840h757v-222h-480v-107h462v-182h-462v-107h480v-222h-757v840z" />
    <glyph glyph-name="f" unicode="f" horiz-adv-x="825" 
d="M35 840h755v-231h-478v-114h457v-200h-457v-295h-277v840z" />
    <glyph glyph-name="g" unicode="g" horiz-adv-x="979" 
d="M240 28q-102 56 -161 158t-59 234q0 133 59 234.5t168 157.5t253 56q104 0 197.5 -34.5t157.5 -107t80 -180.5h-275q-15 34 -57 58.5t-97 24.5q-63 0 -110.5 -26t-74 -73t-26.5 -110q0 -62 26.5 -110t73.5 -74.5t106 -26.5q58 0 106.5 25t63.5 86h-184v144h452v-464h-148
l-4 140q-42 -73 -121 -120.5t-199 -47.5q-125 0 -227 56z" />
    <glyph glyph-name="h" unicode="h" horiz-adv-x="950" 
d="M638 304h-326v-304h-277v840h277v-304h326v304h277v-840h-277v304z" />
    <glyph glyph-name="i" unicode="i" horiz-adv-x="347" 
d="M35 840h277v-840h-277v840z" />
    <glyph glyph-name="j" unicode="j" horiz-adv-x="830" 
d="M121.5 52q-99.5 80 -96.5 276h276q-1 -121 108 -121t109 145v488h277v-474q0 -145 -46 -232t-132 -124.5t-214 -37.5q-182 0 -281.5 80z" />
    <glyph glyph-name="k" unicode="k" horiz-adv-x="946" 
d="M35 840h276v-333h18l303 333h308l-341 -374l352 -466h-283l-224 299h-18l-115 -123v-176h-276v840z" />
    <glyph glyph-name="l" unicode="l" horiz-adv-x="795" 
d="M35 840h277v-609h448v-231h-725v840z" />
    <glyph glyph-name="m" unicode="m" horiz-adv-x="1062" 
d="M35 840h349l137 -479h20l137 479h349v-840h-264v372h-22l-107 -372h-206l-107 372h-22v-372h-264v840z" />
    <glyph glyph-name="n" unicode="n" horiz-adv-x="962" 
d="M35 840h318l279 -454h25v454h270v-840h-311l-286 454h-25v-454h-270v840z" />
    <glyph glyph-name="o" unicode="o" horiz-adv-x="992" 
d="M245 28q-108 56 -166.5 157.5t-58.5 234.5t58.5 234.5t166.5 157.5t251 56t251 -56t166.5 -157.5t58.5 -234.5t-58.5 -234.5t-166.5 -157.5t-251 -56t-251 56zM597.5 236q45.5 25 72.5 72t27 112t-27 112t-72.5 72t-101.5 25t-101.5 -25t-72.5 -72t-27 -112t27 -112
t72.5 -72t101.5 -25t101.5 25z" />
    <glyph glyph-name="p" unicode="p" horiz-adv-x="902" 
d="M35 840h477q176 0 270.5 -81t94.5 -247t-94.5 -247t-269.5 -81h-201v-184h-277v840zM568.5 439q29.5 25 29.5 73t-29 73t-80 25h-177v-196h176q51 0 80.5 25z" />
    <glyph glyph-name="q" unicode="q" horiz-adv-x="992" 
d="M812 -117l-137 125q-91 -36 -179 -36q-143 0 -251 56t-166.5 157.5t-58.5 234.5t58.5 234.5t166.5 157.5t251 56q142 0 250 -55.5t167 -154.5t59 -228q0 -160 -116 -278l110 -112q-62 -81 -154 -157zM597.5 236q45.5 25 72.5 72t27 112t-27 112t-72.5 72t-101.5 25
t-101.5 -25t-72.5 -72t-27 -112t27 -112t72.5 -72t101.5 -25t101.5 25z" />
    <glyph glyph-name="r" unicode="r" horiz-adv-x="928" 
d="M35 840h481q178 0 271 -79t93 -242q0 -81 -32.5 -142t-89.5 -101l150 -276h-272l-114 217h-210v-217h-277v840zM576 448q27 24 27 69t-27 69t-79 24h-185v-186h185q52 0 79 24z" />
    <glyph glyph-name="s" unicode="s" horiz-adv-x="883" 
d="M113.5 45q-103.5 73 -98.5 236h249q2 -45 44 -69t132 -24q74 0 112 19t38 49q0 24 -20.5 41.5t-76.5 25.5l-108 17l-24 4q-104 16 -169 36.5t-111 72.5t-46 147q0 127 102.5 197.5t299.5 70.5t302.5 -69t101.5 -238h-247q-16 91 -163 91q-66 0 -98 -18t-32 -48
q0 -22 17.5 -39t61.5 -24l89 -15l57 -9q108 -16 175.5 -36t115.5 -71.5t48 -146.5q0 -273 -425 -273q-223 0 -326.5 73z" />
    <glyph glyph-name="t" unicode="t" horiz-adv-x="941" 
d="M332 609h-302v231h881v-231h-302v-609h-277v609z" />
    <glyph glyph-name="u" unicode="u" horiz-adv-x="940" 
d="M143 68q-108 96 -108 298v474h279v-467q0 -81 38 -125t118 -44t119 44t39 125v467h277v-472q0 -203 -108 -299.5t-327 -96.5t-327 96z" />
    <glyph glyph-name="v" unicode="v" 
d="M5 840h286l202 -580h30l202 580h286l-309 -840h-388z" />
    <glyph glyph-name="w" unicode="w" horiz-adv-x="1290" 
d="M20 840h281l90 -544h24l120 544h220l120 -544h24l90 544h281l-163 -840h-374l-76 404h-24l-76 -404h-374z" />
    <glyph glyph-name="x" unicode="x" horiz-adv-x="930" 
d="M291 419v14l-284 407h298l147 -225h26l147 225h298l-282 -407v-14l289 -419h-301l-151 236h-26l-151 -236h-301z" />
    <glyph glyph-name="y" unicode="y" horiz-adv-x="964" 
d="M343 262l-343 578h291l180 -316h22l180 316h291l-344 -579v-261h-277v262z" />
    <glyph glyph-name="z" unicode="z" horiz-adv-x="830" 
d="M20 223l430 365v21h-420v231h780v-223l-436 -365v-21h430v-231h-784v223z" />
    <glyph glyph-name="braceleft" unicode="{" horiz-adv-x="707" 
d="M167 13v254l-122 141v24l122 141v254q0 88 45 118t103 30h347v-231h-176q-42 0 -42 -34v-139l-113 -139v-24l113 -139v-139q0 -34 42 -34h176v-231h-347q-148 0 -148 148z" />
    <glyph glyph-name="bar" unicode="|" horiz-adv-x="347" 
d="M35 940h277v-1040h-277v1040z" />
    <glyph glyph-name="braceright" unicode="}" horiz-adv-x="707" 
d="M45 -135v231h176q42 0 42 34v139l113 139v24l-113 139v139q0 34 -42 34h-176v231h347q58 0 103 -30t45 -118v-254l122 -141v-24l-122 -141v-254q0 -148 -148 -148h-347z" />
    <glyph glyph-name="asciitilde" unicode="~" horiz-adv-x="714" 
d="M402.5 320q-30.5 10 -70.5 29q-37 17 -60.5 25t-49.5 8q-34 0 -54 -16t-22 -44h-94q-3 23 -3 41q0 59 27.5 99t72.5 59.5t97 19.5q35 0 64.5 -9.5t71.5 -29.5q35 -17 59 -25t49 -9q34 2 54.5 17.5t23.5 42.5h94q3 -21 3 -41q0 -58 -28 -98t-73 -59.5t-96 -20.5
q-35 1 -65.5 11z" />
    <glyph glyph-name="exclamdown" unicode="&#xa1;" horiz-adv-x="521" 
d="M263 306l54 -522h-286l54 522h178zM242.5 621.5q31.5 -18.5 50.5 -50t19 -67.5t-19 -67.5t-50.5 -50t-68.5 -18.5t-68.5 18.5t-50.5 50t-19 67.5t19 67.5t50.5 50t68.5 18.5t68.5 -18.5z" />
    <glyph glyph-name="cent" unicode="&#xa2;" horiz-adv-x="872" 
d="M225 63q-97 50 -151 142.5t-54 214.5q0 121 53.5 213t151 143t224.5 51q65 0 123 -13l12 26h94l-25 -53q82 -38 135 -112t64 -188h-240q-15 58 -55 91l-158 -342q24 -6 50 -6q64 0 106 31t57 93h240q-18 -181 -130.5 -261t-272.5 -80q-74 0 -144 19l-15 -32h-94zM325 279
l152 329q-18 2 -28 2q-50 0 -91 -23.5t-64.5 -67t-23.5 -99.5q0 -88 55 -141z" />
    <glyph glyph-name="sterling" unicode="&#xa3;" horiz-adv-x="808" 
d="M100.5 264.5q33.5 33.5 43.5 65.5h-124v115h85q-30 45 -45.5 79.5t-15.5 82.5q0 77 46 134.5t130.5 89t195.5 31.5q110 0 194 -31.5t131 -92.5t47 -148q0 -26 -2 -39h-263q-7 48 -39 66t-74 18q-47 0 -76 -22.5t-29 -61.5q0 -23 7 -39.5t21 -41.5l15 -25h304v-115h-292
q-12 -72 -78 -112v-8h504v-210h-766v210q47 21 80.5 54.5z" />
    <glyph glyph-name="currency" unicode="&#xa4;" horiz-adv-x="816" 
d="M265 342l-42 -42l-123 122l52 52q-18 45 -18 97q0 53 21 103l-55 56l123 122l49 -48q63 36 137 36q72 0 136 -35l48 47l123 -122l-54 -54q22 -50 22 -105q0 -50 -19 -98l51 -51l-123 -122l-41 41q-66 -39 -143 -39t-144 40zM493 497q28 33 28 74q0 42 -28 75.5t-84 33.5
t-84.5 -33.5t-28.5 -75.5q0 -41 28.5 -74t84.5 -33t84 33z" />
    <glyph glyph-name="yen" unicode="&#xa5;" horiz-adv-x="964" 
d="M82 357h205l-287 483h291l180 -316h22l180 316h291l-287 -483h207v-109h-264v-40h264v-110h-264v-98h-277v98h-261v110h261v40h-261v109z" />
    <glyph glyph-name="brokenbar" unicode="&#xa6;" horiz-adv-x="347" 
d="M35 940h277v-483h-277v483zM35 383h277v-483h-277v483z" />
    <glyph glyph-name="section" unicode="&#xa7;" horiz-adv-x="885" 
d="M114.5 -173.5q-104.5 73.5 -99.5 237.5h251q2 -47 44 -71t132 -24q74 0 112 19t38 49q0 55 -99 69l-104 17l-25 4q-103 16 -168 35.5t-112 67.5t-47 136q0 113 99 168q-99 61 -99 190q0 127 102.5 197.5t299.5 70.5t302.5 -69t101.5 -240h-247q-16 93 -163 93
q-66 0 -98 -18t-32 -48q0 -51 81 -65l85 -15l67 -11q106 -16 171.5 -35.5t112.5 -70.5t47 -144q0 -114 -74 -173q74 -59 74 -170q0 -137 -105 -205t-320 -68q-223 0 -327.5 73.5zM321.5 334q18.5 -24 64.5 -32l71 -13q9 -1 24 -1q56 0 83.5 25t27.5 57q0 25 -22 48t-77 31
l-83 14q-39 2 -73 -19t-34 -65q0 -21 18.5 -45z" />
    <glyph glyph-name="dieresis" unicode="&#xa8;" horiz-adv-x="507" 
d="M334.5 710.5q-29.5 27.5 -29.5 68.5t29.5 68.5t71.5 27.5t71.5 -27.5t29.5 -68.5t-29.5 -68.5t-71.5 -27.5t-71.5 27.5zM29.5 710.5q-29.5 27.5 -29.5 68.5t29.5 68.5t71.5 27.5t71.5 -27.5t29.5 -68.5t-29.5 -68.5t-71.5 -27.5t-71.5 27.5z" />
    <glyph glyph-name="copyright" unicode="&#xa9;" horiz-adv-x="628" 
d="M171 357q-62 34 -96.5 95t-34.5 139t34.5 139.5t96.5 96.5t142 35q81 0 143.5 -35t97 -96.5t34.5 -139.5t-34.5 -139t-97 -95t-143.5 -34q-80 0 -142 34zM413.5 463.5q42.5 28.5 51.5 87.5l-79 -1q-11 -23 -27 -36.5t-47 -13.5q-35 0 -58.5 23.5t-23.5 67.5
q0 43 23.5 66.5t58.5 23.5q31 0 47 -13t27 -34h79q-9 58 -51.5 87t-96.5 29q-72 0 -117.5 -43.5t-45.5 -115.5q0 -71 45 -113.5t118 -42.5q54 0 96.5 28.5z" />
    <glyph glyph-name="ordfeminine" unicode="&#xaa;" horiz-adv-x="548" 
d="M146 436.5q-48 29.5 -77 79.5t-29 110t29 110.5t77 80t104 29.5q63 0 115 -40l17 34h126v-433h-126l-21 37q-50 -37 -111 -37q-56 0 -104 29.5zM308 584q17 17 17 42t-17.5 43.5t-43.5 18.5t-44 -18.5t-18 -43.5t17.5 -42t44.5 -17t44 17z" />
    <glyph glyph-name="guillemotleft" unicode="&#xab;" horiz-adv-x="966" 
d="M254 120l-194 300l194 300h286l-194 -300l194 -300h-286zM620 120l-194 300l194 300h286l-194 -300l194 -300h-286z" />
    <glyph glyph-name="logicalnot" unicode="&#xac;" horiz-adv-x="722" 
d="M442 378h-452v188h682v-292h-230v104z" />
    <glyph glyph-name="uni00AD" unicode="&#xad;" horiz-adv-x="660" 
d="M40 531h580v-231h-580v231z" />
    <glyph glyph-name="registered" unicode="&#xae;" horiz-adv-x="628" 
d="M171 357q-62 34 -96.5 95t-34.5 139t34.5 139.5t96.5 96.5t142 35q81 0 143.5 -35t97 -96.5t34.5 -139.5t-34.5 -139t-97 -95t-143.5 -34q-80 0 -142 34zM262 680h72q22 0 35 -11t13 -32q0 -20 -13.5 -32t-34.5 -12h-72v87zM262 432v96h73l54 -96h86l-67 112q58 29 58 93
q0 52 -35 80t-99 28h-149v-313h79z" />
    <glyph glyph-name="macron" unicode="&#xaf;" horiz-adv-x="460" 
d="M0 840h460v-201h-460v201z" />
    <glyph glyph-name="degree" unicode="&#xb0;" horiz-adv-x="530" 
d="M148 419.5q-52 29.5 -82 81.5t-30 117t30 117t82 81.5t117 29.5t117 -29.5t82 -81.5t30 -117t-30 -117t-82 -81.5t-117 -29.5t-117 29.5zM308 581.5q13 17.5 13 36.5t-13 36.5t-43 17.5t-43 -17.5t-13 -36.5t13 -36.5t43 -17.5t43 17.5z" />
    <glyph glyph-name="plusminus" unicode="&#xb1;" horiz-adv-x="808" 
d="M288 514h-238v219h238v239h231v-239h239v-219h-239v-238h-231v238zM90 231h628v-231h-628v231z" />
    <glyph glyph-name="uni00B2" unicode="&#xb2;" horiz-adv-x="613" 
d="M56.5 435q37.5 50 88.5 77t127 54q63 23 91 39t28 41q0 50 -73 50q-92 0 -90 -68h-203q0 115 71.5 174t212.5 59q137 0 211 -52t74 -153q0 -62 -28 -101t-67.5 -60t-102.5 -43q-58 -21 -88.5 -37t-45.5 -43h330v-158h-573v94q0 77 37.5 127z" />
    <glyph glyph-name="uni00B3" unicode="&#xb3;" horiz-adv-x="637" 
d="M89 251.5q-71 54.5 -70 173.5h186q2 -36 27 -50t74 -14q50 0 78 14t28 39q0 21 -22.5 41t-86.5 20h-35v118h35q63 0 84.5 17t21.5 37q0 26 -25.5 38.5t-68.5 12.5q-97 0 -97 -66h-185q-1 117 70.5 173t212.5 56q137 0 209 -47.5t72 -130.5q0 -49 -24 -81t-66 -52v-11
q50 -15 80 -54t30 -97q0 -90 -81.5 -140.5t-225.5 -50.5q-150 0 -221 54.5z" />
    <glyph glyph-name="acute" unicode="&#xb4;" horiz-adv-x="317" 
d="M72 840h245l-72 -175h-245z" />
    <glyph glyph-name="uni00B5" unicode="&#xb5;" horiz-adv-x="828" 
d="M516 89h-26q-31 -47 -79 -72.5t-99 -30.5v-136h-277v830h277v-375q0 -58 31.5 -78t71.5 -20q46 0 73.5 26t27.5 61v386h277v-680h-272z" />
    <glyph glyph-name="paragraph" unicode="&#xb6;" horiz-adv-x="1275" 
d="M565 192h-147q-191 0 -294.5 80t-103.5 244t103.5 244t295.5 80h423v-840h-277v192zM963 840h277v-840h-277v840z" />
    <glyph glyph-name="periodcentered" unicode="&#xb7;" horiz-adv-x="436" 
d="M149.5 302.5q-31.5 18.5 -50.5 50t-19 67.5t19 67.5t50.5 50t68.5 18.5t68.5 -18.5t50.5 -50t19 -67.5t-19 -67.5t-50.5 -50t-68.5 -18.5t-68.5 18.5z" />
    <glyph glyph-name="cedilla" unicode="&#xb8;" horiz-adv-x="258" 
d="M62 -169q24 0 36.5 5t12.5 11q0 8 -14 15.5t-40 7.5t-57 -8v66l94 72h93l-45 -34q47 -3 81.5 -32.5t34.5 -82.5q0 -61 -49 -94t-127 -33q-40 0 -82 9v105q36 -7 62 -7z" />
    <glyph glyph-name="uni00B9" unicode="&#xb9;" horiz-adv-x="575" 
d="M30 366h173v274q-30 -26 -69.5 -34.5t-88.5 -8.5v174q86 0 158 68h208v-473h133v-158h-514v158z" />
    <glyph glyph-name="ordmasculine" unicode="&#xba;" horiz-adv-x="514" 
d="M148 438q-50 29 -79 79t-29 109q0 60 29 110.5t79 80t109 29.5t109 -29.5t79 -80t29 -110.5q0 -59 -29 -109t-79 -79t-109 -29t-109 29zM300 583q17 16 17 43t-17 44.5t-43 17.5t-43 -17.5t-17 -44.5t17 -43t43 -16t43 16z" />
    <glyph glyph-name="guillemotright" unicode="&#xbb;" horiz-adv-x="966" 
d="M620 420l-194 300h286l194 -300l-194 -300h-286zM254 420l-194 300h286l194 -300l-194 -300h-286z" />
    <glyph glyph-name="questiondown" unicode="&#xbf;" horiz-adv-x="810" 
d="M541 279q0 -51 -21.5 -82t-51.5 -47t-77 -33q-48 -17 -69.5 -31t-21.5 -41q0 -28 31 -45.5t80 -17.5q55 0 94.5 23.5t39.5 85.5h250q7 -165 -92.5 -247t-289.5 -82q-181 0 -284.5 62t-103.5 189q0 59 20.5 95.5t49 56t75.5 40.5q35 15 55 27.5t34 32t14 49.5h266
q2 -12 2 -35zM475.5 621.5q31.5 -18.5 50.5 -50t19 -67.5t-19 -67.5t-50.5 -50t-68.5 -18.5t-68.5 18.5t-50.5 50t-19 67.5t19 67.5t50.5 50t68.5 18.5t68.5 -18.5z" />
    <glyph glyph-name="Agrave" unicode="&#xc0;" 
d="M314 840h388l309 -840h-286l-37 111h-360l-37 -111h-286zM620 316l-88 264h-48l-88 -264h224zM388 875l-72 175h245l72 -175h-245z" />
    <glyph glyph-name="Aacute" unicode="&#xc1;" 
d="M314 840h388l309 -840h-286l-37 111h-360l-37 -111h-286zM620 316l-88 264h-48l-88 -264h224zM456 1050h245l-72 -175h-245z" />
    <glyph glyph-name="Acircumflex" unicode="&#xc2;" 
d="M314 840h388l309 -840h-286l-37 111h-360l-37 -111h-286zM620 316l-88 264h-48l-88 -264h224zM341 1050h334l132 -175h-233l-41 49h-50l-41 -49h-233z" />
    <glyph glyph-name="Atilde" unicode="&#xc3;" 
d="M314 840h388l309 -840h-286l-37 111h-360l-37 -111h-286zM620 316l-88 264h-48l-88 -264h224zM543.5 883q-23.5 8 -56.5 23q-28 14 -47 20.5t-40 6.5q-27 0 -43.5 -12.5t-18.5 -35.5h-75q-3 18 -3 33q0 70 46.5 106t111.5 36q28 0 51.5 -8t56.5 -23q30 -14 48.5 -20.5
t39.5 -6.5q27 0 43.5 12.5t18.5 35.5h75q3 -18 3 -33q0 -70 -46.5 -106t-111.5 -36q-29 0 -52.5 8z" />
    <glyph glyph-name="Adieresis" unicode="&#xc4;" 
d="M314 840h388l309 -840h-286l-37 111h-360l-37 -111h-286zM620 316l-88 264h-48l-88 -264h224zM588.5 920.5q-29.5 27.5 -29.5 68.5t29.5 68.5t71.5 27.5t71.5 -27.5t29.5 -68.5t-29.5 -68.5t-71.5 -27.5t-71.5 27.5zM283.5 920.5q-29.5 27.5 -29.5 68.5t29.5 68.5
t71.5 27.5t71.5 -27.5t29.5 -68.5t-29.5 -68.5t-71.5 -27.5t-71.5 27.5z" />
    <glyph glyph-name="Aring" unicode="&#xc5;" 
d="M314 840h74q-23 34 -23 77q0 39 19 72t51.5 52t72.5 19t72 -19t50.5 -52t18.5 -72q0 -42 -22 -77h75l309 -840h-286l-37 111h-360l-37 -111h-286zM527.5 897q8.5 8 8.5 22t-8.5 22t-21.5 8q-12 0 -20 -7.5t-8 -22.5q0 -14 8 -22t20 -8q13 0 21.5 8zM620 316l-88 264h-48
l-88 -264h224z" />
    <glyph glyph-name="AE" unicode="&#xc6;" horiz-adv-x="1397" 
d="M383 840h979v-222h-480v-107h462v-182h-462v-107h480v-222h-757v113h-270l-51 -113h-279zM605 316v293h-48l-131 -293h179z" />
    <glyph glyph-name="Ccedilla" unicode="&#xc7;" horiz-adv-x="955" 
d="M439 -169q24 0 36.5 5t12.5 11q0 8 -14 15.5t-40 7.5t-57 -8v66l60 46q-125 11 -219.5 69.5t-146 155.5t-51.5 221q0 133 59 234.5t166 157.5t247 56q111 0 206 -36t159.5 -119.5t77.5 -218.5h-264q-17 68 -63 101.5t-116 33.5q-55 0 -100 -26t-71 -73.5t-26 -109.5
t26 -109.5t71 -73.5t100 -26q70 0 116 34t63 103h264q-18 -188 -131 -277.5t-276 -97.5l-9 -7q47 -3 81.5 -32.5t34.5 -82.5q0 -61 -49 -94t-127 -33q-40 0 -82 9v105q36 -7 62 -7z" />
    <glyph glyph-name="Egrave" unicode="&#xc8;" horiz-adv-x="827" 
d="M35 840h757v-222h-480v-107h462v-182h-462v-107h480v-222h-757v840zM286 875l-72 175h245l72 -175h-245z" />
    <glyph glyph-name="Eacute" unicode="&#xc9;" horiz-adv-x="827" 
d="M35 840h757v-222h-480v-107h462v-182h-462v-107h480v-222h-757v840zM354 1050h245l-72 -175h-245z" />
    <glyph glyph-name="Ecircumflex" unicode="&#xca;" horiz-adv-x="827" 
d="M35 840h757v-222h-480v-107h462v-182h-462v-107h480v-222h-757v840zM239 1050h334l132 -175h-233l-41 49h-50l-41 -49h-233z" />
    <glyph glyph-name="Edieresis" unicode="&#xcb;" horiz-adv-x="827" 
d="M35 840h757v-222h-480v-107h462v-182h-462v-107h480v-222h-757v840zM486.5 920.5q-29.5 27.5 -29.5 68.5t29.5 68.5t71.5 27.5t71.5 -27.5t29.5 -68.5t-29.5 -68.5t-71.5 -27.5t-71.5 27.5zM181.5 920.5q-29.5 27.5 -29.5 68.5t29.5 68.5t71.5 27.5t71.5 -27.5
t29.5 -68.5t-29.5 -68.5t-71.5 -27.5t-71.5 27.5z" />
    <glyph glyph-name="Igrave" unicode="&#xcc;" horiz-adv-x="347" 
d="M35 840h277v-840h-277v840zM53 875l-72 175h245l72 -175h-245z" />
    <glyph glyph-name="Iacute" unicode="&#xcd;" horiz-adv-x="347" 
d="M35 840h277v-840h-277v840zM121 1050h245l-72 -175h-245z" />
    <glyph glyph-name="Icircumflex" unicode="&#xce;" horiz-adv-x="347" 
d="M35 840h277v-840h-277v840zM6 1050h334l132 -175h-233l-41 49h-50l-41 -49h-233z" />
    <glyph glyph-name="Idieresis" unicode="&#xcf;" horiz-adv-x="347" 
d="M35 840h277v-840h-277v840zM253.5 920.5q-29.5 27.5 -29.5 68.5t29.5 68.5t71.5 27.5t71.5 -27.5t29.5 -68.5t-29.5 -68.5t-71.5 -27.5t-71.5 27.5zM-51.5 920.5q-29.5 27.5 -29.5 68.5t29.5 68.5t71.5 27.5t71.5 -27.5t29.5 -68.5t-29.5 -68.5t-71.5 -27.5t-71.5 27.5z
" />
    <glyph glyph-name="Eth" unicode="&#xd0;" horiz-adv-x="1002" 
d="M5 518h88v322h422q243 0 352.5 -112.5t109.5 -307.5t-109.5 -307.5t-352.5 -112.5h-422v317h-88v201zM515 232q85 0 134.5 46t49.5 142q0 97 -49 142.5t-135 45.5h-144v-90h141v-201h-141v-85h144z" />
    <glyph glyph-name="Ntilde" unicode="&#xd1;" horiz-adv-x="962" 
d="M35 840h318l279 -454h25v454h270v-840h-311l-286 454h-25v-454h-270v840zM516.5 883q-23.5 8 -56.5 23q-28 14 -47 20.5t-40 6.5q-27 0 -43.5 -12.5t-18.5 -35.5h-75q-3 18 -3 33q0 70 46.5 106t111.5 36q28 0 51.5 -8t56.5 -23q30 -14 48.5 -20.5t39.5 -6.5
q27 0 43.5 12.5t18.5 35.5h75q3 -18 3 -33q0 -70 -46.5 -106t-111.5 -36q-29 0 -52.5 8z" />
    <glyph glyph-name="Ograve" unicode="&#xd2;" horiz-adv-x="992" 
d="M245 28q-108 56 -166.5 157.5t-58.5 234.5t58.5 234.5t166.5 157.5t251 56t251 -56t166.5 -157.5t58.5 -234.5t-58.5 -234.5t-166.5 -157.5t-251 -56t-251 56zM597.5 236q45.5 25 72.5 72t27 112t-27 112t-72.5 72t-101.5 25t-101.5 -25t-72.5 -72t-27 -112t27 -112
t72.5 -72t101.5 -25t101.5 25zM376 879l-72 175h245l72 -175h-245z" />
    <glyph glyph-name="Oacute" unicode="&#xd3;" horiz-adv-x="992" 
d="M245 28q-108 56 -166.5 157.5t-58.5 234.5t58.5 234.5t166.5 157.5t251 56t251 -56t166.5 -157.5t58.5 -234.5t-58.5 -234.5t-166.5 -157.5t-251 -56t-251 56zM597.5 236q45.5 25 72.5 72t27 112t-27 112t-72.5 72t-101.5 25t-101.5 -25t-72.5 -72t-27 -112t27 -112
t72.5 -72t101.5 -25t101.5 25zM444 1054h245l-72 -175h-245z" />
    <glyph glyph-name="Ocircumflex" unicode="&#xd4;" horiz-adv-x="992" 
d="M245 28q-108 56 -166.5 157.5t-58.5 234.5t58.5 234.5t166.5 157.5t251 56t251 -56t166.5 -157.5t58.5 -234.5t-58.5 -234.5t-166.5 -157.5t-251 -56t-251 56zM597.5 236q45.5 25 72.5 72t27 112t-27 112t-72.5 72t-101.5 25t-101.5 -25t-72.5 -72t-27 -112t27 -112
t72.5 -72t101.5 -25t101.5 25zM329 1054h334l132 -175h-233l-41 49h-50l-41 -49h-233z" />
    <glyph glyph-name="Otilde" unicode="&#xd5;" horiz-adv-x="992" 
d="M245 28q-108 56 -166.5 157.5t-58.5 234.5t58.5 234.5t166.5 157.5t251 56t251 -56t166.5 -157.5t58.5 -234.5t-58.5 -234.5t-166.5 -157.5t-251 -56t-251 56zM597.5 236q45.5 25 72.5 72t27 112t-27 112t-72.5 72t-101.5 25t-101.5 -25t-72.5 -72t-27 -112t27 -112
t72.5 -72t101.5 -25t101.5 25zM531.5 887q-23.5 8 -56.5 23q-28 14 -47 20.5t-40 6.5q-27 0 -43.5 -12.5t-18.5 -35.5h-75q-3 18 -3 33q0 70 46.5 106t111.5 36q28 0 51.5 -8t56.5 -23q30 -14 48.5 -20.5t39.5 -6.5q27 0 43.5 12.5t18.5 35.5h75q3 -18 3 -33
q0 -70 -46.5 -106t-111.5 -36q-29 0 -52.5 8z" />
    <glyph glyph-name="Odieresis" unicode="&#xd6;" horiz-adv-x="992" 
d="M245 28q-108 56 -166.5 157.5t-58.5 234.5t58.5 234.5t166.5 157.5t251 56t251 -56t166.5 -157.5t58.5 -234.5t-58.5 -234.5t-166.5 -157.5t-251 -56t-251 56zM597.5 236q45.5 25 72.5 72t27 112t-27 112t-72.5 72t-101.5 25t-101.5 -25t-72.5 -72t-27 -112t27 -112
t72.5 -72t101.5 -25t101.5 25zM576.5 924.5q-29.5 27.5 -29.5 68.5t29.5 68.5t71.5 27.5t71.5 -27.5t29.5 -68.5t-29.5 -68.5t-71.5 -27.5t-71.5 27.5zM271.5 924.5q-29.5 27.5 -29.5 68.5t29.5 68.5t71.5 27.5t71.5 -27.5t29.5 -68.5t-29.5 -68.5t-71.5 -27.5t-71.5 27.5z
" />
    <glyph glyph-name="multiply" unicode="&#xd7;" horiz-adv-x="755" 
d="M218 396l-169 168l155 154l168 -168l169 169l164 -163l-169 -169l169 -169l-155 -155l-169 169l-168 -168l-164 163z" />
    <glyph glyph-name="Oslash" unicode="&#xd8;" horiz-adv-x="992" 
d="M230 36q-100 57 -155 156t-55 228q0 133 58.5 234.5t166.5 157.5t251 56q63 0 113 -10l16 34h167l-38 -83q104 -56 161 -156.5t57 -232.5q0 -133 -58.5 -234.5t-166.5 -157.5t-251 -56q-64 0 -123 12l-16 -35h-167zM597.5 236q45.5 25 72.5 72t27 112q0 46 -14 84t-40 65
l-165 -357l18 -1q56 0 101.5 25zM342 279l162 350h-8q-56 0 -101.5 -25t-72.5 -72t-27 -112q0 -84 47 -141z" />
    <glyph glyph-name="Ugrave" unicode="&#xd9;" horiz-adv-x="940" 
d="M143 68q-108 96 -108 298v474h279v-467q0 -81 38 -125t118 -44t119 44t39 125v467h277v-472q0 -203 -108 -299.5t-327 -96.5t-327 96zM350 875l-72 175h245l72 -175h-245z" />
    <glyph glyph-name="Uacute" unicode="&#xda;" horiz-adv-x="940" 
d="M143 68q-108 96 -108 298v474h279v-467q0 -81 38 -125t118 -44t119 44t39 125v467h277v-472q0 -203 -108 -299.5t-327 -96.5t-327 96zM418 1050h245l-72 -175h-245z" />
    <glyph glyph-name="Ucircumflex" unicode="&#xdb;" horiz-adv-x="940" 
d="M143 68q-108 96 -108 298v474h279v-467q0 -81 38 -125t118 -44t119 44t39 125v467h277v-472q0 -203 -108 -299.5t-327 -96.5t-327 96zM303 1050h334l132 -175h-233l-41 49h-50l-41 -49h-233z" />
    <glyph glyph-name="Udieresis" unicode="&#xdc;" horiz-adv-x="940" 
d="M143 68q-108 96 -108 298v474h279v-467q0 -81 38 -125t118 -44t119 44t39 125v467h277v-472q0 -203 -108 -299.5t-327 -96.5t-327 96zM550.5 920.5q-29.5 27.5 -29.5 68.5t29.5 68.5t71.5 27.5t71.5 -27.5t29.5 -68.5t-29.5 -68.5t-71.5 -27.5t-71.5 27.5zM245.5 920.5
q-29.5 27.5 -29.5 68.5t29.5 68.5t71.5 27.5t71.5 -27.5t29.5 -68.5t-29.5 -68.5t-71.5 -27.5t-71.5 27.5z" />
    <glyph glyph-name="Yacute" unicode="&#xdd;" horiz-adv-x="964" 
d="M343 262l-343 578h291l180 -316h22l180 316h291l-344 -579v-261h-277v262zM430 1050h245l-72 -175h-245z" />
    <glyph glyph-name="Thorn" unicode="&#xde;" horiz-adv-x="882" 
d="M35 840h277v-96h146q192 0 295.5 -80t103.5 -244t-103.5 -244t-294.5 -80h-147v-96h-277v840zM464 326q53 0 83.5 23t30.5 71q0 47 -30.5 70.5t-82.5 23.5h-153v-188h152z" />
    <glyph glyph-name="germandbls" unicode="&#xdf;" horiz-adv-x="890" 
d="M144.5 792.5q109.5 69.5 281.5 69.5q139 0 224.5 -34.5t121.5 -89t36 -116.5q0 -106 -95 -159v-18q71 -26 111.5 -76.5t40.5 -127.5q0 -108 -88 -174.5t-280 -66.5h-130v209h123q54 0 77.5 21.5t23.5 52.5q0 29 -23.5 51t-77.5 22h-123v149h99q44 0 63.5 17t19.5 39
q0 30 -25 48t-82 18q-130 0 -130 -81v-546h-277v560q0 163 109.5 232.5z" />
    <glyph glyph-name="agrave" unicode="&#xe0;" 
d="M314 840h388l309 -840h-286l-37 111h-360l-37 -111h-286zM620 316l-88 264h-48l-88 -264h224zM388 875l-72 175h245l72 -175h-245z" />
    <glyph glyph-name="aacute" unicode="&#xe1;" 
d="M314 840h388l309 -840h-286l-37 111h-360l-37 -111h-286zM620 316l-88 264h-48l-88 -264h224zM456 1050h245l-72 -175h-245z" />
    <glyph glyph-name="acircumflex" unicode="&#xe2;" 
d="M314 840h388l309 -840h-286l-37 111h-360l-37 -111h-286zM620 316l-88 264h-48l-88 -264h224zM341 1050h334l132 -175h-233l-41 49h-50l-41 -49h-233z" />
    <glyph glyph-name="atilde" unicode="&#xe3;" 
d="M314 840h388l309 -840h-286l-37 111h-360l-37 -111h-286zM620 316l-88 264h-48l-88 -264h224zM543.5 883q-23.5 8 -56.5 23q-28 14 -47 20.5t-40 6.5q-27 0 -43.5 -12.5t-18.5 -35.5h-75q-3 18 -3 33q0 70 46.5 106t111.5 36q28 0 51.5 -8t56.5 -23q30 -14 48.5 -20.5
t39.5 -6.5q27 0 43.5 12.5t18.5 35.5h75q3 -18 3 -33q0 -70 -46.5 -106t-111.5 -36q-29 0 -52.5 8z" />
    <glyph glyph-name="adieresis" unicode="&#xe4;" 
d="M314 840h388l309 -840h-286l-37 111h-360l-37 -111h-286zM620 316l-88 264h-48l-88 -264h224zM588.5 920.5q-29.5 27.5 -29.5 68.5t29.5 68.5t71.5 27.5t71.5 -27.5t29.5 -68.5t-29.5 -68.5t-71.5 -27.5t-71.5 27.5zM283.5 920.5q-29.5 27.5 -29.5 68.5t29.5 68.5
t71.5 27.5t71.5 -27.5t29.5 -68.5t-29.5 -68.5t-71.5 -27.5t-71.5 27.5z" />
    <glyph glyph-name="aring" unicode="&#xe5;" 
d="M314 840h74q-23 34 -23 77q0 39 19 72t51.5 52t72.5 19t72 -19t50.5 -52t18.5 -72q0 -42 -22 -77h75l309 -840h-286l-37 111h-360l-37 -111h-286zM527.5 897q8.5 8 8.5 22t-8.5 22t-21.5 8q-12 0 -20 -7.5t-8 -22.5q0 -14 8 -22t20 -8q13 0 21.5 8zM620 316l-88 264h-48
l-88 -264h224z" />
    <glyph glyph-name="ae" unicode="&#xe6;" horiz-adv-x="1397" 
d="M383 840h979v-222h-480v-107h462v-182h-462v-107h480v-222h-757v113h-270l-51 -113h-279zM605 316v293h-48l-131 -293h179z" />
    <glyph glyph-name="ccedilla" unicode="&#xe7;" horiz-adv-x="955" 
d="M439 -169q24 0 36.5 5t12.5 11q0 8 -14 15.5t-40 7.5t-57 -8v66l60 46q-125 11 -219.5 69.5t-146 155.5t-51.5 221q0 133 59 234.5t166 157.5t247 56q111 0 206 -36t159.5 -119.5t77.5 -218.5h-264q-17 68 -63 101.5t-116 33.5q-55 0 -100 -26t-71 -73.5t-26 -109.5
t26 -109.5t71 -73.5t100 -26q70 0 116 34t63 103h264q-18 -188 -131 -277.5t-276 -97.5l-9 -7q47 -3 81.5 -32.5t34.5 -82.5q0 -61 -49 -94t-127 -33q-40 0 -82 9v105q36 -7 62 -7z" />
    <glyph glyph-name="egrave" unicode="&#xe8;" horiz-adv-x="827" 
d="M35 840h757v-222h-480v-107h462v-182h-462v-107h480v-222h-757v840zM286 875l-72 175h245l72 -175h-245z" />
    <glyph glyph-name="eacute" unicode="&#xe9;" horiz-adv-x="827" 
d="M35 840h757v-222h-480v-107h462v-182h-462v-107h480v-222h-757v840zM354 1050h245l-72 -175h-245z" />
    <glyph glyph-name="ecircumflex" unicode="&#xea;" horiz-adv-x="827" 
d="M35 840h757v-222h-480v-107h462v-182h-462v-107h480v-222h-757v840zM239 1050h334l132 -175h-233l-41 49h-50l-41 -49h-233z" />
    <glyph glyph-name="edieresis" unicode="&#xeb;" horiz-adv-x="827" 
d="M35 840h757v-222h-480v-107h462v-182h-462v-107h480v-222h-757v840zM486.5 920.5q-29.5 27.5 -29.5 68.5t29.5 68.5t71.5 27.5t71.5 -27.5t29.5 -68.5t-29.5 -68.5t-71.5 -27.5t-71.5 27.5zM181.5 920.5q-29.5 27.5 -29.5 68.5t29.5 68.5t71.5 27.5t71.5 -27.5
t29.5 -68.5t-29.5 -68.5t-71.5 -27.5t-71.5 27.5z" />
    <glyph glyph-name="igrave" unicode="&#xec;" horiz-adv-x="347" 
d="M35 840h277v-840h-277v840zM53 875l-72 175h245l72 -175h-245z" />
    <glyph glyph-name="iacute" unicode="&#xed;" horiz-adv-x="347" 
d="M35 840h277v-840h-277v840zM121 1050h245l-72 -175h-245z" />
    <glyph glyph-name="icircumflex" unicode="&#xee;" horiz-adv-x="347" 
d="M35 840h277v-840h-277v840zM6 1050h334l132 -175h-233l-41 49h-50l-41 -49h-233z" />
    <glyph glyph-name="idieresis" unicode="&#xef;" horiz-adv-x="347" 
d="M35 840h277v-840h-277v840zM253.5 920.5q-29.5 27.5 -29.5 68.5t29.5 68.5t71.5 27.5t71.5 -27.5t29.5 -68.5t-29.5 -68.5t-71.5 -27.5t-71.5 27.5zM-51.5 920.5q-29.5 27.5 -29.5 68.5t29.5 68.5t71.5 27.5t71.5 -27.5t29.5 -68.5t-29.5 -68.5t-71.5 -27.5t-71.5 27.5z
" />
    <glyph glyph-name="eth" unicode="&#xf0;" horiz-adv-x="1002" 
d="M5 518h88v322h422q243 0 352.5 -112.5t109.5 -307.5t-109.5 -307.5t-352.5 -112.5h-422v317h-88v201zM515 232q85 0 134.5 46t49.5 142q0 97 -49 142.5t-135 45.5h-144v-90h141v-201h-141v-85h144z" />
    <glyph glyph-name="ntilde" unicode="&#xf1;" horiz-adv-x="962" 
d="M35 840h318l279 -454h25v454h270v-840h-311l-286 454h-25v-454h-270v840zM516.5 883q-23.5 8 -56.5 23q-28 14 -47 20.5t-40 6.5q-27 0 -43.5 -12.5t-18.5 -35.5h-75q-3 18 -3 33q0 70 46.5 106t111.5 36q28 0 51.5 -8t56.5 -23q30 -14 48.5 -20.5t39.5 -6.5
q27 0 43.5 12.5t18.5 35.5h75q3 -18 3 -33q0 -70 -46.5 -106t-111.5 -36q-29 0 -52.5 8z" />
    <glyph glyph-name="ograve" unicode="&#xf2;" horiz-adv-x="992" 
d="M245 28q-108 56 -166.5 157.5t-58.5 234.5t58.5 234.5t166.5 157.5t251 56t251 -56t166.5 -157.5t58.5 -234.5t-58.5 -234.5t-166.5 -157.5t-251 -56t-251 56zM597.5 236q45.5 25 72.5 72t27 112t-27 112t-72.5 72t-101.5 25t-101.5 -25t-72.5 -72t-27 -112t27 -112
t72.5 -72t101.5 -25t101.5 25zM376 879l-72 175h245l72 -175h-245z" />
    <glyph glyph-name="oacute" unicode="&#xf3;" horiz-adv-x="992" 
d="M245 28q-108 56 -166.5 157.5t-58.5 234.5t58.5 234.5t166.5 157.5t251 56t251 -56t166.5 -157.5t58.5 -234.5t-58.5 -234.5t-166.5 -157.5t-251 -56t-251 56zM597.5 236q45.5 25 72.5 72t27 112t-27 112t-72.5 72t-101.5 25t-101.5 -25t-72.5 -72t-27 -112t27 -112
t72.5 -72t101.5 -25t101.5 25zM444 1054h245l-72 -175h-245z" />
    <glyph glyph-name="ocircumflex" unicode="&#xf4;" horiz-adv-x="992" 
d="M245 28q-108 56 -166.5 157.5t-58.5 234.5t58.5 234.5t166.5 157.5t251 56t251 -56t166.5 -157.5t58.5 -234.5t-58.5 -234.5t-166.5 -157.5t-251 -56t-251 56zM597.5 236q45.5 25 72.5 72t27 112t-27 112t-72.5 72t-101.5 25t-101.5 -25t-72.5 -72t-27 -112t27 -112
t72.5 -72t101.5 -25t101.5 25zM329 1054h334l132 -175h-233l-41 49h-50l-41 -49h-233z" />
    <glyph glyph-name="otilde" unicode="&#xf5;" horiz-adv-x="992" 
d="M245 28q-108 56 -166.5 157.5t-58.5 234.5t58.5 234.5t166.5 157.5t251 56t251 -56t166.5 -157.5t58.5 -234.5t-58.5 -234.5t-166.5 -157.5t-251 -56t-251 56zM597.5 236q45.5 25 72.5 72t27 112t-27 112t-72.5 72t-101.5 25t-101.5 -25t-72.5 -72t-27 -112t27 -112
t72.5 -72t101.5 -25t101.5 25zM531.5 887q-23.5 8 -56.5 23q-28 14 -47 20.5t-40 6.5q-27 0 -43.5 -12.5t-18.5 -35.5h-75q-3 18 -3 33q0 70 46.5 106t111.5 36q28 0 51.5 -8t56.5 -23q30 -14 48.5 -20.5t39.5 -6.5q27 0 43.5 12.5t18.5 35.5h75q3 -18 3 -33
q0 -70 -46.5 -106t-111.5 -36q-29 0 -52.5 8z" />
    <glyph glyph-name="odieresis" unicode="&#xf6;" horiz-adv-x="992" 
d="M245 28q-108 56 -166.5 157.5t-58.5 234.5t58.5 234.5t166.5 157.5t251 56t251 -56t166.5 -157.5t58.5 -234.5t-58.5 -234.5t-166.5 -157.5t-251 -56t-251 56zM597.5 236q45.5 25 72.5 72t27 112t-27 112t-72.5 72t-101.5 25t-101.5 -25t-72.5 -72t-27 -112t27 -112
t72.5 -72t101.5 -25t101.5 25zM576.5 924.5q-29.5 27.5 -29.5 68.5t29.5 68.5t71.5 27.5t71.5 -27.5t29.5 -68.5t-29.5 -68.5t-71.5 -27.5t-71.5 27.5zM271.5 924.5q-29.5 27.5 -29.5 68.5t29.5 68.5t71.5 27.5t71.5 -27.5t29.5 -68.5t-29.5 -68.5t-71.5 -27.5t-71.5 27.5z
" />
    <glyph glyph-name="divide" unicode="&#xf7;" horiz-adv-x="728" 
d="M50 516h628v-191h-628v191zM301.5 35q-27.5 16 -43.5 43t-16 58t16 58.5t43.5 43.5t59.5 16t59.5 -16t43.5 -43.5t16 -58.5t-16 -58t-43.5 -43t-59.5 -16t-59.5 16zM301.5 597q-27.5 16 -43.5 43t-16 58t16 58.5t43.5 43.5t59.5 16t59.5 -16t43.5 -43.5t16 -58.5t-16 -58
t-43.5 -43t-59.5 -16t-59.5 16z" />
    <glyph glyph-name="oslash" unicode="&#xf8;" horiz-adv-x="992" 
d="M230 36q-100 57 -155 156t-55 228q0 133 58.5 234.5t166.5 157.5t251 56q63 0 113 -10l16 34h167l-38 -83q104 -56 161 -156.5t57 -232.5q0 -133 -58.5 -234.5t-166.5 -157.5t-251 -56q-64 0 -123 12l-16 -35h-167zM597.5 236q45.5 25 72.5 72t27 112q0 46 -14 84t-40 65
l-165 -357l18 -1q56 0 101.5 25zM342 279l162 350h-8q-56 0 -101.5 -25t-72.5 -72t-27 -112q0 -84 47 -141z" />
    <glyph glyph-name="ugrave" unicode="&#xf9;" horiz-adv-x="940" 
d="M143 68q-108 96 -108 298v474h279v-467q0 -81 38 -125t118 -44t119 44t39 125v467h277v-472q0 -203 -108 -299.5t-327 -96.5t-327 96zM350 875l-72 175h245l72 -175h-245z" />
    <glyph glyph-name="uacute" unicode="&#xfa;" horiz-adv-x="940" 
d="M143 68q-108 96 -108 298v474h279v-467q0 -81 38 -125t118 -44t119 44t39 125v467h277v-472q0 -203 -108 -299.5t-327 -96.5t-327 96zM418 1050h245l-72 -175h-245z" />
    <glyph glyph-name="ucircumflex" unicode="&#xfb;" horiz-adv-x="940" 
d="M143 68q-108 96 -108 298v474h279v-467q0 -81 38 -125t118 -44t119 44t39 125v467h277v-472q0 -203 -108 -299.5t-327 -96.5t-327 96zM303 1050h334l132 -175h-233l-41 49h-50l-41 -49h-233z" />
    <glyph glyph-name="udieresis" unicode="&#xfc;" horiz-adv-x="940" 
d="M143 68q-108 96 -108 298v474h279v-467q0 -81 38 -125t118 -44t119 44t39 125v467h277v-472q0 -203 -108 -299.5t-327 -96.5t-327 96zM550.5 920.5q-29.5 27.5 -29.5 68.5t29.5 68.5t71.5 27.5t71.5 -27.5t29.5 -68.5t-29.5 -68.5t-71.5 -27.5t-71.5 27.5zM245.5 920.5
q-29.5 27.5 -29.5 68.5t29.5 68.5t71.5 27.5t71.5 -27.5t29.5 -68.5t-29.5 -68.5t-71.5 -27.5t-71.5 27.5z" />
    <glyph glyph-name="yacute" unicode="&#xfd;" horiz-adv-x="964" 
d="M343 262l-343 578h291l180 -316h22l180 316h291l-344 -579v-261h-277v262zM430 1050h245l-72 -175h-245z" />
    <glyph glyph-name="thorn" unicode="&#xfe;" horiz-adv-x="882" 
d="M35 840h277v-96h146q192 0 295.5 -80t103.5 -244t-103.5 -244t-294.5 -80h-147v-96h-277v840zM464 326q53 0 83.5 23t30.5 71q0 47 -30.5 70.5t-82.5 23.5h-153v-188h152z" />
    <glyph glyph-name="ydieresis" unicode="&#xff;" horiz-adv-x="964" 
d="M343 262l-343 578h291l180 -316h22l180 316h291l-344 -579v-261h-277v262zM562.5 920.5q-29.5 27.5 -29.5 68.5t29.5 68.5t71.5 27.5t71.5 -27.5t29.5 -68.5t-29.5 -68.5t-71.5 -27.5t-71.5 27.5zM257.5 920.5q-29.5 27.5 -29.5 68.5t29.5 68.5t71.5 27.5t71.5 -27.5
t29.5 -68.5t-29.5 -68.5t-71.5 -27.5t-71.5 27.5z" />
    <glyph glyph-name="Amacron" unicode="&#x100;" 
d="M314 840h388l309 -840h-286l-37 111h-360l-37 -111h-286zM620 316l-88 264h-48l-88 -264h224zM278 1100h460v-201h-460v201z" />
    <glyph glyph-name="amacron" unicode="&#x101;" 
d="M314 840h388l309 -840h-286l-37 111h-360l-37 -111h-286zM620 316l-88 264h-48l-88 -264h224zM278 1100h460v-201h-460v201z" />
    <glyph glyph-name="Abreve" unicode="&#x102;" 
d="M314 840h388l309 -840h-286l-37 111h-360l-37 -111h-286zM620 316l-88 264h-48l-88 -264h224zM331.5 921q-57.5 40 -55.5 129h158q-1 -30 18.5 -46t55.5 -16t55.5 16t18.5 46h158q2 -89 -55.5 -129t-176.5 -40t-176.5 40z" />
    <glyph glyph-name="abreve" unicode="&#x103;" 
d="M314 840h388l309 -840h-286l-37 111h-360l-37 -111h-286zM620 316l-88 264h-48l-88 -264h224zM331.5 921q-57.5 40 -55.5 129h158q-1 -30 18.5 -46t55.5 -16t55.5 16t18.5 46h158q2 -89 -55.5 -129t-176.5 -40t-176.5 40z" />
    <glyph glyph-name="Aogonek" unicode="&#x104;" 
d="M314 840h388l309 -840h-286q-46 0 -67 -14.5t-21 -34.5q0 -17 15 -31t46 -13v-150q-91 0 -163 33.5t-72 117.5q0 89 74 123.5t165 37.5l-14 42h-360l-37 -111h-286zM620 316l-88 264h-48l-88 -264h224z" />
    <glyph glyph-name="aogonek" unicode="&#x105;" 
d="M314 840h388l309 -840h-286q-46 0 -67 -14.5t-21 -34.5q0 -17 15 -31t46 -13v-150q-91 0 -163 33.5t-72 117.5q0 89 74 123.5t165 37.5l-14 42h-360l-37 -111h-286zM620 316l-88 264h-48l-88 -264h224z" />
    <glyph glyph-name="Cacute" unicode="&#x106;" horiz-adv-x="955" 
d="M245 28q-107 56 -166 157.5t-59 234.5t59 234.5t166 157.5t247 56q111 0 206 -36t159.5 -119.5t77.5 -218.5h-264q-17 68 -63 101.5t-116 33.5q-55 0 -100 -26t-71 -73.5t-26 -109.5t26 -109.5t71 -73.5t100 -26q70 0 116 34t63 103h264q-19 -199 -143 -287.5t-300 -88.5
q-140 0 -247 56zM442 1050h245l-72 -175h-245z" />
    <glyph glyph-name="cacute" unicode="&#x107;" horiz-adv-x="955" 
d="M245 28q-107 56 -166 157.5t-59 234.5t59 234.5t166 157.5t247 56q111 0 206 -36t159.5 -119.5t77.5 -218.5h-264q-17 68 -63 101.5t-116 33.5q-55 0 -100 -26t-71 -73.5t-26 -109.5t26 -109.5t71 -73.5t100 -26q70 0 116 34t63 103h264q-19 -199 -143 -287.5t-300 -88.5
q-140 0 -247 56zM442 1050h245l-72 -175h-245z" />
    <glyph glyph-name="Cdotaccent" unicode="&#x10a;" horiz-adv-x="955" 
d="M245 28q-107 56 -166 157.5t-59 234.5t59 234.5t166 157.5t247 56q111 0 206 -36t159.5 -119.5t77.5 -218.5h-264q-17 68 -63 101.5t-116 33.5q-55 0 -100 -26t-71 -73.5t-26 -109.5t26 -109.5t71 -73.5t100 -26q70 0 116 34t63 103h264q-19 -199 -143 -287.5t-300 -88.5
q-140 0 -247 56zM422.5 920.5q-29.5 27.5 -29.5 68.5t29.5 68.5t71.5 27.5t71.5 -27.5t29.5 -68.5t-29.5 -68.5t-71.5 -27.5t-71.5 27.5z" />
    <glyph glyph-name="cdotaccent" unicode="&#x10b;" horiz-adv-x="955" 
d="M245 28q-107 56 -166 157.5t-59 234.5t59 234.5t166 157.5t247 56q111 0 206 -36t159.5 -119.5t77.5 -218.5h-264q-17 68 -63 101.5t-116 33.5q-55 0 -100 -26t-71 -73.5t-26 -109.5t26 -109.5t71 -73.5t100 -26q70 0 116 34t63 103h264q-19 -199 -143 -287.5t-300 -88.5
q-140 0 -247 56zM422.5 920.5q-29.5 27.5 -29.5 68.5t29.5 68.5t71.5 27.5t71.5 -27.5t29.5 -68.5t-29.5 -68.5t-71.5 -27.5t-71.5 27.5z" />
    <glyph glyph-name="Ccaron" unicode="&#x10c;" horiz-adv-x="955" 
d="M245 28q-107 56 -166 157.5t-59 234.5t59 234.5t166 157.5t247 56q111 0 206 -36t159.5 -119.5t77.5 -218.5h-264q-17 68 -63 101.5t-116 33.5q-55 0 -100 -26t-71 -73.5t-26 -109.5t26 -109.5t71 -73.5t100 -26q70 0 116 34t63 103h264q-19 -199 -143 -287.5t-300 -88.5
q-140 0 -247 56zM197 1050h233l41 -49h50l41 49h233l-132 -175h-334z" />
    <glyph glyph-name="ccaron" unicode="&#x10d;" horiz-adv-x="955" 
d="M245 28q-107 56 -166 157.5t-59 234.5t59 234.5t166 157.5t247 56q111 0 206 -36t159.5 -119.5t77.5 -218.5h-264q-17 68 -63 101.5t-116 33.5q-55 0 -100 -26t-71 -73.5t-26 -109.5t26 -109.5t71 -73.5t100 -26q70 0 116 34t63 103h264q-19 -199 -143 -287.5t-300 -88.5
q-140 0 -247 56zM197 1050h233l41 -49h50l41 49h233l-132 -175h-334z" />
    <glyph glyph-name="Dcaron" unicode="&#x10e;" horiz-adv-x="944" 
d="M35 840h422q243 0 352.5 -112.5t109.5 -307.5t-109.5 -307.5t-352.5 -112.5h-422v840zM457 232q85 0 134.5 46t49.5 142q0 97 -49 142.5t-135 45.5h-144v-376h144zM167 1050h233l41 -49h50l41 49h233l-132 -175h-334z" />
    <glyph glyph-name="dcaron" unicode="&#x10f;" horiz-adv-x="944" 
d="M35 840h422q243 0 352.5 -112.5t109.5 -307.5t-109.5 -307.5t-352.5 -112.5h-422v840zM457 232q85 0 134.5 46t49.5 142q0 97 -49 142.5t-135 45.5h-144v-376h144zM167 1050h233l41 -49h50l41 49h233l-132 -175h-334z" />
    <glyph glyph-name="Dcroat" unicode="&#x110;" horiz-adv-x="1002" 
d="M5 518h88v322h422q243 0 352.5 -112.5t109.5 -307.5t-109.5 -307.5t-352.5 -112.5h-422v317h-88v201zM515 232q85 0 134.5 46t49.5 142q0 97 -49 142.5t-135 45.5h-144v-90h141v-201h-141v-85h144z" />
    <glyph glyph-name="dcroat" unicode="&#x111;" horiz-adv-x="1002" 
d="M5 518h88v322h422q243 0 352.5 -112.5t109.5 -307.5t-109.5 -307.5t-352.5 -112.5h-422v317h-88v201zM515 232q85 0 134.5 46t49.5 142q0 97 -49 142.5t-135 45.5h-144v-90h141v-201h-141v-85h144z" />
    <glyph glyph-name="Emacron" unicode="&#x112;" horiz-adv-x="827" 
d="M35 840h757v-222h-480v-107h462v-182h-462v-107h480v-222h-757v840zM176 1100h460v-201h-460v201z" />
    <glyph glyph-name="emacron" unicode="&#x113;" horiz-adv-x="827" 
d="M35 840h757v-222h-480v-107h462v-182h-462v-107h480v-222h-757v840zM176 1100h460v-201h-460v201z" />
    <glyph glyph-name="Edotaccent" unicode="&#x116;" horiz-adv-x="827" 
d="M35 840h757v-222h-480v-107h462v-182h-462v-107h480v-222h-757v840zM334.5 920.5q-29.5 27.5 -29.5 68.5t29.5 68.5t71.5 27.5t71.5 -27.5t29.5 -68.5t-29.5 -68.5t-71.5 -27.5t-71.5 27.5z" />
    <glyph glyph-name="edotaccent" unicode="&#x117;" horiz-adv-x="827" 
d="M35 840h757v-222h-480v-107h462v-182h-462v-107h480v-222h-757v840zM334.5 920.5q-29.5 27.5 -29.5 68.5t29.5 68.5t71.5 27.5t71.5 -27.5t29.5 -68.5t-29.5 -68.5t-71.5 -27.5t-71.5 27.5z" />
    <glyph glyph-name="Eogonek" unicode="&#x118;" horiz-adv-x="827" 
d="M35 840h757v-222h-480v-107h462v-182h-462v-107h480v-222q-46 0 -67 -14.5t-21 -34.5q0 -17 15 -31t46 -13v-150q-91 0 -163 33.5t-72 117.5q0 55 34 92h-529v840z" />
    <glyph glyph-name="eogonek" unicode="&#x119;" horiz-adv-x="827" 
d="M35 840h757v-222h-480v-107h462v-182h-462v-107h480v-222q-46 0 -67 -14.5t-21 -34.5q0 -17 15 -31t46 -13v-150q-91 0 -163 33.5t-72 117.5q0 55 34 92h-529v840z" />
    <glyph glyph-name="Ecaron" unicode="&#x11a;" horiz-adv-x="827" 
d="M35 840h757v-222h-480v-107h462v-182h-462v-107h480v-222h-757v840zM109 1050h233l41 -49h50l41 49h233l-132 -175h-334z" />
    <glyph glyph-name="ecaron" unicode="&#x11b;" horiz-adv-x="827" 
d="M35 840h757v-222h-480v-107h462v-182h-462v-107h480v-222h-757v840zM109 1050h233l41 -49h50l41 49h233l-132 -175h-334z" />
    <glyph glyph-name="Gbreve" unicode="&#x11e;" horiz-adv-x="979" 
d="M240 28q-102 56 -161 158t-59 234q0 133 59 234.5t168 157.5t253 56q104 0 197.5 -34.5t157.5 -107t80 -180.5h-275q-15 34 -57 58.5t-97 24.5q-63 0 -110.5 -26t-74 -73t-26.5 -110q0 -62 26.5 -110t73.5 -74.5t106 -26.5q58 0 106.5 25t63.5 86h-184v144h452v-464h-148
l-4 140q-42 -73 -121 -120.5t-199 -47.5q-125 0 -227 56zM317.5 921q-57.5 40 -55.5 129h158q-1 -30 18.5 -46t55.5 -16t55.5 16t18.5 46h158q2 -89 -55.5 -129t-176.5 -40t-176.5 40z" />
    <glyph glyph-name="gbreve" unicode="&#x11f;" horiz-adv-x="979" 
d="M240 28q-102 56 -161 158t-59 234q0 133 59 234.5t168 157.5t253 56q104 0 197.5 -34.5t157.5 -107t80 -180.5h-275q-15 34 -57 58.5t-97 24.5q-63 0 -110.5 -26t-74 -73t-26.5 -110q0 -62 26.5 -110t73.5 -74.5t106 -26.5q58 0 106.5 25t63.5 86h-184v144h452v-464h-148
l-4 140q-42 -73 -121 -120.5t-199 -47.5q-125 0 -227 56zM317.5 921q-57.5 40 -55.5 129h158q-1 -30 18.5 -46t55.5 -16t55.5 16t18.5 46h158q2 -89 -55.5 -129t-176.5 -40t-176.5 40z" />
    <glyph glyph-name="Gdotaccent" unicode="&#x120;" horiz-adv-x="979" 
d="M240 28q-102 56 -161 158t-59 234q0 133 59 234.5t168 157.5t253 56q104 0 197.5 -34.5t157.5 -107t80 -180.5h-275q-15 34 -57 58.5t-97 24.5q-63 0 -110.5 -26t-74 -73t-26.5 -110q0 -62 26.5 -110t73.5 -74.5t106 -26.5q58 0 106.5 25t63.5 86h-184v144h452v-464h-148
l-4 140q-42 -73 -121 -120.5t-199 -47.5q-125 0 -227 56zM422.5 920.5q-29.5 27.5 -29.5 68.5t29.5 68.5t71.5 27.5t71.5 -27.5t29.5 -68.5t-29.5 -68.5t-71.5 -27.5t-71.5 27.5z" />
    <glyph glyph-name="gdotaccent" unicode="&#x121;" horiz-adv-x="979" 
d="M240 28q-102 56 -161 158t-59 234q0 133 59 234.5t168 157.5t253 56q104 0 197.5 -34.5t157.5 -107t80 -180.5h-275q-15 34 -57 58.5t-97 24.5q-63 0 -110.5 -26t-74 -73t-26.5 -110q0 -62 26.5 -110t73.5 -74.5t106 -26.5q58 0 106.5 25t63.5 86h-184v144h452v-464h-148
l-4 140q-42 -73 -121 -120.5t-199 -47.5q-125 0 -227 56zM422.5 920.5q-29.5 27.5 -29.5 68.5t29.5 68.5t71.5 27.5t71.5 -27.5t29.5 -68.5t-29.5 -68.5t-71.5 -27.5t-71.5 27.5z" />
    <glyph glyph-name="uni0122" unicode="&#x122;" horiz-adv-x="979" 
d="M240 28q-102 56 -161 158t-59 234q0 133 59 234.5t168 157.5t253 56q104 0 197.5 -34.5t157.5 -107t80 -180.5h-275q-15 34 -57 58.5t-97 24.5q-63 0 -110.5 -26t-74 -73t-26.5 -110q0 -62 26.5 -110t73.5 -74.5t106 -26.5q58 0 106.5 25t63.5 86h-184v144h452v-464h-148
l-4 140q-42 -73 -121 -120.5t-199 -47.5q-125 0 -227 56zM449 -265h-94v199h281v-44q0 -136 -16 -230t-36 -130h-146q13 95 11 205z" />
    <glyph glyph-name="uni0123" unicode="&#x123;" horiz-adv-x="979" 
d="M240 28q-102 56 -161 158t-59 234q0 133 59 234.5t168 157.5t253 56q104 0 197.5 -34.5t157.5 -107t80 -180.5h-275q-15 34 -57 58.5t-97 24.5q-63 0 -110.5 -26t-74 -73t-26.5 -110q0 -62 26.5 -110t73.5 -74.5t106 -26.5q58 0 106.5 25t63.5 86h-184v144h452v-464h-148
l-4 140q-42 -73 -121 -120.5t-199 -47.5q-125 0 -227 56zM449 -265h-94v199h281v-44q0 -136 -16 -230t-36 -130h-146q13 95 11 205z" />
    <glyph glyph-name="Hbar" unicode="&#x126;" horiz-adv-x="950" 
d="M638 304h-326v-304h-277v840h277v-63h326v63h277v-840h-277v304zM638 536v51h-326v-51h326z" />
    <glyph glyph-name="hbar" unicode="&#x127;" horiz-adv-x="950" 
d="M638 304h-326v-304h-277v840h277v-63h326v63h277v-840h-277v304zM638 536v51h-326v-51h326z" />
    <glyph glyph-name="Imacron" unicode="&#x12a;" horiz-adv-x="347" 
d="M35 840h277v-840h-277v840zM-57 1100h460v-201h-460v201z" />
    <glyph glyph-name="imacron" unicode="&#x12b;" horiz-adv-x="347" 
d="M35 840h277v-840h-277v840zM-57 1100h460v-201h-460v201z" />
    <glyph glyph-name="Iogonek" unicode="&#x12e;" horiz-adv-x="347" 
d="M35 840h277v-840q-46 0 -67 -14.5t-21 -34.5q0 -17 15 -31t46 -13v-150q-91 0 -163 33.5t-72 117.5q0 55 34 92h-49v840z" />
    <glyph glyph-name="iogonek" unicode="&#x12f;" horiz-adv-x="347" 
d="M35 840h277v-840q-46 0 -67 -14.5t-21 -34.5q0 -17 15 -31t46 -13v-150q-91 0 -163 33.5t-72 117.5q0 55 34 92h-49v840z" />
    <glyph glyph-name="Idotaccent" unicode="&#x130;" horiz-adv-x="347" 
d="M35 840h277v-840h-277v840zM101.5 920.5q-29.5 27.5 -29.5 68.5t29.5 68.5t71.5 27.5t71.5 -27.5t29.5 -68.5t-29.5 -68.5t-71.5 -27.5t-71.5 27.5z" />
    <glyph glyph-name="dotlessi" unicode="&#x131;" horiz-adv-x="347" 
d="M35 840h277v-840h-277v840z" />
    <glyph glyph-name="IJ" unicode="&#x132;" horiz-adv-x="1174" 
d="M35 840h277v-840h-277v840zM465.5 52q-99.5 80 -96.5 276h276q-1 -121 108 -121t109 145v488h277v-474q0 -145 -46 -232t-132 -124.5t-214 -37.5q-182 0 -281.5 80z" />
    <glyph glyph-name="uni0136" unicode="&#x136;" horiz-adv-x="946" 
d="M35 840h276v-333h18l303 333h308l-341 -374l352 -466h-283l-224 299h-18l-115 -123v-176h-276v840zM435 -265h-94v199h281v-44q0 -136 -16 -230t-36 -130h-146q13 95 11 205z" />
    <glyph glyph-name="uni0137" unicode="&#x137;" horiz-adv-x="946" 
d="M35 840h276v-333h18l303 333h308l-341 -374l352 -466h-283l-224 299h-18l-115 -123v-176h-276v840zM435 -265h-94v199h281v-44q0 -136 -16 -230t-36 -130h-146q13 95 11 205z" />
    <glyph glyph-name="Lacute" unicode="&#x139;" horiz-adv-x="795" 
d="M35 840h277v-609h448v-231h-725v840zM107 1040h245l-72 -175h-245z" />
    <glyph glyph-name="lacute" unicode="&#x13a;" horiz-adv-x="795" 
d="M35 840h277v-609h448v-231h-725v840zM107 1040h245l-72 -175h-245z" />
    <glyph glyph-name="uni013B" unicode="&#x13b;" horiz-adv-x="795" 
d="M35 840h277v-609h448v-231h-725v840zM352 -265h-94v199h281v-44q0 -136 -16 -230t-36 -130h-146q13 95 11 205z" />
    <glyph glyph-name="uni013C" unicode="&#x13c;" horiz-adv-x="795" 
d="M35 840h277v-609h448v-231h-725v840zM352 -265h-94v199h281v-44q0 -136 -16 -230t-36 -130h-146q13 95 11 205z" />
    <glyph glyph-name="Lcaron" unicode="&#x13d;" horiz-adv-x="795" 
d="M35 840h277v-609h448v-231h-725v840zM513 609h-109v231h326v-51q0 -157 -18.5 -266t-41.5 -152h-170q15 105 13 238z" />
    <glyph glyph-name="lcaron" unicode="&#x13e;" horiz-adv-x="795" 
d="M35 840h277v-609h448v-231h-725v840zM513 609h-109v231h326v-51q0 -157 -18.5 -266t-41.5 -152h-170q15 105 13 238z" />
    <glyph glyph-name="Ldot" unicode="&#x13f;" horiz-adv-x="795" 
d="M35 840h277v-609h448v-231h-725v840zM483.5 410.5q-31.5 18.5 -50.5 50t-19 67.5t19 67.5t50.5 50t68.5 18.5t68.5 -18.5t50.5 -50t19 -67.5t-19 -67.5t-50.5 -50t-68.5 -18.5t-68.5 18.5z" />
    <glyph glyph-name="Lslash" unicode="&#x141;" horiz-adv-x="831" 
d="M0 353l71 54v433h277v-221l140 107v-198l-140 -107v-190h448v-231h-725v209l-71 -54v198z" />
    <glyph glyph-name="lslash" unicode="&#x142;" horiz-adv-x="831" 
d="M0 353l71 54v433h277v-221l140 107v-198l-140 -107v-190h448v-231h-725v209l-71 -54v198z" />
    <glyph glyph-name="Nacute" unicode="&#x143;" horiz-adv-x="962" 
d="M35 840h318l279 -454h25v454h270v-840h-311l-286 454h-25v-454h-270v840zM429 1050h245l-72 -175h-245z" />
    <glyph glyph-name="nacute" unicode="&#x144;" horiz-adv-x="962" 
d="M35 840h318l279 -454h25v454h270v-840h-311l-286 454h-25v-454h-270v840zM429 1050h245l-72 -175h-245z" />
    <glyph glyph-name="uni0145" unicode="&#x145;" horiz-adv-x="962" 
d="M35 840h318l279 -454h25v454h270v-840h-311l-286 454h-25v-454h-270v840zM436 -265h-94v199h281v-44q0 -136 -16 -230t-36 -130h-146q13 95 11 205z" />
    <glyph glyph-name="uni0146" unicode="&#x146;" horiz-adv-x="962" 
d="M35 840h318l279 -454h25v454h270v-840h-311l-286 454h-25v-454h-270v840zM436 -265h-94v199h281v-44q0 -136 -16 -230t-36 -130h-146q13 95 11 205z" />
    <glyph glyph-name="Ncaron" unicode="&#x147;" horiz-adv-x="962" 
d="M35 840h318l279 -454h25v454h270v-840h-311l-286 454h-25v-454h-270v840zM184 1050h233l41 -49h50l41 49h233l-132 -175h-334z" />
    <glyph glyph-name="ncaron" unicode="&#x148;" horiz-adv-x="962" 
d="M35 840h318l279 -454h25v454h270v-840h-311l-286 454h-25v-454h-270v840zM184 1050h233l41 -49h50l41 49h233l-132 -175h-334z" />
    <glyph glyph-name="Eng" unicode="&#x14a;" horiz-adv-x="962" 
d="M601 -62q21 3 38.5 16.5t17.5 43.5v2h-41l-286 454h-25v-454h-270v840h318l279 -454h25v454h270v-838v-2q-1 -152 -100 -224.5t-282 -72.5l4 232q31 0 52 3z" />
    <glyph glyph-name="eng" unicode="&#x14b;" horiz-adv-x="962" 
d="M601 -62q21 3 38.5 16.5t17.5 43.5v2h-41l-286 454h-25v-454h-270v840h318l279 -454h25v454h270v-838v-2q-1 -152 -100 -224.5t-282 -72.5l4 232q31 0 52 3z" />
    <glyph glyph-name="Omacron" unicode="&#x14c;" horiz-adv-x="992" 
d="M245 28q-108 56 -166.5 157.5t-58.5 234.5t58.5 234.5t166.5 157.5t251 56t251 -56t166.5 -157.5t58.5 -234.5t-58.5 -234.5t-166.5 -157.5t-251 -56t-251 56zM597.5 236q45.5 25 72.5 72t27 112t-27 112t-72.5 72t-101.5 25t-101.5 -25t-72.5 -72t-27 -112t27 -112
t72.5 -72t101.5 -25t101.5 25zM266 1104h460v-201h-460v201z" />
    <glyph glyph-name="omacron" unicode="&#x14d;" horiz-adv-x="992" 
d="M245 28q-108 56 -166.5 157.5t-58.5 234.5t58.5 234.5t166.5 157.5t251 56t251 -56t166.5 -157.5t58.5 -234.5t-58.5 -234.5t-166.5 -157.5t-251 -56t-251 56zM597.5 236q45.5 25 72.5 72t27 112t-27 112t-72.5 72t-101.5 25t-101.5 -25t-72.5 -72t-27 -112t27 -112
t72.5 -72t101.5 -25t101.5 25zM266 1104h460v-201h-460v201z" />
    <glyph glyph-name="Ohungarumlaut" unicode="&#x150;" horiz-adv-x="992" 
d="M245 28q-108 56 -166.5 157.5t-58.5 234.5t58.5 234.5t166.5 157.5t251 56t251 -56t166.5 -157.5t58.5 -234.5t-58.5 -234.5t-166.5 -157.5t-251 -56t-251 56zM597.5 236q45.5 25 72.5 72t27 112t-27 112t-72.5 72t-101.5 25t-101.5 -25t-72.5 -72t-27 -112t27 -112
t72.5 -72t101.5 -25t101.5 25zM278 1060h245l-72 -175h-245zM595 1060h245l-72 -175h-245z" />
    <glyph glyph-name="ohungarumlaut" unicode="&#x151;" horiz-adv-x="992" 
d="M245 28q-108 56 -166.5 157.5t-58.5 234.5t58.5 234.5t166.5 157.5t251 56t251 -56t166.5 -157.5t58.5 -234.5t-58.5 -234.5t-166.5 -157.5t-251 -56t-251 56zM597.5 236q45.5 25 72.5 72t27 112t-27 112t-72.5 72t-101.5 25t-101.5 -25t-72.5 -72t-27 -112t27 -112
t72.5 -72t101.5 -25t101.5 25zM278 1060h245l-72 -175h-245zM595 1060h245l-72 -175h-245z" />
    <glyph glyph-name="OE" unicode="&#x152;" horiz-adv-x="1488" 
d="M245 28q-108 56 -166.5 157.5t-58.5 234.5t58.5 234.5t166.5 157.5t251 56q109 0 200 -34v6h757v-222h-480v-107h462v-182h-462v-107h480v-222h-757v6q-91 -34 -200 -34q-143 0 -251 56zM592 233q44 22 71.5 64t32.5 99v48q-5 57 -32.5 99t-71.5 64t-96 22
q-56 0 -101.5 -25t-72.5 -72t-27 -112t27 -112t72.5 -72t101.5 -25q52 0 96 22z" />
    <glyph glyph-name="oe" unicode="&#x153;" horiz-adv-x="1488" 
d="M245 28q-108 56 -166.5 157.5t-58.5 234.5t58.5 234.5t166.5 157.5t251 56q109 0 200 -34v6h757v-222h-480v-107h462v-182h-462v-107h480v-222h-757v6q-91 -34 -200 -34q-143 0 -251 56zM592 233q44 22 71.5 64t32.5 99v48q-5 57 -32.5 99t-71.5 64t-96 22
q-56 0 -101.5 -25t-72.5 -72t-27 -112t27 -112t72.5 -72t101.5 -25q52 0 96 22z" />
    <glyph glyph-name="Racute" unicode="&#x154;" horiz-adv-x="928" 
d="M35 840h481q178 0 271 -79t93 -242q0 -81 -32.5 -142t-89.5 -101l150 -276h-272l-114 217h-210v-217h-277v840zM576 448q27 24 27 69t-27 69t-79 24h-185v-186h185q52 0 79 24zM403 1050h245l-72 -175h-245z" />
    <glyph glyph-name="racute" unicode="&#x155;" horiz-adv-x="928" 
d="M35 840h481q178 0 271 -79t93 -242q0 -81 -32.5 -142t-89.5 -101l150 -276h-272l-114 217h-210v-217h-277v840zM576 448q27 24 27 69t-27 69t-79 24h-185v-186h185q52 0 79 24zM403 1050h245l-72 -175h-245z" />
    <glyph glyph-name="uni0156" unicode="&#x156;" horiz-adv-x="928" 
d="M35 840h481q178 0 271 -79t93 -242q0 -81 -32.5 -142t-89.5 -101l150 -276h-272l-114 217h-210v-217h-277v840zM576 448q27 24 27 69t-27 69t-79 24h-185v-186h185q52 0 79 24zM410 -265h-94v199h281v-44q0 -136 -16 -230t-36 -130h-146q13 95 11 205z" />
    <glyph glyph-name="uni0157" unicode="&#x157;" horiz-adv-x="928" 
d="M35 840h481q178 0 271 -79t93 -242q0 -81 -32.5 -142t-89.5 -101l150 -276h-272l-114 217h-210v-217h-277v840zM576 448q27 24 27 69t-27 69t-79 24h-185v-186h185q52 0 79 24zM410 -265h-94v199h281v-44q0 -136 -16 -230t-36 -130h-146q13 95 11 205z" />
    <glyph glyph-name="Rcaron" unicode="&#x158;" horiz-adv-x="928" 
d="M35 840h481q178 0 271 -79t93 -242q0 -81 -32.5 -142t-89.5 -101l150 -276h-272l-114 217h-210v-217h-277v840zM576 448q27 24 27 69t-27 69t-79 24h-185v-186h185q52 0 79 24zM158 1050h233l41 -49h50l41 49h233l-132 -175h-334z" />
    <glyph glyph-name="rcaron" unicode="&#x159;" horiz-adv-x="928" 
d="M35 840h481q178 0 271 -79t93 -242q0 -81 -32.5 -142t-89.5 -101l150 -276h-272l-114 217h-210v-217h-277v840zM576 448q27 24 27 69t-27 69t-79 24h-185v-186h185q52 0 79 24zM158 1050h233l41 -49h50l41 49h233l-132 -175h-334z" />
    <glyph glyph-name="Sacute" unicode="&#x15a;" horiz-adv-x="883" 
d="M113.5 45q-103.5 73 -98.5 236h249q2 -45 44 -69t132 -24q74 0 112 19t38 49q0 24 -20.5 41.5t-76.5 25.5l-108 17l-24 4q-104 16 -169 36.5t-111 72.5t-46 147q0 127 102.5 197.5t299.5 70.5t302.5 -69t101.5 -238h-247q-16 91 -163 91q-66 0 -98 -18t-32 -48
q0 -22 17.5 -39t61.5 -24l89 -15l57 -9q108 -16 175.5 -36t115.5 -71.5t48 -146.5q0 -273 -425 -273q-223 0 -326.5 73zM392 1050h245l-72 -175h-245z" />
    <glyph glyph-name="sacute" unicode="&#x15b;" horiz-adv-x="883" 
d="M113.5 45q-103.5 73 -98.5 236h249q2 -45 44 -69t132 -24q74 0 112 19t38 49q0 24 -20.5 41.5t-76.5 25.5l-108 17l-24 4q-104 16 -169 36.5t-111 72.5t-46 147q0 127 102.5 197.5t299.5 70.5t302.5 -69t101.5 -238h-247q-16 91 -163 91q-66 0 -98 -18t-32 -48
q0 -22 17.5 -39t61.5 -24l89 -15l57 -9q108 -16 175.5 -36t115.5 -71.5t48 -146.5q0 -273 -425 -273q-223 0 -326.5 73zM392 1050h245l-72 -175h-245z" />
    <glyph glyph-name="Scedilla" unicode="&#x15e;" horiz-adv-x="883" 
d="M389 -169q24 0 36.5 5t12.5 11q0 8 -14 15.5t-40 7.5t-57 -8v66l59 45q-194 8 -285 82t-86 226h249q2 -45 44 -69t132 -24q74 0 112 19t38 49q0 24 -20.5 41.5t-76.5 25.5l-108 17l-24 4q-104 16 -169 36.5t-111 72.5t-46 147q0 127 102.5 197.5t299.5 70.5t302.5 -69
t101.5 -238h-247q-16 91 -163 91q-66 0 -98 -18t-32 -48q0 -22 17.5 -39t61.5 -24l89 -15l57 -9q108 -16 175.5 -36t115.5 -71.5t48 -146.5q0 -262 -388 -272l-8 -7q47 -3 81.5 -32.5t34.5 -82.5q0 -61 -49 -94t-127 -33q-40 0 -82 9v105q36 -7 62 -7z" />
    <glyph glyph-name="scedilla" unicode="&#x15f;" horiz-adv-x="883" 
d="M389 -169q24 0 36.5 5t12.5 11q0 8 -14 15.5t-40 7.5t-57 -8v66l59 45q-194 8 -285 82t-86 226h249q2 -45 44 -69t132 -24q74 0 112 19t38 49q0 24 -20.5 41.5t-76.5 25.5l-108 17l-24 4q-104 16 -169 36.5t-111 72.5t-46 147q0 127 102.5 197.5t299.5 70.5t302.5 -69
t101.5 -238h-247q-16 91 -163 91q-66 0 -98 -18t-32 -48q0 -22 17.5 -39t61.5 -24l89 -15l57 -9q108 -16 175.5 -36t115.5 -71.5t48 -146.5q0 -262 -388 -272l-8 -7q47 -3 81.5 -32.5t34.5 -82.5q0 -61 -49 -94t-127 -33q-40 0 -82 9v105q36 -7 62 -7z" />
    <glyph glyph-name="Scaron" unicode="&#x160;" horiz-adv-x="883" 
d="M113.5 45q-103.5 73 -98.5 236h249q2 -45 44 -69t132 -24q74 0 112 19t38 49q0 24 -20.5 41.5t-76.5 25.5l-108 17l-24 4q-104 16 -169 36.5t-111 72.5t-46 147q0 127 102.5 197.5t299.5 70.5t302.5 -69t101.5 -238h-247q-16 91 -163 91q-66 0 -98 -18t-32 -48
q0 -22 17.5 -39t61.5 -24l89 -15l57 -9q108 -16 175.5 -36t115.5 -71.5t48 -146.5q0 -273 -425 -273q-223 0 -326.5 73zM147 1050h233l41 -49h50l41 49h233l-132 -175h-334z" />
    <glyph glyph-name="scaron" unicode="&#x161;" horiz-adv-x="883" 
d="M113.5 45q-103.5 73 -98.5 236h249q2 -45 44 -69t132 -24q74 0 112 19t38 49q0 24 -20.5 41.5t-76.5 25.5l-108 17l-24 4q-104 16 -169 36.5t-111 72.5t-46 147q0 127 102.5 197.5t299.5 70.5t302.5 -69t101.5 -238h-247q-16 91 -163 91q-66 0 -98 -18t-32 -48
q0 -22 17.5 -39t61.5 -24l89 -15l57 -9q108 -16 175.5 -36t115.5 -71.5t48 -146.5q0 -273 -425 -273q-223 0 -326.5 73zM147 1050h233l41 -49h50l41 49h233l-132 -175h-334z" />
    <glyph glyph-name="uni0162" unicode="&#x162;" horiz-adv-x="941" 
d="M332 609h-302v231h881v-231h-302v-609h-277v609zM416 -169q24 0 36.5 5t12.5 11q0 8 -14 15.5t-40 7.5t-57 -8v66l94 72h93l-45 -34q47 -3 81.5 -32.5t34.5 -82.5q0 -61 -49 -94t-127 -33q-40 0 -82 9v105q36 -7 62 -7z" />
    <glyph glyph-name="uni0163" unicode="&#x163;" horiz-adv-x="941" 
d="M332 609h-302v231h881v-231h-302v-609h-277v609zM416 -169q24 0 36.5 5t12.5 11q0 8 -14 15.5t-40 7.5t-57 -8v66l94 72h93l-45 -34q47 -3 81.5 -32.5t34.5 -82.5q0 -61 -49 -94t-127 -33q-40 0 -82 9v105q36 -7 62 -7z" />
    <glyph glyph-name="Tcaron" unicode="&#x164;" horiz-adv-x="941" 
d="M332 609h-302v231h881v-231h-302v-609h-277v609zM174 1050h233l41 -49h50l41 49h233l-132 -175h-334z" />
    <glyph glyph-name="tcaron" unicode="&#x165;" horiz-adv-x="941" 
d="M332 609h-302v231h881v-231h-302v-609h-277v609zM174 1050h233l41 -49h50l41 49h233l-132 -175h-334z" />
    <glyph glyph-name="Tbar" unicode="&#x166;" horiz-adv-x="941" 
d="M332 231h-217v201h217v177h-302v231h881v-231h-302v-177h219v-201h-219v-231h-277v231z" />
    <glyph glyph-name="tbar" unicode="&#x167;" horiz-adv-x="941" 
d="M332 231h-217v201h217v177h-302v231h881v-231h-302v-177h219v-201h-219v-231h-277v231z" />
    <glyph glyph-name="Umacron" unicode="&#x16a;" horiz-adv-x="940" 
d="M143 68q-108 96 -108 298v474h279v-467q0 -81 38 -125t118 -44t119 44t39 125v467h277v-472q0 -203 -108 -299.5t-327 -96.5t-327 96zM240 1100h460v-201h-460v201z" />
    <glyph glyph-name="umacron" unicode="&#x16b;" horiz-adv-x="940" 
d="M143 68q-108 96 -108 298v474h279v-467q0 -81 38 -125t118 -44t119 44t39 125v467h277v-472q0 -203 -108 -299.5t-327 -96.5t-327 96zM240 1100h460v-201h-460v201z" />
    <glyph glyph-name="Ubreve" unicode="&#x16c;" horiz-adv-x="940" 
d="M143 68q-108 96 -108 298v474h279v-467q0 -81 38 -125t118 -44t119 44t39 125v467h277v-472q0 -203 -108 -299.5t-327 -96.5t-327 96zM293.5 921q-57.5 40 -55.5 129h158q-1 -30 18.5 -46t55.5 -16t55.5 16t18.5 46h158q2 -89 -55.5 -129t-176.5 -40t-176.5 40z" />
    <glyph glyph-name="ubreve" unicode="&#x16d;" horiz-adv-x="940" 
d="M143 68q-108 96 -108 298v474h279v-467q0 -81 38 -125t118 -44t119 44t39 125v467h277v-472q0 -203 -108 -299.5t-327 -96.5t-327 96zM293.5 921q-57.5 40 -55.5 129h158q-1 -30 18.5 -46t55.5 -16t55.5 16t18.5 46h158q2 -89 -55.5 -129t-176.5 -40t-176.5 40z" />
    <glyph glyph-name="Uring" unicode="&#x16e;" horiz-adv-x="940" 
d="M143 68q-108 96 -108 298v474h279v-467q0 -81 38 -125t118 -44t119 44t39 125v467h277v-472q0 -203 -108 -299.5t-327 -96.5t-327 96zM397.5 795q-32.5 19 -51.5 51.5t-19 70.5q0 39 19 72t51.5 52t72.5 19t72 -19t50.5 -52t18.5 -72q0 -38 -18.5 -70.5t-50.5 -51.5
t-72 -19t-72.5 19zM489.5 897q8.5 8 8.5 22t-8.5 22t-21.5 8q-12 0 -20 -7.5t-8 -22.5q0 -14 8 -22t20 -8q13 0 21.5 8z" />
    <glyph glyph-name="uring" unicode="&#x16f;" horiz-adv-x="940" 
d="M143 68q-108 96 -108 298v474h279v-467q0 -81 38 -125t118 -44t119 44t39 125v467h277v-472q0 -203 -108 -299.5t-327 -96.5t-327 96zM397.5 795q-32.5 19 -51.5 51.5t-19 70.5q0 39 19 72t51.5 52t72.5 19t72 -19t50.5 -52t18.5 -72q0 -38 -18.5 -70.5t-50.5 -51.5
t-72 -19t-72.5 19zM489.5 897q8.5 8 8.5 22t-8.5 22t-21.5 8q-12 0 -20 -7.5t-8 -22.5q0 -14 8 -22t20 -8q13 0 21.5 8z" />
    <glyph glyph-name="Uhungarumlaut" unicode="&#x170;" horiz-adv-x="940" 
d="M143 68q-108 96 -108 298v474h279v-467q0 -81 38 -125t118 -44t119 44t39 125v467h277v-472q0 -203 -108 -299.5t-327 -96.5t-327 96zM252 1056h245l-72 -175h-245zM569 1056h245l-72 -175h-245z" />
    <glyph glyph-name="uhungarumlaut" unicode="&#x171;" horiz-adv-x="940" 
d="M143 68q-108 96 -108 298v474h279v-467q0 -81 38 -125t118 -44t119 44t39 125v467h277v-472q0 -203 -108 -299.5t-327 -96.5t-327 96zM252 1056h245l-72 -175h-245zM569 1056h245l-72 -175h-245z" />
    <glyph glyph-name="Uogonek" unicode="&#x172;" horiz-adv-x="940" 
d="M368.5 -208.5q-72.5 34.5 -72.5 116.5q0 48 30 76q-146 29 -218.5 123t-72.5 259v474h279v-467q0 -81 38 -125t118 -44t119 44t39 125v467h277v-472q0 -176 -81.5 -272t-246.5 -118q-53 -4 -75 -13.5t-22 -24.5q0 -11 10 -22.5t41 -10.5v-150q-90 0 -162.5 34.5z" />
    <glyph glyph-name="uogonek" unicode="&#x173;" horiz-adv-x="940" 
d="M368.5 -208.5q-72.5 34.5 -72.5 116.5q0 48 30 76q-146 29 -218.5 123t-72.5 259v474h279v-467q0 -81 38 -125t118 -44t119 44t39 125v467h277v-472q0 -176 -81.5 -272t-246.5 -118q-53 -4 -75 -13.5t-22 -24.5q0 -11 10 -22.5t41 -10.5v-150q-90 0 -162.5 34.5z" />
    <glyph glyph-name="Wcircumflex" unicode="&#x174;" horiz-adv-x="1290" 
d="M20 840h281l90 -544h24l120 544h220l120 -544h24l90 544h281l-163 -840h-374l-76 404h-24l-76 -404h-374zM479 1050h334l132 -175h-233l-41 49h-50l-41 -49h-233z" />
    <glyph glyph-name="wcircumflex" unicode="&#x175;" horiz-adv-x="1290" 
d="M20 840h281l90 -544h24l120 544h220l120 -544h24l90 544h281l-163 -840h-374l-76 404h-24l-76 -404h-374zM479 1050h334l132 -175h-233l-41 49h-50l-41 -49h-233z" />
    <glyph glyph-name="Ycircumflex" unicode="&#x176;" horiz-adv-x="964" 
d="M343 262l-343 578h291l180 -316h22l180 316h291l-344 -579v-261h-277v262zM315 1050h334l132 -175h-233l-41 49h-50l-41 -49h-233z" />
    <glyph glyph-name="ycircumflex" unicode="&#x177;" horiz-adv-x="964" 
d="M343 262l-343 578h291l180 -316h22l180 316h291l-344 -579v-261h-277v262zM315 1050h334l132 -175h-233l-41 49h-50l-41 -49h-233z" />
    <glyph glyph-name="Ydieresis" unicode="&#x178;" horiz-adv-x="964" 
d="M343 262l-343 578h291l180 -316h22l180 316h291l-344 -579v-261h-277v262zM562.5 920.5q-29.5 27.5 -29.5 68.5t29.5 68.5t71.5 27.5t71.5 -27.5t29.5 -68.5t-29.5 -68.5t-71.5 -27.5t-71.5 27.5zM257.5 920.5q-29.5 27.5 -29.5 68.5t29.5 68.5t71.5 27.5t71.5 -27.5
t29.5 -68.5t-29.5 -68.5t-71.5 -27.5t-71.5 27.5z" />
    <glyph glyph-name="Zacute" unicode="&#x179;" horiz-adv-x="830" 
d="M20 223l430 365v21h-420v231h780v-223l-436 -365v-21h430v-231h-784v223zM362 1050h245l-72 -175h-245z" />
    <glyph glyph-name="zacute" unicode="&#x17a;" horiz-adv-x="830" 
d="M20 223l430 365v21h-420v231h780v-223l-436 -365v-21h430v-231h-784v223zM362 1050h245l-72 -175h-245z" />
    <glyph glyph-name="Zdotaccent" unicode="&#x17b;" horiz-adv-x="830" 
d="M20 223l430 365v21h-420v231h780v-223l-436 -365v-21h430v-231h-784v223zM342.5 920.5q-29.5 27.5 -29.5 68.5t29.5 68.5t71.5 27.5t71.5 -27.5t29.5 -68.5t-29.5 -68.5t-71.5 -27.5t-71.5 27.5z" />
    <glyph glyph-name="zdotaccent" unicode="&#x17c;" horiz-adv-x="830" 
d="M20 223l430 365v21h-420v231h780v-223l-436 -365v-21h430v-231h-784v223zM342.5 920.5q-29.5 27.5 -29.5 68.5t29.5 68.5t71.5 27.5t71.5 -27.5t29.5 -68.5t-29.5 -68.5t-71.5 -27.5t-71.5 27.5z" />
    <glyph glyph-name="Zcaron" unicode="&#x17d;" horiz-adv-x="830" 
d="M20 223l430 365v21h-420v231h780v-223l-436 -365v-21h430v-231h-784v223zM117 1050h233l41 -49h50l41 49h233l-132 -175h-334z" />
    <glyph glyph-name="zcaron" unicode="&#x17e;" horiz-adv-x="830" 
d="M20 223l430 365v21h-420v231h780v-223l-436 -365v-21h430v-231h-784v223zM117 1050h233l41 -49h50l41 49h233l-132 -175h-334z" />
    <glyph glyph-name="florin" unicode="&#x192;" horiz-adv-x="767" 
d="M123 -6.5q-51 9.5 -83 28.5v200q55 -21 120 -21q42 0 69.5 20.5t27.5 63.5v62h-217v211h217v77q0 130 79.5 194t204.5 64q52 0 103 -9.5t83 -28.5v-200q-55 21 -120 21q-42 0 -69.5 -20.5t-27.5 -63.5v-34h217v-211h-217v-105q0 -130 -79.5 -194t-204.5 -64
q-52 0 -103 9.5z" />
    <glyph glyph-name="uni01CD" unicode="&#x1cd;" 
d="M314 840h388l309 -840h-286l-37 111h-360l-37 -111h-286zM620 316l-88 264h-48l-88 -264h224zM211 1050h233l41 -49h50l41 49h233l-132 -175h-334z" />
    <glyph glyph-name="uni01CE" unicode="&#x1ce;" 
d="M314 840h388l309 -840h-286l-37 111h-360l-37 -111h-286zM620 316l-88 264h-48l-88 -264h224zM211 1050h233l41 -49h50l41 49h233l-132 -175h-334z" />
    <glyph glyph-name="uni01CF" unicode="&#x1cf;" horiz-adv-x="347" 
d="M35 840h277v-840h-277v840zM-124 1050h233l41 -49h50l41 49h233l-132 -175h-334z" />
    <glyph glyph-name="uni01D0" unicode="&#x1d0;" horiz-adv-x="347" 
d="M35 840h277v-840h-277v840zM-124 1050h233l41 -49h50l41 49h233l-132 -175h-334z" />
    <glyph glyph-name="uni01D1" unicode="&#x1d1;" horiz-adv-x="992" 
d="M245 28q-108 56 -166.5 157.5t-58.5 234.5t58.5 234.5t166.5 157.5t251 56t251 -56t166.5 -157.5t58.5 -234.5t-58.5 -234.5t-166.5 -157.5t-251 -56t-251 56zM597.5 236q45.5 25 72.5 72t27 112t-27 112t-72.5 72t-101.5 25t-101.5 -25t-72.5 -72t-27 -112t27 -112
t72.5 -72t101.5 -25t101.5 25zM199 1054h233l41 -49h50l41 49h233l-132 -175h-334z" />
    <glyph glyph-name="uni01D2" unicode="&#x1d2;" horiz-adv-x="992" 
d="M245 28q-108 56 -166.5 157.5t-58.5 234.5t58.5 234.5t166.5 157.5t251 56t251 -56t166.5 -157.5t58.5 -234.5t-58.5 -234.5t-166.5 -157.5t-251 -56t-251 56zM597.5 236q45.5 25 72.5 72t27 112t-27 112t-72.5 72t-101.5 25t-101.5 -25t-72.5 -72t-27 -112t27 -112
t72.5 -72t101.5 -25t101.5 25zM199 1054h233l41 -49h50l41 49h233l-132 -175h-334z" />
    <glyph glyph-name="uni01D3" unicode="&#x1d3;" horiz-adv-x="940" 
d="M143 68q-108 96 -108 298v474h279v-467q0 -81 38 -125t118 -44t119 44t39 125v467h277v-472q0 -203 -108 -299.5t-327 -96.5t-327 96zM173 1050h233l41 -49h50l41 49h233l-132 -175h-334z" />
    <glyph glyph-name="uni01D4" unicode="&#x1d4;" horiz-adv-x="940" 
d="M143 68q-108 96 -108 298v474h279v-467q0 -81 38 -125t118 -44t119 44t39 125v467h277v-472q0 -203 -108 -299.5t-327 -96.5t-327 96zM173 1050h233l41 -49h50l41 49h233l-132 -175h-334z" />
    <glyph glyph-name="uni01EA" unicode="&#x1ea;" horiz-adv-x="992" 
d="M597.5 236q45.5 25 72.5 72t27 112t-27 112t-72.5 72t-101.5 25t-101.5 -25t-72.5 -72t-27 -112t27 -112t72.5 -72t101.5 -25t101.5 25zM473 -207.5q-72 33.5 -72 117.5q0 37 16 67q-121 15 -210.5 73.5t-138 153.5t-48.5 216q0 133 58.5 234.5t166.5 157.5t251 56
t251 -56t166.5 -157.5t58.5 -234.5q0 -119 -47 -213t-134.5 -153.5t-205.5 -75.5q-10 -11 -10 -25q0 -17 15 -31t46 -13v-150q-91 0 -163 33.5z" />
    <glyph glyph-name="uni0218" unicode="&#x218;" horiz-adv-x="883" 
d="M113.5 45q-103.5 73 -98.5 236h249q2 -45 44 -69t132 -24q74 0 112 19t38 49q0 24 -20.5 41.5t-76.5 25.5l-108 17l-24 4q-104 16 -169 36.5t-111 72.5t-46 147q0 127 102.5 197.5t299.5 70.5t302.5 -69t101.5 -238h-247q-16 91 -163 91q-66 0 -98 -18t-32 -48
q0 -22 17.5 -39t61.5 -24l89 -15l57 -9q108 -16 175.5 -36t115.5 -71.5t48 -146.5q0 -273 -425 -273q-223 0 -326.5 73zM399 -265h-94v199h281v-44q0 -136 -16 -230t-36 -130h-146q13 95 11 205z" />
    <glyph glyph-name="uni0219" unicode="&#x219;" horiz-adv-x="883" 
d="M113.5 45q-103.5 73 -98.5 236h249q2 -45 44 -69t132 -24q74 0 112 19t38 49q0 24 -20.5 41.5t-76.5 25.5l-108 17l-24 4q-104 16 -169 36.5t-111 72.5t-46 147q0 127 102.5 197.5t299.5 70.5t302.5 -69t101.5 -238h-247q-16 91 -163 91q-66 0 -98 -18t-32 -48
q0 -22 17.5 -39t61.5 -24l89 -15l57 -9q108 -16 175.5 -36t115.5 -71.5t48 -146.5q0 -273 -425 -273q-223 0 -326.5 73zM399 -265h-94v199h281v-44q0 -136 -16 -230t-36 -130h-146q13 95 11 205z" />
    <glyph glyph-name="uni021A" unicode="&#x21a;" horiz-adv-x="941" 
d="M332 609h-302v231h881v-231h-302v-609h-277v609zM426 -265h-94v199h281v-44q0 -136 -16 -230t-36 -130h-146q13 95 11 205z" />
    <glyph glyph-name="uni021B" unicode="&#x21b;" horiz-adv-x="941" 
d="M332 609h-302v231h881v-231h-302v-609h-277v609zM426 -265h-94v199h281v-44q0 -136 -16 -230t-36 -130h-146q13 95 11 205z" />
    <glyph glyph-name="circumflex" unicode="&#x2c6;" horiz-adv-x="598" 
d="M132 840h334l132 -175h-233l-41 49h-50l-41 -49h-233z" />
    <glyph glyph-name="caron" unicode="&#x2c7;" horiz-adv-x="598" 
d="M0 840h233l41 -49h50l41 49h233l-132 -175h-334z" />
    <glyph glyph-name="breve" unicode="&#x2d8;" horiz-adv-x="464" 
d="M55.5 711q-57.5 40 -55.5 129h158q-1 -30 18.5 -46t55.5 -16t55.5 16t18.5 46h158q2 -89 -55.5 -129t-176.5 -40t-176.5 40z" />
    <glyph glyph-name="dotaccent" unicode="&#x2d9;" horiz-adv-x="202" 
d="M29.5 710.5q-29.5 27.5 -29.5 68.5t29.5 68.5t71.5 27.5t71.5 -27.5t29.5 -68.5t-29.5 -68.5t-71.5 -27.5t-71.5 27.5z" />
    <glyph glyph-name="ring" unicode="&#x2da;" horiz-adv-x="284" 
d="M70.5 585q-32.5 19 -51.5 51.5t-19 70.5q0 39 19 72t51.5 52t72.5 19t72 -19t50.5 -52t18.5 -72q0 -38 -18.5 -70.5t-50.5 -51.5t-72 -19t-72.5 19zM162.5 687q8.5 8 8.5 22t-8.5 22t-21.5 8q-12 0 -20 -7.5t-8 -22.5q0 -14 8 -22t20 -8q13 0 21.5 8z" />
    <glyph glyph-name="ogonek" unicode="&#x2db;" horiz-adv-x="262" 
d="M72 -209.5q-72 33.5 -72 117.5q0 97 84 129t178 32v-69q-46 0 -67 -14.5t-21 -34.5q0 -17 15 -31t46 -13v-150q-91 0 -163 33.5z" />
    <glyph glyph-name="tilde" unicode="&#x2dc;" horiz-adv-x="492" 
d="M282.5 673q-23.5 8 -56.5 23q-28 14 -47 20.5t-40 6.5q-27 0 -43.5 -12.5t-18.5 -35.5h-75q-3 18 -3 33q0 70 46.5 106t111.5 36q28 0 51.5 -8t56.5 -23q30 -14 48.5 -20.5t39.5 -6.5q27 0 43.5 12.5t18.5 35.5h75q3 -18 3 -33q0 -70 -46.5 -106t-111.5 -36
q-29 0 -52.5 8z" />
    <glyph glyph-name="hungarumlaut" unicode="&#x2dd;" horiz-adv-x="634" 
d="M72 840h245l-72 -175h-245zM389 840h245l-72 -175h-245z" />
    <glyph glyph-name="uni0326" unicode="&#x326;" horiz-adv-x="0" 
d="M96 -265h-94v199h281v-44q0 -136 -16 -230t-36 -130h-146q13 95 11 205z" />
    <glyph glyph-name="uni0394" unicode="&#x394;" 
d="M314 840h388l309 -840h-1006zM648 222l-125 358h-30l-125 -358h280z" />
    <glyph glyph-name="uni03A9" unicode="&#x3a9;" horiz-adv-x="954" 
d="M20 213h115v26q-50 46 -78.5 114.5t-28.5 146.5q0 103 54.5 186.5t156 132.5t238.5 49t238.5 -49t156 -132.5t54.5 -186.5q0 -78 -28.5 -146.5t-78.5 -114.5v-26h115v-213h-410v297q52 16 89 56.5t37 110.5q0 42 -21 80t-60 61.5t-92 23.5t-92 -23.5t-60 -61.5t-21 -80
q0 -70 37 -110.5t89 -56.5v-297h-410v213z" />
    <glyph glyph-name="uni03BC" unicode="&#x3bc;" horiz-adv-x="828" 
d="M516 89h-26q-31 -47 -79 -72.5t-99 -30.5v-136h-277v830h277v-375q0 -58 31.5 -78t71.5 -20q46 0 73.5 26t27.5 61v386h277v-680h-272z" />
    <glyph glyph-name="pi" unicode="&#x3c0;" horiz-adv-x="990" 
d="M631.5 42q-59.5 50 -59.5 171v271h-176v-484h-277v484h-84v196h897v-196h-83v-216q0 -44 53 -44q13 0 31 4q15 4 22 2v-189q-21 -26 -65 -37.5t-95 -11.5q-104 0 -163.5 50z" />
    <glyph glyph-name="Wgrave" unicode="&#x1e80;" horiz-adv-x="1290" 
d="M20 840h281l90 -544h24l120 544h220l120 -544h24l90 544h281l-163 -840h-374l-76 404h-24l-76 -404h-374zM526 875l-72 175h245l72 -175h-245z" />
    <glyph glyph-name="wgrave" unicode="&#x1e81;" horiz-adv-x="1290" 
d="M20 840h281l90 -544h24l120 544h220l120 -544h24l90 544h281l-163 -840h-374l-76 404h-24l-76 -404h-374zM526 875l-72 175h245l72 -175h-245z" />
    <glyph glyph-name="Wacute" unicode="&#x1e82;" horiz-adv-x="1290" 
d="M20 840h281l90 -544h24l120 544h220l120 -544h24l90 544h281l-163 -840h-374l-76 404h-24l-76 -404h-374zM594 1050h245l-72 -175h-245z" />
    <glyph glyph-name="wacute" unicode="&#x1e83;" horiz-adv-x="1290" 
d="M20 840h281l90 -544h24l120 544h220l120 -544h24l90 544h281l-163 -840h-374l-76 404h-24l-76 -404h-374zM594 1050h245l-72 -175h-245z" />
    <glyph glyph-name="Wdieresis" unicode="&#x1e84;" horiz-adv-x="1290" 
d="M20 840h281l90 -544h24l120 544h220l120 -544h24l90 544h281l-163 -840h-374l-76 404h-24l-76 -404h-374zM726.5 920.5q-29.5 27.5 -29.5 68.5t29.5 68.5t71.5 27.5t71.5 -27.5t29.5 -68.5t-29.5 -68.5t-71.5 -27.5t-71.5 27.5zM421.5 920.5q-29.5 27.5 -29.5 68.5
t29.5 68.5t71.5 27.5t71.5 -27.5t29.5 -68.5t-29.5 -68.5t-71.5 -27.5t-71.5 27.5z" />
    <glyph glyph-name="wdieresis" unicode="&#x1e85;" horiz-adv-x="1290" 
d="M20 840h281l90 -544h24l120 544h220l120 -544h24l90 544h281l-163 -840h-374l-76 404h-24l-76 -404h-374zM726.5 920.5q-29.5 27.5 -29.5 68.5t29.5 68.5t71.5 27.5t71.5 -27.5t29.5 -68.5t-29.5 -68.5t-71.5 -27.5t-71.5 27.5zM421.5 920.5q-29.5 27.5 -29.5 68.5
t29.5 68.5t71.5 27.5t71.5 -27.5t29.5 -68.5t-29.5 -68.5t-71.5 -27.5t-71.5 27.5z" />
    <glyph glyph-name="uni1E9E" unicode="&#x1e9e;" horiz-adv-x="1009" 
d="M70 734q35 60 102.5 83t176.5 23h598l-214 -337q80 1 138 -36t88 -98t30 -128q0 -127 -83 -195t-233 -68q-170 0 -242 64t-72 187h226q3 -34 30 -51.5t54 -17.5q34 0 59 20.5t25 60.5q0 37 -24.5 60t-59.5 23q-40 0 -65 -25h-224l180 310h-152q-44 0 -68 -24t-24 -79
v-506h-281v566q0 108 35 168z" />
    <glyph glyph-name="Ygrave" unicode="&#x1ef2;" horiz-adv-x="964" 
d="M343 262l-343 578h291l180 -316h22l180 316h291l-344 -579v-261h-277v262zM362 875l-72 175h245l72 -175h-245z" />
    <glyph glyph-name="ygrave" unicode="&#x1ef3;" horiz-adv-x="964" 
d="M343 262l-343 578h291l180 -316h22l180 316h291l-344 -579v-261h-277v262zM362 875l-72 175h245l72 -175h-245z" />
    <glyph glyph-name="endash" unicode="&#x2013;" horiz-adv-x="900" 
d="M40 517h820v-231h-820v231z" />
    <glyph glyph-name="emdash" unicode="&#x2014;" horiz-adv-x="980" 
d="M40 517h900v-231h-900v231z" />
    <glyph glyph-name="quoteleft" unicode="&#x2018;" horiz-adv-x="386" 
d="M247 602h109v-231h-326v51q0 157 18.5 266t41.5 152h170q-15 -105 -13 -238z" />
    <glyph glyph-name="quoteright" unicode="&#x2019;" horiz-adv-x="386" 
d="M139 609h-109v231h326v-51q0 -157 -18.5 -266t-41.5 -152h-170q15 105 13 238z" />
    <glyph glyph-name="quotesinglbase" unicode="&#x201a;" horiz-adv-x="386" 
d="M139 0h-109v231h326v-51q0 -157 -18.5 -266t-41.5 -152h-170q15 105 13 238z" />
    <glyph glyph-name="quotedblleft" unicode="&#x201c;" horiz-adv-x="690" 
d="M562 602h97v-231h-289v51q0 157 16.5 266t36.5 152h151q-12 -92 -12 -238zM226 602h97v-231h-289v51q0 157 16.5 266t36.5 152h151q-12 -92 -12 -238z" />
    <glyph glyph-name="quotedblright" unicode="&#x201d;" horiz-adv-x="690" 
d="M128 609h-97v231h289v-51q0 -157 -16.5 -266t-36.5 -152h-151q12 92 12 238zM464 609h-97v231h289v-51q0 -157 -16.5 -266t-36.5 -152h-151q12 92 12 238z" />
    <glyph glyph-name="quotedblbase" unicode="&#x201e;" horiz-adv-x="690" 
d="M128 0h-97v231h289v-51q0 -157 -16.5 -266t-36.5 -152h-151q12 92 12 238zM464 0h-97v231h289v-51q0 -157 -16.5 -266t-36.5 -152h-151q12 92 12 238z" />
    <glyph glyph-name="dagger" unicode="&#x2020;" horiz-adv-x="808" 
d="M288 478h-238v219h238v239h231v-239h239v-219h-239v-238h-231v238z" />
    <glyph glyph-name="daggerdbl" unicode="&#x2021;" horiz-adv-x="808" 
d="M288 52h-238v219h238v207h-238v219h238v239h231v-239h239v-219h-239v-207h239v-219h-239v-238h-231v238z" />
    <glyph glyph-name="bullet" unicode="&#x2022;" horiz-adv-x="620" 
d="M205.5 237.5q-48.5 28.5 -77 77t-28.5 105.5t28.5 105.5t77 77t104.5 28.5t104.5 -28.5t77 -77t28.5 -105.5t-28.5 -105.5t-77 -77t-104.5 -28.5t-104.5 28.5z" />
    <glyph glyph-name="ellipsis" unicode="&#x2026;" horiz-adv-x="1064" 
d="M104.5 2.5q-31.5 18.5 -50.5 50t-19 67.5t19 67.5t50.5 50t68.5 18.5t68.5 -18.5t50.5 -50t19 -67.5t-19 -67.5t-50.5 -50t-68.5 -18.5t-68.5 18.5zM463.5 2.5q-31.5 18.5 -50.5 50t-19 67.5t19 67.5t50.5 50t68.5 18.5t68.5 -18.5t50.5 -50t19 -67.5t-19 -67.5
t-50.5 -50t-68.5 -18.5t-68.5 18.5zM822.5 2.5q-31.5 18.5 -50.5 50t-19 67.5t19 67.5t50.5 50t68.5 18.5t68.5 -18.5t50.5 -50t19 -67.5t-19 -67.5t-50.5 -50t-68.5 -18.5t-68.5 18.5z" />
    <glyph glyph-name="perthousand" unicode="&#x2030;" horiz-adv-x="1661" 
d="M1216 51q-57 63 -57 161q0 97 57 160t171 63t171 -63t57 -160q0 -98 -57 -161t-171 -63t-171 63zM1427.5 174q13.5 16 13.5 38t-13.5 37.5t-40.5 15.5t-40.5 -15.5t-13.5 -37.5t13.5 -38t40.5 -16t40.5 16zM254 49l542 825l116 -78l-542 -825zM102 468q-57 63 -57 161
q0 97 57 160t171 63t171 -63t57 -160q0 -98 -57 -161t-171 -63t-171 63zM313.5 591q13.5 16 13.5 38t-13.5 37.5t-40.5 15.5t-40.5 -15.5t-13.5 -37.5t13.5 -38t40.5 -16t40.5 16zM721 51q-57 63 -57 161q0 97 57 160t171 63t171 -63t57 -160q0 -98 -57 -161t-171 -63
t-171 63zM932.5 174q13.5 16 13.5 38t-13.5 37.5t-40.5 15.5t-40.5 -15.5t-13.5 -37.5t13.5 -38t40.5 -16t40.5 16z" />
    <glyph glyph-name="guilsinglleft" unicode="&#x2039;" horiz-adv-x="600" 
d="M254 120l-194 300l194 300h286l-194 -300l194 -300h-286z" />
    <glyph glyph-name="guilsinglright" unicode="&#x203a;" horiz-adv-x="600" 
d="M254 420l-194 300h286l194 -300l-194 -300h-286z" />
    <glyph glyph-name="Euro" unicode="&#x20ac;" horiz-adv-x="972" 
d="M20 521h69q20 106 79.5 184t152 120.5t208.5 42.5q106 0 196 -36t151.5 -119.5t74.5 -218.5h-251q-16 68 -60 101.5t-111 33.5q-55 0 -99 -28.5t-67 -79.5h164v-89h-185v-12l1 -26h184v-90h-157q25 -44 67 -68.5t92 -24.5q67 0 111 34t60 103h251q-19 -199 -137 -287.5
t-285 -88.5q-113 0 -204 40.5t-151 115.5t-82 176h-72v90h61l-1 26v12h-60v89z" />
    <glyph glyph-name="uni2116" unicode="&#x2116;" horiz-adv-x="1211" 
d="M35 840h216l153 -365h24v365h242v-840h-216l-153 365h-24v-365h-242v840zM740 297h432v-219h-432v219zM835.5 410q-53.5 31 -84 84.5t-30.5 118.5q0 64 30.5 117.5t84 84.5t120.5 31t120.5 -31t84 -84.5t30.5 -117.5q0 -65 -30.5 -118.5t-84 -84.5t-120.5 -31t-120.5 31z
M1001.5 568q17.5 18 17.5 45t-17.5 44.5t-45.5 17.5q-27 0 -45 -17.5t-18 -44.5t17.5 -45t45.5 -18t45.5 18z" />
    <glyph glyph-name="trademark" unicode="&#x2122;" horiz-adv-x="860" 
d="M156 733h-126v107h528l42 -256h18l42 256h170v-380h-117v215h-14l-31 -215h-118l-31 215h-14v-215h-117v273h-103v-273h-129v273z" />
    <glyph glyph-name="partialdiff" unicode="&#x2202;" horiz-adv-x="822" 
d="M192 14q-86 36 -129 101.5t-43 154.5q0 135 93.5 201.5t242.5 66.5q123 0 186 -34q3 86 -40 119t-109 33q-53 0 -90.5 -17.5t-45.5 -56.5h-220q-4 139 91.5 209.5t264.5 70.5q183 0 296 -104t113 -334q0 -204 -89.5 -325t-309.5 -121q-125 0 -211 36zM505.5 208.5
q34.5 26.5 34.5 68.5q0 45 -34 69t-100 24t-101.5 -25t-35.5 -68q0 -42 36 -68.5t101 -26.5t99.5 26.5z" />
    <glyph glyph-name="product" unicode="&#x220f;" horiz-adv-x="733" 
d="M421 669h-109v-819h-277v1050h663v-1050h-277v819z" />
    <glyph glyph-name="summation" unicode="&#x2211;" horiz-adv-x="718" 
d="M35 81l316 285l-316 303v231h648v-231h-344l304 -289v-28l-304 -271h344v-231h-648v231z" />
    <glyph glyph-name="minus" unicode="&#x2212;" horiz-adv-x="728" 
d="M50 536h628v-231h-628v231z" />
    <glyph glyph-name="radical" unicode="&#x221a;" horiz-adv-x="856" 
d="M174 263h-124v231h280l103 -385h16l137 791h220l-196 -1050h-325z" />
    <glyph glyph-name="infinity" unicode="&#x221e;" horiz-adv-x="864" 
d="M516.5 233.5q-43.5 29.5 -84.5 85.5q-41 -56 -84.5 -85.5t-106.5 -29.5q-96 0 -143.5 60.5t-47.5 156.5q0 92 47.5 153t143.5 61q63 0 106 -30t85 -86q42 57 85.5 86.5t106.5 29.5q95 0 142.5 -61t47.5 -153q0 -96 -47 -156.5t-143 -60.5q-64 0 -107.5 29.5zM309.5 374.5
q20.5 11.5 52.5 47.5q-33 34 -53.5 45.5t-41.5 11.5q-29 0 -42 -17.5t-13 -39.5q0 -25 13 -42t42 -17q22 0 42.5 11.5zM639 380q13 17 13 42q0 22 -13 39.5t-42 17.5q-21 0 -41 -11.5t-52 -45.5q32 -36 51.5 -47.5t41.5 -11.5q29 0 42 17z" />
    <glyph glyph-name="integral" unicode="&#x222b;" horiz-adv-x="807" 
d="M143 -140.5q-51 9.5 -83 28.5v200q55 -21 120 -21q42 0 69.5 20.5t27.5 63.5v484q0 130 79.5 194t204.5 64q52 0 103 -9.5t83 -28.5v-200q-55 21 -120 21q-42 0 -69.5 -20.5t-27.5 -63.5v-484q0 -130 -79.5 -194t-204.5 -64q-52 0 -103 9.5z" />
    <glyph glyph-name="approxequal" unicode="&#x2248;" horiz-adv-x="714" 
d="M402.5 186q-30.5 10 -70.5 29q-37 17 -60.5 25t-49.5 8q-34 0 -54 -16t-22 -44h-94q-3 23 -3 41q0 59 27.5 99t72.5 59.5t97 19.5q35 0 64.5 -9.5t71.5 -29.5q35 -17 59 -25t49 -9q34 2 54.5 17.5t23.5 42.5h94q3 -21 3 -41q0 -58 -28 -98t-73 -59.5t-96 -20.5
q-35 1 -65.5 11zM402.5 442q-30.5 10 -70.5 29q-37 17 -60.5 25t-49.5 8q-34 0 -54 -16t-22 -44h-94q-3 23 -3 41q0 59 27.5 99t72.5 59.5t97 19.5q35 0 64.5 -9.5t71.5 -29.5q35 -17 59 -25t49 -9q34 2 54.5 17.5t23.5 42.5h94q3 -21 3 -41q0 -58 -28 -98t-73 -59.5
t-96 -20.5q-35 1 -65.5 11z" />
    <glyph glyph-name="notequal" unicode="&#x2260;" horiz-adv-x="728" 
d="M106 163h-56v231h159l23 53h-182v231h285l63 143h286l-63 -143h57v-231h-160l-23 -53h183v-231h-286l-62 -140h-286z" />
    <glyph glyph-name="lessequal" unicode="&#x2264;" horiz-adv-x="728" 
d="M50 231h628v-231h-628v231zM49 486v316l626 196v-237l-414 -104v-26l414 -104v-233z" />
    <glyph glyph-name="greaterequal" unicode="&#x2265;" horiz-adv-x="767" 
d="M89 0v231h628v-231h-628zM92 527l414 104v26l-414 104v237l626 -196v-316l-626 -192v233z" />
    <glyph glyph-name="lozenge" unicode="&#x25ca;" horiz-adv-x="780" 
d="M230 13l-176 395q-4 10 -4 12t4 12l176 395q4 13 20 13h280q16 0 20 -13l176 -395q4 -7 4 -12t-4 -12l-176 -395q-4 -13 -20 -13h-280q-16 0 -20 13zM488 420l-98 226l-98 -226l98 -226z" />
    <glyph glyph-name="G.ss01" horiz-adv-x="977" 
d="M245.5 28q-108.5 56 -167 157.5t-58.5 234.5t59.5 234.5t167.5 157.5t251 56q107 0 201.5 -34.5t159 -107t80.5 -180.5h-275q-15 33 -56.5 58t-103.5 25q-60 0 -107.5 -26t-74.5 -73.5t-27 -109.5q0 -95 55.5 -152t147.5 -57q57 0 108.5 22.5t70.5 86.5h-190v144h463
q3 -31 3 -61q0 -136 -56 -233t-159 -147.5t-240 -50.5q-144 0 -252.5 56z" />
    <glyph glyph-name="i.loclTRK" horiz-adv-x="347" 
d="M35 840h277v-840h-277v840zM101.5 920.5q-29.5 27.5 -29.5 68.5t29.5 68.5t71.5 27.5t71.5 -27.5t29.5 -68.5t-29.5 -68.5t-71.5 -27.5t-71.5 27.5z" />
    <glyph glyph-name="g.ss01" horiz-adv-x="977" 
d="M245.5 28q-108.5 56 -167 157.5t-58.5 234.5t59.5 234.5t167.5 157.5t251 56q107 0 201.5 -34.5t159 -107t80.5 -180.5h-275q-15 33 -56.5 58t-103.5 25q-60 0 -107.5 -26t-74.5 -73.5t-27 -109.5q0 -95 55.5 -152t147.5 -57q57 0 108.5 22.5t70.5 86.5h-190v144h463
q3 -31 3 -61q0 -136 -56 -233t-159 -147.5t-240 -50.5q-144 0 -252.5 56z" />
    </font>
</defs>
</svg>
