<?xml version="1.0" standalone="no"?>
<!DOCTYPE svg PUBLIC "-//W3C//DTD SVG 1.1//EN" "http://www.w3.org/Graphics/SVG/1.1/DTD/svg11.dtd" >
<svg xmlns="http://www.w3.org/2000/svg" xmlns:xlink="http://www.w3.org/1999/xlink" version="1.1">
<metadata>
Created by FontForge 20201107 at Wed Sep 10 21:18:31 2025
 By 
Copyright (c) 2023-2025, Bao Nguyen (RandomMaerks) (rmforbusiness@gmail.com)
</metadata>
<defs>
<font id="OverusedGrotesk-Medium" horiz-adv-x="405" >
  <font-face 
    font-family="Overused Grotesk Medium"
    font-weight="500"
    font-stretch="normal"
    units-per-em="2000"
    panose-1="0 0 0 0 0 0 0 0 0 0"
    ascent="1600"
    descent="-400"
    x-height="1000"
    cap-height="1301"
    bbox="-1075 -639 2535 1947"
    underline-thickness="137"
    underline-position="-285"
    unicode-range="U+0020-1DF08"
  />
<missing-glyph horiz-adv-x="1091" 
d="M1003 0h-913v1400h913v-1400zM828 168v1064h-563v-1064h563z" />
    <glyph glyph-name=".notdef" horiz-adv-x="1091" 
d="M1003 0h-913v1400h913v-1400zM828 168v1064h-563v-1064h563z" />
    <glyph glyph-name=".null" horiz-adv-x="0" 
 />
    <glyph glyph-name="nonmarkingreturn" horiz-adv-x="666" 
 />
    <glyph glyph-name="space" unicode=" " horiz-adv-x="398" 
 />
    <glyph glyph-name="exclam" unicode="!" 
d="M285 328h-164l-21 973h207zM321 0h-234v199h234v-199z" />
    <glyph glyph-name="quotedbl" unicode="&#x22;" horiz-adv-x="705" 
d="M414 1300h190l-27 -474h-163v474zM102 1300h191l-28 -474h-163v474z" />
    <glyph glyph-name="numbersign" unicode="#" horiz-adv-x="1179" 
d="M1077 504v-155h-222l-83 -349h-191l84 349h-277l-84 -349h-192l84 349h-160v155h197l71 292h-202v157h240l83 348h191l-84 -348h279l83 348h190l-83 -348h142v-157h-180l-70 -292h184zM425 504h278l70 292h-278z" />
    <glyph glyph-name="dollar" unicode="$" horiz-adv-x="1158" 
d="M650 550l-180 19q-182 20 -279.5 112t-97.5 249q0 161 105 262t290 119v183h191v-189q162 -27 260.5 -129.5t113.5 -262.5h-201q-36 232 -290 232q-119 0 -191 -56.5t-72 -149.5q0 -78 51.5 -119.5t152.5 -56.5l170 -21q203 -27 304 -119t101 -259q0 -157 -108.5 -256.5
t-290.5 -116.5v-191h-191v197q-177 28 -282.5 132.5t-122.5 263.5h204q39 -235 325 -235q116 0 187.5 55t71.5 147q0 162 -221 190z" />
    <glyph glyph-name="percent" unicode="%" horiz-adv-x="1814" 
d="M69 923q0 182 95.5 292.5t251.5 110.5q154 0 248 -110.5t94 -292.5q0 -184 -94 -296t-248 -112q-104 0 -182 51t-121.5 143t-43.5 214zM1082 1301h188l-533 -1301h-190zM585 923q0 119 -44 185t-125 66q-83 0 -128.5 -66t-45.5 -185q0 -121 45.5 -188.5t128.5 -67.5
q81 0 125 67.5t44 188.5zM1058 384q0 181 94.5 291.5t250.5 110.5q154 0 249 -110.5t95 -291.5q0 -123 -43 -214.5t-120.5 -143t-180.5 -51.5q-156 0 -250.5 112.5t-94.5 296.5zM1574 384q0 119 -45 184.5t-126 65.5q-82 0 -127 -65.5t-45 -184.5q0 -121 45 -189t127 -68
q81 0 126 68t45 189z" />
    <glyph glyph-name="ampersand" unicode="&#x26;" horiz-adv-x="1278" 
d="M556 1316q110 0 193.5 -41t131 -114t47.5 -169q0 -126 -75.5 -205.5t-208.5 -135.5l254 -260q52 107 68 250h196q-10 -113 -43 -211t-86 -177l248 -253h-245l-120 121q-77 -66 -172.5 -101.5t-202.5 -35.5q-138 0 -241 45t-160 126.5t-57 189.5q-1 133 75.5 209
t196.5 134q-68 70 -112 144t-44 166q0 94 45.5 165.5t126 112t185.5 40.5zM405 994q0 -67 35 -120.5t90 -108.5q87 39 145.5 91.5t58.5 138.5q0 71 -47 114.5t-124 43.5q-73 0 -115.5 -43t-42.5 -116zM293 355q0 -95 66 -147.5t188 -52.5q142 0 245 92l-329 332
q-73 -34 -121.5 -86t-48.5 -138z" />
    <glyph glyph-name="quotesingle" unicode="'" horiz-adv-x="395" 
d="M102 1300h191l-28 -474h-163v474z" />
    <glyph glyph-name="parenleft" unicode="(" horiz-adv-x="557" 
d="M528 -326h-206q-76 81 -134.5 208.5t-91.5 289.5t-33 347q0 182 33 341.5t91.5 284.5t134.5 205h206q-120 -132 -185.5 -333.5t-65.5 -497.5q0 -301 65 -506t186 -339z" />
    <glyph glyph-name="parenright" unicode=")" horiz-adv-x="557" 
d="M29 1350h206q76 -80 134.5 -206.5t91.5 -287.5t33 -345q0 -183 -33 -343.5t-91.5 -286.5t-134.5 -207h-206q120 133 185.5 336t65.5 501q0 299 -65.5 502.5t-185.5 336.5z" />
    <glyph glyph-name="asterisk" unicode="*" horiz-adv-x="1083" 
d="M448 1400h189l-12 -389l364 133l58 -180l-370 -110l236 -304l-154 -109l-219 320l-215 -320l-154 109l236 305l-369 109l58 180l364 -132z" />
    <glyph glyph-name="plus" unicode="+" horiz-adv-x="1123" 
d="M655 675h406v-186h-406v-406h-186v406h-406v186h406v406h186v-406z" />
    <glyph glyph-name="comma" unicode="," 
d="M87 236h234v-236l-97 -295h-149l151 295h-139v236z" />
    <glyph glyph-name="hyphen" unicode="-" horiz-adv-x="796" 
d="M63 638h671v-171h-671v171z" />
    <glyph glyph-name="period" unicode="." 
d="M87 236h234v-236h-234v236z" />
    <glyph glyph-name="slash" unicode="/" horiz-adv-x="867" 
d="M620 1400h217l-591 -1600h-216z" />
    <glyph glyph-name="zero" unicode="0" horiz-adv-x="1164" 
d="M83 635q0 324 133 504.5t368 180.5t367 -180.5t132 -504.5q0 -307 -132 -479t-367 -172q-236 0 -368.5 172t-132.5 479zM872 635q0 496 -288 496q-291 0 -291 -496q0 -461 291 -461q288 0 288 461z" />
    <glyph glyph-name="one" unicode="1" horiz-adv-x="681" 
d="M375 1301h205v-1301h-205v910h-312v176h154q78 0 118 28.5t40 106.5v80z" />
    <glyph glyph-name="two" unicode="2" horiz-adv-x="1086" 
d="M324 186h672v-186h-913v42q0 133 39.5 225.5t105 156.5t144 110t155.5 86q69 36 129.5 74t98.5 88.5t38 122.5q0 109 -66.5 170t-183.5 61q-110 0 -178 -66t-72 -177h-210q6 129 67 224t162.5 147t230.5 52q137 0 240.5 -51.5t161.5 -144t58 -216.5q0 -93 -36 -162
t-95 -121t-129 -93t-139 -77q-74 -39 -138 -77.5t-103 -83.5t-39 -104z" />
    <glyph glyph-name="three" unicode="3" horiz-adv-x="1093" 
d="M455 573v164h130q94 0 145 50t51 140q0 101 -63 158t-175 57q-102 0 -163.5 -57.5t-64.5 -155.5h-213q9 115 67.5 202.5t156 136t221.5 48.5q131 0 231.5 -47.5t157 -132.5t56.5 -197q0 -96 -46.5 -169t-129.5 -115q92 -43 143.5 -120.5t51.5 -180.5q0 -111 -57 -194.5
t-159.5 -129.5t-238.5 -46q-131 0 -235 49t-167 136.5t-71 203.5h210q6 -99 74.5 -156.5t178.5 -57.5q120 0 187.5 56t67.5 158q0 96 -56.5 148t-159.5 52h-130z" />
    <glyph glyph-name="four" unicode="4" horiz-adv-x="1121" 
d="M891 314v-314h-199v314h-629v218l573 769h255v-810h189v-177h-189zM692 491v579l-419 -579h419z" />
    <glyph glyph-name="five" unicode="5" horiz-adv-x="1093" 
d="M801 436q0 129 -68.5 202.5t-196.5 73.5q-87 0 -151 -33.5t-100 -92.5h-202l67 717h816v-180h-634l-36 -370q55 56 131 89t174 33q125 0 217 -56t142.5 -154t50.5 -226q0 -140 -57.5 -242t-161 -157.5t-241.5 -55.5q-132 0 -234.5 48t-164 133.5t-69.5 198.5h210
q4 -91 72.5 -144t180.5 -53q121 0 188 68t67 201z" />
    <glyph glyph-name="six" unicode="6" horiz-adv-x="1132" 
d="M83 659q0 320 135.5 490.5t377.5 170.5q175 0 292.5 -93t147.5 -256h-212q-33 175 -227 175q-149 0 -226.5 -113.5t-77.5 -349.5q0 -14 1 -27t2 -25q43 103 138 162.5t214 59.5q117 0 208 -55.5t143.5 -152.5t52.5 -221q0 -128 -56.5 -227.5t-156.5 -156t-229 -56.5
q-162 0 -280 82.5t-182.5 234t-64.5 358.5zM338 420q0 -113 75 -187.5t188 -74.5q108 0 174.5 71.5t66.5 188.5t-66.5 189t-176.5 72q-117 0 -189 -72t-72 -187z" />
    <glyph glyph-name="seven" unicode="7" horiz-adv-x="1067" 
d="M534 3h-232q13 231 55.5 397.5t107 289.5t144.5 222.5t168 196.5h-705v195h926v-214q-106 -105 -190 -214.5t-143.5 -236t-93 -282.5t-37.5 -354z" />
    <glyph glyph-name="eight" unicode="8" horiz-adv-x="1093" 
d="M780 669q111 -39 171 -121t60 -195q0 -111 -58 -194t-162.5 -129t-244.5 -46q-138 0 -242.5 45.5t-162.5 128.5t-58 194q0 113 59.5 195.5t171.5 121.5q-93 40 -142 115t-49 176q0 106 53 186.5t148.5 125t221.5 44.5q127 0 223 -44.5t149.5 -125t53.5 -187.5
q0 -208 -192 -290zM556 750q101 0 157 51t56 143q0 96 -58.5 148.5t-164.5 52.5q-105 0 -162.5 -52.5t-57.5 -148.5q0 -92 55.5 -143t155.5 -51h19zM556 583h-19q-116 0 -180 -56t-64 -158t66.5 -158t186.5 -56t187.5 56t67.5 158q0 101 -64.5 157.5t-180.5 56.5z" />
    <glyph glyph-name="nine" unicode="9" horiz-adv-x="1132" 
d="M1052 646q0 -320 -135.5 -491t-378.5 -171q-175 0 -292.5 93.5t-147.5 256.5h213q33 -175 227 -175q148 0 225.5 113t77.5 350q0 13 -1.5 26.5t-2.5 25.5q-43 -103 -137.5 -163t-213.5 -60q-117 0 -208 56t-143 153t-52 221q0 128 56 227t156 155.5t229 56.5
q162 0 280 -82.5t183 -234t65 -357.5zM797 886q0 112 -75.5 186.5t-187.5 74.5q-109 0 -175 -71.5t-66 -188.5t66 -189t176 -72q117 0 189.5 72t72.5 188z" />
    <glyph glyph-name="colon" unicode=":" 
d="M87 975h234v-236h-234v236zM87 236h234v-236h-234v236z" />
    <glyph glyph-name="semicolon" unicode=";" 
d="M87 975h234v-236h-234v236zM87 236h234v-236l-97 -295h-149l151 295h-139v236z" />
    <glyph glyph-name="less" unicode="&#x3c;" horiz-adv-x="1154" 
d="M1094 1060v-216l-824 -279l824 -264v-221l-1030 374v232z" />
    <glyph glyph-name="equal" unicode="=" horiz-adv-x="1123" 
d="M1060 921v-178h-997v178h997zM1060 394v-179h-997v179h997z" />
    <glyph glyph-name="greater" unicode="&#x3e;" horiz-adv-x="1154" 
d="M64 80v217l823 277l-823 266v220l1030 -374v-232z" />
    <glyph glyph-name="question" unicode="?" horiz-adv-x="1093" 
d="M450 328q5 106 42 174.5t88.5 115.5t102 88t84.5 90t34 124q0 106 -68.5 164.5t-187.5 58.5q-109 0 -178.5 -65t-73.5 -175h-210q8 122 69 215t160.5 145.5t223.5 52.5q142 0 249 -49.5t166.5 -138.5t59.5 -208q0 -96 -34.5 -160t-86.5 -110.5t-104.5 -90t-89.5 -97.5
t-42 -134h-204zM668 0h-234v199h234v-199z" />
    <glyph glyph-name="at" unicode="@" horiz-adv-x="1814" 
d="M1273 906v-507q0 -124 121 -124q84 0 124.5 60.5t40.5 197.5q0 204 -77 352t-220.5 228.5t-344.5 80.5q-205 0 -353.5 -81t-228.5 -231t-80 -357q0 -204 80.5 -349t229.5 -223t354 -78q94 0 181 15t171 44v-164q-157 -58 -340 -58q-256 0 -448 101t-298 283t-106 428
q0 249 104.5 437t293.5 293t440 105q247 0 431.5 -103t286.5 -284t102 -416q0 -214 -93.5 -327.5t-259.5 -113.5q-222 0 -276 153q-42 -71 -109 -111t-153 -40q-98 0 -172.5 51t-116 142.5t-41.5 213.5q0 121 41.5 211.5t116 141t172.5 50.5q78 0 141 -33.5t106 -93.5v106
h180zM700 524q0 -120 50.5 -187.5t144.5 -67.5t146 67t52 188q0 119 -52 186t-146 67t-144.5 -67t-50.5 -186z" />
    <glyph glyph-name="A" unicode="A" horiz-adv-x="1300" 
d="M1264 0h-218l-116 312h-559l-114 -312h-221l499 1301h233zM647 1071l-214 -588h433z" />
    <glyph glyph-name="B" unicode="B" horiz-adv-x="1235" 
d="M732 1301q114 0 199.5 -41.5t133.5 -116t48 -172.5q0 -101 -51 -178t-139 -116q112 -39 177.5 -127.5t65.5 -207.5q0 -153 -104 -247.5t-274 -94.5h-686v1301h630zM708 1121h-399v-369h399q93 0 143.5 51.5t50.5 139.5q0 83 -50.5 130.5t-143.5 47.5zM719 572h-410v-393
h433q98 0 155.5 50.5t57.5 138.5q0 95 -63 149.5t-173 54.5z" />
    <glyph glyph-name="C" unicode="C" horiz-adv-x="1343" 
d="M83 654q0 200 74 350t208.5 233t314.5 83q243 0 397.5 -126.5t183.5 -351.5h-210q-19 132 -113 210.5t-256 78.5q-184 0 -286.5 -125t-102.5 -352q0 -229 102.5 -354.5t286.5 -125.5q160 0 254 79t115 213h210q-28 -230 -184 -356t-397 -126q-179 0 -313.5 84t-209 234.5
t-74.5 351.5z" />
    <glyph glyph-name="D" unicode="D" horiz-adv-x="1310" 
d="M569 1301q198 0 346.5 -81t231.5 -227.5t83 -340.5q0 -196 -79.5 -342.5t-221.5 -228t-331 -81.5h-496v1301h467zM309 1114v-928h268q209 0 325 122.5t116 343.5q0 219 -122.5 340.5t-345.5 121.5h-241z" />
    <glyph glyph-name="E" unicode="E" horiz-adv-x="1117" 
d="M1037 1301v-195h-728v-352h671v-183h-671v-378h728v-193h-935v1301h935z" />
    <glyph glyph-name="F" unicode="F" horiz-adv-x="1117" 
d="M1037 1301v-195h-728v-395h671v-188h-671v-523h-207v1301h935z" />
    <glyph glyph-name="G" unicode="G" horiz-adv-x="1362" 
d="M83 653q0 202 76.5 352t215.5 232.5t326 82.5q157 0 277 -57t193 -159.5t90 -239.5h-210q-20 124 -109 195.5t-239 71.5q-196 0 -303 -125t-107 -353q0 -225 103 -352t285 -127q157 0 253.5 93.5t107.5 256.5h-381v173h600v-697h-174v233q-67 -116 -180 -182.5
t-259 -66.5q-166 0 -293.5 85t-199.5 236t-72 348z" />
    <glyph glyph-name="H" unicode="H" horiz-adv-x="1256" 
d="M102 1301h207v-532h641v532h204v-1301h-204v575h-641v-575h-207v1301z" />
    <glyph glyph-name="I" unicode="I" 
d="M100 1301h207v-1301h-207v1301z" />
    <glyph glyph-name="J" unicode="J" horiz-adv-x="683" 
d="M45 186h81q76 0 132 25t87.5 87.5t31.5 174.5v828h204v-847q0 -160 -57 -260.5t-152.5 -147t-210.5 -46.5h-116v186z" />
    <glyph glyph-name="K" unicode="K" horiz-adv-x="1182" 
d="M102 1301h207v-614l564 614h269l-525 -554l544 -747h-246l-440 605l-166 -170v-435h-207v1301z" />
    <glyph glyph-name="L" unicode="L" horiz-adv-x="1080" 
d="M1017 0h-915v1301h207v-1108h708v-193z" />
    <glyph glyph-name="M" unicode="M" horiz-adv-x="1593" 
d="M891 0h-189l-393 1012v-1012h-207v1301h300l396 -1014l386 1014h308v-1301h-205v1012z" />
    <glyph glyph-name="N" unicode="N" horiz-adv-x="1271" 
d="M965 1301h204v-1301h-218l-642 1010v-1010h-207v1301h261l602 -965v965z" />
    <glyph glyph-name="O" unicode="O" horiz-adv-x="1398" 
d="M83 635q0 206 77 360t216 239.5t325 85.5q185 0 323.5 -85.5t216 -239.5t77.5 -360q0 -195 -77.5 -341.5t-216 -228t-323.5 -81.5q-186 0 -325 81.5t-216 228t-77 341.5zM1107 635q0 235 -107 365.5t-299 130.5q-194 0 -301 -130.5t-107 -365.5q0 -218 107 -339.5
t301 -121.5q192 0 299 121.5t107 339.5z" />
    <glyph glyph-name="P" unicode="P" horiz-adv-x="1204" 
d="M687 444h-378v-444h-207v1301h565q139 0 243.5 -53.5t162.5 -150.5t58 -226q0 -124 -54.5 -221t-154.5 -151.5t-235 -54.5zM649 1119h-340v-489h340q127 0 199 63.5t72 177.5q0 118 -71.5 183t-199.5 65z" />
    <glyph glyph-name="Q" unicode="Q" horiz-adv-x="1388" 
d="M83 635q0 206 77 360t216 239.5t325 85.5q182 0 318.5 -83t212.5 -232t76 -349q0 -125 -30 -231t-86 -190l142 -108l-109 -140l-154 117q-74 -58 -167.5 -89t-202.5 -31q-186 0 -325 81.5t-216 228t-77 341.5zM1097 656q0 225 -104.5 350t-291.5 125q-194 0 -301 -130.5
t-107 -365.5q0 -218 107 -339.5t301 -121.5q120 0 208 54l-265 203l106 141l281 -214q66 119 66 298z" />
    <glyph glyph-name="R" unicode="R" horiz-adv-x="1195" 
d="M603 499h-294v-499h-207v1301h581q130 0 228 -48t152.5 -134.5t54.5 -203.5q0 -122 -68.5 -208.5t-185.5 -121.5q110 -22 162.5 -87.5t67.5 -190.5l35 -307h-202l-34 285q-13 111 -81 162.5t-209 51.5zM660 1117h-351v-437h351q119 0 185 56.5t66 158.5q0 106 -66 164
t-185 58z" />
    <glyph glyph-name="S" unicode="S" horiz-adv-x="1183" 
d="M659 550l-180 20q-184 20 -285 112t-101 248q0 179 130.5 283.5t355.5 104.5q216 0 350 -110.5t153 -303.5h-209q-19 121 -91 179.5t-205 58.5q-126 0 -201.5 -56.5t-75.5 -149.5q0 -77 53 -117.5t166 -56.5l170 -21q414 -47 414 -377q0 -115 -60 -200.5t-168 -132.5
t-252 -47q-237 0 -379.5 114t-162.5 304h212q39 -240 332 -240q121 0 195.5 55.5t74.5 148.5q0 158 -236 184z" />
    <glyph glyph-name="T" unicode="T" horiz-adv-x="1207" 
d="M1146 1301v-195h-439v-1106h-204v1106h-440v195h1083z" />
    <glyph glyph-name="U" unicode="U" horiz-adv-x="1254" 
d="M93 1301h204v-784q0 -160 88.5 -247.5t247.5 -87.5q154 0 239 87.5t85 247.5v784h206v-784q0 -161 -66.5 -280.5t-186 -186t-277.5 -66.5q-162 0 -283.5 66.5t-189 186t-67.5 280.5v784z" />
    <glyph glyph-name="V" unicode="V" horiz-adv-x="1265" 
d="M36 1301h219l379 -1070l375 1070h220l-480 -1301h-233z" />
    <glyph glyph-name="W" unicode="W" horiz-adv-x="1940" 
d="M36 1301h219l266 -1053l319 1053h256l314 -1053l275 1053h219l-369 -1301h-260l-311 1054l-305 -1054h-269z" />
    <glyph glyph-name="X" unicode="X" horiz-adv-x="1188" 
d="M36 1301h237l323 -545l319 545h237l-387 -653l387 -648h-236l-323 542l-319 -542h-238l389 650z" />
    <glyph glyph-name="Y" unicode="Y" horiz-adv-x="1188" 
d="M489 443l-453 858h232l326 -633l327 633h231l-459 -858v-443h-204v443z" />
    <glyph glyph-name="Z" unicode="Z" horiz-adv-x="1166" 
d="M90 1301h986v-214l-760 -908h760v-179h-986v213l758 908h-758v180z" />
    <glyph glyph-name="bracketleft" unicode="[" horiz-adv-x="556" 
d="M287 1155v-1287h233v-194h-437v1676h437v-195h-233z" />
    <glyph glyph-name="backslash" unicode="\" horiz-adv-x="867" 
d="M246 1400l591 -1600h-217l-590 1600h216z" />
    <glyph glyph-name="bracketright" unicode="]" horiz-adv-x="556" 
d="M270 -133v1288h-233v195h437v-1676h-437v193h233z" />
    <glyph glyph-name="asciicircum" unicode="^" horiz-adv-x="980" 
d="M390 1300h201l351 -618h-211l-240 465l-241 -465h-211z" />
    <glyph glyph-name="underscore" unicode="_" horiz-adv-x="1044" 
d="M63 0h918v-171h-918v171z" />
    <glyph glyph-name="grave" unicode="`" horiz-adv-x="627" 
d="M70 1415h250l238 -350h-165z" />
    <glyph glyph-name="a" unicode="a" horiz-adv-x="1053" 
d="M951 643v-643h-206v147q-102 -170 -332 -170q-98 0 -174.5 38.5t-119.5 106.5t-43 155q0 131 86.5 206.5t248.5 87.5l282 22q52 3 52 48v23q0 91 -59.5 146.5t-161.5 55.5q-193 0 -213 -190h-213q7 104 63 182.5t150 122.5t214 44q126 0 222.5 -48.5t150 -134.5
t53.5 -199zM284 291q0 -68 52 -108.5t141 -40.5q119 0 193.5 74t74.5 194v35l-300 -19q-161 -11 -161 -135z" />
    <glyph glyph-name="b" unicode="b" horiz-adv-x="1145" 
d="M100 1400h207v-573q52 95 136.5 147.5t193.5 52.5q128 0 224.5 -65t150 -182.5t53.5 -275.5t-53.5 -276.5t-150 -184.5t-224.5 -66q-109 0 -193.5 53t-136.5 149v-179h-207v1400zM854 504q0 162 -71.5 251.5t-201.5 89.5q-131 0 -202.5 -89.5t-71.5 -251.5
q0 -164 71.5 -254.5t202.5 -90.5q130 0 201.5 90.5t71.5 254.5z" />
    <glyph glyph-name="c" unicode="c" horiz-adv-x="1100" 
d="M76 504q0 158 60.5 275.5t169.5 182.5t254 65q131 0 235 -50t166.5 -142.5t67.5 -218.5h-210q-4 110 -74.5 169.5t-184.5 59.5q-131 0 -202.5 -89t-71.5 -252q0 -164 72 -254.5t202 -90.5q113 0 183 54.5t76 157.5h210q-8 -123 -70.5 -211.5t-165.5 -135.5t-233 -47
q-144 0 -253.5 66t-170 184.5t-60.5 276.5z" />
    <glyph glyph-name="d" unicode="d" horiz-adv-x="1145" 
d="M1045 1400v-1400h-204v180q-53 -96 -138 -149.5t-194 -53.5q-128 0 -224.5 66t-150 184.5t-53.5 276.5t53.5 275.5t150 182.5t224.5 65q109 0 194 -53t138 -148v574h204zM291 504q0 -164 72.5 -254.5t202.5 -90.5q131 0 203 90.5t72 254.5q0 162 -72 251.5t-203 89.5
q-130 0 -202.5 -89.5t-72.5 -251.5z" />
    <glyph glyph-name="e" unicode="e" horiz-adv-x="1120" 
d="M76 497q0 161 60.5 280t171 184.5t258.5 65.5q140 0 248.5 -65.5t170.5 -182.5t62 -273v-61h-763q26 -299 293 -299q104 0 167 46.5t80 124.5h210q-31 -161 -146 -250.5t-309 -89.5q-233 0 -368 139.5t-135 380.5zM560 857q-239 0 -273 -264h539q-10 121 -82.5 192.5
t-183.5 71.5z" />
    <glyph glyph-name="f" unicode="f" horiz-adv-x="637" 
d="M43 829v171h154v119q0 99 40 161t108 91t150 29h100v-170h-75q-54 0 -86 -25.5t-32 -97.5v-107h193v-171h-193v-829h-205v829h-154z" />
    <glyph glyph-name="g" unicode="g" horiz-adv-x="1145" 
d="M1045 1000v-1021q0 -112 -57 -196t-160 -130.5t-241 -46.5q-205 0 -338 92.5t-156 244.5h212q10 -79 82.5 -124t192.5 -45q123 0 192 56t69 158v228q-53 -92 -139 -143.5t-196 -51.5q-128 0 -223.5 63t-148.5 176.5t-53 264.5q0 150 53 262.5t148.5 175.5t223.5 63
q110 0 196 -51t139 -143v168h204zM291 525q0 -152 73 -237t203 -85q131 0 202.5 85t71.5 237t-71.5 236t-202.5 84q-130 0 -203 -84t-73 -236z" />
    <glyph glyph-name="h" unicode="h" horiz-adv-x="1091" 
d="M787 589q0 130 -64.5 189t-172.5 59q-104 0 -173.5 -65.5t-69.5 -168.5v-603h-207v1400h207v-552q55 86 141 132.5t174 46.5q161 0 265 -101.5t104 -292.5v-633h-204v589z" />
    <glyph glyph-name="i" unicode="i" 
d="M91 1347h226v-220h-226v220zM100 1000h207v-1000h-207v1000z" />
    <glyph glyph-name="j" unicode="j" 
d="M91 1347h226v-220h-226v220zM-66 -157h62q48 0 76 25t28 97v1035h207v-1046q0 -155 -83.5 -226t-202.5 -71h-87v186z" />
    <glyph glyph-name="k" unicode="k" horiz-adv-x="1010" 
d="M734 1000h257l-422 -480l430 -520h-247l-333 399l-110 -132v-267h-207v1400h207v-896z" />
    <glyph glyph-name="l" unicode="l" 
d="M100 1400h207v-1400h-207v1400z" />
    <glyph glyph-name="m" unicode="m" horiz-adv-x="1695" 
d="M746 589q0 130 -58.5 189t-157.5 59q-95 0 -159 -65.5t-64 -168.5v-603h-207v1000h207v-146q53 83 133.5 128t162.5 45q112 0 196.5 -56.5t123.5 -164.5q49 106 139.5 163.5t184.5 57.5q151 0 249.5 -101.5t98.5 -292.5v-633h-204v589q0 130 -59 189t-158 59
q-94 0 -159 -65.5t-65 -168.5v-603h-204v589z" />
    <glyph glyph-name="n" unicode="n" horiz-adv-x="1091" 
d="M788 589q0 130 -64.5 189t-172.5 59q-104 0 -173 -65.5t-69 -168.5v-603h-207v1000h207v-152q55 86 140.5 132.5t174.5 46.5q161 0 265 -101.5t104 -292.5v-633h-205v589z" />
    <glyph glyph-name="o" unicode="o" horiz-adv-x="1122" 
d="M76 504q0 158 61 275.5t170.5 182.5t254.5 65t254 -65t169.5 -182.5t60.5 -275.5t-60.5 -276.5t-169.5 -184.5t-254 -66t-254.5 66t-170.5 184.5t-61 276.5zM835 504q0 162 -71.5 251.5t-201.5 89.5q-131 0 -203.5 -89.5t-72.5 -251.5q0 -164 72.5 -254.5t203.5 -90.5
q130 0 201.5 90.5t71.5 254.5z" />
    <glyph glyph-name="p" unicode="p" horiz-adv-x="1145" 
d="M100 1000h207v-173q52 95 136.5 147.5t193.5 52.5q128 0 224.5 -65t150 -182.5t53.5 -275.5t-53.5 -276.5t-150 -184.5t-224.5 -66q-109 0 -193.5 53t-136.5 149v-505h-207v1326zM854 504q0 162 -71.5 251.5t-201.5 89.5q-131 0 -202.5 -89.5t-71.5 -251.5
q0 -164 71.5 -254.5t202.5 -90.5q130 0 201.5 90.5t71.5 254.5z" />
    <glyph glyph-name="q" unicode="q" horiz-adv-x="1145" 
d="M1045 1000v-1326h-204v506q-53 -96 -138 -149.5t-194 -53.5q-128 0 -224.5 66t-150 184.5t-53.5 276.5t53.5 275.5t150 182.5t224.5 65q109 0 194 -53t138 -148v174h204zM291 504q0 -164 72.5 -254.5t202.5 -90.5q131 0 203 90.5t72 254.5q0 162 -72 251.5t-203 89.5
q-130 0 -202.5 -89.5t-72.5 -251.5z" />
    <glyph glyph-name="r" unicode="r" horiz-adv-x="682" 
d="M100 1000h207v-163q50 84 126 129.5t154 45.5h47v-213h-53q-122 0 -198 -63t-76 -163v-573h-207v1000z" />
    <glyph glyph-name="s" unicode="s" horiz-adv-x="1027" 
d="M600 407l-174 19q-159 17 -239 88t-80 203q0 142 109 224.5t298 82.5q184 0 298 -88t131 -240h-202q-29 169 -227 169q-91 0 -145.5 -37.5t-54.5 -98.5q0 -60 38.5 -89t117.5 -38l174 -19q307 -35 307 -309q0 -134 -112 -214.5t-296 -80.5q-204 0 -326.5 89.5
t-140.5 237.5h212q29 -170 254 -170q93 0 150.5 35.5t57.5 96.5q0 120 -150 139z" />
    <glyph glyph-name="t" unicode="t" horiz-adv-x="637" 
d="M595 179v-179h-116q-117 0 -198.5 66.5t-81.5 214.5v548h-156v171h156v254h205v-254h191v-171h-191v-521q0 -76 27 -102.5t73 -26.5h91z" />
    <glyph glyph-name="u" unicode="u" horiz-adv-x="1074" 
d="M307 415q0 -133 61.5 -192.5t165.5 -59.5q100 0 168 67.5t68 173.5v596h204v-1000h-204v155q-55 -87 -139 -134.5t-170 -47.5q-157 0 -259 103t-102 297v627h207v-585z" />
    <glyph glyph-name="v" unicode="v" horiz-adv-x="1055" 
d="M36 1000h219l274 -792l269 792h220l-374 -1000h-234z" />
    <glyph glyph-name="w" unicode="w" horiz-adv-x="1565" 
d="M36 1000h219l187 -775l220 775h236l216 -775l196 775h219l-305 -1000h-229l-217 776l-214 -776h-238z" />
    <glyph glyph-name="x" unicode="x" horiz-adv-x="1004" 
d="M36 1000h224l244 -393l240 393h224l-305 -501l305 -499h-224l-243 395l-241 -395h-224l304 501z" />
    <glyph glyph-name="y" unicode="y" horiz-adv-x="1069" 
d="M104 -144h109q80 0 122.5 25t67.5 88l21 54l-388 977h219l286 -765l276 765h216l-403 -1049q-59 -155 -151.5 -218.5t-233.5 -63.5h-141v187z" />
    <glyph glyph-name="z" unicode="z" horiz-adv-x="968" 
d="M89 1000h791v-198l-558 -639h558v-163h-791v198l556 639h-556v163z" />
    <glyph glyph-name="braceleft" unicode="{" horiz-adv-x="556" 
d="M521 1163h-56q-67 0 -97 -29.5t-30 -94.5q0 -58 13 -120l26 -124t13 -120q0 -129 -109 -167q109 -38 109 -169q0 -85 -26 -176.5t-26 -177.5q0 -66 31 -95.5t100 -29.5h52v-186h-81q-140 0 -219.5 74.5t-79.5 205.5q0 88 26 180.5t26 181.5q0 99 -86 99h-71v183h71
q86 0 86 102q0 90 -26 184.5t-26 184.5q0 131 79.5 206t219.5 75h81v-187z" />
    <glyph glyph-name="bar" unicode="|" 
d="M100 1601h207v-2001h-207v2001z" />
    <glyph glyph-name="braceright" unicode="}" horiz-adv-x="556" 
d="M36 -139h56q67 0 97 29.5t30 95.5q0 58 -13 119.5t-26 123.5t-13 120q0 129 109 167q-109 38 -109 169q0 86 26 177.5t26 176.5q0 66 -31 95.5t-100 29.5h-52v186h81q140 0 220 -74.5t80 -204.5q0 -89 -26.5 -181.5t-26.5 -181.5q0 -99 86 -99h71v-183h-71
q-86 0 -86 -102q0 -89 26.5 -184t26.5 -185q0 -131 -80 -206t-220 -75h-81v187z" />
    <glyph glyph-name="asciitilde" unicode="~" horiz-adv-x="913" 
d="M278 1004q73 0 118.5 -30.5t84.5 -63.5q32 -27 62.5 -49t72.5 -22q48 0 76 41.5t28 111.5h131q0 -146 -60 -229.5t-166 -83.5q-68 0 -111.5 26t-78.5 56q-36 30 -66.5 56.5t-71.5 26.5q-46 0 -72.5 -43t-26.5 -114h-135q0 152 56.5 234.5t158.5 82.5z" />
    <glyph glyph-name="uni00A0" unicode="&#xa0;" horiz-adv-x="398" 
 />
    <glyph glyph-name="exclamdown" unicode="&#xa1;" 
d="M87 1000h234v-199h-234v199zM121 672h164l22 -973h-207z" />
    <glyph glyph-name="cent" unicode="&#xa2;" horiz-adv-x="1122" 
d="M81 654q0 203 105.5 337t282.5 166v144h191v-141q164 -24 267 -129.5t115 -265.5h-202q-8 108 -80.5 169t-188.5 61q-137 0 -212 -89.5t-75 -254.5q0 -166 75.5 -257.5t211.5 -91.5q115 0 187.5 58.5t81.5 160.5h202q-15 -156 -117.5 -255.5t-264.5 -121.5v-144h-191v147
q-177 33 -282.5 168t-105.5 339z" />
    <glyph glyph-name="sterling" unicode="&#xa3;" horiz-adv-x="1114" 
d="M74 713h126q-12 46 -21 97t-9 119q0 113 54 200.5t152.5 137t231.5 49.5q199 0 313 -105t124 -278h-206q-8 104 -66 160t-171 56t-172.5 -60.5t-59.5 -163.5q0 -56 10 -108t22 -104h461v-163h-427q7 -46 7 -88q0 -96 -33.5 -168t-105.5 -108h742v-186h-976v187
q93 36 132.5 105.5t39.5 170.5q0 45 -5 87h-163v163z" />
    <glyph glyph-name="currency" unicode="&#xa4;" horiz-adv-x="1039" 
d="M678 840l155 159l132 -132l-157 -153q37 -66 37 -154q0 -86 -40 -161l160 -156l-132 -131l-161 164q-33 -19 -70.5 -29t-80.5 -10t-81 10t-70 29l-161 -164l-132 131l160 156q-41 74 -41 161q0 82 37 154l-156 153l132 132l154 -157q72 39 157 39q87 0 158 -41zM349 560
q0 -85 45.5 -133.5t126.5 -48.5q79 0 125 49t46 133t-47 132.5t-125 48.5t-124.5 -48.5t-46.5 -132.5z" />
    <glyph glyph-name="yen" unicode="&#xa5;" horiz-adv-x="1166" 
d="M157 331h319v128h-319v148h255l-357 694h232l293 -608l301 608h231l-367 -694h248v-148h-313v-128h313v-148h-313v-183h-204v183h-319v148z" />
    <glyph glyph-name="brokenbar" unicode="&#xa6;" 
d="M102 1602h204v-897h-204v897zM306 496v-896h-204v896h204z" />
    <glyph glyph-name="section" unicode="&#xa7;" horiz-adv-x="1060" 
d="M572 155l-163 20q-158 19 -241.5 92.5t-83.5 187.5q0 93 55.5 160t158.5 99q-205 72 -205 277q0 154 115 244t313 90q199 0 322.5 -92t138.5 -251h-215q-21 190 -241 190q-110 0 -171 -45t-61 -126q0 -70 48.5 -110.5t137.5 -49.5l169 -17q161 -16 246 -87.5t85 -192.5
q0 -97 -53.5 -169.5t-143.5 -97.5q185 -75 185 -273q0 -158 -113 -248.5t-310 -90.5t-321 91t-143 250h212q31 -187 248 -187q108 0 167.5 44t59.5 125q0 142 -196 167zM417 675q-59 -18 -95 -63t-36 -100q0 -90 76.5 -140t278.5 -50q60 18 97 63t37 100q0 89 -80.5 139.5
t-277.5 50.5z" />
    <glyph glyph-name="dieresis" unicode="&#xa8;" horiz-adv-x="783" 
d="M505 1221h218v-221h-218v221zM63 1221h217v-221h-217v221z" />
    <glyph glyph-name="copyright" unicode="&#xa9;" horiz-adv-x="1650" 
d="M1561 650q0 -221 -94.5 -388t-263 -260.5t-389.5 -93.5q-218 0 -380.5 90t-253 252.5t-90.5 379.5q0 223 94 394t260.5 268t385.5 97q215 0 380 -94t258 -261t93 -384zM815 50q179 0 314 76t210.5 211.5t75.5 314.5q0 178 -74 311t-206.5 207.5t-309.5 74.5t-310 -75
t-206.5 -210.5t-73.5 -316.5q0 -179 72 -312.5t202.5 -207t305.5 -73.5zM430 648q0 125 49 218.5t137.5 145.5t206.5 52q158 0 261 -90.5t114 -238.5h-180q-4 82 -55.5 129.5t-137.5 47.5q-104 0 -158.5 -69t-54.5 -195q0 -128 55.5 -197.5t158.5 -69.5q85 0 136 42t56 116
h180q-14 -143 -115 -226.5t-258 -83.5q-119 0 -208 52t-138 146.5t-49 220.5z" />
    <glyph glyph-name="ordfeminine" unicode="&#xaa;" horiz-adv-x="884" 
d="M809 1038v-517h-175v109q-45 -59 -111 -93.5t-144 -34.5q-131 0 -213.5 67t-82.5 173q0 96 63.5 155t172.5 67l275 21q40 3 40 40v15q0 59 -49 98t-118 39q-170 0 -187 -129h-183q10 122 109 195t259 73q98 0 175.5 -36.5t123 -99.5t45.5 -142zM261 750q0 -50 42 -78
t112 -28q95 0 157 56t62 142v25l-264 -20q-109 -8 -109 -97zM86 431h732v-149h-732v149z" />
    <glyph glyph-name="guillemotleft" unicode="&#xab;" horiz-adv-x="1037" 
d="M756 963h218l-305 -388l305 -387h-218l-297 387zM361 963h218l-305 -388l305 -387h-218l-297 387z" />
    <glyph glyph-name="logicalnot" unicode="&#xac;" horiz-adv-x="1121" 
d="M854 459h-791v186h995v-433h-204v247z" />
    <glyph glyph-name="uni00AD" unicode="&#xad;" horiz-adv-x="788" 
d="M63 645h664v-186h-664v186z" />
    <glyph glyph-name="registered" unicode="&#xae;" horiz-adv-x="1008" 
d="M948 985q0 -132 -57.5 -232t-159 -156.5t-235.5 -56.5q-131 0 -228.5 54.5t-152 152t-54.5 227.5q0 135 56 238t156 161t232 58q130 0 229.5 -57t156.5 -157.5t57 -231.5zM496 635q159 0 256.5 97.5t97.5 254.5t-96 253.5t-251 96.5t-251 -98t-96 -259q0 -157 92.5 -251
t247.5 -94zM521 899h-109v-162h-121v503h276q75 0 121 -42.5t46 -109.5q0 -47 -26 -82t-71 -52q79 -21 91 -122l9 -95h-118l-10 80q-6 43 -25.5 62.5t-62.5 19.5zM544 1135h-132v-134h132q68 0 68 72q0 62 -68 62z" />
    <glyph glyph-name="macron" unicode="&#xaf;" horiz-adv-x="768" 
d="M63 1193h645v-161h-645v161z" />
    <glyph glyph-name="degree" unicode="&#xb0;" horiz-adv-x="723" 
d="M663 1032q0 -131 -84.5 -214t-214.5 -83q-133 0 -217 83t-84 214t84 214.5t215 83.5q132 0 216.5 -83.5t84.5 -214.5zM224 1032q0 -70 37.5 -109.5t102.5 -39.5q64 0 100.5 40.5t36.5 108.5t-37.5 109t-101.5 41t-101 -41t-37 -109z" />
    <glyph glyph-name="plusminus" unicode="&#xb1;" horiz-adv-x="1123" 
d="M655 713h406v-186h-406v-369h-186v369h-406v186h406v368h186v-368zM1061 75v-186h-998v186h998z" />
    <glyph glyph-name="uni00B2" unicode="&#xb2;" horiz-adv-x="804" 
d="M260 877h467v-148h-657v42q0 117 47.5 182.5t118.5 101t141 60.5q72 24 124.5 52.5t52.5 85.5q0 56 -37 87.5t-103 31.5q-72 0 -115.5 -37t-47.5 -98h-181q10 123 105.5 200t238.5 77q145 0 233 -73t88 -193q0 -68 -36.5 -113t-94 -75.5t-118.5 -53.5
q-82 -32 -145.5 -59.5t-80.5 -69.5z" />
    <glyph glyph-name="uni00B3" unicode="&#xb3;" horiz-adv-x="813" 
d="M347 1051v119h108q89 0 89 88q0 53 -38 83t-105 30q-63 0 -101.5 -30.5t-40.5 -81.5h-181q10 114 99.5 185t225.5 71q142 0 231.5 -65.5t89.5 -172.5q0 -112 -99 -164q119 -54 119 -178q0 -101 -89 -161.5t-235 -60.5q-145 0 -242.5 69t-107.5 182h181q5 -50 48.5 -78
t114.5 -28q149 0 149 99q0 94 -108 94h-108z" />
    <glyph glyph-name="acute" unicode="&#xb4;" horiz-adv-x="574" 
d="M514 1338l-285 -338h-166l215 338h236z" />
    <glyph glyph-name="mu" unicode="&#xb5;" horiz-adv-x="1074" 
d="M307 415q0 -133 61.5 -192.5t165.5 -59.5q100 0 168 67.5t68 173.5v596h204v-1000h-204v155q-55 -87 -139 -134.5t-170 -47.5q-85 0 -154 34v-333h-207v1326h207v-585z" />
    <glyph glyph-name="paragraph" unicode="&#xb6;" horiz-adv-x="1172" 
d="M574 474q-252 0 -381.5 114.5t-129.5 300.5q0 184 129.5 298t381.5 114h489v-1627h-178v1443h-129v-1443h-182v800z" />
    <glyph glyph-name="periodcentered" unicode="&#xb7;" 
d="M87 669h234v-234h-234v234z" />
    <glyph glyph-name="cedilla" unicode="&#xb8;" horiz-adv-x="472" 
d="M121 20h124l-40 -130h27q81 0 131.5 -50.5t50.5 -130.5q0 -78 -49 -123.5t-132 -45.5h-165v124h130q72 0 72 60t-84 60h-67l-48 66z" />
    <glyph glyph-name="uni00B9" unicode="&#xb9;" horiz-adv-x="517" 
d="M266 1500h175v-771h-175v467h-215v145h88q63 0 95 22.5t32 83.5v53z" />
    <glyph glyph-name="ordmasculine" unicode="&#xba;" horiz-adv-x="906" 
d="M69 911q0 121 48 212t134.5 141.5t203.5 50.5q115 0 201 -50.5t134 -141.5t48 -212q0 -123 -48 -214.5t-134 -142.5t-201 -51q-117 0 -203.5 51t-134.5 142.5t-48 214.5zM665 911q0 119 -55 184.5t-155 65.5q-101 0 -157 -65.5t-56 -184.5q0 -121 56 -188.5t157 -67.5
q100 0 155 67.5t55 188.5zM86 431h732v-149h-732v149z" />
    <glyph glyph-name="guillemotright" unicode="&#xbb;" horiz-adv-x="1037" 
d="M281 188h-217l304 387l-304 388h217l298 -388zM676 188h-217l304 387l-304 388h217l298 -388z" />
    <glyph glyph-name="onequarter" unicode="&#xbc;" horiz-adv-x="1814" 
d="M1082 1301h188l-533 -1301h-190zM381 1301h175v-774h-175v470h-216v144h88q63 0 95.5 22t32.5 83v55zM1608 176v-176h-166v176h-405v161l369 434h202v-456h133v-139h-133zM1442 315v285l-230 -285h230z" />
    <glyph glyph-name="onehalf" unicode="&#xbd;" horiz-adv-x="1821" 
d="M1088 1301h189l-534 -1301h-189zM388 1301h175v-774h-175v470h-216v144h88q63 0 95.5 22t32.5 83v55zM1272 149h468v-149h-657v42q0 117 47.5 183t118.5 101.5t141 59.5q72 25 124.5 53t52.5 85q0 56 -37 87.5t-103 31.5q-73 0 -116 -36.5t-47 -97.5h-181
q10 123 105.5 200t238.5 77q145 0 233 -73t88 -193q0 -68 -37 -113t-94.5 -75t-118.5 -54q-82 -31 -145.5 -59t-80.5 -70z" />
    <glyph glyph-name="threequarters" unicode="&#xbe;" horiz-adv-x="1814" 
d="M347 850v120h108q89 0 89 87q0 54 -38 84t-105 30q-63 0 -101.5 -30.5t-40.5 -81.5h-181q10 114 99.5 185.5t225.5 71.5q142 0 231.5 -66.5t89.5 -172.5q0 -113 -100 -164q120 -52 120 -177q0 -101 -89 -162.5t-235 -61.5q-145 0 -242.5 70t-107.5 182h181
q5 -49 48.5 -78t114.5 -29t110 26.5t39 74.5q0 92 -108 92h-108zM1082 1301h188l-533 -1301h-190zM1608 176v-176h-166v176h-405v161l369 434h202v-456h133v-139h-133zM1442 315v285l-230 -285h230z" />
    <glyph glyph-name="questiondown" unicode="&#xbf;" horiz-adv-x="1093" 
d="M426 1000h233v-199h-233v199zM644 672q-4 -105 -41 -173t-89 -115t-102.5 -88t-84.5 -91t-34 -125q0 -106 67.5 -164.5t187.5 -58.5q111 0 179.5 66t73.5 178h210q-9 -123 -69.5 -217t-159.5 -147t-225 -53q-143 0 -249.5 49.5t-165.5 138.5t-59 208q-1 97 34 161
t86.5 110.5t104.5 89.5t90.5 97t41.5 134h204z" />
    <glyph glyph-name="Agrave" unicode="&#xc0;" horiz-adv-x="1300" 
d="M377 1692h221l188 -292h-158zM1264 0h-218l-116 312h-559l-114 -312h-221l499 1301h233zM647 1071l-214 -588h433z" />
    <glyph glyph-name="Aacute" unicode="&#xc1;" horiz-adv-x="1300" 
d="M923 1692l-251 -292h-159l187 292h223zM1264 0h-218l-116 312h-559l-114 -312h-221l499 1301h233zM647 1071l-214 -588h433z" />
    <glyph glyph-name="Acircumflex" unicode="&#xc2;" horiz-adv-x="1300" 
d="M540 1704h201l264 -304h-199l-164 201l-166 -201h-200zM1264 0h-218l-116 312h-559l-114 -312h-221l499 1301h233zM647 1071l-214 -588h433z" />
    <glyph glyph-name="Atilde" unicode="&#xc3;" horiz-adv-x="1300" 
d="M466 1685q59 0 100 -22t72.5 -50t63 -49.5t72.5 -21.5q43 0 68 36t25 98h135q0 -130 -58.5 -207t-155.5 -77q-62 0 -103.5 21.5t-72.5 49.5t-59 49.5t-64 21.5q-40 0 -62.5 -36.5t-22.5 -97.5h-139q0 133 53.5 209t147.5 76zM1264 0h-218l-116 312h-559l-114 -312h-221
l499 1301h233zM647 1071l-214 -588h433z" />
    <glyph glyph-name="Adieresis" unicode="&#xc4;" horiz-adv-x="1300" 
d="M722 1610h218v-198h-218v198zM342 1610h219v-198h-219v198zM1264 0h-218l-116 312h-559l-114 -312h-221l499 1301h233zM647 1071l-214 -588h433z" />
    <glyph glyph-name="Aring" unicode="&#xc5;" horiz-adv-x="1300" 
d="M884 1593q0 -96 -64 -155t-169 -59q-106 0 -171 59t-65 155q0 97 64.5 155.5t169.5 58.5q106 0 170.5 -58.5t64.5 -155.5zM549 1593q0 -44 27.5 -69.5t74.5 -25.5t72.5 25.5t25.5 69.5q0 95 -100 95q-46 0 -73 -25t-27 -70zM1264 0h-218l-116 312h-559l-114 -312h-221
l499 1301h233zM647 1071l-214 -588h433z" />
    <glyph glyph-name="AE" unicode="&#xc6;" horiz-adv-x="1807" 
d="M1720 1301v-195h-664v-352h607v-183h-607v-378h664v-193h-871v312h-420l-175 -312h-218l704 1301h980zM503 483h346v627z" />
    <glyph glyph-name="Ccedilla" unicode="&#xc7;" horiz-adv-x="1343" 
d="M83 654q0 200 74 350t208.5 233t314.5 83q243 0 397.5 -126.5t183.5 -351.5h-210q-19 132 -113 210.5t-256 78.5q-184 0 -286.5 -125t-102.5 -352q0 -229 102.5 -354.5t286.5 -125.5q160 0 254 79t115 213h210q-26 -218 -167.5 -342.5t-361.5 -137.5l-25 -70h14
q75 0 121 -50t46 -130q0 -81 -52.5 -129t-142.5 -48h-166v129h145q72 0 72 59q0 60 -71 60h-52l-48 66l37 115q-159 16 -277.5 103t-184 231t-65.5 332z" />
    <glyph glyph-name="Egrave" unicode="&#xc8;" horiz-adv-x="1117" 
d="M320 1692h221l188 -292h-158zM1037 1301v-195h-728v-352h671v-183h-671v-378h728v-193h-935v1301h935z" />
    <glyph glyph-name="Eacute" unicode="&#xc9;" horiz-adv-x="1117" 
d="M866 1692l-251 -292h-159l188 292h222zM1037 1301v-195h-728v-352h671v-183h-671v-378h728v-193h-935v1301h935z" />
    <glyph glyph-name="Ecircumflex" unicode="&#xca;" horiz-adv-x="1117" 
d="M479 1704h202l263 -304h-198l-164 201l-167 -201h-199zM1037 1301v-195h-728v-352h671v-183h-671v-378h728v-193h-935v1301h935z" />
    <glyph glyph-name="Edieresis" unicode="&#xcb;" horiz-adv-x="1117" 
d="M665 1610h219v-198h-219v198zM285 1610h219v-198h-219v198zM1037 1301v-195h-728v-352h671v-183h-671v-378h728v-193h-935v1301h935z" />
    <glyph glyph-name="Igrave" unicode="&#xcc;" 
d="M-64 1692h221l188 -292h-158zM100 1301h207v-1301h-207v1301z" />
    <glyph glyph-name="Iacute" unicode="&#xcd;" 
d="M482 1692l-251 -292h-159l187 292h223zM100 1301h207v-1301h-207v1301z" />
    <glyph glyph-name="Icircumflex" unicode="&#xce;" 
d="M95 1704h202l263 -304h-198l-164 201l-167 -201h-200zM100 1301h207v-1301h-207v1301z" />
    <glyph glyph-name="Idieresis" unicode="&#xcf;" 
d="M281 1610h218v-198h-218v198zM-99 1610h219v-198h-219v198zM100 1301h207v-1301h-207v1301z" />
    <glyph glyph-name="Eth" unicode="&#xd0;" horiz-adv-x="1406" 
d="M0 728h203v573h467q197 0 344.5 -83.5t229.5 -233.5t82 -350q0 -190 -78 -333t-219 -222t-329 -79h-497v550h-203v178zM410 1114v-386h356v-178h-356v-364h268q207 0 321.5 118t114.5 331q0 227 -121.5 353t-342.5 126h-240z" />
    <glyph glyph-name="Ntilde" unicode="&#xd1;" horiz-adv-x="1271" 
d="M470 1685q59 0 99.5 -22t72.5 -50t63.5 -49.5t72.5 -21.5q42 0 67.5 36t25.5 98h134q0 -130 -58 -207t-155 -77q-62 0 -103.5 21.5t-72.5 49.5t-59.5 49.5t-63.5 21.5q-40 0 -62.5 -36.5t-22.5 -97.5h-140q0 133 54 209t148 76zM965 1301h204v-1301h-218l-642 1010v-1010
h-207v1301h261l602 -965v965z" />
    <glyph glyph-name="Ograve" unicode="&#xd2;" horiz-adv-x="1398" 
d="M431 1692h221l188 -292h-158zM83 635q0 206 77 360t216 239.5t325 85.5q185 0 323.5 -85.5t216 -239.5t77.5 -360q0 -195 -77.5 -341.5t-216 -228t-323.5 -81.5q-186 0 -325 81.5t-216 228t-77 341.5zM1107 635q0 235 -107 365.5t-299 130.5q-194 0 -301 -130.5
t-107 -365.5q0 -218 107 -339.5t301 -121.5q192 0 299 121.5t107 339.5z" />
    <glyph glyph-name="Oacute" unicode="&#xd3;" horiz-adv-x="1398" 
d="M977 1692l-251 -292h-159l188 292h222zM83 635q0 206 77 360t216 239.5t325 85.5q185 0 323.5 -85.5t216 -239.5t77.5 -360q0 -195 -77.5 -341.5t-216 -228t-323.5 -81.5q-186 0 -325 81.5t-216 228t-77 341.5zM1107 635q0 235 -107 365.5t-299 130.5q-194 0 -301 -130.5
t-107 -365.5q0 -218 107 -339.5t301 -121.5q192 0 299 121.5t107 339.5z" />
    <glyph glyph-name="Ocircumflex" unicode="&#xd4;" horiz-adv-x="1398" 
d="M590 1704h202l263 -304h-198l-164 201l-167 -201h-199zM83 635q0 206 77 360t216 239.5t325 85.5q185 0 323.5 -85.5t216 -239.5t77.5 -360q0 -195 -77.5 -341.5t-216 -228t-323.5 -81.5q-186 0 -325 81.5t-216 228t-77 341.5zM1107 635q0 235 -107 365.5t-299 130.5
q-194 0 -301 -130.5t-107 -365.5q0 -218 107 -339.5t301 -121.5q192 0 299 121.5t107 339.5z" />
    <glyph glyph-name="Otilde" unicode="&#xd5;" horiz-adv-x="1398" 
d="M520 1685q59 0 100 -22t72.5 -50t63.5 -49.5t72 -21.5q43 0 68 36t25 98h135q0 -130 -58.5 -207t-155.5 -77q-62 0 -103.5 21.5t-72 49.5t-59 49.5t-64.5 21.5q-39 0 -62 -36.5t-23 -97.5h-139q0 133 53.5 209t147.5 76zM83 635q0 206 77 360t216 239.5t325 85.5
q185 0 323.5 -85.5t216 -239.5t77.5 -360q0 -195 -77.5 -341.5t-216 -228t-323.5 -81.5q-186 0 -325 81.5t-216 228t-77 341.5zM1107 635q0 235 -107 365.5t-299 130.5q-194 0 -301 -130.5t-107 -365.5q0 -218 107 -339.5t301 -121.5q192 0 299 121.5t107 339.5z" />
    <glyph glyph-name="Odieresis" unicode="&#xd6;" horiz-adv-x="1398" 
d="M776 1610h219v-198h-219v198zM396 1610h219v-198h-219v198zM83 635q0 206 77 360t216 239.5t325 85.5q185 0 323.5 -85.5t216 -239.5t77.5 -360q0 -195 -77.5 -341.5t-216 -228t-323.5 -81.5q-186 0 -325 81.5t-216 228t-77 341.5zM1107 635q0 235 -107 365.5t-299 130.5
q-194 0 -301 -130.5t-107 -365.5q0 -218 107 -339.5t301 -121.5q192 0 299 121.5t107 339.5z" />
    <glyph glyph-name="multiply" unicode="&#xd7;" horiz-adv-x="1123" 
d="M562 706l312 321l131 -132l-319 -312l319 -313l-131 -131l-312 319l-313 -319l-130 131l319 313l-319 312l130 132z" />
    <glyph glyph-name="Oslash" unicode="&#xd8;" horiz-adv-x="1398" 
d="M83 635q0 206 77 360t216 239.5t325 85.5q105 0 196.5 -29t165.5 -83l138 166l117 -96l-145 -175q69 -89 107 -207.5t38 -260.5q0 -195 -77.5 -341.5t-216 -228t-323.5 -81.5q-107 0 -198.5 27.5t-165.5 78.5l-137 -166l-117 99l141 171q-68 84 -104.5 195.5t-36.5 245.5
zM293 635q0 -168 64 -280l582 703q-97 73 -238 73q-194 0 -301 -130.5t-107 -365.5zM1107 635q0 185 -68 306l-578 -700q97 -67 240 -67q192 0 299 121.5t107 339.5z" />
    <glyph glyph-name="Ugrave" unicode="&#xd9;" horiz-adv-x="1254" 
d="M361 1692h221l189 -292h-159zM93 1301h204v-784q0 -160 88.5 -247.5t247.5 -87.5q154 0 239 87.5t85 247.5v784h206v-784q0 -161 -66.5 -280.5t-186 -186t-277.5 -66.5q-162 0 -283.5 66.5t-189 186t-67.5 280.5v784z" />
    <glyph glyph-name="Uacute" unicode="&#xda;" horiz-adv-x="1254" 
d="M907 1692l-251 -292h-159l188 292h222zM93 1301h204v-784q0 -160 88.5 -247.5t247.5 -87.5q154 0 239 87.5t85 247.5v784h206v-784q0 -161 -66.5 -280.5t-186 -186t-277.5 -66.5q-162 0 -283.5 66.5t-189 186t-67.5 280.5v784z" />
    <glyph glyph-name="Ucircumflex" unicode="&#xdb;" horiz-adv-x="1254" 
d="M521 1704h201l263 -304h-198l-164 201l-166 -201h-200zM93 1301h204v-784q0 -160 88.5 -247.5t247.5 -87.5q154 0 239 87.5t85 247.5v784h206v-784q0 -161 -66.5 -280.5t-186 -186t-277.5 -66.5q-162 0 -283.5 66.5t-189 186t-67.5 280.5v784z" />
    <glyph glyph-name="Udieresis" unicode="&#xdc;" horiz-adv-x="1254" 
d="M706 1610h219v-198h-219v198zM327 1610h219v-198h-219v198zM93 1301h204v-784q0 -160 88.5 -247.5t247.5 -87.5q154 0 239 87.5t85 247.5v784h206v-784q0 -161 -66.5 -280.5t-186 -186t-277.5 -66.5q-162 0 -283.5 66.5t-189 186t-67.5 280.5v784z" />
    <glyph glyph-name="Yacute" unicode="&#xdd;" horiz-adv-x="1188" 
d="M881 1692l-250 -292h-159l187 292h222zM489 443l-453 858h232l326 -633l327 633h231l-459 -858v-443h-204v443z" />
    <glyph glyph-name="Thorn" unicode="&#xde;" horiz-adv-x="1169" 
d="M100 1301h207v-205h335q136 0 238.5 -53t159 -148.5t56.5 -223.5q0 -124 -53.5 -219.5t-151 -150t-229.5 -54.5h-353v-247h-209v1301zM309 916v-483h315q122 0 191.5 63t69.5 175q0 116 -69 180.5t-192 64.5h-315z" />
    <glyph glyph-name="germandbls" unicode="&#xdf;" horiz-adv-x="1148" 
d="M589 1236q-131 0 -205.5 -84.5t-74.5 -230.5v-921h-207v935q0 141 60.5 249.5t170 170t256.5 61.5q120 0 218.5 -51t156.5 -137t58 -191q0 -98 -49.5 -178t-136.5 -126q107 -44 169 -133t62 -210q0 -117 -55 -205t-153 -136.5t-228 -48.5h-172v183h158q117 0 181.5 59.5
t64.5 168.5q0 108 -60 167t-169 59h-143v175h117q101 0 155.5 61t54.5 154q0 90 -65 149.5t-164 59.5z" />
    <glyph glyph-name="agrave" unicode="&#xe0;" horiz-adv-x="1053" 
d="M261 1411h221l188 -292h-158zM951 643v-643h-206v147q-102 -170 -332 -170q-98 0 -174.5 38.5t-119.5 106.5t-43 155q0 131 86.5 206.5t248.5 87.5l282 22q52 3 52 48v23q0 91 -59.5 146.5t-161.5 55.5q-193 0 -213 -190h-213q7 104 63 182.5t150 122.5t214 44
q126 0 222.5 -48.5t150 -134.5t53.5 -199zM284 291q0 -68 52 -108.5t141 -40.5q119 0 193.5 74t74.5 194v35l-300 -19q-161 -11 -161 -135z" />
    <glyph glyph-name="aacute" unicode="&#xe1;" horiz-adv-x="1053" 
d="M807 1411l-251 -292h-159l187 292h223zM951 643v-643h-206v147q-102 -170 -332 -170q-98 0 -174.5 38.5t-119.5 106.5t-43 155q0 131 86.5 206.5t248.5 87.5l282 22q52 3 52 48v23q0 91 -59.5 146.5t-161.5 55.5q-193 0 -213 -190h-213q7 104 63 182.5t150 122.5t214 44
q126 0 222.5 -48.5t150 -134.5t53.5 -199zM284 291q0 -68 52 -108.5t141 -40.5q119 0 193.5 74t74.5 194v35l-300 -19q-161 -11 -161 -135z" />
    <glyph glyph-name="acircumflex" unicode="&#xe2;" horiz-adv-x="1053" 
d="M420 1423h202l263 -304h-198l-164 201l-167 -201h-200zM951 643v-643h-206v147q-102 -170 -332 -170q-98 0 -174.5 38.5t-119.5 106.5t-43 155q0 131 86.5 206.5t248.5 87.5l282 22q52 3 52 48v23q0 91 -59.5 146.5t-161.5 55.5q-193 0 -213 -190h-213q7 104 63 182.5
t150 122.5t214 44q126 0 222.5 -48.5t150 -134.5t53.5 -199zM284 291q0 -68 52 -108.5t141 -40.5q119 0 193.5 74t74.5 194v35l-300 -19q-161 -11 -161 -135z" />
    <glyph glyph-name="atilde" unicode="&#xe3;" horiz-adv-x="1053" 
d="M350 1404q59 0 100 -22t72.5 -50t63 -49.5t72.5 -21.5q43 0 68 36t25 98h135q0 -130 -58.5 -207t-155.5 -77q-62 0 -103.5 21.5t-72.5 49.5t-59 49.5t-64 21.5q-40 0 -62.5 -36.5t-22.5 -97.5h-139q0 133 53.5 209t147.5 76zM951 643v-643h-206v147q-102 -170 -332 -170
q-98 0 -174.5 38.5t-119.5 106.5t-43 155q0 131 86.5 206.5t248.5 87.5l282 22q52 3 52 48v23q0 91 -59.5 146.5t-161.5 55.5q-193 0 -213 -190h-213q7 104 63 182.5t150 122.5t214 44q126 0 222.5 -48.5t150 -134.5t53.5 -199zM284 291q0 -68 52 -108.5t141 -40.5
q119 0 193.5 74t74.5 194v35l-300 -19q-161 -11 -161 -135z" />
    <glyph glyph-name="adieresis" unicode="&#xe4;" horiz-adv-x="1053" 
d="M606 1329h218v-198h-218v198zM226 1329h219v-198h-219v198zM951 643v-643h-206v147q-102 -170 -332 -170q-98 0 -174.5 38.5t-119.5 106.5t-43 155q0 131 86.5 206.5t248.5 87.5l282 22q52 3 52 48v23q0 91 -59.5 146.5t-161.5 55.5q-193 0 -213 -190h-213
q7 104 63 182.5t150 122.5t214 44q126 0 222.5 -48.5t150 -134.5t53.5 -199zM284 291q0 -68 52 -108.5t141 -40.5q119 0 193.5 74t74.5 194v35l-300 -19q-161 -11 -161 -135z" />
    <glyph glyph-name="aring" unicode="&#xe5;" horiz-adv-x="1053" 
d="M764 1312q0 -96 -64 -155t-168 -59q-107 0 -171.5 59t-64.5 155q0 97 64 155.5t170 58.5q105 0 169.5 -58.5t64.5 -155.5zM429 1312q0 -44 27.5 -69.5t75.5 -25.5q46 0 72 25.5t26 69.5q0 95 -100 95q-47 0 -74 -25t-27 -70zM951 643v-643h-206v147q-102 -170 -332 -170
q-98 0 -174.5 38.5t-119.5 106.5t-43 155q0 131 86.5 206.5t248.5 87.5l282 22q52 3 52 48v23q0 91 -59.5 146.5t-161.5 55.5q-193 0 -213 -190h-213q7 104 63 182.5t150 122.5t214 44q126 0 222.5 -48.5t150 -134.5t53.5 -199zM284 291q0 -68 52 -108.5t141 -40.5
q119 0 193.5 74t74.5 194v35l-300 -19q-161 -11 -161 -135z" />
    <glyph glyph-name="ae" unicode="&#xe6;" horiz-adv-x="1762" 
d="M1676 317q-30 -163 -142 -251.5t-303 -88.5q-137 0 -238.5 56t-160.5 160q-53 -102 -153.5 -159t-234.5 -57q-109 0 -192 39t-129.5 107.5t-46.5 158.5q0 126 87 201.5t248 87.5l282 22q52 3 52 48v36q0 79 -63.5 132.5t-156.5 53.5q-196 0 -216 -191h-213
q11 160 123.5 256.5t292.5 96.5q118 0 207.5 -45t139.5 -124q60 82 151 126.5t206 44.5q138 0 244.5 -67t167 -184.5t60.5 -269.5v-61h-741q25 -299 282 -299q100 0 160 46.5t77 124.5h210zM1212 857q-232 0 -262 -264h518q-10 121 -80 192.5t-176 71.5zM284 294
q0 -69 50.5 -110t136.5 -41q118 0 196 71.5t78 196.5v35l-300 -19q-161 -11 -161 -133z" />
    <glyph glyph-name="ccedilla" unicode="&#xe7;" horiz-adv-x="1100" 
d="M76 504q0 158 60.5 275.5t169.5 182.5t254 65q131 0 235 -50t166.5 -142.5t67.5 -218.5h-210q-4 110 -74.5 169.5t-184.5 59.5q-131 0 -202.5 -89t-71.5 -252q0 -164 72 -254.5t202 -90.5q113 0 183 54.5t76 157.5h210q-11 -171 -124.5 -273.5t-286.5 -118.5l-23 -63h14
q75 0 121 -50t46 -130q0 -81 -52.5 -129t-142.5 -48h-166v129h145q72 0 72 59q0 60 -71 60h-52l-48 66l35 108q-127 14 -221.5 83t-146.5 181.5t-52 258.5z" />
    <glyph glyph-name="egrave" unicode="&#xe8;" horiz-adv-x="1120" 
d="M288 1411h221l188 -292h-158zM76 497q0 161 60.5 280t171 184.5t258.5 65.5q140 0 248.5 -65.5t170.5 -182.5t62 -273v-61h-763q26 -299 293 -299q104 0 167 46.5t80 124.5h210q-31 -161 -146 -250.5t-309 -89.5q-233 0 -368 139.5t-135 380.5zM560 857q-239 0 -273 -264
h539q-10 121 -82.5 192.5t-183.5 71.5z" />
    <glyph glyph-name="eacute" unicode="&#xe9;" horiz-adv-x="1120" 
d="M834 1411l-251 -292h-159l187 292h223zM76 497q0 161 60.5 280t171 184.5t258.5 65.5q140 0 248.5 -65.5t170.5 -182.5t62 -273v-61h-763q26 -299 293 -299q104 0 167 46.5t80 124.5h210q-31 -161 -146 -250.5t-309 -89.5q-233 0 -368 139.5t-135 380.5zM560 857
q-239 0 -273 -264h539q-10 121 -82.5 192.5t-183.5 71.5z" />
    <glyph glyph-name="ecircumflex" unicode="&#xea;" horiz-adv-x="1120" 
d="M447 1423h202l263 -304h-198l-164 201l-167 -201h-200zM76 497q0 161 60.5 280t171 184.5t258.5 65.5q140 0 248.5 -65.5t170.5 -182.5t62 -273v-61h-763q26 -299 293 -299q104 0 167 46.5t80 124.5h210q-31 -161 -146 -250.5t-309 -89.5q-233 0 -368 139.5t-135 380.5z
M560 857q-239 0 -273 -264h539q-10 121 -82.5 192.5t-183.5 71.5z" />
    <glyph glyph-name="edieresis" unicode="&#xeb;" horiz-adv-x="1120" 
d="M633 1329h218v-198h-218v198zM253 1329h219v-198h-219v198zM76 497q0 161 60.5 280t171 184.5t258.5 65.5q140 0 248.5 -65.5t170.5 -182.5t62 -273v-61h-763q26 -299 293 -299q104 0 167 46.5t80 124.5h210q-31 -161 -146 -250.5t-309 -89.5q-233 0 -368 139.5
t-135 380.5zM560 857q-239 0 -273 -264h539q-10 121 -82.5 192.5t-183.5 71.5z" />
    <glyph glyph-name="igrave" unicode="&#xec;" 
d="M-64 1411h221l188 -292h-158zM100 1000h207v-1000h-207v1000z" />
    <glyph glyph-name="iacute" unicode="&#xed;" 
d="M482 1411l-251 -292h-159l188 292h222zM100 1000h207v-1000h-207v1000z" />
    <glyph glyph-name="icircumflex" unicode="&#xee;" 
d="M95 1423h202l263 -304h-198l-164 201l-167 -201h-199zM100 1000h207v-1000h-207v1000z" />
    <glyph glyph-name="idieresis" unicode="&#xef;" 
d="M278 1329h190v-198h-190v198zM-79 1329h197v-198h-197v198zM100 1000h207v-1000h-207v1000z" />
    <glyph glyph-name="eth" unicode="&#xf0;" horiz-adv-x="1146" 
d="M275 1173l233 67q-87 81 -196 160h268q67 -48 128 -103l311 90v-151l-197 -57q118 -140 183 -303t65 -332q0 -170 -61.5 -296t-174 -195t-265.5 -69q-146 0 -257.5 63t-173.5 175t-62 259q0 140 54.5 248.5t150.5 170.5t219 62q90 0 166.5 -33.5t130.5 -93.5
q-50 142 -175 287l-347 -100v151zM848 481q0 139 -80 226.5t-207 87.5q-125 0 -200 -86.5t-75 -229.5t75.5 -230.5t198.5 -87.5q126 0 207 90t81 230z" />
    <glyph glyph-name="ntilde" unicode="&#xf1;" horiz-adv-x="1091" 
d="M377 1404q59 0 99.5 -22t72.5 -50t63.5 -49.5t72.5 -21.5q42 0 67.5 36t25.5 98h134q0 -130 -58 -207t-155 -77q-62 0 -103.5 21.5t-72.5 49.5t-59.5 49.5t-63.5 21.5q-40 0 -62.5 -36.5t-22.5 -97.5h-140q0 133 54 209t148 76zM788 589q0 130 -64.5 189t-172.5 59
q-104 0 -173 -65.5t-69 -168.5v-603h-207v1000h207v-152q55 86 140.5 132.5t174.5 46.5q161 0 265 -101.5t104 -292.5v-633h-205v589z" />
    <glyph glyph-name="ograve" unicode="&#xf2;" horiz-adv-x="1122" 
d="M289 1411h221l188 -292h-158zM76 504q0 158 61 275.5t170.5 182.5t254.5 65t254 -65t169.5 -182.5t60.5 -275.5t-60.5 -276.5t-169.5 -184.5t-254 -66t-254.5 66t-170.5 184.5t-61 276.5zM835 504q0 162 -71.5 251.5t-201.5 89.5q-131 0 -203.5 -89.5t-72.5 -251.5
q0 -164 72.5 -254.5t203.5 -90.5q130 0 201.5 90.5t71.5 254.5z" />
    <glyph glyph-name="oacute" unicode="&#xf3;" horiz-adv-x="1122" 
d="M835 1411l-251 -292h-159l188 292h222zM76 504q0 158 61 275.5t170.5 182.5t254.5 65t254 -65t169.5 -182.5t60.5 -275.5t-60.5 -276.5t-169.5 -184.5t-254 -66t-254.5 66t-170.5 184.5t-61 276.5zM835 504q0 162 -71.5 251.5t-201.5 89.5q-131 0 -203.5 -89.5
t-72.5 -251.5q0 -164 72.5 -254.5t203.5 -90.5q130 0 201.5 90.5t71.5 254.5z" />
    <glyph glyph-name="ocircumflex" unicode="&#xf4;" horiz-adv-x="1122" 
d="M448 1423h202l263 -304h-198l-164 201l-167 -201h-199zM76 504q0 158 61 275.5t170.5 182.5t254.5 65t254 -65t169.5 -182.5t60.5 -275.5t-60.5 -276.5t-169.5 -184.5t-254 -66t-254.5 66t-170.5 184.5t-61 276.5zM835 504q0 162 -71.5 251.5t-201.5 89.5
q-131 0 -203.5 -89.5t-72.5 -251.5q0 -164 72.5 -254.5t203.5 -90.5q130 0 201.5 90.5t71.5 254.5z" />
    <glyph glyph-name="otilde" unicode="&#xf5;" horiz-adv-x="1122" 
d="M379 1404q59 0 99.5 -22t72.5 -50t63.5 -49.5t71.5 -21.5q43 0 68.5 36t25.5 98h134q0 -130 -58.5 -207t-155.5 -77q-62 0 -103.5 21.5t-72 49.5t-59 49.5t-63.5 21.5q-40 0 -63 -36.5t-23 -97.5h-139q0 133 53.5 209t148.5 76zM76 504q0 158 61 275.5t170.5 182.5
t254.5 65t254 -65t169.5 -182.5t60.5 -275.5t-60.5 -276.5t-169.5 -184.5t-254 -66t-254.5 66t-170.5 184.5t-61 276.5zM835 504q0 162 -71.5 251.5t-201.5 89.5q-131 0 -203.5 -89.5t-72.5 -251.5q0 -164 72.5 -254.5t203.5 -90.5q130 0 201.5 90.5t71.5 254.5z" />
    <glyph glyph-name="odieresis" unicode="&#xf6;" horiz-adv-x="1122" 
d="M634 1329h219v-198h-219v198zM254 1329h219v-198h-219v198zM76 504q0 158 61 275.5t170.5 182.5t254.5 65t254 -65t169.5 -182.5t60.5 -275.5t-60.5 -276.5t-169.5 -184.5t-254 -66t-254.5 66t-170.5 184.5t-61 276.5zM835 504q0 162 -71.5 251.5t-201.5 89.5
q-131 0 -203.5 -89.5t-72.5 -251.5q0 -164 72.5 -254.5t203.5 -90.5q130 0 201.5 90.5t71.5 254.5z" />
    <glyph glyph-name="divide" unicode="&#xf7;" horiz-adv-x="961" 
d="M380 1050h202v-214h-202v214zM63 637h836v-170h-836v170zM380 243h202v-212h-202v212z" />
    <glyph glyph-name="oslash" unicode="&#xf8;" horiz-adv-x="1131" 
d="M81 504q0 158 61 275.5t170.5 182.5t255.5 65q161 0 279 -82l105 128l94 -83l-107 -131q54 -67 83 -157t29 -198q0 -158 -60.5 -276.5t-169.5 -184.5t-253 -66q-164 0 -283 84l-108 -132l-94 83l110 135q-53 68 -82.5 158.5t-29.5 198.5zM284 504q0 -118 38 -200l409 499
q-67 50 -163 50q-135 0 -209.5 -92t-74.5 -257zM848 504q0 117 -38 198l-409 -499q68 -51 167 -51q132 0 206 92.5t74 259.5z" />
    <glyph glyph-name="ugrave" unicode="&#xf9;" horiz-adv-x="1074" 
d="M275 1411h221l188 -292h-158zM307 415q0 -133 61.5 -192.5t165.5 -59.5q100 0 168 67.5t68 173.5v596h204v-1000h-204v155q-55 -87 -139 -134.5t-170 -47.5q-157 0 -259 103t-102 297v627h207v-585z" />
    <glyph glyph-name="uacute" unicode="&#xfa;" horiz-adv-x="1074" 
d="M820 1411l-250 -292h-159l187 292h222zM307 415q0 -133 61.5 -192.5t165.5 -59.5q100 0 168 67.5t68 173.5v596h204v-1000h-204v155q-55 -87 -139 -134.5t-170 -47.5q-157 0 -259 103t-102 297v627h207v-585z" />
    <glyph glyph-name="ucircumflex" unicode="&#xfb;" horiz-adv-x="1074" 
d="M434 1423h202l263 -304h-198l-164 201l-167 -201h-200zM307 415q0 -133 61.5 -192.5t165.5 -59.5q100 0 168 67.5t68 173.5v596h204v-1000h-204v155q-55 -87 -139 -134.5t-170 -47.5q-157 0 -259 103t-102 297v627h207v-585z" />
    <glyph glyph-name="udieresis" unicode="&#xfc;" horiz-adv-x="1074" 
d="M620 1329h218v-198h-218v198zM240 1329h219v-198h-219v198zM307 415q0 -133 61.5 -192.5t165.5 -59.5q100 0 168 67.5t68 173.5v596h204v-1000h-204v155q-55 -87 -139 -134.5t-170 -47.5q-157 0 -259 103t-102 297v627h207v-585z" />
    <glyph glyph-name="yacute" unicode="&#xfd;" horiz-adv-x="1084" 
d="M825 1411l-251 -292h-159l187 292h223zM104 -144h109q80 0 122.5 25t67.5 88l21 54l-388 977h219l286 -765l276 765h216l-403 -1049q-59 -155 -151.5 -218.5t-233.5 -63.5h-141v187z" />
    <glyph glyph-name="thorn" unicode="&#xfe;" horiz-adv-x="1145" 
d="M100 1400h207v-573q52 95 136.5 147.5t193.5 52.5q128 0 224.5 -65t150 -182.5t53.5 -275.5t-53.5 -276.5t-150 -184.5t-224.5 -66q-109 0 -193.5 53t-136.5 149v-505h-207v1726zM854 504q0 162 -71.5 251.5t-201.5 89.5q-131 0 -202.5 -89.5t-71.5 -251.5
q0 -164 71.5 -254.5t202.5 -90.5q130 0 201.5 90.5t71.5 254.5z" />
    <glyph glyph-name="ydieresis" unicode="&#xff;" horiz-adv-x="1084" 
d="M624 1329h218v-198h-218v198zM244 1329h219v-198h-219v198zM104 -144h109q80 0 122.5 25t67.5 88l21 54l-388 977h219l286 -765l276 765h216l-403 -1049q-59 -155 -151.5 -218.5t-233.5 -63.5h-141v187z" />
    <glyph glyph-name="Amacron" unicode="&#x100;" horiz-adv-x="1300" 
d="M313 1593h645v-161h-645v161zM1264 0h-218l-116 312h-559l-114 -312h-221l499 1301h233zM647 1071l-214 -588h433z" />
    <glyph glyph-name="amacron" unicode="&#x101;" horiz-adv-x="1053" 
d="M197 1312h645v-161h-645v161zM951 643v-643h-206v147q-102 -170 -332 -170q-98 0 -174.5 38.5t-119.5 106.5t-43 155q0 131 86.5 206.5t248.5 87.5l282 22q52 3 52 48v23q0 91 -59.5 146.5t-161.5 55.5q-193 0 -213 -190h-213q7 104 63 182.5t150 122.5t214 44
q126 0 222.5 -48.5t150 -134.5t53.5 -199zM284 291q0 -68 52 -108.5t141 -40.5q119 0 193.5 74t74.5 194v35l-300 -19q-161 -11 -161 -135z" />
    <glyph glyph-name="Abreve" unicode="&#x102;" horiz-adv-x="1300" 
d="M998 1685q-15 -131 -110 -210.5t-245 -79.5q-151 0 -248 79.5t-111 210.5h175q21 -151 184 -151q160 0 181 151h174zM1264 0h-218l-116 312h-559l-114 -312h-221l499 1301h233zM647 1071l-214 -588h433z" />
    <glyph glyph-name="abreve" unicode="&#x103;" horiz-adv-x="1053" 
d="M882 1404q-15 -131 -110 -210.5t-245 -79.5q-151 0 -248 79.5t-111 210.5h175q21 -151 184 -151q160 0 181 151h174zM951 643v-643h-206v147q-102 -170 -332 -170q-98 0 -174.5 38.5t-119.5 106.5t-43 155q0 131 86.5 206.5t248.5 87.5l282 22q52 3 52 48v23
q0 91 -59.5 146.5t-161.5 55.5q-193 0 -213 -190h-213q7 104 63 182.5t150 122.5t214 44q126 0 222.5 -48.5t150 -134.5t53.5 -199zM284 291q0 -68 52 -108.5t141 -40.5q119 0 193.5 74t74.5 194v35l-300 -19q-161 -11 -161 -135z" />
    <glyph glyph-name="Aogonek" unicode="&#x104;" horiz-adv-x="1300" 
d="M1249 0q-153 -102 -153 -193q0 -93 113 -93h49v-156h-65q-131 0 -206.5 56t-75.5 154q0 57 30 109t105 123l-116 312h-559l-114 -312h-221l499 1301h233l496 -1301h-15zM647 1071l-214 -588h433z" />
    <glyph glyph-name="aogonek" unicode="&#x105;" horiz-adv-x="1058" 
d="M947 0q-146 -102 -146 -193q0 -93 112 -93h43v-156h-59q-131 0 -206 56t-75 154q0 57 30 109t104 123v152q-52 -86 -140.5 -130.5t-200.5 -44.5q-95 0 -169.5 38.5t-116.5 106t-42 154.5q0 132 87 207.5t249 87.5l281 22q52 3 52 48v36q0 83 -60.5 136t-161.5 53
q-191 0 -212 -190h-212q7 102 62 180.5t148 123.5t215 45q127 0 223.5 -46.5t150.5 -130t54 -193.5v-655h-10zM289 292q0 -68 51.5 -108.5t137.5 -40.5q117 0 194.5 71.5t77.5 196.5v35l-300 -19q-161 -11 -161 -135z" />
    <glyph glyph-name="Cacute" unicode="&#x106;" horiz-adv-x="1343" 
d="M954 1692l-251 -292h-159l188 292h222zM83 654q0 200 74 350t208.5 233t314.5 83q243 0 397.5 -126.5t183.5 -351.5h-210q-19 132 -113 210.5t-256 78.5q-184 0 -286.5 -125t-102.5 -352q0 -229 102.5 -354.5t286.5 -125.5q160 0 254 79t115 213h210q-28 -230 -184 -356
t-397 -126q-179 0 -313.5 84t-209 234.5t-74.5 351.5z" />
    <glyph glyph-name="cacute" unicode="&#x107;" horiz-adv-x="1100" 
d="M834 1411l-251 -292h-159l188 292h222zM76 504q0 158 60.5 275.5t169.5 182.5t254 65q131 0 235 -50t166.5 -142.5t67.5 -218.5h-210q-4 110 -74.5 169.5t-184.5 59.5q-131 0 -202.5 -89t-71.5 -252q0 -164 72 -254.5t202 -90.5q113 0 183 54.5t76 157.5h210
q-8 -123 -70.5 -211.5t-165.5 -135.5t-233 -47q-144 0 -253.5 66t-170 184.5t-60.5 276.5z" />
    <glyph glyph-name="Ccircumflex" unicode="&#x108;" horiz-adv-x="1343" 
d="M567 1704h202l263 -304h-198l-164 201l-167 -201h-199zM83 654q0 200 74 350t208.5 233t314.5 83q243 0 397.5 -126.5t183.5 -351.5h-210q-19 132 -113 210.5t-256 78.5q-184 0 -286.5 -125t-102.5 -352q0 -229 102.5 -354.5t286.5 -125.5q160 0 254 79t115 213h210
q-28 -230 -184 -356t-397 -126q-179 0 -313.5 84t-209 234.5t-74.5 351.5z" />
    <glyph glyph-name="ccircumflex" unicode="&#x109;" horiz-adv-x="1100" 
d="M447 1423h202l263 -304h-198l-164 201l-167 -201h-199zM76 504q0 158 60.5 275.5t169.5 182.5t254 65q131 0 235 -50t166.5 -142.5t67.5 -218.5h-210q-4 110 -74.5 169.5t-184.5 59.5q-131 0 -202.5 -89t-71.5 -252q0 -164 72 -254.5t202 -90.5q113 0 183 54.5t76 157.5
h210q-8 -123 -70.5 -211.5t-165.5 -135.5t-233 -47q-144 0 -253.5 66t-170 184.5t-60.5 276.5z" />
    <glyph glyph-name="Cdotaccent" unicode="&#x10a;" horiz-adv-x="1343" 
d="M563 1620h226v-220h-226v220zM83 654q0 200 74 350t208.5 233t314.5 83q243 0 397.5 -126.5t183.5 -351.5h-210q-19 132 -113 210.5t-256 78.5q-184 0 -286.5 -125t-102.5 -352q0 -229 102.5 -354.5t286.5 -125.5q160 0 254 79t115 213h210q-28 -230 -184 -356t-397 -126
q-179 0 -313.5 84t-209 234.5t-74.5 351.5z" />
    <glyph glyph-name="cdotaccent" unicode="&#x10b;" horiz-adv-x="1100" 
d="M443 1339h226v-220h-226v220zM76 504q0 158 60.5 275.5t169.5 182.5t254 65q131 0 235 -50t166.5 -142.5t67.5 -218.5h-210q-4 110 -74.5 169.5t-184.5 59.5q-131 0 -202.5 -89t-71.5 -252q0 -164 72 -254.5t202 -90.5q113 0 183 54.5t76 157.5h210q-8 -123 -70.5 -211.5
t-165.5 -135.5t-233 -47q-144 0 -253.5 66t-170 184.5t-60.5 276.5z" />
    <glyph glyph-name="Ccaron" unicode="&#x10c;" horiz-adv-x="1343" 
d="M780 1400h-202l-263 304h198l164 -201l167 201h199zM83 654q0 200 74 350t208.5 233t314.5 83q243 0 397.5 -126.5t183.5 -351.5h-210q-19 132 -113 210.5t-256 78.5q-184 0 -286.5 -125t-102.5 -352q0 -229 102.5 -354.5t286.5 -125.5q160 0 254 79t115 213h210
q-28 -230 -184 -356t-397 -126q-179 0 -313.5 84t-209 234.5t-74.5 351.5z" />
    <glyph glyph-name="ccaron" unicode="&#x10d;" horiz-adv-x="1100" 
d="M660 1119h-202l-263 304h198l164 -201l167 201h200zM76 504q0 158 60.5 275.5t169.5 182.5t254 65q131 0 235 -50t166.5 -142.5t67.5 -218.5h-210q-4 110 -74.5 169.5t-184.5 59.5q-131 0 -202.5 -89t-71.5 -252q0 -164 72 -254.5t202 -90.5q113 0 183 54.5t76 157.5h210
q-8 -123 -70.5 -211.5t-165.5 -135.5t-233 -47q-144 0 -253.5 66t-170 184.5t-60.5 276.5z" />
    <glyph glyph-name="Dcaron" unicode="&#x10e;" horiz-adv-x="1310" 
d="M686 1400h-201l-264 304h199l164 -201l166 201h200zM569 1301q198 0 346.5 -81t231.5 -227.5t83 -340.5q0 -196 -79.5 -342.5t-221.5 -228t-331 -81.5h-496v1301h467zM309 1114v-928h268q209 0 325 122.5t116 343.5q0 219 -122.5 340.5t-345.5 121.5h-241z" />
    <glyph glyph-name="dcaron" unicode="&#x10f;" horiz-adv-x="1184" 
d="M1211 1440h185l-73 -440h-177zM1045 1400v-1400h-204v180q-53 -96 -138 -149.5t-194 -53.5q-128 0 -224.5 66t-150 184.5t-53.5 276.5t53.5 275.5t150 182.5t224.5 65q109 0 194 -53t138 -148v574h204zM291 504q0 -164 72.5 -254.5t202.5 -90.5q131 0 203 90.5t72 254.5
q0 162 -72 251.5t-203 89.5q-130 0 -202.5 -89.5t-72.5 -251.5z" />
    <glyph glyph-name="Dcroat" unicode="&#x110;" horiz-adv-x="1406" 
d="M0 728h203v573h467q197 0 344.5 -83.5t229.5 -233.5t82 -350q0 -190 -78 -333t-219 -222t-329 -79h-497v550h-203v178zM410 1114v-386h356v-178h-356v-364h268q207 0 321.5 118t114.5 331q0 227 -121.5 353t-342.5 126h-240z" />
    <glyph glyph-name="dcroat" unicode="&#x111;" horiz-adv-x="1239" 
d="M500 1275h341v125h204v-125h164v-144h-164v-1131h-204v177q-53 -95 -138 -147.5t-194 -52.5q-128 0 -224.5 65t-150 182t-53.5 273q0 155 53.5 271t150 180.5t224.5 64.5q109 0 194 -52.5t138 -146.5v317h-341v144zM291 497q0 -161 72.5 -249.5t202.5 -88.5
q131 0 203 88.5t72 249.5q0 158 -72 245.5t-203 87.5q-130 0 -202.5 -87.5t-72.5 -245.5z" />
    <glyph glyph-name="Emacron" unicode="&#x112;" horiz-adv-x="1117" 
d="M256 1593h646v-161h-646v161zM1037 1301v-195h-728v-352h671v-183h-671v-378h728v-193h-935v1301h935z" />
    <glyph glyph-name="emacron" unicode="&#x113;" horiz-adv-x="1120" 
d="M224 1312h645v-161h-645v161zM76 497q0 161 60.5 280t171 184.5t258.5 65.5q140 0 248.5 -65.5t170.5 -182.5t62 -273v-61h-763q26 -299 293 -299q104 0 167 46.5t80 124.5h210q-31 -161 -146 -250.5t-309 -89.5q-233 0 -368 139.5t-135 380.5zM560 857q-239 0 -273 -264
h539q-10 121 -82.5 192.5t-183.5 71.5z" />
    <glyph glyph-name="Ebreve" unicode="&#x114;" horiz-adv-x="1117" 
d="M941 1685q-15 -131 -110 -210.5t-244 -79.5q-152 0 -248.5 79.5t-111.5 210.5h175q21 -151 185 -151q159 0 180 151h174zM1037 1301v-195h-728v-352h671v-183h-671v-378h728v-193h-935v1301h935z" />
    <glyph glyph-name="ebreve" unicode="&#x115;" horiz-adv-x="1120" 
d="M909 1404q-15 -131 -109.5 -210.5t-244.5 -79.5q-152 0 -248.5 79.5t-111.5 210.5h176q20 -151 184 -151q159 0 180 151h174zM76 497q0 161 60.5 280t171 184.5t258.5 65.5q140 0 248.5 -65.5t170.5 -182.5t62 -273v-61h-763q26 -299 293 -299q104 0 167 46.5t80 124.5
h210q-31 -161 -146 -250.5t-309 -89.5q-233 0 -368 139.5t-135 380.5zM560 857q-239 0 -273 -264h539q-10 121 -82.5 192.5t-183.5 71.5z" />
    <glyph glyph-name="Edotaccent" unicode="&#x116;" horiz-adv-x="1117" 
d="M475 1620h226v-220h-226v220zM1037 1301v-195h-728v-352h671v-183h-671v-378h728v-193h-935v1301h935z" />
    <glyph glyph-name="edotaccent" unicode="&#x117;" horiz-adv-x="1120" 
d="M443 1339h226v-220h-226v220zM76 497q0 161 60.5 280t171 184.5t258.5 65.5q140 0 248.5 -65.5t170.5 -182.5t62 -273v-61h-763q26 -299 293 -299q104 0 167 46.5t80 124.5h210q-31 -161 -146 -250.5t-309 -89.5q-233 0 -368 139.5t-135 380.5zM560 857q-239 0 -273 -264
h539q-10 121 -82.5 192.5t-183.5 71.5z" />
    <glyph glyph-name="Eogonek" unicode="&#x118;" horiz-adv-x="1117" 
d="M1037 0q-72 -24 -114.5 -74.5t-42.5 -111.5q0 -100 119 -100h43v-156h-59q-132 0 -210 57.5t-78 154.5q0 138 152 230h-745v1301h935v-195h-728v-352h671v-183h-671v-378h728v-193z" />
    <glyph glyph-name="eogonek" unicode="&#x119;" horiz-adv-x="1141" 
d="M81 498q0 159 59.5 278t166.5 185t251 66q145 0 256.5 -66.5t174.5 -184t63 -270.5v-61h-760q22 -299 290 -299q100 0 163.5 44.5t83.5 126.5h210q-29 -108 -70 -180.5t-81 -123.5t-66.5 -94.5t-26.5 -93.5q0 -111 119 -111h43v-156h-59q-133 0 -208.5 56.5t-75.5 154.5
q0 73 38.5 132t100.5 119q-43 -26 -85 -34.5t-87 -8.5q-233 0 -366.5 139t-133.5 382zM294 593h538q-11 122 -85.5 193t-191.5 71q-113 0 -180 -68t-81 -196z" />
    <glyph glyph-name="Ecaron" unicode="&#x11a;" horiz-adv-x="1117" 
d="M692 1400h-202l-263 304h198l164 -201l167 201h200zM1037 1301v-195h-728v-352h671v-183h-671v-378h728v-193h-935v1301h935z" />
    <glyph glyph-name="ecaron" unicode="&#x11b;" horiz-adv-x="1120" 
d="M657 1119h-201l-263 304h198l164 -201l166 201h200zM76 497q0 161 60.5 280t171 184.5t258.5 65.5q140 0 248.5 -65.5t170.5 -182.5t62 -273v-61h-763q26 -299 293 -299q104 0 167 46.5t80 124.5h210q-31 -161 -146 -250.5t-309 -89.5q-233 0 -368 139.5t-135 380.5z
M560 857q-239 0 -273 -264h539q-10 121 -82.5 192.5t-183.5 71.5z" />
    <glyph glyph-name="Gcircumflex" unicode="&#x11c;" horiz-adv-x="1362" 
d="M567 1704h202l263 -304h-198l-164 201l-167 -201h-199zM83 653q0 202 76.5 352t215.5 232.5t326 82.5q157 0 277 -57t193 -159.5t90 -239.5h-210q-20 124 -109 195.5t-239 71.5q-196 0 -303 -125t-107 -353q0 -225 103 -352t285 -127q157 0 253.5 93.5t107.5 256.5h-381
v173h600v-697h-174v233q-67 -116 -180 -182.5t-259 -66.5q-166 0 -293.5 85t-199.5 236t-72 348z" />
    <glyph glyph-name="gcircumflex" unicode="&#x11d;" horiz-adv-x="1145" 
d="M447 1423h202l263 -304h-198l-164 201l-167 -201h-200zM1045 1000v-1021q0 -112 -57 -196t-160 -130.5t-241 -46.5q-205 0 -338 92.5t-156 244.5h212q10 -79 82.5 -124t192.5 -45q123 0 192 56t69 158v228q-53 -92 -139 -143.5t-196 -51.5q-128 0 -223.5 63t-148.5 176.5
t-53 264.5q0 150 53 262.5t148.5 175.5t223.5 63q110 0 196 -51t139 -143v168h204zM291 525q0 -152 73 -237t203 -85q131 0 202.5 85t71.5 237t-71.5 236t-202.5 84q-130 0 -203 -84t-73 -236z" />
    <glyph glyph-name="Gbreve" unicode="&#x11e;" horiz-adv-x="1362" 
d="M1029 1685q-15 -131 -110 -210.5t-244 -79.5q-152 0 -248.5 79.5t-111.5 210.5h175q21 -151 185 -151q159 0 180 151h174zM83 653q0 202 76.5 352t215.5 232.5t326 82.5q157 0 277 -57t193 -159.5t90 -239.5h-210q-20 124 -109 195.5t-239 71.5q-196 0 -303 -125
t-107 -353q0 -225 103 -352t285 -127q157 0 253.5 93.5t107.5 256.5h-381v173h600v-697h-174v233q-67 -116 -180 -182.5t-259 -66.5q-166 0 -293.5 85t-199.5 236t-72 348z" />
    <glyph glyph-name="gbreve" unicode="&#x11f;" horiz-adv-x="1145" 
d="M909 1404q-15 -131 -110 -210.5t-245 -79.5q-151 0 -248 79.5t-111 210.5h175q21 -151 184 -151q160 0 181 151h174zM1045 1000v-1021q0 -112 -57 -196t-160 -130.5t-241 -46.5q-205 0 -338 92.5t-156 244.5h212q10 -79 82.5 -124t192.5 -45q123 0 192 56t69 158v228
q-53 -92 -139 -143.5t-196 -51.5q-128 0 -223.5 63t-148.5 176.5t-53 264.5q0 150 53 262.5t148.5 175.5t223.5 63q110 0 196 -51t139 -143v168h204zM291 525q0 -152 73 -237t203 -85q131 0 202.5 85t71.5 237t-71.5 236t-202.5 84q-130 0 -203 -84t-73 -236z" />
    <glyph glyph-name="Gdotaccent" unicode="&#x120;" horiz-adv-x="1362" 
d="M563 1620h226v-220h-226v220zM83 653q0 202 76.5 352t215.5 232.5t326 82.5q157 0 277 -57t193 -159.5t90 -239.5h-210q-20 124 -109 195.5t-239 71.5q-196 0 -303 -125t-107 -353q0 -225 103 -352t285 -127q157 0 253.5 93.5t107.5 256.5h-381v173h600v-697h-174v233
q-67 -116 -180 -182.5t-259 -66.5q-166 0 -293.5 85t-199.5 236t-72 348z" />
    <glyph glyph-name="gdotaccent" unicode="&#x121;" horiz-adv-x="1145" 
d="M443 1339h226v-220h-226v220zM1045 1000v-1021q0 -112 -57 -196t-160 -130.5t-241 -46.5q-205 0 -338 92.5t-156 244.5h212q10 -79 82.5 -124t192.5 -45q123 0 192 56t69 158v228q-53 -92 -139 -143.5t-196 -51.5q-128 0 -223.5 63t-148.5 176.5t-53 264.5
q0 150 53 262.5t148.5 175.5t223.5 63q110 0 196 -51t139 -143v168h204zM291 525q0 -152 73 -237t203 -85q131 0 202.5 85t71.5 237t-71.5 236t-202.5 84q-130 0 -203 -84t-73 -236z" />
    <glyph glyph-name="uni0122" unicode="&#x122;" horiz-adv-x="1362" 
d="M83 653q0 202 76.5 352t215.5 232.5t326 82.5q157 0 277 -57t193 -159.5t90 -239.5h-210q-20 124 -109 195.5t-239 71.5q-196 0 -303 -125t-107 -353q0 -225 103 -352t285 -127q157 0 253.5 93.5t107.5 256.5h-381v173h600v-697h-174v233q-67 -116 -180 -182.5
t-259 -66.5q-166 0 -293.5 85t-199.5 236t-72 348zM589 -76h234v-263q0 -115 -58 -166.5t-141 -51.5h-55v109h30q59 0 92 24.5t33 96.5v31h-135v220z" />
    <glyph glyph-name="uni0123" unicode="&#x123;" horiz-adv-x="1145" 
d="M672 1119h-233v278q0 115 58 166.5t141 51.5h54v-108h-29q-60 0 -92.5 -25t-32.5 -97v-30h134v-236zM1045 1000v-1021q0 -112 -57 -196t-160 -130.5t-241 -46.5q-205 0 -338 92.5t-156 244.5h212q10 -79 82.5 -124t192.5 -45q123 0 192 56t69 158v228
q-53 -92 -139 -143.5t-196 -51.5q-128 0 -223.5 63t-148.5 176.5t-53 264.5q0 150 53 262.5t148.5 175.5t223.5 63q110 0 196 -51t139 -143v168h204zM291 525q0 -152 73 -237t203 -85q131 0 202.5 85t71.5 237t-71.5 236t-202.5 84q-130 0 -203 -84t-73 -236z" />
    <glyph glyph-name="Hcircumflex" unicode="&#x124;" horiz-adv-x="1256" 
d="M526 1704h202l263 -304h-198l-164 201l-167 -201h-200zM102 1301h207v-532h641v532h204v-1301h-204v575h-641v-575h-207v1301z" />
    <glyph glyph-name="hcircumflex" unicode="&#x125;" horiz-adv-x="1091" 
d="M316 1812h202l263 -304h-198l-164 201l-167 -201h-200zM787 589q0 130 -64.5 189t-172.5 59q-104 0 -173.5 -65.5t-69.5 -168.5v-603h-207v1400h207v-552q55 86 141 132.5t174 46.5q161 0 265 -101.5t104 -292.5v-633h-204v589z" />
    <glyph glyph-name="Hbar" unicode="&#x126;" horiz-adv-x="1321" 
d="M32 1103h103v198h205v-198h643v198h205v-198h102v-149h-102v-954h-205v575h-643v-575h-205v954h-103v149zM340 755h643v199h-643v-199z" />
    <glyph glyph-name="hbar" unicode="&#x127;" horiz-adv-x="1158" 
d="M853 582q0 126 -64 183.5t-172 57.5q-103 0 -173 -64.5t-70 -163.5v-595h-205v1131h-161v144h161v125h205v-125h343v-144h-343v-297q55 86 141 132.5t175 46.5q161 0 265 -99.5t104 -287.5v-626h-206v582z" />
    <glyph glyph-name="Itilde" unicode="&#x128;" 
d="M25 1685q59 0 100 -22t72.5 -50t63 -49.5t72.5 -21.5q43 0 68 36t25 98h135q0 -130 -58.5 -207t-155.5 -77q-62 0 -103.5 21.5t-72.5 49.5t-59 49.5t-64 21.5q-40 0 -62.5 -36.5t-22.5 -97.5h-139q0 133 53.5 209t147.5 76zM100 1301h207v-1301h-207v1301z" />
    <glyph glyph-name="itilde" unicode="&#x129;" 
d="M25 1404q59 0 100 -22t72.5 -50t63.5 -49.5t72 -21.5q43 0 68 36t25 98h135q0 -130 -58.5 -207t-155.5 -77q-62 0 -103.5 21.5t-72 49.5t-59 49.5t-64.5 21.5q-39 0 -62 -36.5t-23 -97.5h-139q0 133 53.5 209t147.5 76zM100 1000h207v-1000h-207v1000z" />
    <glyph glyph-name="Imacron" unicode="&#x12a;" 
d="M-128 1593h645v-161h-645v161zM100 1301h207v-1301h-207v1301z" />
    <glyph glyph-name="imacron" unicode="&#x12b;" 
d="M-128 1312h645v-161h-645v161zM100 1000h207v-1000h-207v1000z" />
    <glyph glyph-name="Ibreve" unicode="&#x12c;" 
d="M557 1685q-15 -131 -110 -210.5t-245 -79.5q-151 0 -248 79.5t-111 210.5h175q21 -151 184 -151q160 0 181 151h174zM100 1301h207v-1301h-207v1301z" />
    <glyph glyph-name="ibreve" unicode="&#x12d;" 
d="M557 1404q-15 -131 -110 -210.5t-244 -79.5q-152 0 -248.5 79.5t-111.5 210.5h175q21 -151 185 -151q159 0 180 151h174zM100 1000h207v-1000h-207v1000z" />
    <glyph glyph-name="Iogonek" unicode="&#x12e;" 
d="M306 0q-98 -82 -130.5 -128t-32.5 -92q0 -106 140 -106h93v-167h-109q-132 0 -211.5 62t-79.5 166q0 74 40.5 134.5t121.5 130.5h-38v1301h207v-1301h-1z" />
    <glyph glyph-name="iogonek" unicode="&#x12f;" 
d="M91 1347h226v-220h-226v220zM306 0q-98 -82 -130.5 -128t-32.5 -92q0 -106 140 -106h93v-167h-109q-132 0 -211.5 62t-79.5 166q0 74 40.5 134.5t121.5 130.5h-38v1000h207v-1000h-1z" />
    <glyph glyph-name="Idotaccent" unicode="&#x130;" 
d="M90 1620h227v-220h-227v220zM100 1301h207v-1301h-207v1301z" />
    <glyph glyph-name="dotlessi" unicode="&#x131;" 
d="M100 1000h207v-1000h-207v1000z" />
    <glyph glyph-name="IJ" unicode="&#x132;" horiz-adv-x="1090" 
d="M452 186h82q75 0 131.5 25t87.5 87.5t31 174.5v828h205v-847q0 -160 -57.5 -260.5t-152.5 -147t-210 -46.5h-117v186zM100 1301h207v-1301h-207v1301z" />
    <glyph glyph-name="ij" unicode="&#x133;" horiz-adv-x="812" 
d="M498 1347h226v-220h-226v220zM91 1347h226v-220h-226v220zM341 -157h62q48 0 76.5 25t28.5 97v1035h206v-1046q0 -155 -83.5 -226t-202.5 -71h-87v186zM100 1000h207v-1000h-207v1000z" />
    <glyph glyph-name="Jcircumflex" unicode="&#x134;" horiz-adv-x="683" 
d="M369 1704h202l263 -304h-198l-164 201l-167 -201h-200zM45 186h81q76 0 132 25t87.5 87.5t31.5 174.5v828h204v-847q0 -160 -57 -260.5t-152.5 -147t-210.5 -46.5h-116v186z" />
    <glyph glyph-name="jcircumflex" unicode="&#x135;" 
d="M95 1423h202l263 -304h-198l-164 201l-167 -201h-199zM-66 -157h62q48 0 76 25t28 97v1035h207v-1046q0 -155 -83.5 -226t-202.5 -71h-87v186z" />
    <glyph glyph-name="uni0136" unicode="&#x136;" horiz-adv-x="1182" 
d="M102 1301h207v-614l564 614h269l-525 -554l544 -747h-246l-440 605l-166 -170v-435h-207v1301zM480 -76h234v-263q0 -115 -58 -166.5t-142 -51.5h-54v109h30q59 0 92 24.5t33 96.5v31h-135v220z" />
    <glyph glyph-name="uni0137" unicode="&#x137;" horiz-adv-x="1010" 
d="M734 1000h257l-422 -480l430 -520h-247l-333 399l-110 -132v-267h-207v1400h207v-896zM421 -76h234v-263q0 -115 -58 -166.5t-142 -51.5h-54v109h30q59 0 92 24.5t33 96.5v31h-135v220z" />
    <glyph glyph-name="kgreenlandic" unicode="&#x138;" horiz-adv-x="1011" 
d="M102 1000h207v-507l410 507h257l-407 -480l430 -520h-247l-333 399l-110 -132v-267h-207v1000z" />
    <glyph glyph-name="Lacute" unicode="&#x139;" horiz-adv-x="1080" 
d="M485 1692l-251 -292h-159l188 292h222zM1017 0h-915v1301h207v-1108h708v-193z" />
    <glyph glyph-name="lacute" unicode="&#x13a;" 
d="M478 1800l-250 -292h-160l188 292h222zM100 1400h207v-1400h-207v1400z" />
    <glyph glyph-name="uni013B" unicode="&#x13b;" horiz-adv-x="1080" 
d="M1017 0h-915v1301h207v-1108h708v-193zM396 -76h234v-263q0 -115 -58 -166.5t-142 -51.5h-54v109h30q59 0 92 24.5t33 96.5v31h-135v220z" />
    <glyph glyph-name="uni013C" unicode="&#x13c;" 
d="M100 1400h207v-1400h-207v1400zM89 -76h234v-263q0 -115 -58 -166.5t-142 -51.5h-54v109h29q60 0 92.5 24.5t32.5 96.5v31h-134v220z" />
    <glyph glyph-name="Lcaron" unicode="&#x13d;" horiz-adv-x="1080" 
d="M528 1362h186l-73 -441h-177zM1017 0h-915v1301h207v-1108h708v-193z" />
    <glyph glyph-name="lcaron" unicode="&#x13e;" horiz-adv-x="445" 
d="M472 1440h185l-73 -440h-177zM100 1400h207v-1400h-207v1400z" />
    <glyph glyph-name="Ldot" unicode="&#x13f;" horiz-adv-x="1080" 
d="M1017 0h-915v1301h207v-1108h708v-193zM596 843h233v-235h-233v235z" />
    <glyph glyph-name="ldot" unicode="&#x140;" horiz-adv-x="811" 
d="M100 1400h207v-1400h-207v1400zM493 774h234v-234h-234v234z" />
    <glyph glyph-name="Lslash" unicode="&#x141;" horiz-adv-x="1080" 
d="M4 549l162 89v663h205v-552l423 231v-201l-423 -231v-355h647v-193h-852v436l-162 -88v201z" />
    <glyph glyph-name="lslash" unicode="&#x142;" horiz-adv-x="553" 
d="M4 684l175 90v626h204v-521l166 85v-200l-166 -86v-678h-204v573l-175 -90v201z" />
    <glyph glyph-name="Nacute" unicode="&#x143;" horiz-adv-x="1271" 
d="M925 1692l-250 -292h-160l188 292h222zM965 1301h204v-1301h-218l-642 1010v-1010h-207v1301h261l602 -965v965z" />
    <glyph glyph-name="nacute" unicode="&#x144;" horiz-adv-x="1091" 
d="M833 1411l-250 -292h-160l188 292h222zM788 589q0 130 -64.5 189t-172.5 59q-104 0 -173 -65.5t-69 -168.5v-603h-207v1000h207v-152q55 86 140.5 132.5t174.5 46.5q161 0 265 -101.5t104 -292.5v-633h-205v589z" />
    <glyph glyph-name="uni0145" unicode="&#x145;" horiz-adv-x="1271" 
d="M965 1301h204v-1301h-218l-642 1010v-1010h-207v1301h261l602 -965v965zM537 -76h234v-263q0 -115 -57.5 -166.5t-141.5 -51.5h-54v109h29q59 0 92 24.5t33 96.5v31h-135v220z" />
    <glyph glyph-name="uni0146" unicode="&#x146;" horiz-adv-x="1091" 
d="M788 589q0 130 -64.5 189t-172.5 59q-104 0 -173 -65.5t-69 -168.5v-603h-207v1000h207v-152q55 86 140.5 132.5t174.5 46.5q161 0 265 -101.5t104 -292.5v-633h-205v589zM439 -76h234v-263q0 -115 -58 -166.5t-142 -51.5h-54v109h30q59 0 92 24.5t33 96.5v31h-135v220z
" />
    <glyph glyph-name="Ncaron" unicode="&#x147;" horiz-adv-x="1271" 
d="M751 1400h-201l-264 304h199l164 -201l166 201h200zM965 1301h204v-1301h-218l-642 1010v-1010h-207v1301h261l602 -965v965z" />
    <glyph glyph-name="ncaron" unicode="&#x148;" horiz-adv-x="1091" 
d="M659 1119h-201l-264 304h199l164 -201l166 201h200zM788 589q0 130 -64.5 189t-172.5 59q-104 0 -173 -65.5t-69 -168.5v-603h-207v1000h207v-152q55 86 140.5 132.5t174.5 46.5q161 0 265 -101.5t104 -292.5v-633h-205v589z" />
    <glyph glyph-name="napostrophe" unicode="&#x149;" horiz-adv-x="1396" 
d="M68 1378h234v-278q0 -115 -58.5 -166.5t-141.5 -51.5h-54v108h29q59 0 92 25t33 97v32h-134v234zM409 1000h207v-152q55 86 140.5 132.5t174.5 46.5q161 0 265 -101.5t104 -292.5v-633h-205v589q0 130 -64.5 189t-172.5 59q-104 0 -173 -65.5t-69 -168.5v-603h-207v1000z
" />
    <glyph glyph-name="Eng" unicode="&#x14a;" horiz-adv-x="1271" 
d="M965 1301h204v-1340q0 -155 -85.5 -241.5t-238.5 -86.5h-112v186h87q76 0 110.5 36t34.5 117v51l-656 987v-1010h-207v1301h261l602 -941v941z" />
    <glyph glyph-name="eng" unicode="&#x14b;" horiz-adv-x="1091" 
d="M788 588q0 248 -237 248q-106 0 -174 -66t-68 -168v-603h-207v1000h207v-154q51 82 134 131.5t181 49.5q169 0 269 -106t100 -288v-671q0 -155 -84 -241.5t-234 -86.5h-119v186h94q72 0 105 36t33 117v616z" />
    <glyph glyph-name="Omacron" unicode="&#x14c;" horiz-adv-x="1398" 
d="M367 1593h645v-161h-645v161zM83 635q0 206 77 360t216 239.5t325 85.5q185 0 323.5 -85.5t216 -239.5t77.5 -360q0 -195 -77.5 -341.5t-216 -228t-323.5 -81.5q-186 0 -325 81.5t-216 228t-77 341.5zM1107 635q0 235 -107 365.5t-299 130.5q-194 0 -301 -130.5
t-107 -365.5q0 -218 107 -339.5t301 -121.5q192 0 299 121.5t107 339.5z" />
    <glyph glyph-name="omacron" unicode="&#x14d;" horiz-adv-x="1122" 
d="M225 1312h646v-161h-646v161zM76 504q0 158 61 275.5t170.5 182.5t254.5 65t254 -65t169.5 -182.5t60.5 -275.5t-60.5 -276.5t-169.5 -184.5t-254 -66t-254.5 66t-170.5 184.5t-61 276.5zM835 504q0 162 -71.5 251.5t-201.5 89.5q-131 0 -203.5 -89.5t-72.5 -251.5
q0 -164 72.5 -254.5t203.5 -90.5q130 0 201.5 90.5t71.5 254.5z" />
    <glyph glyph-name="Obreve" unicode="&#x14e;" horiz-adv-x="1398" 
d="M1052 1685q-15 -131 -110 -210.5t-244 -79.5q-152 0 -248.5 79.5t-111.5 210.5h175q21 -151 185 -151q159 0 180 151h174zM83 635q0 206 77 360t216 239.5t325 85.5q185 0 323.5 -85.5t216 -239.5t77.5 -360q0 -195 -77.5 -341.5t-216 -228t-323.5 -81.5
q-186 0 -325 81.5t-216 228t-77 341.5zM1107 635q0 235 -107 365.5t-299 130.5q-194 0 -301 -130.5t-107 -365.5q0 -218 107 -339.5t301 -121.5q192 0 299 121.5t107 339.5z" />
    <glyph glyph-name="obreve" unicode="&#x14f;" horiz-adv-x="1122" 
d="M910 1404q-15 -131 -110 -210.5t-244 -79.5q-152 0 -248.5 79.5t-111.5 210.5h175q21 -151 185 -151q159 0 180 151h174zM76 504q0 158 61 275.5t170.5 182.5t254.5 65t254 -65t169.5 -182.5t60.5 -275.5t-60.5 -276.5t-169.5 -184.5t-254 -66t-254.5 66t-170.5 184.5
t-61 276.5zM835 504q0 162 -71.5 251.5t-201.5 89.5q-131 0 -203.5 -89.5t-72.5 -251.5q0 -164 72.5 -254.5t203.5 -90.5q130 0 201.5 90.5t71.5 254.5z" />
    <glyph glyph-name="Ohungarumlaut" unicode="&#x150;" horiz-adv-x="1398" 
d="M1176 1692l-252 -292h-159l189 292h222zM820 1692l-251 -292h-158l188 292h221zM83 635q0 206 77 360t216 239.5t325 85.5q185 0 323.5 -85.5t216 -239.5t77.5 -360q0 -195 -77.5 -341.5t-216 -228t-323.5 -81.5q-186 0 -325 81.5t-216 228t-77 341.5zM1107 635
q0 235 -107 365.5t-299 130.5q-194 0 -301 -130.5t-107 -365.5q0 -218 107 -339.5t301 -121.5q192 0 299 121.5t107 339.5z" />
    <glyph glyph-name="ohungarumlaut" unicode="&#x151;" horiz-adv-x="1122" 
d="M1034 1411l-252 -292h-158l188 292h222zM678 1411l-250 -292h-159l188 292h221zM76 504q0 158 61 275.5t170.5 182.5t254.5 65t254 -65t169.5 -182.5t60.5 -275.5t-60.5 -276.5t-169.5 -184.5t-254 -66t-254.5 66t-170.5 184.5t-61 276.5zM835 504q0 162 -71.5 251.5
t-201.5 89.5q-131 0 -203.5 -89.5t-72.5 -251.5q0 -164 72.5 -254.5t203.5 -90.5q130 0 201.5 90.5t71.5 254.5z" />
    <glyph glyph-name="OE" unicode="&#x152;" horiz-adv-x="1825" 
d="M1744 1301v-195h-665v-352h608v-183h-608v-378h665v-193h-870q-261 0 -437 80t-265 224t-89 335q0 197 89 346.5t265.5 232.5t436.5 83h870zM874 1112q-312 0 -446.5 -125t-134.5 -348q0 -213 133.5 -331t447.5 -118v922z" />
    <glyph glyph-name="oe" unicode="&#x153;" horiz-adv-x="1837" 
d="M76 504q0 158 58.5 275.5t164 182.5t244.5 65q122 0 217 -53.5t154 -148.5q58 96 155 149t225 53q137 0 243 -67t166.5 -185t60.5 -269v-61h-743q23 -299 280 -299q102 0 162.5 47t76.5 124h210q-30 -164 -141.5 -252t-306.5 -88q-131 0 -229.5 53.5t-158.5 151.5
q-58 -97 -153.5 -151t-217.5 -54q-139 0 -244.5 66t-164 184.5t-58.5 276.5zM1286 857q-228 0 -261 -264h517q-11 121 -80.5 192.5t-175.5 71.5zM815 504q0 162 -69 251.5t-194 89.5q-126 0 -196 -89.5t-70 -251.5q0 -164 70 -254.5t196 -90.5q125 0 194 90.5t69 254.5z" />
    <glyph glyph-name="Racute" unicode="&#x154;" horiz-adv-x="1195" 
d="M874 1692l-251 -292h-159l187 292h223zM603 499h-294v-499h-207v1301h581q130 0 228 -48t152.5 -134.5t54.5 -203.5q0 -122 -68.5 -208.5t-185.5 -121.5q110 -22 162.5 -87.5t67.5 -190.5l35 -307h-202l-34 285q-13 111 -81 162.5t-209 51.5zM660 1117h-351v-437h351
q119 0 185 56.5t66 158.5q0 106 -66 164t-185 58z" />
    <glyph glyph-name="racute" unicode="&#x155;" horiz-adv-x="682" 
d="M664 1411l-251 -292h-159l187 292h223zM100 1000h207v-163q50 84 126 129.5t154 45.5h47v-213h-53q-122 0 -198 -63t-76 -163v-573h-207v1000z" />
    <glyph glyph-name="uni0156" unicode="&#x156;" horiz-adv-x="1195" 
d="M603 499h-294v-499h-207v1301h581q130 0 228 -48t152.5 -134.5t54.5 -203.5q0 -122 -68.5 -208.5t-185.5 -121.5q110 -22 162.5 -87.5t67.5 -190.5l35 -307h-202l-34 285q-13 111 -81 162.5t-209 51.5zM660 1117h-351v-437h351q119 0 185 56.5t66 158.5q0 106 -66 164
t-185 58zM502 -76h234v-263q0 -115 -57.5 -166.5t-141.5 -51.5h-54v109h29q59 0 92 24.5t33 96.5v31h-135v220z" />
    <glyph glyph-name="uni0157" unicode="&#x157;" horiz-adv-x="682" 
d="M100 1000h207v-163q50 84 126 129.5t154 45.5h47v-213h-53q-122 0 -198 -63t-76 -163v-573h-207v1000zM88 -76h234v-263q0 -115 -57.5 -166.5t-141.5 -51.5h-54v109h29q59 0 92 24.5t33 96.5v31h-135v220z" />
    <glyph glyph-name="Rcaron" unicode="&#x158;" horiz-adv-x="1195" 
d="M699 1400h-201l-263 304h198l164 -201l166 201h200zM603 499h-294v-499h-207v1301h581q130 0 228 -48t152.5 -134.5t54.5 -203.5q0 -122 -68.5 -208.5t-185.5 -121.5q110 -22 162.5 -87.5t67.5 -190.5l35 -307h-202l-34 285q-13 111 -81 162.5t-209 51.5zM660 1117h-351
v-437h351q119 0 185 56.5t66 158.5q0 106 -66 164t-185 58z" />
    <glyph glyph-name="rcaron" unicode="&#x159;" horiz-adv-x="682" 
d="M489 1119h-201l-263 304h198l164 -201l166 201h200zM100 1000h207v-163q50 84 126 129.5t154 45.5h47v-213h-53q-122 0 -198 -63t-76 -163v-573h-207v1000z" />
    <glyph glyph-name="Sacute" unicode="&#x15a;" horiz-adv-x="1183" 
d="M849 1692l-251 -292h-159l187 292h223zM659 550l-180 20q-184 20 -285 112t-101 248q0 179 130.5 283.5t355.5 104.5q216 0 350 -110.5t153 -303.5h-209q-19 121 -91 179.5t-205 58.5q-126 0 -201.5 -56.5t-75.5 -149.5q0 -77 53 -117.5t166 -56.5l170 -21
q414 -47 414 -377q0 -115 -60 -200.5t-168 -132.5t-252 -47q-237 0 -379.5 114t-162.5 304h212q39 -240 332 -240q121 0 195.5 55.5t74.5 148.5q0 158 -236 184z" />
    <glyph glyph-name="sacute" unicode="&#x15b;" horiz-adv-x="1027" 
d="M772 1411l-251 -292h-159l187 292h223zM600 407l-174 19q-159 17 -239 88t-80 203q0 142 109 224.5t298 82.5q184 0 298 -88t131 -240h-202q-29 169 -227 169q-91 0 -145.5 -37.5t-54.5 -98.5q0 -60 38.5 -89t117.5 -38l174 -19q307 -35 307 -309q0 -134 -112 -214.5
t-296 -80.5q-204 0 -326.5 89.5t-140.5 237.5h212q29 -170 254 -170q93 0 150.5 35.5t57.5 96.5q0 120 -150 139z" />
    <glyph glyph-name="Scircumflex" unicode="&#x15c;" horiz-adv-x="1183" 
d="M462 1704h202l263 -304h-198l-164 201l-167 -201h-200zM659 550l-180 20q-184 20 -285 112t-101 248q0 179 130.5 283.5t355.5 104.5q216 0 350 -110.5t153 -303.5h-209q-19 121 -91 179.5t-205 58.5q-126 0 -201.5 -56.5t-75.5 -149.5q0 -77 53 -117.5t166 -56.5
l170 -21q414 -47 414 -377q0 -115 -60 -200.5t-168 -132.5t-252 -47q-237 0 -379.5 114t-162.5 304h212q39 -240 332 -240q121 0 195.5 55.5t74.5 148.5q0 158 -236 184z" />
    <glyph glyph-name="scircumflex" unicode="&#x15d;" horiz-adv-x="1027" 
d="M385 1423h202l263 -304h-198l-164 201l-167 -201h-200zM600 407l-174 19q-159 17 -239 88t-80 203q0 142 109 224.5t298 82.5q184 0 298 -88t131 -240h-202q-29 169 -227 169q-91 0 -145.5 -37.5t-54.5 -98.5q0 -60 38.5 -89t117.5 -38l174 -19q307 -35 307 -309
q0 -134 -112 -214.5t-296 -80.5q-204 0 -326.5 89.5t-140.5 237.5h212q29 -170 254 -170q93 0 150.5 35.5t57.5 96.5q0 120 -150 139z" />
    <glyph glyph-name="Scedilla" unicode="&#x15e;" horiz-adv-x="1183" 
d="M659 550l-180 20q-184 20 -285 112t-101 248q0 179 130.5 283.5t355.5 104.5q216 0 350 -110.5t153 -303.5h-209q-19 121 -91 179.5t-205 58.5q-126 0 -201.5 -56.5t-75.5 -149.5q0 -77 53 -117.5t166 -56.5l170 -21q414 -47 414 -377q0 -163 -117.5 -264.5
t-312.5 -113.5l-26 -70h15q74 0 120.5 -50t46.5 -130q0 -81 -53 -129t-142 -48h-166v129h145q72 0 72 59q0 60 -71 60h-53l-47 66l37 114q-206 17 -328.5 128t-141.5 287h212q39 -240 332 -240q121 0 195.5 55.5t74.5 148.5q0 158 -236 184z" />
    <glyph glyph-name="scedilla" unicode="&#x15f;" horiz-adv-x="1027" 
d="M600 407l-174 19q-159 17 -239 88t-80 203q0 142 109 224.5t298 82.5q184 0 298 -88t131 -240h-202q-29 169 -227 169q-91 0 -145.5 -37.5t-54.5 -98.5q0 -60 38.5 -89t117.5 -38l174 -19q307 -35 307 -309q0 -124 -97 -203t-260 -90l-23 -65h14q75 0 121.5 -50
t46.5 -130q0 -81 -53 -129t-143 -48h-166v129h145q72 0 72 59q0 60 -71 60h-52l-48 66l36 109q-174 16 -277.5 102.5t-119.5 221.5h212q29 -170 254 -170q93 0 150.5 35.5t57.5 96.5q0 120 -150 139z" />
    <glyph glyph-name="Scaron" unicode="&#x160;" horiz-adv-x="1183" 
d="M674 1400h-201l-263 304h198l164 -201l166 201h200zM659 550l-180 20q-184 20 -285 112t-101 248q0 179 130.5 283.5t355.5 104.5q216 0 350 -110.5t153 -303.5h-209q-19 121 -91 179.5t-205 58.5q-126 0 -201.5 -56.5t-75.5 -149.5q0 -77 53 -117.5t166 -56.5l170 -21
q414 -47 414 -377q0 -115 -60 -200.5t-168 -132.5t-252 -47q-237 0 -379.5 114t-162.5 304h212q39 -240 332 -240q121 0 195.5 55.5t74.5 148.5q0 158 -236 184z" />
    <glyph glyph-name="scaron" unicode="&#x161;" horiz-adv-x="1027" 
d="M597 1119h-201l-263 304h198l164 -201l166 201h200zM600 407l-174 19q-159 17 -239 88t-80 203q0 142 109 224.5t298 82.5q184 0 298 -88t131 -240h-202q-29 169 -227 169q-91 0 -145.5 -37.5t-54.5 -98.5q0 -60 38.5 -89t117.5 -38l174 -19q307 -35 307 -309
q0 -134 -112 -214.5t-296 -80.5q-204 0 -326.5 89.5t-140.5 237.5h212q29 -170 254 -170q93 0 150.5 35.5t57.5 96.5q0 120 -150 139z" />
    <glyph glyph-name="uni0162" unicode="&#x162;" horiz-adv-x="1207" 
d="M1146 1301v-195h-439v-1106h-41l-31 -84h15q74 0 120.5 -50t46.5 -130q0 -81 -53 -129t-143 -48h-165v129h145q71 0 71 59q0 60 -70 60h-53l-47 66l41 127h-40v1106h-440v195h1083z" />
    <glyph glyph-name="uni0163" unicode="&#x163;" horiz-adv-x="637" 
d="M595 179v-179h-67l-31 -84h14q75 0 121.5 -50t46.5 -130q0 -81 -53 -129t-143 -48h-166v129h146q71 0 71 59q0 60 -71 60h-52l-48 66l44 134q-91 17 -149.5 83.5t-58.5 190.5v548h-156v171h156v254h205v-254h191v-171h-191v-521q0 -76 27 -102.5t73 -26.5h91z" />
    <glyph glyph-name="Tcaron" unicode="&#x164;" horiz-adv-x="1207" 
d="M700 1400h-201l-263 304h198l164 -201l166 201h200zM1146 1301v-195h-439v-1106h-204v1106h-440v195h1083z" />
    <glyph glyph-name="tcaron" unicode="&#x165;" horiz-adv-x="637" 
d="M559 1523h185l-73 -440h-177zM595 179v-179h-116q-117 0 -198.5 66.5t-81.5 214.5v548h-156v171h156v254h205v-254h191v-171h-191v-521q0 -76 27 -102.5t73 -26.5h91z" />
    <glyph glyph-name="Tbar" unicode="&#x166;" horiz-adv-x="1207" 
d="M182 695h321v411h-440v195h1083v-195h-439v-411h356v-186h-356v-509h-204v509h-321v186z" />
    <glyph glyph-name="tbar" unicode="&#x167;" horiz-adv-x="637" 
d="M43 610h156v227h-156v163h156v260h205v-260h191v-163h-191v-227h191v-134h-191v-175q0 -72 27 -97t73 -25h91v-179h-116q-117 0 -198.5 66.5t-81.5 214.5v195h-156v134z" />
    <glyph glyph-name="Utilde" unicode="&#x168;" horiz-adv-x="1254" 
d="M451 1685q59 0 99.5 -22t72.5 -50t63.5 -49.5t72.5 -21.5q42 0 67.5 36t25.5 98h134q0 -130 -58 -207t-156 -77q-61 0 -103 21.5t-72.5 49.5t-59 49.5t-63.5 21.5q-40 0 -63 -36.5t-23 -97.5h-139q0 133 54 209t148 76zM93 1301h204v-784q0 -160 88.5 -247.5t247.5 -87.5
q154 0 239 87.5t85 247.5v784h206v-784q0 -161 -66.5 -280.5t-186 -186t-277.5 -66.5q-162 0 -283.5 66.5t-189 186t-67.5 280.5v784z" />
    <glyph glyph-name="utilde" unicode="&#x169;" horiz-adv-x="1074" 
d="M364 1404q59 0 99.5 -22t72.5 -50t63.5 -49.5t72.5 -21.5q43 0 68 36t25 98h134q0 -130 -58 -207t-155 -77q-62 0 -103.5 21.5t-72.5 49.5t-59.5 49.5t-63.5 21.5q-40 0 -62.5 -36.5t-22.5 -97.5h-139q0 133 53.5 209t147.5 76zM307 415q0 -133 61.5 -192.5t165.5 -59.5
q100 0 168 67.5t68 173.5v596h204v-1000h-204v155q-55 -87 -139 -134.5t-170 -47.5q-157 0 -259 103t-102 297v627h207v-585z" />
    <glyph glyph-name="Umacron" unicode="&#x16a;" horiz-adv-x="1254" 
d="M297 1593h646v-161h-646v161zM93 1301h204v-784q0 -160 88.5 -247.5t247.5 -87.5q154 0 239 87.5t85 247.5v784h206v-784q0 -161 -66.5 -280.5t-186 -186t-277.5 -66.5q-162 0 -283.5 66.5t-189 186t-67.5 280.5v784z" />
    <glyph glyph-name="umacron" unicode="&#x16b;" horiz-adv-x="1074" 
d="M211 1312h645v-161h-645v161zM307 415q0 -133 61.5 -192.5t165.5 -59.5q100 0 168 67.5t68 173.5v596h204v-1000h-204v155q-55 -87 -139 -134.5t-170 -47.5q-157 0 -259 103t-102 297v627h207v-585z" />
    <glyph glyph-name="Ubreve" unicode="&#x16c;" horiz-adv-x="1254" 
d="M982 1685q-15 -131 -109.5 -210.5t-244.5 -79.5q-152 0 -248.5 79.5t-111.5 210.5h176q20 -151 184 -151q159 0 180 151h174zM93 1301h204v-784q0 -160 88.5 -247.5t247.5 -87.5q154 0 239 87.5t85 247.5v784h206v-784q0 -161 -66.5 -280.5t-186 -186t-277.5 -66.5
q-162 0 -283.5 66.5t-189 186t-67.5 280.5v784z" />
    <glyph glyph-name="ubreve" unicode="&#x16d;" horiz-adv-x="1074" 
d="M896 1404q-15 -131 -110 -210.5t-245 -79.5q-151 0 -248 79.5t-111 210.5h175q21 -151 184 -151q160 0 180 151h175zM307 415q0 -133 61.5 -192.5t165.5 -59.5q100 0 168 67.5t68 173.5v596h204v-1000h-204v155q-55 -87 -139 -134.5t-170 -47.5q-157 0 -259 103t-102 297
v627h207v-585z" />
    <glyph glyph-name="Uring" unicode="&#x16e;" horiz-adv-x="1254" 
d="M865 1593q0 -96 -64.5 -155t-168.5 -59q-106 0 -171 59t-65 155q0 97 64.5 155.5t169.5 58.5q106 0 170.5 -58.5t64.5 -155.5zM530 1593q0 -44 27.5 -69.5t74.5 -25.5q46 0 72 25.5t26 69.5q0 95 -100 95q-46 0 -73 -25t-27 -70zM93 1301h204v-784q0 -160 88.5 -247.5
t247.5 -87.5q154 0 239 87.5t85 247.5v784h206v-784q0 -161 -66.5 -280.5t-186 -186t-277.5 -66.5q-162 0 -283.5 66.5t-189 186t-67.5 280.5v784z" />
    <glyph glyph-name="uring" unicode="&#x16f;" horiz-adv-x="1074" 
d="M778 1312q0 -96 -64 -155t-168 -59q-107 0 -172 59t-65 155q0 97 64.5 155.5t170.5 58.5q105 0 169.5 -58.5t64.5 -155.5zM443 1312q0 -44 27.5 -69.5t75.5 -25.5q46 0 71.5 25.5t25.5 69.5q0 95 -99 95q-47 0 -74 -25t-27 -70zM307 415q0 -133 61.5 -192.5t165.5 -59.5
q100 0 168 67.5t68 173.5v596h204v-1000h-204v155q-55 -87 -139 -134.5t-170 -47.5q-157 0 -259 103t-102 297v627h207v-585z" />
    <glyph glyph-name="Uhungarumlaut" unicode="&#x170;" horiz-adv-x="1254" 
d="M1106 1692l-252 -292h-158l188 292h222zM750 1692l-250 -292h-159l188 292h221zM93 1301h204v-784q0 -160 88.5 -247.5t247.5 -87.5q154 0 239 87.5t85 247.5v784h206v-784q0 -161 -66.5 -280.5t-186 -186t-277.5 -66.5q-162 0 -283.5 66.5t-189 186t-67.5 280.5v784z
" />
    <glyph glyph-name="uhungarumlaut" unicode="&#x171;" horiz-adv-x="1074" 
d="M1019 1411l-252 -292h-158l188 292h222zM663 1411l-250 -292h-159l188 292h221zM307 415q0 -133 61.5 -192.5t165.5 -59.5q100 0 168 67.5t68 173.5v596h204v-1000h-204v155q-55 -87 -139 -134.5t-170 -47.5q-157 0 -259 103t-102 297v627h207v-585z" />
    <glyph glyph-name="Uogonek" unicode="&#x172;" horiz-adv-x="1254" 
d="M93 1301h204v-788q0 -157 88.5 -244t247.5 -87q154 0 239 86.5t85 244.5v788h206v-788q0 -134 -39 -222.5t-97 -148.5t-115.5 -106t-96.5 -93.5t-39 -113.5q0 -53 32 -84t90 -31h43v-156h-59q-133 0 -210.5 61t-77.5 164q0 104 118 207q-37 -6 -81 -6q-164 0 -285 65
t-187 184t-66 280v788z" />
    <glyph glyph-name="uogonek" unicode="&#x173;" horiz-adv-x="1074" 
d="M307 415q0 -133 61.5 -192.5t165.5 -59.5q100 0 168 67.5t68 173.5v596h204v-1000h-9q-145 -102 -145 -193q0 -93 112 -93h43v-156h-59q-131 0 -206 56t-75 154q0 57 30 109t105 123v155q-55 -87 -139 -134.5t-170 -47.5q-157 0 -259 103t-102 297v627h207v-585z" />
    <glyph glyph-name="Wcircumflex" unicode="&#x174;" horiz-adv-x="1940" 
d="M852 1704h202l263 -304h-198l-164 201l-167 -201h-200zM36 1301h219l266 -1053l319 1053h256l314 -1053l275 1053h219l-369 -1301h-260l-311 1054l-305 -1054h-269z" />
    <glyph glyph-name="wcircumflex" unicode="&#x175;" horiz-adv-x="1565" 
d="M662 1423h201l264 -304h-199l-164 201l-166 -201h-200zM36 1000h219l187 -775l220 775h236l216 -775l196 775h219l-305 -1000h-229l-217 776l-214 -776h-238z" />
    <glyph glyph-name="Ycircumflex" unicode="&#x176;" horiz-adv-x="1188" 
d="M495 1704h202l263 -304h-198l-164 201l-167 -201h-200zM489 443l-453 858h232l326 -633l327 633h231l-459 -858v-443h-204v443z" />
    <glyph glyph-name="ycircumflex" unicode="&#x177;" horiz-adv-x="1084" 
d="M438 1423h202l263 -304h-198l-164 201l-167 -201h-200zM104 -144h109q80 0 122.5 25t67.5 88l21 54l-388 977h219l286 -765l276 765h216l-403 -1049q-59 -155 -151.5 -218.5t-233.5 -63.5h-141v187z" />
    <glyph glyph-name="Ydieresis" unicode="&#x178;" horiz-adv-x="1188" 
d="M681 1610h218v-198h-218v198zM301 1610h219v-198h-219v198zM489 443l-453 858h232l326 -633l327 633h231l-459 -858v-443h-204v443z" />
    <glyph glyph-name="Zacute" unicode="&#x179;" horiz-adv-x="1166" 
d="M866 1692l-251 -292h-159l187 292h223zM90 1301h986v-214l-760 -908h760v-179h-986v213l758 908h-758v180z" />
    <glyph glyph-name="zacute" unicode="&#x17a;" horiz-adv-x="968" 
d="M765 1411l-250 -292h-160l188 292h222zM89 1000h791v-198l-558 -639h558v-163h-791v198l556 639h-556v163z" />
    <glyph glyph-name="Zdotaccent" unicode="&#x17b;" horiz-adv-x="1166" 
d="M474 1620h227v-220h-227v220zM90 1301h986v-214l-760 -908h760v-179h-986v213l758 908h-758v180z" />
    <glyph glyph-name="zdotaccent" unicode="&#x17c;" horiz-adv-x="968" 
d="M373 1339h227v-220h-227v220zM89 1000h791v-198l-558 -639h558v-163h-791v198l556 639h-556v163z" />
    <glyph glyph-name="Zcaron" unicode="&#x17d;" horiz-adv-x="1166" 
d="M691 1400h-201l-263 304h198l164 -201l166 201h200zM90 1301h986v-214l-760 -908h760v-179h-986v213l758 908h-758v180z" />
    <glyph glyph-name="zcaron" unicode="&#x17e;" horiz-adv-x="968" 
d="M591 1119h-201l-264 304h199l164 -201l166 201h200zM89 1000h791v-198l-558 -639h558v-163h-791v198l556 639h-556v163z" />
    <glyph glyph-name="longs" unicode="&#x17f;" horiz-adv-x="533" 
d="M499 1230h-23q-76 0 -121.5 -36.5t-45.5 -137.5v-1056h-207v1068q0 117 46.5 190t124.5 107.5t172 34.5h54v-170z" />
    <glyph glyph-name="florin" unicode="&#x192;" horiz-adv-x="660" 
d="M53 830v170h154v103q0 145 86 210.5t208 65.5h98v-169h-73q-52 0 -83.5 -24.5t-31.5 -95.5v-90h187v-170h-187v-899q0 -146 -86.5 -213t-208.5 -67h-86v177h62q52 0 83.5 23.5t31.5 91.5v887h-154z" />
    <glyph glyph-name="Ohorn" unicode="&#x1a0;" horiz-adv-x="1398" 
d="M83 635q0 206 77 360t216 239.5t325 85.5q84 0 162 -19h237q58 0 96.5 28t38.5 119v71h169v-95q0 -98 -39 -154.5t-99 -80t-122 -23.5h-29q96 -90 149.5 -225.5t53.5 -305.5q0 -195 -77.5 -341.5t-216 -228t-323.5 -81.5q-186 0 -325 81.5t-216 228t-77 341.5zM1107 635
q0 235 -107 365.5t-299 130.5q-194 0 -301 -130.5t-107 -365.5q0 -218 107 -339.5t301 -121.5q192 0 299 121.5t107 339.5z" />
    <glyph glyph-name="ohorn" unicode="&#x1a1;" horiz-adv-x="1148" 
d="M81 504q0 158 61 275.5t170.5 182.5t255.5 65q91 0 170 -27h100q60 0 100 29.5t40 122.5v66h168v-92q0 -88 -31 -142t-80.5 -81t-103.5 -34q57 -68 88.5 -160.5t31.5 -204.5q0 -158 -60.5 -276.5t-169.5 -184.5t-253 -66q-146 0 -255.5 66t-170.5 184.5t-61 276.5z
M841 504q0 162 -72 251.5t-201 89.5q-131 0 -204 -89.5t-73 -251.5q0 -164 73 -254.5t204 -90.5q129 0 201 90.5t72 254.5z" />
    <glyph glyph-name="Uhorn" unicode="&#x1af;" horiz-adv-x="1336" 
d="M93 1301h204v-784q0 -160 88.5 -247.5t247.5 -87.5q154 0 239 87.5t85 247.5v784h152q53 0 89 26.5t36 110.5v83h168v-95q0 -91 -35 -146t-89.5 -81t-114.5 -30v-652q0 -161 -66.5 -280.5t-186 -186t-277.5 -66.5q-162 0 -283.5 66.5t-189 186t-67.5 280.5v784z" />
    <glyph glyph-name="uhorn" unicode="&#x1b0;" horiz-adv-x="1177" 
d="M307 415q0 -133 61.5 -192.5t165.5 -59.5q100 0 168 67.5t68 173.5v463h-1v133h152q53 0 89 26.5t36 110.5v83h168v-95q0 -92 -35 -146.5t-90 -80.5t-115 -30v-868h-204v155q-55 -87 -139 -134.5t-170 -47.5q-157 0 -259 103t-102 297v627h207v-585z" />
    <glyph glyph-name="uni01C0" unicode="&#x1c0;" 
d="M100 1400h207v-1726h-207v1726z" />
    <glyph glyph-name="uni01C1" unicode="&#x1c1;" horiz-adv-x="755" 
d="M450 1400h207v-1726h-207v1726zM100 1400h207v-1726h-207v1726z" />
    <glyph glyph-name="uni01C2" unicode="&#x1c2;" horiz-adv-x="682" 
d="M242 1400h206v-464h172v-178h-172v-349h172v-179h-172v-556h-206v556h-179v179h179v349h-179v178h179v464z" />
    <glyph glyph-name="uni01C3" unicode="&#x1c3;" 
d="M285 328h-164l-21 973h207zM321 0h-234v199h234v-199z" />
    <glyph glyph-name="uni01CD" unicode="&#x1cd;" horiz-adv-x="1300" 
d="M748 1400h-201l-263 304h198l164 -201l166 201h200zM1264 0h-218l-116 312h-559l-114 -312h-221l499 1301h233zM647 1071l-214 -588h433z" />
    <glyph glyph-name="uni01CE" unicode="&#x1ce;" horiz-adv-x="1053" 
d="M632 1119h-201l-263 304h198l164 -201l166 201h200zM951 643v-643h-206v147q-102 -170 -332 -170q-98 0 -174.5 38.5t-119.5 106.5t-43 155q0 131 86.5 206.5t248.5 87.5l282 22q52 3 52 48v23q0 91 -59.5 146.5t-161.5 55.5q-193 0 -213 -190h-213q7 104 63 182.5
t150 122.5t214 44q126 0 222.5 -48.5t150 -134.5t53.5 -199zM284 291q0 -68 52 -108.5t141 -40.5q119 0 193.5 74t74.5 194v35l-300 -19q-161 -11 -161 -135z" />
    <glyph glyph-name="uni01CF" unicode="&#x1cf;" 
d="M307 1400h-201l-263 304h198l164 -201l166 201h200zM100 1301h207v-1301h-207v1301z" />
    <glyph glyph-name="uni01D0" unicode="&#x1d0;" 
d="M308 1119h-202l-263 304h198l164 -201l167 201h199zM100 1000h207v-1000h-207v1000z" />
    <glyph glyph-name="uni01D1" unicode="&#x1d1;" horiz-adv-x="1398" 
d="M803 1400h-202l-263 304h198l164 -201l167 201h199zM83 635q0 206 77 360t216 239.5t325 85.5q185 0 323.5 -85.5t216 -239.5t77.5 -360q0 -195 -77.5 -341.5t-216 -228t-323.5 -81.5q-186 0 -325 81.5t-216 228t-77 341.5zM1107 635q0 235 -107 365.5t-299 130.5
q-194 0 -301 -130.5t-107 -365.5q0 -218 107 -339.5t301 -121.5q192 0 299 121.5t107 339.5z" />
    <glyph glyph-name="uni01D2" unicode="&#x1d2;" horiz-adv-x="1122" 
d="M661 1119h-202l-263 304h198l164 -201l167 201h200zM76 504q0 158 61 275.5t170.5 182.5t254.5 65t254 -65t169.5 -182.5t60.5 -275.5t-60.5 -276.5t-169.5 -184.5t-254 -66t-254.5 66t-170.5 184.5t-61 276.5zM835 504q0 162 -71.5 251.5t-201.5 89.5
q-131 0 -203.5 -89.5t-72.5 -251.5q0 -164 72.5 -254.5t203.5 -90.5q130 0 201.5 90.5t71.5 254.5z" />
    <glyph glyph-name="uni01D3" unicode="&#x1d3;" horiz-adv-x="1254" 
d="M733 1400h-202l-263 304h198l164 -201l167 201h200zM93 1301h204v-784q0 -160 88.5 -247.5t247.5 -87.5q154 0 239 87.5t85 247.5v784h206v-784q0 -161 -66.5 -280.5t-186 -186t-277.5 -66.5q-162 0 -283.5 66.5t-189 186t-67.5 280.5v784z" />
    <glyph glyph-name="uni01D4" unicode="&#x1d4;" horiz-adv-x="1074" 
d="M646 1119h-201l-263 304h198l164 -201l166 201h200zM307 415q0 -133 61.5 -192.5t165.5 -59.5q100 0 168 67.5t68 173.5v596h204v-1000h-204v155q-55 -87 -139 -134.5t-170 -47.5q-157 0 -259 103t-102 297v627h207v-585z" />
    <glyph glyph-name="uni01DD" unicode="&#x1dd;" horiz-adv-x="1127" 
d="M1047 500q0 -159 -59 -274.5t-166.5 -178.5t-253.5 -63q-142 0 -252 63.5t-172.5 175.5t-62.5 255v76h754q-23 296 -281 296q-106 0 -169 -46t-79 -126h-218q63 342 461 342q153 0 264.5 -63.5t172.5 -180t61 -276.5zM566 144q231 0 265 262h-530q11 -120 82.5 -191
t182.5 -71z" />
    <glyph glyph-name="uni01E2" unicode="&#x1e2;" horiz-adv-x="1807" 
d="M702 1591h646v-161h-646v161zM1720 1301v-195h-664v-352h607v-183h-607v-378h664v-193h-871v312h-420l-175 -312h-218l704 1301h980zM503 483h346v627z" />
    <glyph glyph-name="uni01E3" unicode="&#x1e3;" horiz-adv-x="1762" 
d="M544 1312h645v-161h-645v161zM1676 317q-30 -163 -142 -251.5t-303 -88.5q-137 0 -238.5 56t-160.5 160q-53 -102 -153.5 -159t-234.5 -57q-109 0 -192 39t-129.5 107.5t-46.5 158.5q0 126 87 201.5t248 87.5l282 22q52 3 52 48v36q0 79 -63.5 132.5t-156.5 53.5
q-196 0 -216 -191h-213q11 160 123.5 256.5t292.5 96.5q118 0 207.5 -45t139.5 -124q60 82 151 126.5t206 44.5q138 0 244.5 -67t167 -184.5t60.5 -269.5v-61h-741q25 -299 282 -299q100 0 160 46.5t77 124.5h210zM1212 857q-232 0 -262 -264h518q-10 121 -80 192.5
t-176 71.5zM284 294q0 -69 50.5 -110t136.5 -41q118 0 196 71.5t78 196.5v35l-300 -19q-161 -11 -161 -133z" />
    <glyph glyph-name="uni01F0" unicode="&#x1f0;" 
d="M308 1119h-202l-263 304h198l164 -201l167 201h199zM-66 -157h62q48 0 76 25t28 97v1035h207v-1046q0 -155 -83.5 -226t-202.5 -71h-87v186z" />
    <glyph glyph-name="AEacute" unicode="&#x1fc;" horiz-adv-x="1807" 
d="M1312 1690l-251 -292h-159l188 292h222zM1720 1301v-195h-664v-352h607v-183h-607v-378h664v-193h-871v312h-420l-175 -312h-218l704 1301h980zM503 483h346v627z" />
    <glyph glyph-name="aeacute" unicode="&#x1fd;" horiz-adv-x="1762" 
d="M1154 1411l-251 -292h-159l187 292h223zM1676 317q-30 -163 -142 -251.5t-303 -88.5q-137 0 -238.5 56t-160.5 160q-53 -102 -153.5 -159t-234.5 -57q-109 0 -192 39t-129.5 107.5t-46.5 158.5q0 126 87 201.5t248 87.5l282 22q52 3 52 48v36q0 79 -63.5 132.5
t-156.5 53.5q-196 0 -216 -191h-213q11 160 123.5 256.5t292.5 96.5q118 0 207.5 -45t139.5 -124q60 82 151 126.5t206 44.5q138 0 244.5 -67t167 -184.5t60.5 -269.5v-61h-741q25 -299 282 -299q100 0 160 46.5t77 124.5h210zM1212 857q-232 0 -262 -264h518
q-10 121 -80 192.5t-176 71.5zM284 294q0 -69 50.5 -110t136.5 -41q118 0 196 71.5t78 196.5v35l-300 -19q-161 -11 -161 -133z" />
    <glyph glyph-name="uni0237" unicode="&#x237;" 
d="M-66 -157h62q48 0 76 25t28 97v1035h207v-1046q0 -155 -83.5 -226t-202.5 -71h-87v186z" />
    <glyph glyph-name="uni0250" unicode="&#x250;" horiz-adv-x="1052" 
d="M101 357v643h206v-147q103 170 332 170q99 0 175 -38.5t119.5 -106.5t43.5 -155q0 -131 -87 -206.5t-249 -86.5l-281 -23q-53 -3 -53 -48v-23q0 -91 59.5 -146t161.5 -55q193 0 214 189h212q-7 -104 -63 -182.5t-149.5 -122.5t-214.5 -44q-126 0 -222 48.5t-150 134.5
t-54 199zM307 590v-35l300 19q162 11 162 135q0 68 -52.5 108.5t-141.5 40.5q-119 0 -193.5 -74t-74.5 -194z" />
    <glyph glyph-name="uni0251" unicode="&#x251;" horiz-adv-x="1177" 
d="M1177 179v-179h-47q-102 0 -179.5 47t-100.5 150q-52 -104 -139.5 -162t-201.5 -58q-128 0 -224.5 66t-150 184.5t-53.5 276.5t53.5 275.5t150 182.5t224.5 65q109 0 194 -53t138 -148v174h204v-692q0 -76 30 -102.5t80 -26.5h22zM291 504q0 -164 72.5 -254.5
t202.5 -90.5q131 0 203 90.5t72 254.5q0 162 -72 251.5t-203 89.5q-130 0 -202.5 -89.5t-72.5 -251.5z" />
    <glyph glyph-name="uni0252" unicode="&#x252;" horiz-adv-x="1176" 
d="M0 826v178h45q102 0 179.5 -47t102.5 -150q51 104 138.5 162t201.5 58q128 0 224 -66t149.5 -184.5t53.5 -276.5t-53.5 -275.5t-149.5 -182.5t-224 -65q-109 0 -194 52.5t-137 147.5v-173h-205v692q0 76 -30.5 103t-79.5 27h-21zM884 500q0 164 -72 254.5t-202 90.5
q-131 0 -202.5 -90.5t-71.5 -254.5q0 -162 71.5 -251.5t202.5 -89.5q130 0 202 89.5t72 251.5z" />
    <glyph glyph-name="uni0253" unicode="&#x253;" horiz-adv-x="1145" 
d="M81 0v967q0 214 130.5 336.5t361.5 122.5v-169q-137 0 -212.5 -78.5t-75.5 -220.5v-174q53 92 139 143.5t196 51.5q127 0 223 -63t149 -176.5t53 -264.5q0 -150 -53 -262.5t-149 -175.5t-223 -63q-110 0 -196 51t-139 143v-168h-204zM835 475q0 152 -73 237t-203 85
q-131 0 -202.5 -85t-71.5 -237t71.5 -236t202.5 -84q130 0 203 84t73 236z" />
    <glyph glyph-name="uni0254" unicode="&#x254;" horiz-adv-x="1114" 
d="M1035 500q0 -158 -61 -275.5t-170 -182.5t-254 -65q-130 0 -232.5 49.5t-165 140t-71.5 213.5h210q4 -107 74.5 -164t184.5 -57q131 0 203 89t72 252q0 164 -72.5 254.5t-202.5 90.5q-112 0 -182.5 -56.5t-76.5 -163.5h-210q17 188 145.5 295t323.5 107q145 0 254 -66
t170 -184.5t61 -276.5z" />
    <glyph glyph-name="uni0255" unicode="&#x255;" horiz-adv-x="1116" 
d="M202 -146q0 148 33 274q-73 68 -113.5 163.5t-40.5 212.5q0 158 60.5 275.5t170 182.5t254.5 65q130 0 232.5 -46t164.5 -130t72 -199h-210q-12 95 -78.5 151.5t-180.5 56.5q-131 0 -203 -89t-72 -252q0 -106 34 -186q67 100 163.5 155.5t216.5 55.5q91 0 166 -34.5
t119.5 -96.5t44.5 -144q0 -89 -52.5 -152.5t-141.5 -98t-197 -34.5q-143 0 -259 49q-12 -82 -12 -179h-171zM648 142q78 0 128 33t51 94q0 54 -42 86.5t-105 32.5q-171 0 -250 -186q87 -60 218 -60z" />
    <glyph glyph-name="uni0256" unicode="&#x256;" horiz-adv-x="1157" 
d="M1177 -147v-179h-47q-121 0 -205 66.5t-84 214.5v225q-53 -96 -138 -149.5t-194 -53.5q-128 0 -224.5 66t-150 184.5t-53.5 276.5t53.5 275.5t150 182.5t224.5 65q109 0 194 -53t138 -148v574h204v-1418q0 -76 30 -102.5t80 -26.5h22zM291 504q0 -164 72.5 -254.5
t202.5 -90.5q131 0 203 90.5t72 254.5q0 162 -72 251.5t-203 89.5q-130 0 -202.5 -89.5t-72.5 -251.5z" />
    <glyph glyph-name="uni0257" unicode="&#x257;" horiz-adv-x="1157" 
d="M1192 1222h-37q-50 0 -80 -27t-30 -103v-1092h-204v180q-53 -96 -138 -149.5t-194 -53.5q-128 0 -224.5 66t-150 184.5t-53.5 276.5t53.5 275.5t150 182.5t224.5 65q109 0 194 -53t138 -148v293q0 148 84 214.5t205 66.5h62v-178zM291 504q0 -164 72.5 -254.5
t202.5 -90.5q131 0 203 90.5t72 254.5q0 162 -72 251.5t-203 89.5q-130 0 -202.5 -89.5t-72.5 -251.5z" />
    <glyph glyph-name="uni0258" unicode="&#x258;" horiz-adv-x="1127" 
d="M1047 504q0 -160 -60 -276.5t-170.5 -180t-260.5 -63.5q-403 0 -465 342h217q17 -80 79.5 -126t166.5 -46q258 0 281 296h-754v62q0 155 61.5 269t170 176.5t247.5 62.5q149 0 258.5 -62.5t169 -178.5t59.5 -275zM301 598h530q-34 262 -265 262q-114 0 -187 -71t-78 -191
z" />
    <glyph glyph-name="uni0259" unicode="&#x259;" horiz-adv-x="1127" 
d="M1047 500q0 -159 -59 -274.5t-166.5 -178.5t-253.5 -63q-142 0 -252 63.5t-172.5 175.5t-62.5 255v76h754q-23 296 -281 296q-106 0 -169 -46t-79 -126h-218q63 342 461 342q153 0 264.5 -63.5t172.5 -180t61 -276.5zM566 144q231 0 265 262h-530q11 -120 82.5 -191
t182.5 -71z" />
    <glyph glyph-name="uni025A" unicode="&#x25a;" horiz-adv-x="1440" 
d="M1047 500q0 -159 -59 -274.5t-166.5 -178.5t-253.5 -63q-142 0 -252 57.5t-172.5 159t-62.5 232.5v44l745 144q-47 229 -272 229q-106 0 -169 -46t-79 -126h-218q63 342 461 342q185 0 310 -92.5t168 -256.5l157 31h106v-104q0 -64 27.5 -84t68.5 -20h37v-154h-55
q-54 0 -105.5 19.5t-85.5 65t-34 124.5v13l-97 -21q1 -20 1 -41zM302 368q14 -102 84 -163t180 -61q261 0 270 332z" />
    <glyph glyph-name="uni025B" unicode="&#x25b;" horiz-adv-x="1013" 
d="M931 306q-13 -157 -131.5 -241t-296.5 -84q-188 0 -304 79.5t-116 212.5q0 161 147 230q-130 66 -130 217q0 91 51 159.5t142 107t209 38.5t210 -42t148 -117t64 -175h-211q-3 78 -57 124t-144 46q-94 0 -145.5 -40t-51.5 -114q0 -61 31 -95t90 -34h188v-153h-188
q-68 0 -105.5 -35.5t-37.5 -100.5q0 -70 55 -106.5t154 -36.5q96 0 155 42t64 118h210z" />
    <glyph glyph-name="uni025C" unicode="&#x25c;" horiz-adv-x="1013" 
d="M389 425v153h189q59 0 91 34t32 95q0 74 -52 114t-146 40q-90 0 -145 -46t-58 -124h-210q9 100 64 175t145.5 117t205.5 42q120 0 211.5 -38.5t143 -107t51.5 -159.5q0 -151 -127 -217q147 -69 147 -230q0 -133 -113.5 -212.5t-297.5 -79.5q-121 0 -216.5 41t-154 114
t-66.5 170h210q6 -74 65 -117t155 -43q99 0 153.5 36.5t54.5 106.5q0 65 -37.5 100.5t-105.5 35.5h-189z" />
    <glyph glyph-name="uni025D" unicode="&#x25d;" horiz-adv-x="1263" 
d="M1246 494v-154h-56q-54 0 -105 19.5t-84.5 65t-33.5 124.5v13l-138 -29q-20 -17 -45 -30q147 -69 147 -230q0 -133 -113.5 -212.5t-297.5 -79.5q-121 0 -216.5 41t-154 114t-66.5 170h210q6 -74 65 -117t155 -43q99 0 153.5 36.5t54.5 106.5q0 65 -37.5 100.5
t-105.5 35.5h-189v153h189q59 0 91 34t32 95q0 74 -52 114t-146 40q-90 0 -145 -46t-58 -124h-210q9 100 64 175t145.5 117t205.5 42q120 0 211.5 -38.5t143 -107t51.5 -159.5q0 -20 -2 -38l97 20h107v-104q0 -64 27 -84t67 -20h39z" />
    <glyph glyph-name="uni025E" unicode="&#x25e;" horiz-adv-x="1060" 
d="M836 503q143 -69 143 -230q0 -132 -105.5 -212t-278.5 -80q-149 0 -264.5 67t-181.5 186.5t-66 276.5q0 153 63 268.5t175 180.5t258 65q169 0 275 -84t106 -221q0 -152 -124 -217zM293 511q0 -169 77 -263.5t214 -94.5q88 0 136.5 36t48.5 102q0 64 -38 99t-106 35h-144
v153h144q59 0 90.5 33.5t31.5 92.5q0 72 -45.5 111t-128.5 39q-134 0 -207 -90.5t-73 -252.5z" />
    <glyph glyph-name="uni025F" unicode="&#x25f;" horiz-adv-x="673" 
d="M61 -230h74q54 0 86.5 25.5t32.5 97.5v573h-194v171h194v363h205v-363h154v-171h-154v-585q0 -99 -40.5 -161t-108.5 -91t-150 -29h-99v170z" />
    <glyph glyph-name="uni0260" unicode="&#x260;" horiz-adv-x="1145" 
d="M1192 1222h-37q-50 0 -80 -27t-30 -103v-1113q0 -112 -57 -196t-160 -130.5t-241 -46.5q-205 0 -338 92.5t-156 244.5h212q10 -79 82.5 -124t192.5 -45q123 0 192 56t69 158v228q-53 -92 -139 -143.5t-196 -51.5q-128 0 -223.5 63t-148.5 176.5t-53 264.5q0 150 53 262.5
t148.5 175.5t223.5 63q110 0 196 -51t139 -143v287q0 148 84 214.5t205 66.5h62v-178zM291 525q0 -152 73 -237t203 -85q131 0 202.5 85t71.5 237t-71.5 236t-202.5 84q-130 0 -203 -84t-73 -236z" />
    <glyph glyph-name="uni0261" unicode="&#x261;" horiz-adv-x="1145" 
d="M1045 1000v-1021q0 -112 -57 -196t-160 -130.5t-241 -46.5q-205 0 -338 92.5t-156 244.5h212q10 -79 82.5 -124t192.5 -45q123 0 192 56t69 158v228q-53 -92 -139 -143.5t-196 -51.5q-128 0 -223.5 63t-148.5 176.5t-53 264.5q0 150 53 262.5t148.5 175.5t223.5 63
q110 0 196 -51t139 -143v168h204zM291 525q0 -152 73 -237t203 -85q131 0 202.5 85t71.5 237t-71.5 236t-202.5 84q-130 0 -203 -84t-73 -236z" />
    <glyph glyph-name="uni0262" unicode="&#x262;" horiz-adv-x="1114" 
d="M81 504q0 158 61.5 275.5t172 182.5t257.5 65q131 0 231.5 -46.5t161 -130.5t70.5 -196h-210q-9 92 -76 145.5t-174 53.5q-136 0 -210 -91.5t-74 -257.5q0 -167 72 -259.5t201 -92.5q102 0 166.5 60.5t77.5 177.5h-259v144h486v-534h-152l-8 189q-50 -101 -137 -156.5
t-196 -55.5q-139 0 -242.5 66t-161 184.5t-57.5 276.5z" />
    <glyph glyph-name="uni0263" unicode="&#x263;" horiz-adv-x="1105" 
d="M304 -27l110 210l-351 817h218l275 -698l268 698h221l-352 -818l108 -209q37 -70 37 -133q0 -66 -38 -119.5t-103 -85.5t-146 -32q-82 0 -146.5 30.5t-102.5 83t-38 117.5q0 66 40 139zM631 -84l-81 160l-78 -160q-15 -31 -15 -60q0 -36 26.5 -57t69.5 -21q42 0 68 22.5
t26 58.5q0 27 -16 57z" />
    <glyph glyph-name="uni0264" unicode="&#x264;" horiz-adv-x="969" 
d="M261 342l75 109l-273 549h218l204 -437l201 437h221l-279 -550l75 -108q44 -59 44 -133q0 -101 -75.5 -167.5t-191.5 -66.5q-119 0 -192 62.5t-73 162.5q0 79 46 142zM535 285l-56 83l-50 -83q-21 -36 -21 -68q0 -70 75 -70q73 0 73 71q0 36 -21 67z" />
    <glyph glyph-name="uni0265" unicode="&#x265;" horiz-adv-x="1084" 
d="M307 403q0 -127 62.5 -183.5t169.5 -56.5q102 0 171.5 63.5t69.5 163.5v610h203v-1326h-203v477q-55 -85 -140.5 -131.5t-173.5 -46.5q-159 0 -262.5 99t-103.5 287v641h207v-597z" />
    <glyph glyph-name="uni0266" unicode="&#x266;" horiz-adv-x="1091" 
d="M100 0v967q0 137 59 240.5t165.5 161t249.5 57.5v-164q-127 0 -197 -79.5t-70 -224.5v-125q55 86 141 133t174 47q161 0 265 -102t104 -293v-618h-204v574q0 131 -64.5 190t-172.5 59q-104 0 -173.5 -66t-69.5 -169v-588h-207z" />
    <glyph glyph-name="uni0267" unicode="&#x267;" horiz-adv-x="1091" 
d="M102 0v967q0 137 59 240.5t165.5 161t248.5 57.5v-164q-127 0 -196.5 -79.5t-69.5 -224.5v-128q51 82 134 132t181 50q169 0 269 -106.5t100 -288.5v-656q0 -155 -84 -241.5t-234 -86.5h-119v186h94q72 0 105 36t33 117v602q0 248 -237 248q-106 0 -174 -66.5t-68 -168.5
v-587h-207z" />
    <glyph glyph-name="uni0268" unicode="&#x268;" horiz-adv-x="485" 
d="M127 1328h233v-197h-233v197zM141 1000h205v-363h141v-170h-141v-467h-205v467h-141v170h141v363z" />
    <glyph glyph-name="uni0269" unicode="&#x269;" horiz-adv-x="528" 
d="M480 179v-179h-98q-117 0 -198.5 66.5t-81.5 214.5v719h207v-692q0 -76 26.5 -102.5t71.5 -26.5h73z" />
    <glyph glyph-name="uni026A" unicode="&#x26a;" horiz-adv-x="724" 
d="M662 1000v-186h-196v-628h196v-186h-599v186h197v628h-197v186h599z" />
    <glyph glyph-name="uni026B" unicode="&#x26b;" horiz-adv-x="687" 
d="M203 881q22 0 41 -4v523h205v-657q8 -2 17 -2q43 0 67.5 34.5t24.5 93.5h132q0 -134 -57 -211t-158 -77q-13 0 -26 1v-582h-205v717q-10 4 -21 4q-41 0 -64.5 -36t-23.5 -96h-135q0 139 53 215.5t150 76.5z" />
    <glyph glyph-name="uni026C" unicode="&#x26c;" horiz-adv-x="678" 
d="M267 1400h205v-739h208v-133h-208v-528h-205v528h-22q-100 0 -172.5 55t-72.5 177t72.5 176.5t172.5 54.5h22v409zM256 661h11v195h-11q-49 0 -80 -20t-31 -76t31 -77.5t80 -21.5z" />
    <glyph glyph-name="uni026D" unicode="&#x26d;" horiz-adv-x="522" 
d="M461 -147v-179h-60q-83 0 -150.5 29t-108 91t-40.5 161v1445h207v-1418q0 -76 32 -102.5t84 -26.5h36z" />
    <glyph glyph-name="uni026E" unicode="&#x26e;" horiz-adv-x="1179" 
d="M757 439q354 -39 354 -411q0 -128 -59.5 -224.5t-167 -150t-250.5 -53.5q-192 0 -317 87.5t-149 233.5h210q11 -69 77 -108.5t179 -39.5q126 0 196 68t70 191q0 122 -69 187.5t-195 65.5h-105v160l307 375l-531 1v-821h-207v1400h207v-400h762v-180z" />
    <glyph glyph-name="uni026F" unicode="&#x26f;" horiz-adv-x="1695" 
d="M307 411q0 -130 58 -189t158 -59q94 0 158.5 65.5t64.5 168.5v603h204v-589q0 -130 59.5 -189t159.5 -59q94 0 158 65.5t64 168.5v603h204v-1000h-204v147q-53 -83 -134 -128.5t-163 -45.5q-111 0 -196 56t-124 163q-49 -105 -139.5 -162t-184.5 -57q-151 0 -250.5 101.5
t-99.5 292.5v633h207v-589z" />
    <glyph glyph-name="uni0270" unicode="&#x270;" horiz-adv-x="1695" 
d="M307 411q0 -130 58 -189t158 -59q94 0 158.5 65.5t64.5 168.5v603h204v-589q0 -130 59.5 -189t159.5 -59q94 0 158 65.5t64 168.5v603h204v-1326h-204v473q-53 -83 -134 -128.5t-163 -45.5q-111 0 -196 56t-124 163q-49 -105 -139.5 -162t-184.5 -57q-151 0 -250.5 101.5
t-99.5 292.5v633h207v-589z" />
    <glyph glyph-name="uni0271" unicode="&#x271;" horiz-adv-x="1695" 
d="M746 589q0 130 -58.5 189t-157.5 59q-95 0 -159 -65.5t-64 -168.5v-603h-207v1000h207v-146q53 83 133.5 128t162.5 45q112 0 196.5 -56.5t123.5 -164.5q49 106 139.5 163.5t184.5 57.5q151 0 249.5 -101.5t98.5 -292.5v-656q0 -155 -84 -241.5t-234 -86.5h-118v186h95
q72 0 104.5 36t32.5 117v601q0 130 -59 189t-158 59q-94 0 -159 -65.5t-65 -168.5v-603h-204v589z" />
    <glyph glyph-name="uni0272" unicode="&#x272;" horiz-adv-x="1091" 
d="M-65 -182h63q47 0 75.5 25t28.5 97v1061h207v-153q55 86 140.5 132.5t174.5 46.5q161 0 265 -101.5t104 -292.5v-633h-205v589q0 130 -64.5 189t-172.5 59q-104 0 -173 -65.5t-69 -168.5v-675q0 -148 -84 -214.5t-203 -66.5h-87v171z" />
    <glyph glyph-name="uni0273" unicode="&#x273;" horiz-adv-x="1091" 
d="M788 589q0 130 -64.5 189t-172.5 59q-104 0 -173 -65.5t-69 -168.5v-603h-207v1000h207v-152q55 86 140.5 132.5t174.5 46.5q161 0 265 -101.5t104 -292.5v-651q0 -76 29.5 -102.5t79.5 -26.5h22v-179h-47q-120 0 -204.5 66.5t-84.5 214.5v634z" />
    <glyph glyph-name="uni0274" unicode="&#x274;" horiz-adv-x="1109" 
d="M802 1000h205v-1000h-218l-480 723v-723h-207v1000h246l454 -695v695z" />
    <glyph glyph-name="uni0275" unicode="&#x275;" horiz-adv-x="1131" 
d="M81 504q0 158 61 275.5t170.5 182.5t255.5 65q144 0 253 -65t169.5 -182.5t60.5 -275.5t-60.5 -276.5t-169.5 -184.5t-253 -66q-146 0 -255.5 66t-170.5 184.5t-61 276.5zM568 860q-123 0 -198 -74.5t-90 -211.5h572q-16 137 -89.5 211.5t-194.5 74.5zM568 144
q121 0 194.5 75t88.5 214h-571q16 -139 90.5 -214t197.5 -75z" />
    <glyph glyph-name="uni0276" unicode="&#x276;" horiz-adv-x="1451" 
d="M684 0q-302 0 -452.5 138.5t-150.5 365.5q0 224 150.5 360t452.5 136h697v-164h-494v-257h440v-150h-440v-258h494v-171h-697zM284 504q0 -160 89.5 -248.5t310.5 -88.5v666q-221 0 -310.5 -86t-89.5 -243z" />
    <glyph glyph-name="uni0277" unicode="&#x277;" horiz-adv-x="1419" 
d="M707 168q-84 -191 -277 -191q-103 0 -181.5 56.5t-122 157.5t-43.5 234q0 177 80.5 311.5t223 210.5t328.5 76q185 0 325.5 -74t219.5 -205.5t79 -306.5q0 -136 -45.5 -239.5t-126.5 -162t-188 -58.5q-189 0 -272 191zM718 839q-202 0 -316 -109t-114 -303
q0 -126 45 -192.5t128 -66.5q82 0 126.5 57.5t44.5 160.5v211h153v-211q0 -100 43 -155t121 -55q89 0 136 68.5t47 196.5q0 188 -109 293t-305 105z" />
    <glyph glyph-name="uni0278" unicode="&#x278;" horiz-adv-x="1249" 
d="M81 504q0 145 58 256t163 179.5t247 83.5v377h150v-376q142 -15 247.5 -83t164 -179.5t58.5 -257.5t-58.5 -259t-164 -181.5t-247.5 -83.5v-306h-150v307q-142 15 -247 84t-163 181.5t-58 257.5zM973 504q0 146 -72 235t-202 108v-690q130 19 202 109t72 238zM276 504
q0 -147 71.5 -236.5t201.5 -110.5v690q-130 -21 -201.5 -109.5t-71.5 -233.5z" />
    <glyph glyph-name="uni0279" unicode="&#x279;" horiz-adv-x="702" 
d="M69 193h52q116 0 196 65.5t80 168.5v573h204v-1000h-204v158q-50 -86 -124 -132t-150 -46h-54v213z" />
    <glyph glyph-name="uni027A" unicode="&#x27a;" horiz-adv-x="702" 
d="M69 193h52q116 0 196 65.5t80 168.5v973h204v-1400h-204v158q-50 -86 -124 -132t-150 -46h-54v213z" />
    <glyph glyph-name="uni027B" unicode="&#x27b;" horiz-adv-x="702" 
d="M69 193h52q116 0 196 65.5t80 168.5v573h204v-1018q0 -76 33 -102.5t86 -26.5h36v-179h-60q-83 0 -150.5 29t-108 91t-40.5 161v203q-50 -86 -124 -132t-150 -46h-54v213z" />
    <glyph glyph-name="uni027C" unicode="&#x27c;" horiz-adv-x="702" 
d="M100 1000h207v-156q50 85 123.5 130.5t148.5 45.5h55v-213h-53q-115 0 -194.5 -65.5t-79.5 -168.5v-899h-207v1326z" />
    <glyph glyph-name="uni027D" unicode="&#x27d;" horiz-adv-x="702" 
d="M460 -147v-179h-61q-82 0 -150 29t-108.5 91t-40.5 161v1045h207v-156q50 85 123.5 130.5t148.5 45.5h55v-213h-53q-115 0 -194.5 -65.5t-79.5 -168.5v-591q0 -76 32 -102.5t85 -26.5h36z" />
    <glyph glyph-name="uni027E" unicode="&#x27e;" horiz-adv-x="541" 
d="M483 822h-31q-67 0 -105 -32.5t-38 -124.5v-665h-207v684q0 110 43.5 179.5t117.5 103t164 33.5h56v-178z" />
    <glyph glyph-name="uni027F" unicode="&#x27f;" horiz-adv-x="517" 
d="M36 822v178h79q126 0 213.5 -73t87.5 -230v-1023h-205v1003q0 84 -32.5 114.5t-87.5 30.5h-55z" />
    <glyph glyph-name="uni0280" unicode="&#x280;" horiz-adv-x="1062" 
d="M542 338h-233v-338h-207v1000h527q159 0 256 -85.5t97 -224.5q0 -97 -56 -166.5t-151 -99.5q89 -22 132.5 -82t57.5 -168l21 -174h-201l-20 152q-13 101 -64.5 143.5t-158.5 42.5zM601 829h-292v-320h292q82 0 128 40t46 114q0 79 -46 122.5t-128 43.5z" />
    <glyph glyph-name="uni0281" unicode="&#x281;" horiz-adv-x="1062" 
d="M542 662q107 0 158.5 42.5t64.5 143.5l20 152h201l-21 -173q-14 -109 -57.5 -169t-132.5 -82q95 -30 151 -99.5t56 -166.5q0 -139 -97 -224.5t-256 -85.5h-527v1000h207v-338h233zM601 171q82 0 128 43.5t46 122.5q0 74 -46 114t-128 40h-292v-320h292z" />
    <glyph glyph-name="uni0282" unicode="&#x282;" horiz-adv-x="1035" 
d="M441 -183v-171h-62q-123 0 -210.5 63t-87.5 203v396h197q32 -173 265 -173q95 0 153.5 37t58.5 100q0 113 -159 134l-173 21q-161 19 -243 89.5t-82 202.5q0 141 110.5 223t301.5 82q185 0 298.5 -87t130.5 -238h-202q-29 166 -226 166q-94 0 -150.5 -37t-56.5 -99
q0 -59 39 -87.5t118 -38.5l180 -19q163 -20 239.5 -94.5t76.5 -214.5q0 -134 -106.5 -215t-280.5 -81q-188 0 -292 86v-125q0 -72 32.5 -97.5t85.5 -25.5h45z" />
    <glyph glyph-name="uni0283" unicode="&#x283;" horiz-adv-x="609" 
d="M382 -33q0 -113 -40.5 -183.5t-109 -104t-152.5 -33.5h-94v186h61q58 0 94 30t36 118v1139q0 99 40.5 161t108 91t150.5 29h73v-170h-49q-53 0 -85.5 -25.5t-32.5 -97.5v-1140z" />
    <glyph glyph-name="uni0284" unicode="&#x284;" horiz-adv-x="634" 
d="M403 -33q0 -113 -41 -183.5t-109.5 -104t-151.5 -33.5h-94v186h61q58 0 94 30t36 118v486h-155v171h155v482q0 99 40 161t108 91t150 29h80v-170h-55q-53 0 -85.5 -25.5t-32.5 -97.5v-470h192v-171h-192v-499z" />
    <glyph glyph-name="uni0285" unicode="&#x285;" horiz-adv-x="685" 
d="M55 829v171h99q82 0 150 -29t108.5 -91t40.5 -161v-765q0 -72 31.5 -97t84.5 -25h62v-186h-87q-123 0 -209.5 71t-86.5 225v765q0 72 -32.5 97t-85.5 25h-75z" />
    <glyph glyph-name="uni0286" unicode="&#x286;" horiz-adv-x="962" 
d="M957 -400h-181q0 210 -80 341q-29 -133 -120 -214t-239 -81q-165 0 -261 86.5t-96 233.5q0 93 49.5 166.5t135 115.5t195.5 42q75 0 144 -16v845q0 133 79 207t220 74h98v-170h-74q-62 0 -89.5 -30t-27.5 -93v-929q116 -89 181.5 -237.5t65.5 -340.5zM176 -34
q0 -66 42.5 -102.5t118.5 -36.5q89 0 128 51.5t39 155.5v62q-63 20 -137 20q-85 0 -138 -41.5t-53 -108.5z" />
    <glyph glyph-name="uni0287" unicode="&#x287;" horiz-adv-x="673" 
d="M614 0h-175v-260h-205v260h-173v171h173v521q0 76 -27 103t-72 27h-74v178h99q117 0 198 -66.5t81 -214.5v-548h175v-171z" />
    <glyph glyph-name="uni0288" unicode="&#x288;" horiz-adv-x="673" 
d="M614 -147v-179h-116q-117 0 -198.5 66.5t-81.5 214.5v874h-157v171h157v260h204v-260h192v-171h-192v-847q0 -76 27.5 -102.5t72.5 -26.5h92z" />
    <glyph glyph-name="uni0289" unicode="&#x289;" horiz-adv-x="1074" 
d="M0 633h100v367h207v-367h463v367h204v-367h100v-156h-100v-477h-204v155q-55 -87 -139 -134.5t-170 -47.5q-157 0 -259 103t-102 297v104h-100v156zM307 415q0 -133 61.5 -192.5t165.5 -59.5q100 0 168 67.5t68 173.5v73h-463v-62z" />
    <glyph glyph-name="uni028A" unicode="&#x28a;" horiz-adv-x="1165" 
d="M584 -23q-150 0 -263 58t-175.5 161.5t-62.5 241.5q0 116 55.5 218t157.5 166h-213v178h429v-178q-104 -37 -161.5 -133.5t-57.5 -214.5q0 -145 76.5 -226t214.5 -81q139 0 214.5 81t75.5 226q0 118 -57 214.5t-161 133.5v178h429v-178h-215q103 -64 159 -166t56 -218
q0 -138 -62.5 -241.5t-175.5 -161.5t-263 -58z" />
    <glyph glyph-name="uni028B" unicode="&#x28b;" horiz-adv-x="1086" 
d="M100 1000h207v-578q0 -115 60.5 -177.5t168.5 -62.5q124 0 191 87t67 255q0 151 -47.5 224.5t-152.5 73.5h-37v178h69q175 0 273.5 -130.5t98.5 -355.5q0 -161 -57 -280t-161 -184.5t-244 -65.5q-129 0 -227.5 54.5t-153.5 153.5t-55 230v578z" />
    <glyph glyph-name="uni028C" unicode="&#x28c;" horiz-adv-x="1105" 
d="M1045 0h-219l-276 792l-267 -792h-220l374 1000h234z" />
    <glyph glyph-name="uni028D" unicode="&#x28d;" horiz-adv-x="1616" 
d="M1556 0h-220l-186 775l-221 -775h-236l-216 775l-196 -775h-218l304 1000h229l218 -776l213 776h239z" />
    <glyph glyph-name="uni028E" unicode="&#x28e;" horiz-adv-x="1120" 
d="M998 1214h-97q-79 0 -120 -43.5t-77 -139.5l-18 -54l374 -977h-219l-284 762l-274 -762h-220l390 1050q47 125 99 202t122.5 112.5t172.5 35.5h151v-186z" />
    <glyph glyph-name="uni028F" unicode="&#x28f;" horiz-adv-x="1082" 
d="M437 309l-374 691h232l248 -490l247 490h232l-380 -692v-308h-205v309z" />
    <glyph glyph-name="uni0290" unicode="&#x290;" horiz-adv-x="968" 
d="M89 1000h791v-198l-558 -639h558v-223q0 -72 33 -97.5t85 -25.5h44v-171h-60q-83 0 -150.5 27.5t-108 86.5t-40.5 152v88h-594v198l556 639h-556v163z" />
    <glyph glyph-name="uni0291" unicode="&#x291;" horiz-adv-x="1240" 
d="M518 -203q0 107 16 203h-445v198l556 639h-556v163h791v-198l-558 -639h254q55 151 155 236t233 85q120 0 199.5 -67t79.5 -169q0 -114 -77 -181t-207 -67h-259q-14 -92 -14 -203h-168zM955 336q-142 0 -213 -173h217q108 0 108 85q0 38 -30.5 63t-81.5 25z" />
    <glyph glyph-name="uni0292" unicode="&#x292;" horiz-adv-x="1097" 
d="M600 439q210 -16 319.5 -120.5t109.5 -290.5q0 -128 -59 -224.5t-165.5 -150t-246.5 -53.5q-197 0 -323.5 105.5t-149.5 282.5h210q11 -95 79.5 -150.5t183.5 -55.5q123 0 190.5 65.5t67.5 184.5q0 122 -76.5 187.5t-217.5 65.5h-145v171l383 364l-670 2v178h922v-180z
" />
    <glyph glyph-name="uni0293" unicode="&#x293;" horiz-adv-x="1097" 
d="M668 465q178 -21 269.5 -132t91.5 -305q0 -107 -46 -194q58 -104 91 -234h-166q-19 55 -39 102q-66 -49 -155 -75.5t-195 -26.5q-123 0 -221.5 37t-155.5 103.5t-57 154.5q0 80 42.5 141.5t116 97t164.5 35.5q125 0 232 -38.5t192 -110.5v12q0 137 -79 212t-223 75h-104
v161l344 340l-680 2v178h922v-180zM435 12q-62 0 -102 -33t-40 -84q0 -57 61 -92.5t157 -35.5q179 0 262 94q-125 151 -338 151z" />
    <glyph glyph-name="uni0294" unicode="&#x294;" horiz-adv-x="1086" 
d="M648 460v-460h-204v571q168 69 258.5 170.5t90.5 248.5q0 121 -66 188t-185 67q-110 0 -177.5 -69t-71.5 -187h-210q8 129 68 227t158.5 153t223.5 55q142 0 247.5 -54.5t164 -152t58.5 -227.5q0 -177 -97 -310t-258 -220z" />
    <glyph glyph-name="uni0295" unicode="&#x295;" horiz-adv-x="1086" 
d="M439 460q-161 87 -258.5 220t-97.5 310q0 130 58 227.5t164 152t248 54.5q125 0 223.5 -55t158.5 -153t68 -227h-210q-4 118 -71.5 187t-177.5 69q-119 0 -185 -67t-66 -188q0 -147 90.5 -248.5t259.5 -170.5v-571h-204v460z" />
    <glyph glyph-name="uni0296" unicode="&#x296;" horiz-adv-x="1086" 
d="M648 940q161 -87 258 -219.5t97 -309.5q0 -131 -58.5 -228.5t-164 -151.5t-247.5 -54q-125 0 -223.5 55t-158.5 153t-68 226h210q4 -117 71.5 -186t177.5 -69q119 0 185 66.5t66 188.5q0 146 -90.5 247.5t-258.5 170.5v571h204v-460z" />
    <glyph glyph-name="uni0297" unicode="&#x297;" horiz-adv-x="1137" 
d="M81 305q0 217 64 379.5t179.5 252.5t268.5 90q129 0 230.5 -53t163 -150t71.5 -229h-210q-5 121 -74 185.5t-181 64.5q-143 0 -222.5 -141t-79.5 -399q0 -248 80 -385.5t222 -137.5q111 0 180 59.5t75 172.5h210q-18 -193 -145 -303.5t-320 -110.5q-153 0 -268.5 88.5
t-179.5 247t-64 369.5z" />
    <glyph glyph-name="uni0298" unicode="&#x298;" horiz-adv-x="1276" 
d="M83 635q0 324 147 504.5t410 180.5q262 0 408.5 -180.5t146.5 -504.5q0 -307 -146.5 -479t-408.5 -172q-264 0 -410.5 172t-146.5 479zM992 635q0 511 -352 511q-355 0 -355 -511q0 -476 355 -476q352 0 352 476zM548 734h187v-189h-187v189z" />
    <glyph glyph-name="uni0299" unicode="&#x299;" horiz-adv-x="1082" 
d="M829 504q173 -68 173 -231q0 -123 -85.5 -198t-224.5 -75h-590v1000h574q135 0 221 -77.5t86 -202.5q0 -152 -154 -216zM644 578q61 0 93.5 33t32.5 91q0 64 -36 99.5t-102 35.5h-317v-259h329zM642 163q70 0 109.5 33.5t39.5 95.5q0 64 -38.5 100t-108.5 36h-329v-265
h327z" />
    <glyph glyph-name="uni029A" unicode="&#x29a;" horiz-adv-x="1060" 
d="M226 503q-124 65 -124 217q0 137 105.5 221t275.5 84q145 0 257 -65t175.5 -180.5t63.5 -268.5q0 -157 -66 -276.5t-181.5 -186.5t-264.5 -67q-173 0 -278.5 80.5t-105.5 211.5q0 161 143 230zM769 511q0 162 -73.5 252.5t-206.5 90.5q-84 0 -129 -39t-45 -111
q0 -59 31 -92.5t90 -33.5h146v-153h-146q-68 0 -105.5 -35t-37.5 -99q0 -66 48.5 -102t137.5 -36q137 0 213.5 94.5t76.5 263.5z" />
    <glyph glyph-name="uni029B" unicode="&#x29b;" horiz-adv-x="1114" 
d="M81 504q0 158 58 275.5t161.5 182.5t241.5 65q101 0 180.5 -44t127.5 -122v136q0 157 82.5 230.5t199.5 73.5h54v-180h-30q-58 0 -91 -30t-33 -113v-324h-205q-8 92 -76 145.5t-176 53.5q-136 0 -210 -91.5t-74 -257.5q0 -167 72 -259.5t201 -92.5q102 0 166.5 60.5
t77.5 177.5h-259v144h486v-534h-160l-5 180q-50 -97 -136 -150t-192 -53q-139 0 -242.5 66t-161 184.5t-57.5 276.5z" />
    <glyph glyph-name="uni029C" unicode="&#x29c;" horiz-adv-x="1109" 
d="M102 1000h207v-403h493v403h205v-1000h-205v410h-493v-410h-207v1000z" />
    <glyph glyph-name="uni029D" unicode="&#x29d;" horiz-adv-x="624" 
d="M306 1328h232v-197h-232v197zM525 -66q0 -135 -84 -211.5t-233 -76.5q-143 0 -225 76t-82 209q0 127 88 205.5t234 78.5h96v785h206v-785h118v-165h-118v-116zM208 -175q58 0 84.5 28.5t26.5 92.5v104h-78q-66 0 -105.5 -32t-39.5 -83q0 -52 29 -81t83 -29z" />
    <glyph glyph-name="uni029E" unicode="&#x29e;" horiz-adv-x="1045" 
d="M329 0h-258l406 480l-429 520h245l335 -398l112 133v265h204v-1326h-204v836z" />
    <glyph glyph-name="uni029F" unicode="&#x29f;" horiz-adv-x="797" 
d="M735 0h-633v1000h207v-807h426v-193z" />
    <glyph glyph-name="uni02A0" unicode="&#x2a0;" horiz-adv-x="1157" 
d="M1192 1222h-37q-50 0 -80 -27t-30 -103v-1418h-204v506q-53 -96 -138 -149.5t-194 -53.5q-128 0 -224.5 66t-150 184.5t-53.5 276.5t53.5 275.5t150 182.5t224.5 65q109 0 194 -53t138 -148v293q0 148 84 214.5t205 66.5h62v-178zM291 504q0 -164 72.5 -254.5
t202.5 -90.5q131 0 203 90.5t72 254.5q0 162 -72 251.5t-203 89.5q-130 0 -202.5 -89.5t-72.5 -251.5z" />
    <glyph glyph-name="uni02A1" unicode="&#x2a1;" horiz-adv-x="1086" 
d="M163 408h281v163q168 69 258.5 170.5t90.5 248.5q0 121 -66 188t-185 67q-110 0 -177.5 -69t-71.5 -187h-210q8 129 68 227t158.5 153t223.5 55q142 0 247.5 -54.5t164 -152t58.5 -227.5q0 -169 -97 -296.5t-258 -210.5v-75h278v-156h-278v-252h-204v252h-281v156z" />
    <glyph glyph-name="uni02A2" unicode="&#x2a2;" horiz-adv-x="1086" 
d="M163 408h276v82q-161 82 -258.5 208t-97.5 292q0 130 58 227.5t164 152t248 54.5q125 0 223.5 -55t158.5 -153t68 -227h-210q-4 118 -71.5 187t-177.5 69q-119 0 -185 -67t-66 -188q0 -147 90.5 -248.5t259.5 -170.5v-163h283v-156h-283v-252h-204v252h-276v156z" />
    <glyph glyph-name="uni02A3" unicode="&#x2a3;" horiz-adv-x="2009" 
d="M1045 1400v-400h878v-198l-558 -639h558v-163h-792v198l557 639h-643v-837h-204v180q-53 -96 -138 -149.5t-194 -53.5q-128 0 -224.5 66t-150 184.5t-53.5 276.5t53.5 275.5t150 182.5t224.5 65q109 0 194 -53t138 -148v574h204zM291 504q0 -164 72.5 -254.5t202.5 -90.5
q131 0 203 90.5t72 254.5q0 162 -72 251.5t-203 89.5q-130 0 -202.5 -89.5t-72.5 -251.5z" />
    <glyph glyph-name="uni02A4" unicode="&#x2a4;" horiz-adv-x="1930" 
d="M841 1400h204v-400h764v-180l-312 -381q352 -38 352 -411q0 -128 -59.5 -224.5t-166.5 -150t-250 -53.5q-192 0 -317.5 87.5t-148.5 233.5h210q11 -69 77 -108.5t179 -39.5q126 0 196 68t70 191q0 122 -69 187.5t-195 65.5h-105v160l304 375l-529 2v-822h-204v180
q-53 -96 -138 -149.5t-194 -53.5q-128 0 -224.5 66t-150 184.5t-53.5 276.5t53.5 275.5t150 182.5t224.5 65q109 0 194 -53t138 -148v574zM291 504q0 -164 72.5 -254.5t202.5 -90.5q131 0 203 90.5t72 254.5q0 162 -72 251.5t-203 89.5q-130 0 -202.5 -89.5t-72.5 -251.5z
" />
    <glyph glyph-name="uni02A5" unicode="&#x2a5;" horiz-adv-x="2202" 
d="M1560 -203q0 107 16 203h-445v198l557 639h-643v-837h-204v180q-53 -96 -138 -149.5t-194 -53.5q-128 0 -224.5 66t-150 184.5t-53.5 276.5t53.5 275.5t150 182.5t224.5 65q109 0 194 -53t138 -148v574h204v-400h878v-198l-558 -639h253q55 151 155.5 236t232.5 85
q121 0 200 -67t79 -169q0 -114 -77 -181t-207 -67h-259q-14 -92 -14 -203h-168zM291 504q0 -164 72.5 -254.5t202.5 -90.5q131 0 203 90.5t72 254.5q0 162 -72 251.5t-203 89.5q-130 0 -202.5 -89.5t-72.5 -251.5zM1999 336q-143 0 -214 -173h216q109 0 109 85
q0 38 -30.5 63t-80.5 25z" />
    <glyph glyph-name="uni02A6" unicode="&#x2a6;" horiz-adv-x="1602" 
d="M1155 412l-174 22q-324 38 -324 291q0 139 110.5 219t301.5 80q184 0 297.5 -86.5t130.5 -236.5h-202q-29 166 -226 166q-94 0 -150.5 -36.5t-56.5 -97.5q0 -54 37 -82t120 -38l181 -20q166 -19 244 -93.5t78 -213.5q0 -134 -95 -210t-263 -76h-600q-163 0 -254.5 88.5
t-91.5 246.5v494h-157v171h157v260h204v-260h192v-171h-192v-467q0 -94 40 -137t127 -43h546q88 0 135 28t47 77q0 103 -162 125z" />
    <glyph glyph-name="uni02A7" unicode="&#x2a7;" horiz-adv-x="1176" 
d="M931 -40q0 -111 -41 -180t-109.5 -101.5t-152.5 -32.5h-93v186h60q58 0 94 28.5t36 111.5v28h-227q-117 0 -198.5 66.5t-81.5 214.5v548h-157v171h157v260h204v-260h303v119q0 99 40.5 161t108 91t150.5 29h99v-170h-75q-54 0 -85.5 -25.5t-31.5 -97.5v-1147zM522 179
h203v650h-303v-521q0 -76 27.5 -102.5t72.5 -26.5z" />
    <glyph glyph-name="uni02A8" unicode="&#x2a8;" horiz-adv-x="1667" 
d="M535 0q-138 0 -227.5 69t-89.5 220v540h-157v171h157v260h204v-260h192v-171h-192v-513q0 -88 35 -120.5t93 -32.5q50 0 90.5 16.5t76.5 43.5q-85 126 -85 295q0 158 60.5 276t169.5 183.5t254 65.5q130 0 233 -46.5t165.5 -131t72.5 -198.5h-212q-12 94 -78.5 150.5
t-180.5 56.5q-131 0 -202 -88.5t-71 -251.5q0 -92 25 -164q46 48 99.5 91t122 70t160.5 27q93 0 169.5 -35t122 -97.5t45.5 -146.5q0 -87 -53 -150t-142.5 -96.5t-197.5 -33.5q-111 0 -204 28.5t-165 82.5q-56 -47 -126 -78.5t-164 -31.5zM1198 156q79 0 128.5 32t50.5 91
q0 53 -41 87t-105 34q-89 0 -152.5 -49.5t-123.5 -114.5q92 -80 243 -80z" />
    <glyph glyph-name="uni02A9" unicode="&#x2a9;" horiz-adv-x="1603" 
d="M61 829v171h155v119q0 99 40 161t108 91t150 29h100v-170h-75q-54 0 -86 -25.5t-32 -97.5v-107h193v-1h204v-155q51 82 134.5 132t182.5 50q169 0 268.5 -106t99.5 -288v-671q0 -155 -84.5 -241.5t-233.5 -86.5h-119v186h94q72 0 104.5 36t32.5 117v616q0 248 -235 248
q-105 0 -174.5 -66t-69.5 -168v-603h-204v830h-193v-829h-205v829h-155z" />
    <glyph glyph-name="uni02AA" unicode="&#x2aa;" horiz-adv-x="1411" 
d="M962 412l-173 22q-324 38 -324 291q0 139 110.5 219t300.5 80q185 0 299 -86.5t131 -236.5h-202q-29 166 -227 166q-94 0 -150 -36.5t-56 -97.5q0 -54 36.5 -81.5t120.5 -38.5l179 -20q166 -19 244.5 -93.5t78.5 -213.5q0 -134 -103 -210t-285 -76h-492q-164 0 -256 88.5
t-92 246.5v1065h207v-1038q0 -94 39.5 -137t126.5 -43h443q98 0 153 28t55 77q0 103 -164 125z" />
    <glyph glyph-name="uni02AB" unicode="&#x2ab;" horiz-adv-x="1272" 
d="M309 1400v-400h877v-198l-558 -639h558v-163h-791v198l555 639h-641v-837h-207v1400h207z" />
    <glyph glyph-name="uni02AC" unicode="&#x2ac;" horiz-adv-x="1077" 
d="M63 1301h177l98 -402l107 402h183l103 -402l107 402h177l-191 -580h-165l-119 400l-117 -400h-183zM63 580h177l98 -400l107 400h183l103 -400l107 400h177l-191 -580h-165l-119 400l-117 -400h-183z" />
    <glyph glyph-name="uni02AD" unicode="&#x2ad;" horiz-adv-x="1077" 
d="M976 721h-168v426h-535v-426h-170v580h873v-580zM976 0h-168v427h-535v-427h-170v580h873v-580z" />
    <glyph glyph-name="uni02AE" unicode="&#x2ae;" horiz-adv-x="1074" 
d="M307 415q0 -133 61.5 -192.5t165.5 -59.5q100 0 168 67.5t68 173.5v596h204v-1326h-204v481q-55 -87 -139 -134.5t-170 -47.5q-157 0 -259 103t-102 297v304q0 84 -31.5 114.5t-87.5 30.5h-54v178h78q126 0 214 -73t88 -230v-282z" />
    <glyph glyph-name="uni02AF" unicode="&#x2af;" horiz-adv-x="1074" 
d="M307 415q0 -133 61.5 -192.5t165.5 -59.5q100 0 168 67.5t68 173.5v596h204v-1018q0 -76 29.5 -102.5t79.5 -26.5h38v-179h-62q-121 0 -205 66.5t-84 214.5v200q-55 -87 -139 -134.5t-170 -47.5q-157 0 -259 103t-102 297v304q0 84 -31.5 114.5t-87.5 30.5h-54v178h78
q126 0 214 -73t88 -230v-282z" />
    <glyph glyph-name="uni02B0" unicode="&#x2b0;" horiz-adv-x="741" 
d="M539 812q0 91 -45 132.5t-121 41.5q-72 0 -121 -46t-49 -118v-422h-144v980h144v-386q39 60 99 92.5t122 32.5q113 0 185.5 -71t72.5 -205v-443h-143v412z" />
    <glyph glyph-name="uni02B1" unicode="&#x2b1;" horiz-adv-x="741" 
d="M59 400v677q0 144 90.5 232.5t240.5 88.5v-114q-89 0 -138 -56t-49 -158v-87q39 60 99 93t122 33q113 0 185.5 -71t72.5 -205v-433h-143v402q0 91 -45 132.5t-121 41.5q-72 0 -121 -46.5t-49 -118.5v-411h-144z" />
    <glyph glyph-name="uni02B2" unicode="&#x2b2;" horiz-adv-x="385" 
d="M169 1343h158v-154h-158v154zM59 290h43q34 0 53.5 17.5t19.5 67.5v725h145v-733q0 -107 -58.5 -157t-141.5 -50h-61v130z" />
    <glyph glyph-name="uni02B3" unicode="&#x2b3;" horiz-adv-x="490" 
d="M432 959h-37q-85 0 -138.5 -44t-53.5 -114v-401h-144v700h144v-114q36 59 89 90.5t107 31.5h33v-149z" />
    <glyph glyph-name="uni02B4" unicode="&#x2b4;" horiz-adv-x="490" 
d="M59 535h37q81 0 137 46t56 118v401h143v-700h-143v111q-35 -60 -87 -92.5t-105 -32.5h-38v149z" />
    <glyph glyph-name="uni02B5" unicode="&#x2b5;" horiz-adv-x="599" 
d="M59 535h37q81 0 137 46t56 118v401h143v-713q0 -53 23 -71.5t60 -18.5h25v-125h-42q-87 0 -148 46.5t-61 149.5v143q-35 -60 -87 -92.5t-105 -32.5h-38v149z" />
    <glyph glyph-name="uni02B6" unicode="&#x2b6;" horiz-adv-x="736" 
d="M367 863q75 0 111 30t45 101l14 106h141l-15 -121q-10 -76 -40.5 -118t-92.5 -58q67 -21 105.5 -69.5t38.5 -116.5q0 -98 -67.5 -157.5t-178.5 -59.5h-369v700h144v-237h164zM408 520q58 0 90 30.5t32 85.5q0 52 -32 80t-90 28h-205v-224h205z" />
    <glyph glyph-name="uni02B7" unicode="&#x2b7;" horiz-adv-x="1162" 
d="M59 1100h153l131 -543l154 543h165l151 -543l137 543h154l-214 -700h-160l-152 543l-150 -543h-167z" />
    <glyph glyph-name="uni02B8" unicode="&#x2b8;" horiz-adv-x="815" 
d="M106 299h77q56 0 85.5 18t46.5 62l15 37l-271 684h153l200 -535l193 535h151l-282 -735q-41 -107 -106 -152t-163 -45h-99v131z" />
    <glyph glyph-name="uni02B9" unicode="&#x2b9;" horiz-adv-x="499" 
d="M450 1301l-233 -338h-166l163 338h236z" />
    <glyph glyph-name="uni02BA" unicode="&#x2ba;" horiz-adv-x="847" 
d="M798 1301l-229 -338h-166l158 338h237zM446 1301l-229 -338h-166l159 338h236z" />
    <glyph glyph-name="uni02BB" unicode="&#x2bb;" horiz-adv-x="348" 
d="M280 882h-234v279q0 115 58 166t142 51h54v-108h-29q-59 0 -92 -24.5t-33 -96.5v-32h134v-235z" />
    <glyph glyph-name="uni02BC" unicode="&#x2bc;" horiz-adv-x="348" 
d="M68 1378h234v-278q0 -115 -58.5 -166.5t-141.5 -51.5h-54v108h29q59 0 92 25t33 97v32h-134v234z" />
    <glyph glyph-name="uni02BD" unicode="&#x2bd;" horiz-adv-x="348" 
d="M280 1378v-234h-134v-32q0 -72 33 -97t92 -25h29v-108h-54q-84 0 -142 51.5t-58 166.5v278h234z" />
    <glyph glyph-name="uni02BE" unicode="&#x2be;" horiz-adv-x="368" 
d="M42 1551q128 0 207 -77.5t79 -204.5t-78.5 -205t-205.5 -78v137q64 0 100 38.5t36 107.5t-36.5 107.5t-101.5 38.5v136z" />
    <glyph glyph-name="uni02BF" unicode="&#x2bf;" horiz-adv-x="368" 
d="M328 986q-129 0 -207.5 78t-78.5 205t78 204.5t206 77.5v-136q-65 0 -100.5 -38.5t-35.5 -107.5t36 -107.5t102 -38.5v-137z" />
    <glyph glyph-name="uni02C0" unicode="&#x2c0;" horiz-adv-x="762" 
d="M454 722v-322h-142v400q118 48 181 119t63 174q0 85 -46 132t-130 47q-76 0 -123.5 -48.5t-50.5 -130.5h-147q9 135 96.5 219t218.5 84q149 0 239 -83t90 -220q0 -124 -68 -217t-181 -154z" />
    <glyph glyph-name="uni02C1" unicode="&#x2c1;" horiz-adv-x="762" 
d="M308 722q-113 61 -181 154t-68 217q0 137 90 220t239 83q131 0 218.5 -84t96.5 -219h-147q-3 82 -50 130.5t-124 48.5q-83 0 -129.5 -47t-46.5 -132q0 -103 63.5 -174t181.5 -119v-400h-143v322z" />
    <glyph glyph-name="uni02C2" unicode="&#x2c2;" horiz-adv-x="911" 
d="M849 1036v-217l-580 -253l580 -241v-221l-787 350v232z" />
    <glyph glyph-name="uni02C3" unicode="&#x2c3;" horiz-adv-x="911" 
d="M62 104v217l581 253l-581 241v221l787 -350v-232z" />
    <glyph glyph-name="uni02C4" unicode="&#x2c4;" horiz-adv-x="1056" 
d="M995 176h-218l-253 582l-240 -582h-222l352 787h230z" />
    <glyph glyph-name="uni02C5" unicode="&#x2c5;" horiz-adv-x="1056" 
d="M62 963h218l253 -579l240 579h222l-351 -787h-230z" />
    <glyph glyph-name="circumflex" unicode="&#x2c6;" horiz-adv-x="899" 
d="M349 1350h202l307 -350h-206l-201 240l-203 -240h-206z" />
    <glyph glyph-name="caron" unicode="&#x2c7;" horiz-adv-x="899" 
d="M551 1000h-202l-307 350h206l202 -239l202 239h206z" />
    <glyph glyph-name="uni02C8" unicode="&#x2c8;" horiz-adv-x="398" 
d="M100 1400h199v-651h-199v651z" />
    <glyph glyph-name="uni02C9" unicode="&#x2c9;" horiz-adv-x="728" 
d="M42 1193h644v-161h-644v161z" />
    <glyph glyph-name="uni02CA" unicode="&#x2ca;" horiz-adv-x="534" 
d="M493 1338l-285 -338h-166l214 338h237z" />
    <glyph glyph-name="uni02CB" unicode="&#x2cb;" horiz-adv-x="533" 
d="M42 1338h235l215 -338h-166z" />
    <glyph glyph-name="uni02CC" unicode="&#x2cc;" horiz-adv-x="398" 
d="M100 325h199v-651h-199v651z" />
    <glyph glyph-name="uni02CD" unicode="&#x2cd;" horiz-adv-x="728" 
d="M42 -37h644v-161h-644v161z" />
    <glyph glyph-name="uni02CE" unicode="&#x2ce;" horiz-adv-x="533" 
d="M42 108h235l215 -338h-166z" />
    <glyph glyph-name="uni02CF" unicode="&#x2cf;" horiz-adv-x="534" 
d="M493 108l-285 -338h-166l214 338h237z" />
    <glyph glyph-name="uni02D0" unicode="&#x2d0;" horiz-adv-x="503" 
d="M89 1000h328l-165 -289zM252 289l165 -289h-328z" />
    <glyph glyph-name="uni02D1" unicode="&#x2d1;" horiz-adv-x="503" 
d="M89 651h328l-165 -290z" />
    <glyph glyph-name="uni02D2" unicode="&#x2d2;" horiz-adv-x="368" 
d="M42 746q128 0 207 -78t79 -204q0 -127 -78.5 -205t-205.5 -78v137q64 0 100 38t36 108q0 69 -36.5 107.5t-101.5 38.5v136z" />
    <glyph glyph-name="uni02D3" unicode="&#x2d3;" horiz-adv-x="368" 
d="M328 181q-129 0 -207.5 78t-78.5 205q0 126 78 204t206 78v-136q-65 0 -100.5 -38.5t-35.5 -107.5q0 -70 36 -108t102 -38v-137z" />
    <glyph glyph-name="uni02D4" unicode="&#x2d4;" horiz-adv-x="634" 
d="M381 595h204v-127h-535v127h204v220h127v-220z" />
    <glyph glyph-name="uni02D5" unicode="&#x2d5;" horiz-adv-x="634" 
d="M585 595v-127h-204v-203h-127v203h-204v127h535z" />
    <glyph glyph-name="uni02D6" unicode="&#x2d6;" horiz-adv-x="634" 
d="M381 595h204v-127h-204v-203h-127v203h-204v127h204v220h127v-220z" />
    <glyph glyph-name="uni02D7" unicode="&#x2d7;" horiz-adv-x="634" 
d="M585 595v-127h-535v127h535z" />
    <glyph glyph-name="breve" unicode="&#x2d8;" horiz-adv-x="811" 
d="M770 1311q-15 -143 -112.5 -229.5t-249.5 -86.5q-154 0 -253 86.5t-113 229.5h182q20 -166 184 -166q81 0 125.5 43t54.5 123h182z" />
    <glyph glyph-name="dotaccent" unicode="&#x2d9;" horiz-adv-x="315" 
d="M42 1199h232v-199h-232v199z" />
    <glyph glyph-name="ring" unicode="&#x2da;" horiz-adv-x="652" 
d="M612 1269q0 -127 -78.5 -205t-205.5 -78q-129 0 -207.5 78t-78.5 205t78 204.5t206 77.5t207 -77.5t79 -204.5zM190 1269q0 -69 36 -107.5t102 -38.5q64 0 99.5 38.5t35.5 107.5t-36 107.5t-101 38.5t-100.5 -38.5t-35.5 -107.5z" />
    <glyph glyph-name="ogonek" unicode="&#x2db;" horiz-adv-x="520" 
d="M395 0q-78 -52 -118.5 -94t-55 -81.5t-14.5 -84.5q0 -116 141 -116h131v-169h-146q-133 0 -212 66.5t-79 177.5q0 117 63 187.5t142 113.5h148z" />
    <glyph glyph-name="tilde" unicode="&#x2dc;" horiz-adv-x="846" 
d="M256 1317q69 0 112.5 -30t80.5 -63q27 -28 54.5 -50t64.5 -22q49 0 78 41.5t29 111.5h131q0 -146 -61 -229.5t-167 -83.5q-63 0 -104 26.5t-74 55.5q-32 30 -59 56.5t-65 26.5q-46 0 -72.5 -43t-26.5 -114h-135q0 152 56 234.5t158 82.5z" />
    <glyph glyph-name="hungarumlaut" unicode="&#x2dd;" horiz-adv-x="896" 
d="M856 1338l-287 -338h-166l216 338h237zM492 1338l-285 -338h-165l215 338h235z" />
    <glyph glyph-name="uni02DE" unicode="&#x2de;" horiz-adv-x="349" 
d="M323 475v-154h-54q-54 0 -105.5 19.5t-85.5 65t-34 124.5v13l-178 -40v134l219 46h106v-104q0 -64 27.5 -84t68.5 -20h36z" />
    <glyph glyph-name="uni02DF" unicode="&#x2df;" horiz-adv-x="775" 
d="M389 1205l217 224l92 -91l-222 -219l222 -218l-92 -93l-217 224l-219 -224l-92 93l224 218l-224 219l92 91z" />
    <glyph glyph-name="uni02E0" unicode="&#x2e0;" horiz-adv-x="805" 
d="M228 381l77 147l-246 572h153l192 -488l188 488h154l-246 -573l75 -146q27 -49 27 -93q0 -69 -58.5 -117.5t-142.5 -48.5q-86 0 -143.5 46.5t-57.5 115.5q0 46 28 97zM456 341l-56 112l-55 -112q-10 -22 -10 -42q0 -54 67 -54q29 0 47.5 15.5t18.5 40.5q0 19 -12 40z" />
    <glyph glyph-name="uni02E1" unicode="&#x2e1;" horiz-adv-x="262" 
d="M59 1380h144v-980h-144v980z" />
    <glyph glyph-name="uni02E2" unicode="&#x2e2;" horiz-adv-x="730" 
d="M426 685l-122 13q-223 25 -223 204q0 99 76.5 157t207.5 58q130 0 209.5 -61.5t91.5 -168.5h-142q-20 118 -158 118q-64 0 -102.5 -26t-38.5 -69q0 -42 27 -62t83 -27l122 -13q215 -24 215 -216q0 -94 -78.5 -150.5t-207.5 -56.5q-143 0 -229 62.5t-98 166.5h148
q21 -119 178 -119q65 0 105.5 25t40.5 67q0 84 -105 98z" />
    <glyph glyph-name="uni02E3" unicode="&#x2e3;" horiz-adv-x="769" 
d="M59 1100h156l171 -275l168 275h157l-213 -351l213 -349h-157l-170 276l-168 -276h-157l213 351z" />
    <glyph glyph-name="uni02E4" unicode="&#x2e4;" horiz-adv-x="762" 
d="M308 722q-113 61 -181 154t-68 217q0 137 90 220t239 83q131 0 218.5 -84t96.5 -219h-147q-3 82 -50 130.5t-124 48.5q-83 0 -129.5 -47t-46.5 -132q0 -103 63.5 -174t181.5 -119v-400h-143v322z" />
    <glyph glyph-name="uni02E5" unicode="&#x2e5;" horiz-adv-x="713" 
d="M428 1131h-358v169h540v-1300h-182v1131z" />
    <glyph glyph-name="uni02E6" unicode="&#x2e6;" horiz-adv-x="713" 
d="M428 1300h182v-1300h-182v849h-358v168h358v283z" />
    <glyph glyph-name="uni02E7" unicode="&#x2e7;" horiz-adv-x="713" 
d="M428 1300h182v-1300h-182v566h-358v168h358v566z" />
    <glyph glyph-name="uni02E8" unicode="&#x2e8;" horiz-adv-x="713" 
d="M428 1300h182v-1300h-182v283h-358v168h358v849z" />
    <glyph glyph-name="uni02E9" unicode="&#x2e9;" horiz-adv-x="713" 
d="M428 1300h182v-1300h-540v169h358v1131z" />
    <glyph glyph-name="uni02EA" unicode="&#x2ea;" horiz-adv-x="701" 
d="M70 1000h183v-831h378v-169h-561v1000z" />
    <glyph glyph-name="uni02EB" unicode="&#x2eb;" horiz-adv-x="701" 
d="M70 1000h183v-418h378v-169h-378v-413h-183v1000z" />
    <glyph glyph-name="uni02EC" unicode="&#x2ec;" horiz-adv-x="899" 
d="M551 -322h-202l-307 350h206l202 -240l202 240h206z" />
    <glyph glyph-name="uni02ED" unicode="&#x2ed;" horiz-adv-x="728" 
d="M42 1376h644v-161h-644v161zM42 1071h644v-161h-644v161z" />
    <glyph glyph-name="uni02EE" unicode="&#x2ee;" horiz-adv-x="657" 
d="M425 1378h233v-278q0 -115 -58 -166.5t-142 -51.5h-53v108h28q60 0 92.5 25t32.5 97v32h-133v234zM98 1378h233v-278q0 -115 -58 -166.5t-142 -51.5h-53v108h28q60 0 92.5 25t32.5 97v32h-133v234z" />
    <glyph glyph-name="uni02EF" unicode="&#x2ef;" horiz-adv-x="1056" 
d="M62 461h218l253 -579l240 579h222l-351 -787h-230z" />
    <glyph glyph-name="uni02F0" unicode="&#x2f0;" horiz-adv-x="1056" 
d="M995 -326h-218l-253 580l-240 -580h-222l352 787h230z" />
    <glyph glyph-name="uni02F1" unicode="&#x2f1;" horiz-adv-x="911" 
d="M849 534v-218l-579 -253l579 -240v-222l-787 351v231z" />
    <glyph glyph-name="uni02F2" unicode="&#x2f2;" horiz-adv-x="911" 
d="M62 -399v218l580 253l-580 240v222l787 -351v-231z" />
    <glyph glyph-name="uni02F3" unicode="&#x2f3;" horiz-adv-x="652" 
d="M612 -117q0 -127 -78.5 -204.5t-205.5 -77.5q-129 0 -207.5 77.5t-78.5 204.5t78 205t206 78t207 -78t79 -205zM190 -117q0 -69 36 -107t102 -38q64 0 99.5 38t35.5 107t-36 107.5t-101 38.5t-100.5 -38.5t-35.5 -107.5z" />
    <glyph glyph-name="uni02F4" unicode="&#x2f4;" horiz-adv-x="533" 
d="M42 691h235l215 -338h-166z" />
    <glyph glyph-name="uni02F5" unicode="&#x2f5;" horiz-adv-x="534" 
d="M493 691l-285 -338h-166l214 338h237z" />
    <glyph glyph-name="uni02F6" unicode="&#x2f6;" horiz-adv-x="896" 
d="M856 691l-287 -338h-166l216 338h237zM492 691l-285 -338h-165l215 338h235z" />
    <glyph glyph-name="uni02F7" unicode="&#x2f7;" horiz-adv-x="846" 
d="M256 28q69 0 113 -30t80 -64q27 -28 54.5 -50t64.5 -22q49 0 78 41.5t29 111.5h131q0 -146 -61 -229t-167 -83q-63 0 -104 26t-74 55q-32 30 -59 56.5t-65 26.5q-46 0 -72.5 -43t-26.5 -114h-135q0 152 56 235t158 83z" />
    <glyph glyph-name="uni02F8" unicode="&#x2f8;" 
d="M87 1143h234v-235h-234v235zM87 404h234v-235h-234v235z" />
    <glyph glyph-name="uni02F9" unicode="&#x2f9;" horiz-adv-x="701" 
d="M70 1400h561v-168h-378v-832h-183v1000z" />
    <glyph glyph-name="uni02FA" unicode="&#x2fa;" horiz-adv-x="701" 
d="M70 1400h561v-1000h-182v832h-379v168z" />
    <glyph glyph-name="uni02FB" unicode="&#x2fb;" horiz-adv-x="701" 
d="M70 1000h183v-831h378v-169h-561v1000z" />
    <glyph glyph-name="uni02FC" unicode="&#x2fc;" horiz-adv-x="701" 
d="M70 169h379v831h182v-1000h-561v169z" />
    <glyph glyph-name="uni02FD" unicode="&#x2fd;" horiz-adv-x="1135" 
d="M70 264h183v-264h630v264h182v-433h-995v433z" />
    <glyph glyph-name="uni02FE" unicode="&#x2fe;" horiz-adv-x="1135" 
d="M70 264h183v-264h812v-169h-995v433z" />
    <glyph glyph-name="uni02FF" unicode="&#x2ff;" horiz-adv-x="1153" 
d="M83 0l410 409l104 -106l-224 -224l700 1v-160h-700l224 -225l-104 -104z" />
    <glyph glyph-name="gravecomb" unicode="&#x300;" horiz-adv-x="599" 
d="M41 1292h221l188 -292h-158z" />
    <glyph glyph-name="acutecomb" unicode="&#x301;" horiz-adv-x="599" 
d="M587 1292l-251 -292h-159l188 292h222z" />
    <glyph glyph-name="uni0302" unicode="&#x302;" horiz-adv-x="599" 
d="M200 1304h202l263 -304h-198l-164 201l-167 -201h-199z" />
    <glyph glyph-name="tildecomb" unicode="&#x303;" horiz-adv-x="599" 
d="M131 1285q59 0 99.5 -22t72.5 -50t63.5 -49.5t71.5 -21.5q43 0 68.5 36t25.5 98h134q0 -130 -58.5 -207t-155.5 -77q-62 0 -103.5 21.5t-72 49.5t-59 49.5t-63.5 21.5q-40 0 -63 -36.5t-23 -97.5h-139q0 133 53.5 209t148.5 76z" />
    <glyph glyph-name="uni0304" unicode="&#x304;" horiz-adv-x="599" 
d="M-23 1193h646v-161h-646v161z" />
    <glyph glyph-name="uni0305" unicode="&#x305;" horiz-adv-x="0" 
d="M-1075 1664h1175v-161h-1175v161z" />
    <glyph glyph-name="uni0306" unicode="&#x306;" horiz-adv-x="599" 
d="M662 1285q-15 -131 -110 -210.5t-244 -79.5q-152 0 -248.5 79.5t-111.5 210.5h175q21 -151 185 -151q159 0 180 151h174z" />
    <glyph glyph-name="uni0307" unicode="&#x307;" horiz-adv-x="599" 
d="M196 1220h226v-220h-226v220z" />
    <glyph glyph-name="uni0308" unicode="&#x308;" horiz-adv-x="599" 
d="M386 1210h219v-198h-219v198zM6 1210h219v-198h-219v198z" />
    <glyph glyph-name="hookabovecomb" unicode="&#x309;" horiz-adv-x="599" 
d="M229 1000q0 42 25.5 72.5t77.5 69.5q36 24 54 43t18 40q0 30 -21 47t-57 17q-82 0 -96 -76h-158q31 192 258 192q102 0 164 -48.5t62 -130.5q0 -45 -23.5 -73.5t-70.5 -58.5q-39 -24 -60.5 -44t-21.5 -50h-151z" />
    <glyph glyph-name="uni030A" unicode="&#x30a;" horiz-adv-x="599" 
d="M545 1193q0 -96 -64.5 -155t-168.5 -59q-106 0 -171 59t-65 155q0 97 64.5 155.5t169.5 58.5t170 -58.5t65 -155.5zM210 1193q0 -44 27 -69.5t75 -25.5q46 0 72 25.5t26 69.5q0 95 -100 95q-46 0 -73 -25t-27 -70z" />
    <glyph glyph-name="uni030B" unicode="&#x30b;" horiz-adv-x="599" 
d="M786 1292l-252 -292h-158l188 292h222zM430 1292l-250 -292h-159l188 292h221z" />
    <glyph glyph-name="uni030C" unicode="&#x30c;" horiz-adv-x="599" 
d="M413 1000h-202l-263 304h198l164 -201l167 201h200z" />
    <glyph glyph-name="uni030D" unicode="&#x30d;" horiz-adv-x="652" 
d="M375 1322v-322h-130v322h130z" />
    <glyph glyph-name="uni030F" unicode="&#x30f;" horiz-adv-x="599" 
d="M-177 1292h223l188 -292h-159zM179 1292h221l188 -292h-158z" />
    <glyph glyph-name="uni0311" unicode="&#x311;" horiz-adv-x="599" 
d="M-57 1000q15 131 110 210.5t244 79.5q152 0 248.5 -79.5t111.5 -210.5h-175q-21 151 -185 151q-159 0 -180 -151h-174z" />
    <glyph glyph-name="uni0312" unicode="&#x312;" horiz-adv-x="599" 
d="M425 1000h-233v278q0 115 58 166.5t142 51.5h53v-108h-29q-60 0 -92.5 -25t-32.5 -97v-30h134v-236z" />
    <glyph glyph-name="uni0313" unicode="&#x313;" horiz-adv-x="599" 
d="M214 1496h233v-278q0 -115 -58 -166.5t-142 -51.5h-53v109h30q59 0 91.5 24.5t32.5 96.5v32h-134v234z" />
    <glyph glyph-name="uni0315" unicode="&#x315;" horiz-adv-x="599" 
d="M312 1440h186l-73 -440h-177z" />
    <glyph glyph-name="uni0318" unicode="&#x318;" horiz-adv-x="652" 
d="M463 -355h-409v113h409v123h136v-355h-136v119z" />
    <glyph glyph-name="uni0319" unicode="&#x319;" horiz-adv-x="652" 
d="M190 -238h409v-113h-409v-123h-136v355h136v-119z" />
    <glyph glyph-name="uni031A" unicode="&#x31a;" horiz-adv-x="755" 
d="M428 1278h-330v146h486v-431h-156v285z" />
    <glyph glyph-name="uni031B" unicode="&#x31b;" horiz-adv-x="599" 
d="M152 1096h151q54 0 90 26.5t36 110.5v83h168v-95q0 -99 -41 -155.5t-103 -79.5t-126 -23h-175v133z" />
    <glyph glyph-name="uni031C" unicode="&#x31c;" horiz-adv-x="652" 
d="M437 -244q-77 0 -119.5 -34t-42.5 -95q0 -62 43 -96t121 -34v-136q-141 0 -226.5 73t-85.5 193q0 119 85 192.5t225 73.5v-137z" />
    <glyph glyph-name="uni031D" unicode="&#x31d;" horiz-adv-x="652" 
d="M394 -327h205v-114h-545v114h205v208h135v-208z" />
    <glyph glyph-name="uni031E" unicode="&#x31e;" horiz-adv-x="652" 
d="M258 -232h-204v113h545v-113h-205v-209h-136v209z" />
    <glyph glyph-name="uni031F" unicode="&#x31f;" horiz-adv-x="652" 
d="M394 -241h205v-113h-205v-120h-135v120h-205v113h205v122h135v-122z" />
    <glyph glyph-name="uni0320" unicode="&#x320;" horiz-adv-x="652" 
d="M54 -290v113h545v-113h-545z" />
    <glyph glyph-name="dotbelowcomb" unicode="&#x323;" horiz-adv-x="581" 
d="M177 -127h225v-220h-225v220z" />
    <glyph glyph-name="uni0324" unicode="&#x324;" horiz-adv-x="581" 
d="M371 -127h219v-199h-219v199zM-9 -127h219v-199h-219v199z" />
    <glyph glyph-name="uni0325" unicode="&#x325;" horiz-adv-x="652" 
d="M561 -288q0 -97 -64 -156t-168 -59q-107 0 -172 59t-65 156q0 96 64.5 155t170.5 59q105 0 169.5 -59t64.5 -155zM226 -288q0 -44 27.5 -69.5t75.5 -25.5q46 0 71.5 25.5t25.5 69.5q0 94 -99 94q-47 0 -74 -25t-27 -69z" />
    <glyph glyph-name="uni0326" unicode="&#x326;" horiz-adv-x="599" 
d="M200 -76h234v-263q0 -115 -58 -166.5t-141 -51.5h-54v109h29q59 0 92 24.5t33 96.5v31h-135v220z" />
    <glyph glyph-name="uni0327" unicode="&#x327;" horiz-adv-x="599" 
d="M262 20h124l-38 -104h15q74 0 120.5 -50t46.5 -130q0 -81 -53 -129t-143 -48h-165v129h145q71 0 71 59q0 60 -70 60h-53l-47 66z" />
    <glyph glyph-name="uni0328" unicode="&#x328;" horiz-adv-x="599" 
d="M392 0q-98 -82 -130.5 -128t-32.5 -92q0 -106 140 -106h93v-167h-109q-132 0 -211.5 62t-79.5 166q0 82 49.5 148t149.5 148z" />
    <glyph glyph-name="uni0329" unicode="&#x329;" horiz-adv-x="652" 
d="M391 -119v-322h-129v322h129z" />
    <glyph glyph-name="uni032A" unicode="&#x32a;" horiz-adv-x="1135" 
d="M942 -511h-172v220h-412v-220h-170v370h754v-370z" />
    <glyph glyph-name="uni032C" unicode="&#x32c;" horiz-adv-x="599" 
d="M432 -420h-201l-263 304h198l164 -201l166 201h200z" />
    <glyph glyph-name="uni032F" unicode="&#x32f;" horiz-adv-x="599" 
d="M-34 -422q15 131 109.5 210.5t244.5 79.5q151 0 248 -79.5t111 -210.5h-175q-21 151 -184 151q-160 0 -180 -151h-174z" />
    <glyph glyph-name="uni0330" unicode="&#x330;" horiz-adv-x="599" 
d="M195 -104q60 0 98.5 -26t69.5 -55q22 -22 44 -40.5t51 -18.5q43 0 68 34.5t25 93.5h131q0 -134 -57 -211t-157 -77q-54 0 -90.5 21t-63.5 48q-25 25 -47.5 48t-51.5 23q-40 0 -63.5 -36t-23.5 -96h-136q0 139 53.5 215.5t149.5 76.5z" />
    <glyph glyph-name="uni0334" unicode="&#x334;" horiz-adv-x="687" 
d="M203 881q60 0 98 -26.5t70 -54.5q22 -22 43.5 -40.5t51.5 -18.5q43 0 67.5 34.5t24.5 93.5h132q0 -134 -57 -211t-158 -77q-54 0 -89 22t-64 47q-26 25 -48 48t-51 23q-41 0 -64.5 -36t-23.5 -96h-135q0 139 53 215.5t150 76.5z" />
    <glyph glyph-name="uni0339" unicode="&#x339;" horiz-adv-x="652" 
d="M204 -503q77 0 119.5 34t42.5 95q0 62 -43 96t-121 34v137q140 0 226 -73.5t86 -193.5q0 -119 -85.5 -192t-224.5 -73v136z" />
    <glyph glyph-name="uni033A" unicode="&#x33a;" horiz-adv-x="1135" 
d="M194 -141h171v-219h406v219h171v-370h-748v370z" />
    <glyph glyph-name="uni033B" unicode="&#x33b;" horiz-adv-x="1135" 
d="M347 -103h447v-430h-447v430zM496 -239v-155h149v155h-149z" />
    <glyph glyph-name="uni033C" unicode="&#x33c;" horiz-adv-x="1135" 
d="M568 -245q71 174 220 174q96 0 155 -72.5t64 -197.5h-144q-1 66 -22 102.5t-58 36.5q-43 0 -71.5 -39t-55.5 -132h-175q-27 93 -56 132t-72 39q-37 0 -58 -36.5t-22 -102.5h-143q5 125 63.5 197.5t154.5 72.5q149 0 220 -174z" />
    <glyph glyph-name="uni033D" unicode="&#x33d;" horiz-adv-x="625" 
d="M309 1347l174 177l99 -99l-174 -176l177 -176l-102 -102l-177 179l-177 -179l-99 100l179 177l-179 177l102 101z" />
    <glyph glyph-name="uni0346" unicode="&#x346;" horiz-adv-x="599" 
d="M682 1000h-172v219h-412v-219h-171v370h755v-370z" />
    <glyph glyph-name="uni0351" unicode="&#x351;" horiz-adv-x="599" 
d="M441 1382q-77 0 -119.5 -34t-42.5 -95q0 -62 43 -96t121 -34v-137q-141 0 -227 73.5t-86 193.5q0 119 85.5 192t225.5 73v-136z" />
    <glyph glyph-name="uni0357" unicode="&#x357;" horiz-adv-x="599" 
d="M161 1123q76 0 118.5 34t42.5 95q0 62 -43 96t-120 34v136q140 0 226 -73t86 -193q0 -119 -85.5 -192.5t-224.5 -73.5v137z" />
    <glyph glyph-name="uni035C" unicode="&#x35c;" horiz-adv-x="0" 
d="M898 -225q-47 -129 -170 -218t-308.5 -135.5t-419.5 -46.5q-233 0 -419 46.5t-309.5 136t-168.5 217.5h215q69 -133 240.5 -193t442.5 -60q272 0 441 59t240 194h216z" />
    <glyph glyph-name="uni0361" unicode="&#x361;" horiz-adv-x="0" 
d="M-897 1500q46 129 169 218.5t308.5 135.5t419.5 46q233 0 419 -46.5t309.5 -136t169.5 -217.5h-216q-69 134 -240.5 194t-442.5 60q-272 0 -441 -59.5t-240 -194.5h-215z" />
    <glyph glyph-name="beta" unicode="&#x3b2;" horiz-adv-x="1148" 
d="M650 -17q-102 0 -190.5 34.5t-150.5 95.5v-439h-207v1261q0 143 62 251.5t172 169t256 60.5q121 0 220.5 -51t158.5 -137t59 -191t-52 -184t-144 -121q109 -45 171 -134.5t62 -210.5t-52.5 -212t-146 -141.5t-218.5 -50.5zM592 1236q-132 0 -207.5 -84.5t-75.5 -230.5
v-515q0 -102 84 -167.5t216 -65.5q120 0 187 62t67 173q0 112 -63 173t-178 61h-143v175h143q97 0 150.5 54.5t53.5 155.5q0 90 -66.5 149.5t-167.5 59.5z" />
    <glyph glyph-name="theta" unicode="&#x3b8;" horiz-adv-x="1276" 
d="M83 635q0 324 147 504.5t410 180.5q262 0 408.5 -180.5t146.5 -504.5q0 -307 -146.5 -479t-408.5 -172q-264 0 -410.5 172t-146.5 479zM640 1146q-322 0 -352 -423h701q-30 423 -349 423zM640 159q323 0 349 402h-701q26 -402 352 -402z" />
    <glyph glyph-name="pi" unicode="&#x3c0;" horiz-adv-x="1234" 
d="M65 1000h1103v-191h-167v-499q0 -67 27 -97.5t87 -30.5h47v-182h-69q-138 0 -217 79t-79 219v511h-354v-809h-204v809h-174v191z" />
    <glyph glyph-name="chi" unicode="&#x3c7;" horiz-adv-x="1004" 
d="M36 1000h224l243 -542l241 542h224l-301 -662l301 -664h-224l-243 541l-241 -541h-224l301 664z" />
    <glyph glyph-name="uni0400" unicode="&#x400;" horiz-adv-x="1117" 
d="M301 1692h221l188 -292h-158zM1037 1301v-195h-728v-352h671v-183h-671v-378h728v-193h-935v1301h935z" />
    <glyph glyph-name="uni0401" unicode="&#x401;" horiz-adv-x="1117" 
d="M646 1610h219v-198h-219v198zM266 1610h219v-198h-219v198zM1037 1301v-195h-728v-352h671v-183h-671v-378h728v-193h-935v1301h935z" />
    <glyph glyph-name="uni0402" unicode="&#x402;" horiz-adv-x="1495" 
d="M1199 411q0 125 -72 183t-196 58q-99 0 -182 -38.5t-144 -86.5v-527h-206v1115h-364v186h1176v-186h-606v-404q71 56 166.5 90t206.5 34q190 0 310 -112t120 -314q0 -186 -111 -297.5t-295 -111.5h-154v175h111q115 0 177.5 61t62.5 175z" />
    <glyph glyph-name="uni0403" unicode="&#x403;" horiz-adv-x="1040" 
d="M832 1692l-251 -292h-159l187 292h223zM977 1301v-193h-668v-1108h-207v1301h875z" />
    <glyph glyph-name="uni0404" unicode="&#x404;" horiz-adv-x="1333" 
d="M83 653q0 201 76.5 351t215 233t324.5 83q154 0 274 -55t194.5 -156t93.5 -240h-211q-23 132 -114.5 202.5t-241.5 70.5q-173 0 -275.5 -100t-121.5 -298h599v-177h-600q18 -202 120.5 -303t276.5 -101q150 0 241.5 72t115.5 207h211q-39 -215 -188 -336.5t-376 -121.5
q-185 0 -323 83.5t-214.5 234t-76.5 351.5z" />
    <glyph glyph-name="uni0405" unicode="&#x405;" horiz-adv-x="1183" 
d="M659 550l-180 20q-184 20 -285 112t-101 248q0 179 130.5 283.5t355.5 104.5q216 0 350 -110.5t153 -303.5h-209q-19 121 -91 179.5t-205 58.5q-126 0 -201.5 -56.5t-75.5 -149.5q0 -77 53 -117.5t166 -56.5l170 -21q414 -47 414 -377q0 -115 -60 -200.5t-168 -132.5
t-252 -47q-237 0 -379.5 114t-162.5 304h212q39 -240 332 -240q121 0 195.5 55.5t74.5 148.5q0 158 -236 184z" />
    <glyph glyph-name="uni0406" unicode="&#x406;" 
d="M100 1301h207v-1301h-207v1301z" />
    <glyph glyph-name="uni0407" unicode="&#x407;" 
d="M281 1610h218v-198h-218v198zM-99 1610h219v-198h-219v198zM100 1301h207v-1301h-207v1301z" />
    <glyph glyph-name="uni0408" unicode="&#x408;" horiz-adv-x="683" 
d="M45 186h81q76 0 132 25t87.5 87.5t31.5 174.5v828h204v-847q0 -160 -57 -260.5t-152.5 -147t-210.5 -46.5h-116v186z" />
    <glyph glyph-name="uni0409" unicode="&#x409;" horiz-adv-x="2034" 
d="M30 0v197q67 0 111.5 20t72.5 81t43 182t21 321t9 500h886v-439h315q139 0 244 -54.5t163.5 -152t58.5 -226.5t-58 -225.5t-162 -150t-243 -53.5h-524v1106h-483q-3 -281 -15 -476t-39.5 -319t-78 -191.5t-129 -93.5t-192.5 -26zM1465 182q132 0 204.5 65t72.5 182
q0 116 -73.5 181.5t-203.5 65.5h-292v-494h292z" />
    <glyph glyph-name="uni040A" unicode="&#x40a;" horiz-adv-x="1931" 
d="M102 1301h207v-486h560v486h206v-486h345q130 0 228.5 -51t153 -143t54.5 -214t-54 -213.5t-151.5 -142.5t-227.5 -51h-554v620h-560v-620h-207v1301zM1397 182q117 0 182 59t65 166q0 105 -65.5 164t-181.5 59h-322v-448h322z" />
    <glyph glyph-name="uni040B" unicode="&#x40b;" horiz-adv-x="1499" 
d="M1192 377q0 139 -75.5 203.5t-206.5 64.5q-98 0 -175.5 -36.5t-129.5 -81.5v-527h-206v1115h-364v186h1176v-186h-606v-407q70 57 164 92t204 35q188 0 306 -110.5t118 -311.5v-413h-205v377z" />
    <glyph glyph-name="uni040C" unicode="&#x40c;" horiz-adv-x="1172" 
d="M893 1692l-251 -292h-159l187 292h223zM102 0v1301h207v-532h205l372 532h238l-434 -624l460 -677h-241l-393 575h-207v-575h-207z" />
    <glyph glyph-name="uni040D" unicode="&#x40d;" horiz-adv-x="1271" 
d="M380 1692h221l188 -292h-159zM307 1301v-963l652 963h210v-1301h-206v987l-668 -987h-193v1301h205z" />
    <glyph glyph-name="uni040E" unicode="&#x40e;" horiz-adv-x="1169" 
d="M938 1689q-14 -133 -109 -213.5t-246 -80.5q-153 0 -249.5 80.5t-109.5 213.5h175q18 -159 184 -159q162 0 180 159h175zM183 188h135q64 0 100.5 23.5t61.5 86.5l19 47l-463 956h225l349 -743l311 743h224l-442 -1034q-41 -97 -87.5 -155.5t-113.5 -85t-168 -26.5h-151
v188z" />
    <glyph glyph-name="uni040F" unicode="&#x40f;" horiz-adv-x="1238" 
d="M517 0h-415v1301h205v-1107h624v1107h207v-1301h-415v-326h-206v326z" />
    <glyph glyph-name="uni0410" unicode="&#x410;" horiz-adv-x="1300" 
d="M1264 0h-218l-116 312h-559l-114 -312h-221l499 1301h233zM647 1071l-214 -588h433z" />
    <glyph glyph-name="uni0411" unicode="&#x411;" horiz-adv-x="1194" 
d="M102 0v1301h897v-184h-690v-331h416q123 0 211.5 -50t136.5 -138t48 -203q0 -119 -52.5 -208t-147.5 -138t-222 -49h-597zM679 181q112 0 171.5 56.5t59.5 158.5q0 100 -60 155.5t-171 55.5h-370v-426h370z" />
    <glyph glyph-name="uni0412" unicode="&#x412;" horiz-adv-x="1235" 
d="M732 1301q114 0 199.5 -41.5t133.5 -116t48 -172.5q0 -101 -51 -178t-139 -116q112 -39 177.5 -127.5t65.5 -207.5q0 -153 -104 -247.5t-274 -94.5h-686v1301h630zM708 1121h-399v-369h399q93 0 143.5 51.5t50.5 139.5q0 83 -50.5 130.5t-143.5 47.5zM719 572h-410v-393
h433q98 0 155.5 50.5t57.5 138.5q0 95 -63 149.5t-173 54.5z" />
    <glyph glyph-name="uni0413" unicode="&#x413;" horiz-adv-x="1040" 
d="M977 1301v-193h-668v-1108h-207v1301h875z" />
    <glyph glyph-name="uni0414" unicode="&#x414;" horiz-adv-x="1397" 
d="M30 -326v521h113q40 58 65.5 136t40.5 200t22 308.5t9 461.5h890v-1106h189v-521h-202v326h-924v-326h-203zM359 195h605v911h-488q-1 -209 -8.5 -357.5t-21.5 -251.5t-35.5 -175t-51.5 -127z" />
    <glyph glyph-name="uni0415" unicode="&#x415;" horiz-adv-x="1117" 
d="M1037 1301v-195h-728v-352h671v-183h-671v-378h728v-193h-935v1301h935z" />
    <glyph glyph-name="uni0416" unicode="&#x416;" horiz-adv-x="1853" 
d="M823 0v575h-192l-366 -575h-239l436 676l-409 625h235l345 -532h190v532h207v-532h191l345 532h235l-410 -625l437 -676h-240l-366 575h-192v-575h-207z" />
    <glyph glyph-name="uni0417" unicode="&#x417;" horiz-adv-x="1188" 
d="M614 -16q-228 0 -369 115.5t-162 320.5h210q37 -259 318 -259q134 0 211.5 55.5t77.5 162.5q0 89 -60 140.5t-164 51.5h-234v178h224q209 0 209 177q0 103 -72.5 159.5t-203.5 56.5q-263 0 -299 -257h-207q19 206 152.5 319.5t357.5 113.5q145 0 252.5 -47t167 -131.5
t59.5 -199.5q0 -194 -180 -277q205 -81 205 -294q0 -116 -61 -203t-172 -134.5t-260 -47.5z" />
    <glyph glyph-name="uni0418" unicode="&#x418;" horiz-adv-x="1271" 
d="M307 1301v-963l652 963h210v-1301h-206v987l-668 -987h-193v1301h205z" />
    <glyph glyph-name="uni0419" unicode="&#x419;" horiz-adv-x="1271" 
d="M998 1688q-14 -132 -108.5 -212.5t-246.5 -80.5t-249 80.5t-110 212.5h175q18 -158 184 -158q162 0 181 158h174zM307 1301v-963l652 963h210v-1301h-206v987l-668 -987h-193v1301h205z" />
    <glyph glyph-name="uni041A" unicode="&#x41a;" horiz-adv-x="1172" 
d="M102 0v1301h207v-532h205l372 532h238l-434 -624l460 -677h-241l-393 575h-207v-575h-207z" />
    <glyph glyph-name="uni041B" unicode="&#x41b;" horiz-adv-x="1275" 
d="M30 0v197q67 0 111.5 20t72.5 81t43 182t21 321t9 500h886v-1301h-205v1106h-484q-3 -281 -15 -476t-39.5 -319t-78 -191.5t-129 -93.5t-192.5 -26z" />
    <glyph glyph-name="uni041C" unicode="&#x41c;" horiz-adv-x="1593" 
d="M891 0h-189l-393 1012v-1012h-207v1301h300l396 -1014l386 1014h308v-1301h-205v1012z" />
    <glyph glyph-name="uni041D" unicode="&#x41d;" horiz-adv-x="1256" 
d="M102 1301h207v-532h641v532h204v-1301h-204v575h-641v-575h-207v1301z" />
    <glyph glyph-name="uni041E" unicode="&#x41e;" horiz-adv-x="1398" 
d="M83 635q0 206 77 360t216 239.5t325 85.5q185 0 323.5 -85.5t216 -239.5t77.5 -360q0 -195 -77.5 -341.5t-216 -228t-323.5 -81.5q-186 0 -325 81.5t-216 228t-77 341.5zM1107 635q0 235 -107 365.5t-299 130.5q-194 0 -301 -130.5t-107 -365.5q0 -218 107 -339.5
t301 -121.5q192 0 299 121.5t107 339.5z" />
    <glyph glyph-name="uni041F" unicode="&#x41f;" horiz-adv-x="1257" 
d="M102 1301h1053v-1301h-205v1106h-641v-1106h-207v1301z" />
    <glyph glyph-name="uni0420" unicode="&#x420;" horiz-adv-x="1204" 
d="M687 444h-378v-444h-207v1301h565q139 0 243.5 -53.5t162.5 -150.5t58 -226q0 -124 -54.5 -221t-154.5 -151.5t-235 -54.5zM649 1119h-340v-489h340q127 0 199 63.5t72 177.5q0 118 -71.5 183t-199.5 65z" />
    <glyph glyph-name="uni0421" unicode="&#x421;" horiz-adv-x="1343" 
d="M83 654q0 200 74 350t208.5 233t314.5 83q243 0 397.5 -126.5t183.5 -351.5h-210q-19 132 -113 210.5t-256 78.5q-184 0 -286.5 -125t-102.5 -352q0 -229 102.5 -354.5t286.5 -125.5q160 0 254 79t115 213h210q-28 -230 -184 -356t-397 -126q-179 0 -313.5 84t-209 234.5
t-74.5 351.5z" />
    <glyph glyph-name="uni0422" unicode="&#x422;" horiz-adv-x="1207" 
d="M1146 1301v-195h-439v-1106h-204v1106h-440v195h1083z" />
    <glyph glyph-name="uni0423" unicode="&#x423;" horiz-adv-x="1169" 
d="M183 188h135q64 0 100.5 23.5t61.5 86.5l19 47l-463 956h225l349 -743l311 743h224l-442 -1034q-41 -97 -87.5 -155.5t-113.5 -85t-168 -26.5h-151v188z" />
    <glyph glyph-name="uni0424" unicode="&#x424;" horiz-adv-x="1667" 
d="M83 652q0 167 80.5 291.5t226.5 194.5t342 71v119h203v-119q196 -1 342 -71t226.5 -195t80.5 -291t-80.5 -291t-226.5 -195t-342 -72v-121h-203v121q-196 2 -342 72t-226.5 195t-80.5 291zM296 652q0 -176 115 -275t321 -102v754q-206 -3 -321 -102t-115 -275zM1371 652
q0 175 -115 274.5t-321 102.5v-754q206 3 321 102.5t115 274.5z" />
    <glyph glyph-name="uni0425" unicode="&#x425;" horiz-adv-x="1188" 
d="M36 1301h237l323 -545l319 545h237l-387 -653l387 -648h-236l-323 542l-319 -542h-238l389 650z" />
    <glyph glyph-name="uni0426" unicode="&#x426;" horiz-adv-x="1347" 
d="M1308 194v-520h-201v326h-1005v1301h205v-1107h606v1107h207v-1107h188z" />
    <glyph glyph-name="uni0427" unicode="&#x427;" horiz-adv-x="1203" 
d="M306 938q0 -279 299 -279q90 0 167 27t123 72v543h206v-1301h-206v570q-69 -47 -159.5 -74t-186.5 -27q-207 0 -328 119t-121 322v391h206v-363z" />
    <glyph glyph-name="uni0428" unicode="&#x428;" horiz-adv-x="1761" 
d="M984 194h469v1107h206v-1301h-1557v1301h205v-1107h471v1107h206v-1107z" />
    <glyph glyph-name="uni0429" unicode="&#x429;" horiz-adv-x="1887" 
d="M984 194h469v1107h206v-1107h189v-520h-201v326h-1545v1301h205v-1107h470v1107h207v-1107z" />
    <glyph glyph-name="uni042A" unicode="&#x42a;" horiz-adv-x="1490" 
d="M400 0v1115h-365v186h571v-434h359q140 0 241.5 -55.5t156.5 -153t55 -224.5q0 -130 -56 -228t-157.5 -152t-237.5 -54h-567zM606 182h328q131 0 201.5 66t70.5 186q0 117 -71 182t-201 65h-328v-499z" />
    <glyph glyph-name="uni042B" unicode="&#x42b;" horiz-adv-x="1539" 
d="M1232 1301h206v-1301h-206v1301zM643 873q141 0 243 -55.5t157.5 -154t55.5 -226.5q0 -131 -58.5 -229.5t-163.5 -153t-247 -54.5h-528v1301h207v-428h334zM608 183q135 0 207 67t72 188q0 118 -72.5 183.5t-206.5 65.5h-299v-504h299z" />
    <glyph glyph-name="uni042C" unicode="&#x42c;" horiz-adv-x="1200" 
d="M664 867q142 0 246 -55.5t160.5 -153t56.5 -224.5q0 -130 -57 -227.5t-160.5 -152t-243.5 -54.5h-564v1301h207v-434h355zM640 182q133 0 204.5 66t71.5 186q0 117 -72 182t-204 65h-331v-499h331z" />
    <glyph glyph-name="uni042D" unicode="&#x42d;" horiz-adv-x="1333" 
d="M1251 653q0 -201 -76.5 -351.5t-215 -234t-323.5 -83.5q-227 0 -376 121.5t-187 336.5h210q24 -135 115.5 -207t241.5 -72q174 0 276.5 101t120.5 303h-600v177h599q-19 198 -121.5 298t-275.5 100q-150 0 -241.5 -70.5t-114.5 -202.5h-210q18 139 93 240t194.5 156
t273.5 55q186 0 324.5 -83t215.5 -233t77 -351z" />
    <glyph glyph-name="uni042E" unicode="&#x42e;" horiz-adv-x="1853" 
d="M1770 635q0 -195 -76 -341.5t-213.5 -228t-319.5 -81.5q-175 0 -307.5 73t-211.5 206t-91 312h-242v-575h-207v1301h207v-532h250q23 168 103.5 292t207.5 191.5t291 67.5q182 0 319.5 -85.5t213.5 -239.5t76 -360zM1560 635q0 235 -105 365.5t-294 130.5
q-192 0 -297 -130.5t-105 -365.5q0 -218 105 -339.5t297 -121.5q189 0 294 121.5t105 339.5z" />
    <glyph glyph-name="uni042F" unicode="&#x42f;" horiz-adv-x="1175" 
d="M594 474q-139 0 -205 -51.5t-79 -165.5l-31 -257h-201l31 280q14 122 70 187t174 85q-124 33 -197 125.5t-73 224.5q0 180 109.5 289.5t314.5 109.5h566v-1301h-206v474h-273zM539 1125q-115 0 -180 -63.5t-65 -178.5q0 -111 65 -173t180 -62h328v477h-328z" />
    <glyph glyph-name="uni0430" unicode="&#x430;" horiz-adv-x="1053" 
d="M951 643v-643h-206v147q-102 -170 -332 -170q-98 0 -174.5 38.5t-119.5 106.5t-43 155q0 131 86.5 206.5t248.5 87.5l282 22q52 3 52 48v23q0 91 -59.5 146.5t-161.5 55.5q-193 0 -213 -190h-213q7 104 63 182.5t150 122.5t214 44q126 0 222.5 -48.5t150 -134.5
t53.5 -199zM284 291q0 -68 52 -108.5t141 -40.5q119 0 193.5 74t74.5 194v35l-300 -19q-161 -11 -161 -135z" />
    <glyph glyph-name="uni0431" unicode="&#x431;" horiz-adv-x="1158" 
d="M79 626q0 375 142 556t452 203l332 24v-184l-316 -23q-146 -10 -237.5 -56t-137.5 -140t-56 -248q59 108 158 165.5t220 57.5q132 0 232 -64t156 -176.5t56 -257.5q0 -152 -62 -265t-173 -175.5t-259 -62.5q-160 0 -273 73t-173.5 207t-60.5 317v49zM586 155
q130 0 204.5 86.5t74.5 241.5q0 152 -74 239t-204 87t-208.5 -87.5t-78.5 -238.5q0 -150 76 -239t210 -89z" />
    <glyph glyph-name="uni0432" unicode="&#x432;" horiz-adv-x="1058" 
d="M813 504q164 -69 164 -231q0 -123 -86.5 -198t-227.5 -75h-561v1000h546q137 0 223.5 -77.5t86.5 -202.5q0 -152 -145 -216zM616 578q63 0 96.5 33.5t33.5 92.5q0 65 -37.5 100.5t-105.5 35.5h-288v-262h301zM613 160q73 0 113.5 33.5t40.5 96.5q0 65 -39.5 101.5
t-111.5 36.5h-301v-268h298z" />
    <glyph glyph-name="uni0433" unicode="&#x433;" horiz-adv-x="875" 
d="M813 1000v-186h-504v-814h-207v1000h711z" />
    <glyph glyph-name="uni0434" unicode="&#x434;" horiz-adv-x="1210" 
d="M27 -316v498h105q29 47 47.5 106t30 149t17.5 226t9 337h770v-818h168v-498h-201v316h-743v-316h-203zM337 182h465v636h-380q-3 -187 -11.5 -305t-26 -193.5t-47.5 -137.5z" />
    <glyph glyph-name="uni0435" unicode="&#x435;" horiz-adv-x="1120" 
d="M76 497q0 161 60.5 280t171 184.5t258.5 65.5q140 0 248.5 -65.5t170.5 -182.5t62 -273v-61h-763q26 -299 293 -299q104 0 167 46.5t80 124.5h210q-31 -161 -146 -250.5t-309 -89.5q-233 0 -368 139.5t-135 380.5zM560 857q-239 0 -273 -264h539q-10 121 -82.5 192.5
t-183.5 71.5z" />
    <glyph glyph-name="uni0436" unicode="&#x436;" horiz-adv-x="1569" 
d="M681 1000h207v-390h149l259 390h231l-321 -478l341 -522h-237l-273 423h-149v-423h-207v423h-149l-273 -423h-237l341 522l-321 478h230l259 -390h150v390z" />
    <glyph glyph-name="uni0437" unicode="&#x437;" horiz-adv-x="1052" 
d="M814 502q75 -31 115.5 -87t40.5 -131q0 -90 -54 -158.5t-151 -106.5t-225 -38q-130 0 -230 44t-159.5 124.5t-67.5 187.5h210q6 -90 71.5 -140.5t175.5 -50.5q104 0 162 40t58 113q0 60 -39.5 93t-110.5 33h-201v153h201q63 0 98.5 32t35.5 90q0 75 -56.5 118t-155.5 43
q-103 0 -164 -52.5t-64 -144.5h-210q13 164 132.5 262.5t306.5 98.5q124 0 219 -40.5t148.5 -111.5t53.5 -163q0 -145 -140 -208z" />
    <glyph glyph-name="uni0438" unicode="&#x438;" horiz-adv-x="1091" 
d="M303 1000v-690l491 690h195v-1000h-202v707l-501 -707h-184v1000h201z" />
    <glyph glyph-name="uni0439" unicode="&#x439;" horiz-adv-x="1091" 
d="M907 1408q-14 -132 -108.5 -212.5t-245.5 -80.5q-153 0 -250 80.5t-110 212.5h175q19 -158 185 -158q161 0 180 158h174zM303 1000v-690l491 690h195v-1000h-202v707l-501 -707h-184v1000h201z" />
    <glyph glyph-name="uni043A" unicode="&#x43a;" horiz-adv-x="1036" 
d="M102 1000h207v-390h162l269 390h237l-337 -481l359 -519h-235l-292 423h-163v-423h-207v1000z" />
    <glyph glyph-name="uni043B" unicode="&#x43b;" horiz-adv-x="1115" 
d="M254 1000h766v-1000h-205v820h-373q-3 -268 -23 -431t-65 -247.5t-120.5 -114t-188.5 -29.5v193q50 0 85 13t58 55.5t36.5 130.5t20.5 236.5t9 373.5z" />
    <glyph glyph-name="uni043C" unicode="&#x43c;" horiz-adv-x="1366" 
d="M760 0h-153l-314 732v-732h-191v1000h263l319 -728l313 728h268v-1000h-189v732z" />
    <glyph glyph-name="uni043D" unicode="&#x43d;" horiz-adv-x="1080" 
d="M102 1000h207v-405h464v405h205v-1000h-205v408h-464v-408h-207v1000z" />
    <glyph glyph-name="uni043E" unicode="&#x43e;" horiz-adv-x="1122" 
d="M76 504q0 158 61 275.5t170.5 182.5t254.5 65t254 -65t169.5 -182.5t60.5 -275.5t-60.5 -276.5t-169.5 -184.5t-254 -66t-254.5 66t-170.5 184.5t-61 276.5zM835 504q0 162 -71.5 251.5t-201.5 89.5q-131 0 -203.5 -89.5t-72.5 -251.5q0 -164 72.5 -254.5t203.5 -90.5
q130 0 201.5 90.5t71.5 254.5z" />
    <glyph glyph-name="uni043F" unicode="&#x43f;" horiz-adv-x="1079" 
d="M102 1000h877v-1000h-205v813h-465v-813h-207v1000z" />
    <glyph glyph-name="uni0440" unicode="&#x440;" horiz-adv-x="1145" 
d="M100 1000h207v-173q52 95 136.5 147.5t193.5 52.5q128 0 224.5 -65t150 -182.5t53.5 -275.5t-53.5 -276.5t-150 -184.5t-224.5 -66q-109 0 -193.5 53t-136.5 149v-505h-207v1326zM854 504q0 162 -71.5 251.5t-201.5 89.5q-131 0 -202.5 -89.5t-71.5 -251.5
q0 -164 71.5 -254.5t202.5 -90.5q130 0 201.5 90.5t71.5 254.5z" />
    <glyph glyph-name="uni0441" unicode="&#x441;" horiz-adv-x="1100" 
d="M76 504q0 158 60.5 275.5t169.5 182.5t254 65q131 0 235 -50t166.5 -142.5t67.5 -218.5h-210q-4 110 -74.5 169.5t-184.5 59.5q-131 0 -202.5 -89t-71.5 -252q0 -164 72 -254.5t202 -90.5q113 0 183 54.5t76 157.5h210q-8 -123 -70.5 -211.5t-165.5 -135.5t-233 -47
q-144 0 -253.5 66t-170 184.5t-60.5 276.5z" />
    <glyph glyph-name="uni0442" unicode="&#x442;" horiz-adv-x="1014" 
d="M964 1000v-186h-354v-814h-206v814h-354v186h914z" />
    <glyph glyph-name="uni0443" unicode="&#x443;" horiz-adv-x="1069" 
d="M104 -144h109q80 0 122.5 25t67.5 88l21 54l-388 977h219l286 -765l276 765h216l-403 -1049q-59 -155 -151.5 -218.5t-233.5 -63.5h-141v187z" />
    <glyph glyph-name="uni0444" unicode="&#x444;" horiz-adv-x="1469" 
d="M636 1400h198v-373q171 -5 296 -70t193 -180.5t68 -272.5t-68 -274t-193 -182.5t-296 -70.5v-303h-198v303q-172 5 -297 70.5t-192.5 182.5t-67.5 274t67.5 272.5t192.5 180.5t297 70v373zM1186 504q0 159 -91.5 249t-260.5 94v-690q169 4 260.5 95t91.5 252zM283 504
q0 -161 92 -252t261 -95v690q-169 -4 -261 -94t-92 -249z" />
    <glyph glyph-name="uni0445" unicode="&#x445;" horiz-adv-x="1004" 
d="M36 1000h224l244 -393l240 393h224l-305 -501l305 -499h-224l-243 395l-241 -395h-224l304 501z" />
    <glyph glyph-name="uni0446" unicode="&#x446;" horiz-adv-x="1182" 
d="M1146 187v-503h-201v316h-843v1000h205v-813h457v813h206v-813h176z" />
    <glyph glyph-name="uni0447" unicode="&#x447;" horiz-adv-x="1066" 
d="M306 722q0 -198 227 -198q64 0 124.5 17t100.5 46v413h207v-1000h-207v411q-59 -34 -133 -54t-154 -20q-170 0 -270.5 94.5t-100.5 256.5v312h206v-278z" />
    <glyph glyph-name="uni0448" unicode="&#x448;" horiz-adv-x="1540" 
d="M102 0v1000h205v-813h360v813h207v-813h359v813h206v-1000h-1337z" />
    <glyph glyph-name="uni0449" unicode="&#x449;" horiz-adv-x="1650" 
d="M873 187h360v813h206v-813h176v-503h-201v316h-1312v1000h205v-813h360v813h206v-813z" />
    <glyph glyph-name="uni044A" unicode="&#x44a;" horiz-adv-x="1263" 
d="M317 0v814h-274v186h481v-329h297q108 0 190.5 -42.5t129 -118t46.5 -174.5q0 -154 -100.5 -245t-262.5 -91h-507zM524 167h269q89 0 138.5 43.5t49.5 123.5t-49 124t-136 44h-272v-335z" />
    <glyph glyph-name="uni044B" unicode="&#x44b;" horiz-adv-x="1325" 
d="M1018 1000h207v-1000h-207v1000zM544 652q107 0 189.5 -42t129.5 -116t47 -171q0 -149 -101 -236t-263 -87h-444v1000h210v-348h232zM516 167q88 0 136.5 41t48.5 116q0 76 -48 117.5t-135 41.5h-206v-316h204z" />
    <glyph glyph-name="uni044C" unicode="&#x44c;" horiz-adv-x="1048" 
d="M607 652q107 0 189.5 -42t129.5 -116t47 -171q0 -149 -101 -236t-263 -87h-507v1000h210v-348h295zM579 167q88 0 137 41t49 116q0 76 -48.5 117.5t-135.5 41.5h-269v-316h267z" />
    <glyph glyph-name="uni044D" unicode="&#x44d;" horiz-adv-x="1114" 
d="M1035 500q0 -158 -61.5 -275.5t-171.5 -182.5t-257 -65q-131 0 -232 46t-162 129.5t-70 194.5h203q7 -94 77 -148.5t184 -54.5q122 0 194.5 73t88.5 209h-431v153h431q-17 135 -90.5 208t-193.5 73q-111 0 -180 -53.5t-80 -148.5h-203q17 169 143 269t319 100
q148 0 258.5 -65.5t172 -184t61.5 -277.5z" />
    <glyph glyph-name="uni044E" unicode="&#x44e;" horiz-adv-x="1544" 
d="M1466 504q0 -158 -59.5 -276.5t-167 -184.5t-250.5 -66q-194 0 -321 118.5t-152 317.5h-207v-413h-207v1000h207v-400h207q27 196 154 311.5t319 115.5q143 0 250.5 -65t167 -182.5t59.5 -275.5zM1255 504q0 162 -69.5 251.5t-196.5 89.5t-198 -89.5t-71 -251.5
q0 -164 71 -254.5t198 -90.5t196.5 90.5t69.5 254.5z" />
    <glyph glyph-name="uni044F" unicode="&#x44f;" horiz-adv-x="1062" 
d="M529 316q-111 0 -166 -44.5t-66 -130.5l-18 -141h-201l17 149q13 110 60.5 170.5t143.5 81.5q-99 34 -157.5 108t-58.5 175q0 141 100.5 228.5t263.5 87.5h513v-1000h-210v316h-221zM491 829q-93 0 -143.5 -44.5t-50.5 -126.5q0 -81 50 -125.5t141 -44.5h262v341h-259z
" />
    <glyph glyph-name="uni0450" unicode="&#x450;" horiz-adv-x="1120" 
d="M286 1411h221l188 -292h-158zM76 497q0 161 60.5 280t171 184.5t258.5 65.5q140 0 248.5 -65.5t170.5 -182.5t62 -273v-61h-763q26 -299 293 -299q104 0 167 46.5t80 124.5h210q-31 -161 -146 -250.5t-309 -89.5q-233 0 -368 139.5t-135 380.5zM560 857q-239 0 -273 -264
h539q-10 121 -82.5 192.5t-183.5 71.5z" />
    <glyph glyph-name="uni0451" unicode="&#x451;" horiz-adv-x="1120" 
d="M631 1329h218v-198h-218v198zM251 1329h219v-198h-219v198zM76 497q0 161 60.5 280t171 184.5t258.5 65.5q140 0 248.5 -65.5t170.5 -182.5t62 -273v-61h-763q26 -299 293 -299q104 0 167 46.5t80 124.5h210q-31 -161 -146 -250.5t-309 -89.5q-233 0 -368 139.5
t-135 380.5zM560 857q-239 0 -273 -264h539q-10 121 -82.5 192.5t-183.5 71.5z" />
    <glyph glyph-name="uni0452" unicode="&#x452;" horiz-adv-x="1158" 
d="M853 574q0 248 -237 248q-106 0 -174 -66t-68 -168v-588h-205v1131h-161v144h161v125h205v-125h343v-144h-343v-300q51 82 134 131.5t181 49.5q170 0 269.5 -106.5t99.5 -288.5v-656q0 -155 -84 -241.5t-234 -86.5h-119v186h95q71 0 104 36t33 117v602z" />
    <glyph glyph-name="uni0453" unicode="&#x453;" horiz-adv-x="875" 
d="M749 1412l-251 -292h-159l188 292h222zM813 1000v-186h-504v-814h-207v1000h711z" />
    <glyph glyph-name="uni0454" unicode="&#x454;" horiz-adv-x="1114" 
d="M81 504q0 158 61 275.5t171.5 182.5t257.5 65q131 0 232 -48t161.5 -134t70.5 -202h-203q-7 100 -77 158.5t-184 58.5q-122 0 -195 -73.5t-88 -209.5h447v-149h-447q16 -137 89.5 -210.5t194.5 -73.5q111 0 180 53.5t80 149.5h203q-18 -170 -143.5 -270t-318.5 -100
q-148 0 -258.5 65.5t-172 184t-61.5 277.5z" />
    <glyph glyph-name="uni0455" unicode="&#x455;" horiz-adv-x="1027" 
d="M600 407l-174 19q-159 17 -239 88t-80 203q0 142 109 224.5t298 82.5q184 0 298 -88t131 -240h-202q-29 169 -227 169q-91 0 -145.5 -37.5t-54.5 -98.5q0 -60 38.5 -89t117.5 -38l174 -19q307 -35 307 -309q0 -134 -112 -214.5t-296 -80.5q-204 0 -326.5 89.5
t-140.5 237.5h212q29 -170 254 -170q93 0 150.5 35.5t57.5 96.5q0 120 -150 139z" />
    <glyph glyph-name="uni0456" unicode="&#x456;" 
d="M91 1347h226v-220h-226v220zM100 1000h207v-1000h-207v1000z" />
    <glyph glyph-name="uni0457" unicode="&#x457;" 
d="M278 1329h190v-198h-190v198zM-79 1329h197v-198h-197v198zM100 1000h207v-1000h-207v1000z" />
    <glyph glyph-name="uni0458" unicode="&#x458;" 
d="M91 1347h226v-220h-226v220zM-66 -157h62q48 0 76 25t28 97v1035h207v-1046q0 -155 -83.5 -226t-202.5 -71h-87v186z" />
    <glyph glyph-name="uni0459" unicode="&#x459;" horiz-adv-x="1761" 
d="M808 820h-366q-3 -265 -22.5 -428t-63.5 -248t-120 -115.5t-191 -30.5v193q51 0 86.5 14t58 58t36 132.5t20 236t8.5 368.5h766v-354h319q99 0 177.5 -42.5t124 -116t45.5 -165.5q0 -148 -95 -235t-257 -87h-526v820zM1299 163q84 0 130 40.5t46 116.5t-46 118.5
t-129 42.5h-280v-318h279z" />
    <glyph glyph-name="uni045A" unicode="&#x45a;" horiz-adv-x="1667" 
d="M102 1000h207v-371h426v371h213v-368h326q97 0 173.5 -42t121 -113.5t44.5 -161.5q0 -145 -93 -230t-250 -85h-535v442h-426v-442h-207v1000zM1233 163q81 0 125 39t44 110q0 73 -43.5 114t-122.5 41h-288v-304h285z" />
    <glyph glyph-name="uni045B" unicode="&#x45b;" horiz-adv-x="1158" 
d="M853 582q0 126 -64 183.5t-172 57.5q-103 0 -173 -64.5t-70 -163.5v-595h-205v1131h-161v144h161v125h205v-125h343v-144h-343v-297q55 86 141 132.5t175 46.5q161 0 265 -99.5t104 -287.5v-626h-206v582z" />
    <glyph glyph-name="uni045C" unicode="&#x45c;" horiz-adv-x="1036" 
d="M805 1412l-251 -292h-159l188 292h222zM102 1000h207v-390h162l269 390h237l-337 -481l359 -519h-235l-292 423h-163v-423h-207v1000z" />
    <glyph glyph-name="uni045D" unicode="&#x45d;" horiz-adv-x="1091" 
d="M284 1412h221l188 -292h-158zM303 1000v-690l491 690h195v-1000h-202v707l-501 -707h-184v1000h201z" />
    <glyph glyph-name="uni045E" unicode="&#x45e;" horiz-adv-x="1069" 
d="M900 1408q-14 -132 -108.5 -212.5t-245.5 -80.5q-153 0 -249.5 80.5t-110.5 212.5h176q18 -158 184 -158q162 0 180 158h174zM104 -144h109q80 0 122.5 25t67.5 88l21 54l-388 977h219l286 -765l276 765h216l-403 -1049q-59 -155 -151.5 -218.5t-233.5 -63.5h-141v187z
" />
    <glyph glyph-name="uni045F" unicode="&#x45f;" horiz-adv-x="1075" 
d="M435 0h-333v1000h205v-806h462v806h206v-1000h-334v-326h-206v326z" />
    <glyph glyph-name="uni0490" unicode="&#x490;" horiz-adv-x="1040" 
d="M786 1601h191v-493h-668v-1108h-207v1301h684v300z" />
    <glyph glyph-name="uni0491" unicode="&#x491;" horiz-adv-x="875" 
d="M636 1300h177v-486h-504v-814h-207v1000h534v300z" />
    <glyph glyph-name="uni0492" unicode="&#x492;" horiz-adv-x="1135" 
d="M0 704h197v597h875v-193h-668v-404h513v-172h-513v-532h-207v532h-197v172z" />
    <glyph glyph-name="uni0493" unicode="&#x493;" horiz-adv-x="965" 
d="M0 537h192v463h711v-186h-504v-277h384v-171h-384v-366h-207v366h-192v171z" />
    <glyph glyph-name="uni0496" unicode="&#x496;" horiz-adv-x="1990" 
d="M823 0v575h-192l-366 -575h-239l436 676l-409 625h235l345 -532h190v532h207v-532h191l345 532h235l-410 -625l311 -482h249v-520h-188v326h-175l-366 575h-192v-575h-207z" />
    <glyph glyph-name="uni0497" unicode="&#x497;" horiz-adv-x="1693" 
d="M681 1000h207v-390h149l259 390h231l-321 -478l214 -328h236v-520h-188v326h-158l-273 423h-149v-423h-207v423h-149l-273 -423h-237l341 522l-321 478h230l259 -390h150v390z" />
    <glyph glyph-name="uni049A" unicode="&#x49a;" horiz-adv-x="1311" 
d="M102 0v1301h207v-532h205l372 532h238l-434 -624l328 -483h255v-520h-188v326h-176l-393 575h-207v-575h-207z" />
    <glyph glyph-name="uni049B" unicode="&#x49b;" horiz-adv-x="1155" 
d="M102 1000h207v-390h162l269 390h237l-337 -481l224 -325h253v-520h-188v326h-169v5l-288 418h-163v-423h-207v1000z" />
    <glyph glyph-name="uni049C" unicode="&#x49c;" horiz-adv-x="1246" 
d="M102 0v1301h207v-532h94v321h126v-321h59l372 532h238l-434 -624l460 -677h-242l-393 575h-60v-319h-126v319h-94v-575h-207z" />
    <glyph glyph-name="uni049D" unicode="&#x49d;" horiz-adv-x="1124" 
d="M402 848h126v-238h47l273 390h233l-338 -478l360 -522h-239l-289 423h-47v-277h-126v277h-93v-423h-207v1000h207v-390h93v238z" />
    <glyph glyph-name="uni04A2" unicode="&#x4a2;" horiz-adv-x="1372" 
d="M102 1301h207v-532h641v532h204v-1107h179v-520h-188v326h-195v575h-641v-575h-207v1301z" />
    <glyph glyph-name="uni04A3" unicode="&#x4a3;" horiz-adv-x="1194" 
d="M102 1000h207v-405h464v405h205v-806h179v-520h-188v326h-196v408h-464v-408h-207v1000z" />
    <glyph glyph-name="uni04AE" unicode="&#x4ae;" horiz-adv-x="1200" 
d="M496 443l-441 858h232l313 -633l315 633h231l-446 -858v-443h-204v443z" />
    <glyph glyph-name="uni04AF" unicode="&#x4af;" horiz-adv-x="1118" 
d="M62 1000h227l273 -704l267 704h228l-395 -965v-361h-206v362z" />
    <glyph glyph-name="uni04B0" unicode="&#x4b0;" horiz-adv-x="1200" 
d="M175 498h292l-412 803h232l313 -633l315 633h231l-417 -803h282v-171h-311v-327h-204v327h-321v171z" />
    <glyph glyph-name="uni04B1" unicode="&#x4b1;" horiz-adv-x="1118" 
d="M140 95h292l-370 905h227l273 -704l267 704h228l-371 -905h290v-172h-314v-249h-206v249h-316v172z" />
    <glyph glyph-name="uni04B2" unicode="&#x4b2;" horiz-adv-x="1319" 
d="M36 1301h237l323 -545l319 545h237l-387 -653l271 -454h244v-520h-188v326h-176l-323 542l-319 -542h-238l389 650z" />
    <glyph glyph-name="uni04B3" unicode="&#x4b3;" horiz-adv-x="1146" 
d="M36 1000h224l244 -393l240 393h224l-305 -501l186 -305h260v-520h-188v326h-177l-243 395l-241 -395h-224l304 501z" />
    <glyph glyph-name="uni04B8" unicode="&#x4b8;" horiz-adv-x="1227" 
d="M306 938q0 -248 239 -276v391h133v-389q142 19 217 94v543h206v-1301h-206v570q-92 -64 -217 -88v-262h-133v249q-206 1 -325.5 120t-119.5 321v391h206v-363z" />
    <glyph glyph-name="uni04B9" unicode="&#x4b9;" horiz-adv-x="1089" 
d="M306 725q0 -164 168 -191v302h133v-304q110 13 173 60v408h207v-1000h-207v420q-76 -48 -173 -69v-217h-133v204q-172 3 -273 99t-101 260v303h206v-275z" />
    <glyph glyph-name="uni04BA" unicode="&#x4ba;" horiz-adv-x="1240" 
d="M933 426q0 148 -84.5 217.5t-229.5 69.5q-110 0 -193.5 -55t-118.5 -143v-515h-207v1301h207v-557q67 76 164 117.5t211 41.5q135 0 237.5 -52t160.5 -150.5t58 -238.5v-462h-205v426z" />
    <glyph glyph-name="uni04BB" unicode="&#x4bb;" horiz-adv-x="1091" 
d="M787 589q0 130 -64.5 189t-172.5 59q-104 0 -173.5 -65.5t-69.5 -168.5v-603h-207v1400h207v-552q55 86 141 132.5t174 46.5q161 0 265 -101.5t104 -292.5v-633h-204v589z" />
    <glyph glyph-name="uni04D8" unicode="&#x4d8;" horiz-adv-x="1340" 
d="M1250 656q0 -205 -72.5 -356t-205 -233.5t-311.5 -82.5q-172 0 -302 82t-203 227.5t-73 336.5v71h956q-19 435 -388 435q-148 0 -238.5 -72t-113.5 -193h-210q35 209 178 328t379 119q185 0 320.5 -81t209.5 -230t74 -351zM662 167q327 0 371 369h-736
q14 -171 112.5 -270t252.5 -99z" />
    <glyph glyph-name="uni04D9" unicode="&#x4d9;" horiz-adv-x="1127" 
d="M1047 500q0 -159 -59 -274.5t-166.5 -178.5t-253.5 -63q-142 0 -252 63.5t-172.5 175.5t-62.5 255v76h754q-23 296 -281 296q-106 0 -169 -46t-79 -126h-218q63 342 461 342q153 0 264.5 -63.5t172.5 -180t61 -276.5zM566 144q231 0 265 262h-530q11 -120 82.5 -191
t182.5 -71z" />
    <glyph glyph-name="uni04DC" unicode="&#x4dc;" horiz-adv-x="1853" 
d="M1003 1610h219v-198h-219v198zM623 1610h219v-198h-219v198zM823 0v575h-192l-366 -575h-239l436 676l-409 625h235l345 -532h190v532h207v-532h191l345 532h235l-410 -625l437 -676h-240l-366 575h-192v-575h-207z" />
    <glyph glyph-name="uni04DD" unicode="&#x4dd;" horiz-adv-x="1569" 
d="M859 1330h219v-199h-219v199zM479 1330h219v-199h-219v199zM681 1000h207v-390h149l259 390h231l-321 -478l341 -522h-237l-273 423h-149v-423h-207v423h-149l-273 -423h-237l341 522l-321 478h230l259 -390h150v390z" />
    <glyph glyph-name="uni04DE" unicode="&#x4de;" horiz-adv-x="1188" 
d="M672 1610h218v-198h-218v198zM292 1610h219v-198h-219v198zM614 -16q-228 0 -369 115.5t-162 320.5h210q37 -259 318 -259q134 0 211.5 55.5t77.5 162.5q0 89 -60 140.5t-164 51.5h-234v178h224q209 0 209 177q0 103 -72.5 159.5t-203.5 56.5q-263 0 -299 -257h-207
q19 206 152.5 319.5t357.5 113.5q145 0 252.5 -47t167 -131.5t59.5 -199.5q0 -194 -180 -277q205 -81 205 -294q0 -116 -61 -203t-172 -134.5t-260 -47.5z" />
    <glyph glyph-name="uni04DF" unicode="&#x4df;" horiz-adv-x="1052" 
d="M614 1347h219v-199h-219v199zM234 1347h219v-199h-219v199zM814 502q75 -31 115.5 -87t40.5 -131q0 -90 -54 -158.5t-151 -106.5t-225 -38q-130 0 -230 44t-159.5 124.5t-67.5 187.5h210q6 -90 71.5 -140.5t175.5 -50.5q104 0 162 40t58 113q0 60 -39.5 93t-110.5 33
h-201v153h201q63 0 98.5 32t35.5 90q0 75 -56.5 118t-155.5 43q-103 0 -164 -52.5t-64 -144.5h-210q13 164 132.5 262.5t306.5 98.5q124 0 219 -40.5t148.5 -111.5t53.5 -163q0 -145 -140 -208z" />
    <glyph glyph-name="uni04E4" unicode="&#x4e4;" horiz-adv-x="1271" 
d="M726 1610h218v-198h-218v198zM346 1610h219v-198h-219v198zM307 1301v-963l652 963h210v-1301h-206v987l-668 -987h-193v1301h205z" />
    <glyph glyph-name="uni04E5" unicode="&#x4e5;" horiz-adv-x="1091" 
d="M634 1330h218v-199h-218v199zM254 1330h219v-199h-219v199zM303 1000v-690l491 690h195v-1000h-202v707l-501 -707h-184v1000h201z" />
    <glyph glyph-name="uni04E6" unicode="&#x4e6;" horiz-adv-x="1398" 
d="M776 1610h219v-198h-219v198zM396 1610h219v-198h-219v198zM83 635q0 206 77 360t216 239.5t325 85.5q185 0 323.5 -85.5t216 -239.5t77.5 -360q0 -195 -77.5 -341.5t-216 -228t-323.5 -81.5q-186 0 -325 81.5t-216 228t-77 341.5zM1107 635q0 235 -107 365.5t-299 130.5
q-194 0 -301 -130.5t-107 -365.5q0 -218 107 -339.5t301 -121.5q192 0 299 121.5t107 339.5z" />
    <glyph glyph-name="uni04E7" unicode="&#x4e7;" horiz-adv-x="1122" 
d="M635 1329h219v-198h-219v198zM255 1329h219v-198h-219v198zM76 504q0 158 61 275.5t170.5 182.5t254.5 65t254 -65t169.5 -182.5t60.5 -275.5t-60.5 -276.5t-169.5 -184.5t-254 -66t-254.5 66t-170.5 184.5t-61 276.5zM835 504q0 162 -71.5 251.5t-201.5 89.5
q-131 0 -203.5 -89.5t-72.5 -251.5q0 -164 72.5 -254.5t203.5 -90.5q130 0 201.5 90.5t71.5 254.5z" />
    <glyph glyph-name="uni04E8" unicode="&#x4e8;" horiz-adv-x="1399" 
d="M83 635q0 206 77 360t216 239.5t325 85.5q185 0 323.5 -85.5t216 -239.5t77.5 -360q0 -195 -77.5 -341.5t-216 -228t-323.5 -81.5q-186 0 -325 81.5t-216 228t-77 341.5zM701 1131q-175 0 -280 -107t-124 -301h805q-19 194 -123.5 301t-277.5 107zM701 174
q175 0 279.5 101t122.5 285h-807q18 -184 123 -285t282 -101z" />
    <glyph glyph-name="uni04E9" unicode="&#x4e9;" horiz-adv-x="1131" 
d="M81 504q0 158 61 275.5t170.5 182.5t255.5 65q144 0 253 -65t169.5 -182.5t60.5 -275.5t-60.5 -276.5t-169.5 -184.5t-253 -66q-146 0 -255.5 66t-170.5 184.5t-61 276.5zM568 860q-123 0 -198 -74.5t-90 -211.5h572q-16 137 -89.5 211.5t-194.5 74.5zM568 144
q121 0 194.5 75t88.5 214h-571q16 -139 90.5 -214t197.5 -75z" />
    <glyph glyph-name="uni04F4" unicode="&#x4f4;" horiz-adv-x="1203" 
d="M690 1610h218v-198h-218v198zM310 1610h219v-198h-219v198zM306 938q0 -279 299 -279q90 0 167 27t123 72v543h206v-1301h-206v570q-69 -47 -159.5 -74t-186.5 -27q-207 0 -328 119t-121 322v391h206v-363z" />
    <glyph glyph-name="uni04F5" unicode="&#x4f5;" horiz-adv-x="1066" 
d="M623 1329h218v-198h-218v198zM243 1329h219v-198h-219v198zM306 722q0 -198 227 -198q64 0 124.5 17t100.5 46v413h207v-1000h-207v411q-59 -34 -133 -54t-154 -20q-170 0 -270.5 94.5t-100.5 256.5v312h206v-278z" />
    <glyph glyph-name="uni058F" unicode="&#x58f;" horiz-adv-x="1209" 
d="M789 903q0 114 -66 177.5t-184 63.5q-110 0 -176 -62.5t-70 -170.5h-210q6 122 65.5 213t160 141.5t230.5 50.5q136 0 239 -51.5t160.5 -144.5t57.5 -217v-119h203v-139h-203v-182h203v-136h-203v-327h-207v327h-324v136h324v182h-324v139h324v119z" />
    <glyph glyph-name="uni0E3F" unicode="&#xe3f;" horiz-adv-x="1130" 
d="M675 1301q158 0 255.5 -91.5t97.5 -238.5q0 -101 -51.5 -178t-138.5 -116q102 -39 162.5 -127.5t60.5 -207.5q0 -153 -99.5 -247.5t-261.5 -94.5h-87v-200h-108v200h-403v1301h403v193h108v-193h62zM309 752h196v369h-196v-369zM640 1121h-27v-369h14q87 0 138.5 51.5
t51.5 139.5q0 83 -48 130.5t-129 47.5zM309 179h196v393h-196v-393zM631 572h-18v-393h40q91 0 144 50.5t53 138.5q0 95 -58.5 149.5t-160.5 54.5z" />
    <glyph glyph-name="uni1E9E" unicode="&#x1e9e;" horiz-adv-x="1272" 
d="M815 727q191 -14 283 -109.5t92 -241.5q0 -113 -56.5 -197.5t-159 -131.5t-240.5 -47h-184v175h140q142 0 220 54t78 153q0 92 -72 142.5t-203 50.5h-103v167l320 355q-56 25 -116 40t-127 15q-199 0 -288.5 -86t-89.5 -273v-793h-207v805q0 255 146.5 386t432.5 131
q121 0 224.5 -30t197.5 -78v-172z" />
    <glyph glyph-name="uni1EA0" unicode="&#x1ea0;" horiz-adv-x="1300" 
d="M1264 0h-218l-116 312h-559l-114 -312h-221l499 1301h233zM647 1071l-214 -588h433zM533 -127h226v-220h-226v220z" />
    <glyph glyph-name="uni1EA1" unicode="&#x1ea1;" horiz-adv-x="1053" 
d="M951 643v-643h-206v147q-102 -170 -332 -170q-98 0 -174.5 38.5t-119.5 106.5t-43 155q0 131 86.5 206.5t248.5 87.5l282 22q52 3 52 48v23q0 91 -59.5 146.5t-161.5 55.5q-193 0 -213 -190h-213q7 104 63 182.5t150 122.5t214 44q126 0 222.5 -48.5t150 -134.5
t53.5 -199zM284 291q0 -68 52 -108.5t141 -40.5q119 0 193.5 74t74.5 194v35l-300 -19q-161 -11 -161 -135zM460 -127h225v-220h-225v220z" />
    <glyph glyph-name="uni1EA2" unicode="&#x1ea2;" horiz-adv-x="1300" 
d="M565 1400q0 42 25.5 72.5t77.5 69.5q36 24 54 43t18 40q0 30 -21.5 47t-56.5 17q-82 0 -97 -76h-157q31 192 258 192q102 0 164 -48.5t62 -130.5q0 -45 -23.5 -73.5t-70.5 -58.5q-39 -24 -60.5 -44t-21.5 -50h-151zM1264 0h-218l-116 312h-559l-114 -312h-221l499 1301
h233zM647 1071l-214 -588h433z" />
    <glyph glyph-name="uni1EA3" unicode="&#x1ea3;" horiz-adv-x="1053" 
d="M449 1119q0 42 25.5 72.5t77.5 69.5q36 24 54 43t18 40q0 30 -21.5 47t-56.5 17q-82 0 -97 -76h-157q31 192 258 192q102 0 164 -48.5t62 -130.5q0 -45 -23.5 -73.5t-70.5 -58.5q-39 -24 -60.5 -44t-21.5 -50h-151zM951 643v-643h-206v147q-102 -170 -332 -170
q-98 0 -174.5 38.5t-119.5 106.5t-43 155q0 131 86.5 206.5t248.5 87.5l282 22q52 3 52 48v23q0 91 -59.5 146.5t-161.5 55.5q-193 0 -213 -190h-213q7 104 63 182.5t150 122.5t214 44q126 0 222.5 -48.5t150 -134.5t53.5 -199zM284 291q0 -68 52 -108.5t141 -40.5
q119 0 193.5 74t74.5 194v35l-300 -19q-161 -11 -161 -135z" />
    <glyph glyph-name="uni1EA4" unicode="&#x1ea4;" horiz-adv-x="1300" 
d="M1311 1802l-244 -232h-166l199 232h211zM549 1651h182l273 -251h-204l-158 155l-160 -155h-206zM1264 0h-218l-116 312h-559l-114 -312h-221l499 1301h233zM647 1071l-214 -588h433z" />
    <glyph glyph-name="uni1EA5" unicode="&#x1ea5;" horiz-adv-x="1053" 
d="M1183 1651l-251 -292h-159l187 292h223zM420 1423h202l263 -304h-198l-164 201l-167 -201h-200zM951 643v-643h-206v147q-102 -170 -332 -170q-98 0 -174.5 38.5t-119.5 106.5t-43 155q0 131 86.5 206.5t248.5 87.5l282 22q52 3 52 48v23q0 91 -59.5 146.5t-161.5 55.5
q-193 0 -213 -190h-213q7 104 63 182.5t150 122.5t214 44q126 0 222.5 -48.5t150 -134.5t53.5 -199zM284 291q0 -68 52 -108.5t141 -40.5q119 0 193.5 74t74.5 194v35l-300 -19q-161 -11 -161 -135z" />
    <glyph glyph-name="uni1EA6" unicode="&#x1ea6;" horiz-adv-x="1300" 
d="M736 1802h211l199 -232h-166zM549 1643h182l273 -243h-204l-158 148l-160 -148h-206zM1264 0h-218l-116 312h-559l-114 -312h-221l499 1301h233zM647 1071l-214 -588h433z" />
    <glyph glyph-name="uni1EA7" unicode="&#x1ea7;" horiz-adv-x="1053" 
d="M612 1651h221l188 -292h-158zM420 1423h202l263 -304h-198l-164 201l-167 -201h-200zM951 643v-643h-206v147q-102 -170 -332 -170q-98 0 -174.5 38.5t-119.5 106.5t-43 155q0 131 86.5 206.5t248.5 87.5l282 22q52 3 52 48v23q0 91 -59.5 146.5t-161.5 55.5
q-193 0 -213 -190h-213q7 104 63 182.5t150 122.5t214 44q126 0 222.5 -48.5t150 -134.5t53.5 -199zM284 291q0 -68 52 -108.5t141 -40.5q119 0 193.5 74t74.5 194v35l-300 -19q-161 -11 -161 -135z" />
    <glyph glyph-name="uni1EA8" unicode="&#x1ea8;" horiz-adv-x="1300" 
d="M912 1570q6 45 32 69.5t58 38.5t55.5 26.5t23.5 35.5q0 26 -21 41.5t-54 15.5q-40 0 -64.5 -20t-26.5 -54h-154q7 85 71 131.5t175 46.5q101 0 162.5 -42.5t61.5 -112.5q0 -44 -24.5 -68t-57.5 -38.5t-60 -29t-31 -40.5h-146zM549 1643h182l273 -243h-204l-158 148
l-160 -148h-206zM1264 0h-218l-116 312h-559l-114 -312h-221l499 1301h233zM647 1071l-214 -588h433z" />
    <glyph glyph-name="uni1EA9" unicode="&#x1ea9;" horiz-adv-x="1053" 
d="M769 1359q0 42 25 72.5t77 69.5q36 24 54.5 43t18.5 40q0 30 -21.5 47t-57.5 17q-81 0 -96 -76h-157q30 192 257 192q103 0 165 -48.5t62 -129.5q0 -46 -23.5 -74.5t-70.5 -58.5q-40 -23 -61.5 -43.5t-21.5 -50.5h-150zM420 1423h202l263 -304h-198l-164 201l-167 -201
h-200zM951 643v-643h-206v147q-102 -170 -332 -170q-98 0 -174.5 38.5t-119.5 106.5t-43 155q0 131 86.5 206.5t248.5 87.5l282 22q52 3 52 48v23q0 91 -59.5 146.5t-161.5 55.5q-193 0 -213 -190h-213q7 104 63 182.5t150 122.5t214 44q126 0 222.5 -48.5t150 -134.5
t53.5 -199zM284 291q0 -68 52 -108.5t141 -40.5q119 0 193.5 74t74.5 194v35l-300 -19q-161 -11 -161 -135z" />
    <glyph glyph-name="uni1EAA" unicode="&#x1eaa;" horiz-adv-x="1300" 
d="M486 1928q53 0 91 -16.5t68 -38t59.5 -37.5t67.5 -16q46 0 73 26.5t27 71.5h128q0 -98 -59.5 -160.5t-158.5 -62.5q-54 0 -92.5 16t-67.5 37t-56.5 37t-60.5 16q-42 0 -67 -28.5t-25 -75.5h-133q0 104 55 167.5t151 63.5zM549 1643h182l273 -243h-204l-158 148l-160 -148
h-206zM1264 0h-218l-116 312h-559l-114 -312h-221l499 1301h233zM647 1071l-214 -588h433z" />
    <glyph glyph-name="uni1EAB" unicode="&#x1eab;" horiz-adv-x="1053" 
d="M350 1781q59 0 100 -21.5t72.5 -50t63 -50t72.5 -21.5q43 0 68 36.5t25 97.5h135q0 -130 -58.5 -206.5t-155.5 -76.5q-62 0 -103.5 21t-72.5 49.5t-59 50t-64 21.5q-40 0 -62.5 -37t-22.5 -97h-139q0 133 53.5 208.5t147.5 75.5zM420 1423h202l263 -304h-198l-164 201
l-167 -201h-200zM951 643v-643h-206v147q-102 -170 -332 -170q-98 0 -174.5 38.5t-119.5 106.5t-43 155q0 131 86.5 206.5t248.5 87.5l282 22q52 3 52 48v23q0 91 -59.5 146.5t-161.5 55.5q-193 0 -213 -190h-213q7 104 63 182.5t150 122.5t214 44q126 0 222.5 -48.5
t150 -134.5t53.5 -199zM284 291q0 -68 52 -108.5t141 -40.5q119 0 193.5 74t74.5 194v35l-300 -19q-161 -11 -161 -135z" />
    <glyph glyph-name="uni1EAC" unicode="&#x1eac;" horiz-adv-x="1300" 
d="M540 1704h201l264 -304h-199l-164 201l-166 -201h-200zM1264 0h-218l-116 312h-559l-114 -312h-221l499 1301h233zM647 1071l-214 -588h433zM533 -127h226v-220h-226v220z" />
    <glyph glyph-name="uni1EAD" unicode="&#x1ead;" horiz-adv-x="1053" 
d="M420 1423h202l263 -304h-198l-164 201l-167 -201h-200zM951 643v-643h-206v147q-102 -170 -332 -170q-98 0 -174.5 38.5t-119.5 106.5t-43 155q0 131 86.5 206.5t248.5 87.5l282 22q52 3 52 48v23q0 91 -59.5 146.5t-161.5 55.5q-193 0 -213 -190h-213q7 104 63 182.5
t150 122.5t214 44q126 0 222.5 -48.5t150 -134.5t53.5 -199zM284 291q0 -68 52 -108.5t141 -40.5q119 0 193.5 74t74.5 194v35l-300 -19q-161 -11 -161 -135zM460 -127h225v-220h-225v220z" />
    <glyph glyph-name="uni1EAE" unicode="&#x1eae;" horiz-adv-x="1300" 
d="M930 1910l-245 -239h-165l199 239h211zM1001 1657q-15 -121 -110 -194t-245 -73q-151 0 -248 73t-111 194h175q21 -137 184 -137q160 0 181 137h174zM1264 0h-218l-116 312h-559l-114 -312h-221l499 1301h233zM647 1071l-214 -588h433z" />
    <glyph glyph-name="uni1EAF" unicode="&#x1eaf;" horiz-adv-x="1053" 
d="M807 1733l-251 -292h-159l187 292h223zM882 1404q-15 -131 -110 -210.5t-245 -79.5q-151 0 -248 79.5t-111 210.5h175q21 -151 184 -151q160 0 181 151h174zM951 643v-643h-206v147q-102 -170 -332 -170q-98 0 -174.5 38.5t-119.5 106.5t-43 155q0 131 86.5 206.5
t248.5 87.5l282 22q52 3 52 48v23q0 91 -59.5 146.5t-161.5 55.5q-193 0 -213 -190h-213q7 104 63 182.5t150 122.5t214 44q126 0 222.5 -48.5t150 -134.5t53.5 -199zM284 291q0 -68 52 -108.5t141 -40.5q119 0 193.5 74t74.5 194v35l-300 -19q-161 -11 -161 -135z" />
    <glyph glyph-name="uni1EB0" unicode="&#x1eb0;" horiz-adv-x="1300" 
d="M363 1910h211l199 -239h-166zM1001 1657q-15 -121 -110 -194t-245 -73q-151 0 -248 73t-111 194h175q21 -137 184 -137q160 0 181 137h174zM1264 0h-218l-116 312h-559l-114 -312h-221l499 1301h233zM647 1071l-214 -588h433z" />
    <glyph glyph-name="uni1EB1" unicode="&#x1eb1;" horiz-adv-x="1053" 
d="M261 1733h221l188 -292h-158zM882 1404q-15 -131 -110 -210.5t-245 -79.5q-151 0 -248 79.5t-111 210.5h175q21 -151 184 -151q160 0 181 151h174zM951 643v-643h-206v147q-102 -170 -332 -170q-98 0 -174.5 38.5t-119.5 106.5t-43 155q0 131 86.5 206.5t248.5 87.5
l282 22q52 3 52 48v23q0 91 -59.5 146.5t-161.5 55.5q-193 0 -213 -190h-213q7 104 63 182.5t150 122.5t214 44q126 0 222.5 -48.5t150 -134.5t53.5 -199zM284 291q0 -68 52 -108.5t141 -40.5q119 0 193.5 74t74.5 194v35l-300 -19q-161 -11 -161 -135z" />
    <glyph glyph-name="uni1EB2" unicode="&#x1eb2;" horiz-adv-x="1300" 
d="M559 1633q3 41 29 64t58.5 36.5t57 26t24.5 33.5q0 23 -21 37.5t-55 14.5q-40 0 -64 -19t-26 -51h-154q12 82 75.5 127t168.5 45q102 0 164 -40.5t62 -107.5q0 -43 -23.5 -65.5t-55 -35.5t-57 -26.5t-29.5 -38.5h-154zM1001 1642q-15 -116 -110 -186t-245 -70
q-151 0 -248 70t-111 186h175q21 -129 184 -129q160 0 181 129h174zM1264 0h-218l-116 312h-559l-114 -312h-221l499 1301h233zM647 1071l-214 -588h433z" />
    <glyph glyph-name="uni1EB3" unicode="&#x1eb3;" horiz-adv-x="1053" 
d="M449 1441q0 42 25.5 72.5t77.5 69.5q36 24 54 43t18 40q0 29 -21.5 46.5t-56.5 17.5q-82 0 -97 -76h-157q31 192 258 192q102 0 164 -48.5t62 -130.5q0 -45 -23.5 -73.5t-70.5 -58.5q-39 -24 -60.5 -44t-21.5 -50h-151zM882 1404q-15 -131 -110 -210.5t-245 -79.5
q-151 0 -248 79.5t-111 210.5h175q21 -151 184 -151q160 0 181 151h174zM951 643v-643h-206v147q-102 -170 -332 -170q-98 0 -174.5 38.5t-119.5 106.5t-43 155q0 131 86.5 206.5t248.5 87.5l282 22q52 3 52 48v23q0 91 -59.5 146.5t-161.5 55.5q-193 0 -213 -190h-213
q7 104 63 182.5t150 122.5t214 44q126 0 222.5 -48.5t150 -134.5t53.5 -199zM284 291q0 -68 52 -108.5t141 -40.5q119 0 193.5 74t74.5 194v35l-300 -19q-161 -11 -161 -135z" />
    <glyph glyph-name="uni1EB4" unicode="&#x1eb4;" horiz-adv-x="1300" 
d="M486 1928q53 0 91 -16.5t68 -38t59.5 -37.5t67.5 -16q46 0 73 26.5t27 71.5h128q0 -98 -59.5 -160.5t-158.5 -62.5q-54 0 -92.5 16t-67.5 37t-56.5 37t-60.5 16q-42 0 -67 -28.5t-25 -75.5h-133q0 104 55 167.5t151 63.5zM1001 1635q-15 -112 -110 -180.5t-245 -68.5
q-151 0 -248 68.5t-111 180.5h175q21 -119 184 -119q160 0 181 119h174zM1264 0h-218l-116 312h-559l-114 -312h-221l499 1301h233zM647 1071l-214 -588h433z" />
    <glyph glyph-name="uni1EB5" unicode="&#x1eb5;" horiz-adv-x="1053" 
d="M350 1764q59 0 100 -22t72.5 -50t63 -49.5t72.5 -21.5q43 0 68 36t25 98h135q0 -130 -58.5 -207t-155.5 -77q-62 0 -103.5 21.5t-72.5 49.5t-59 49.5t-64 21.5q-40 0 -62.5 -36.5t-22.5 -97.5h-139q0 133 53.5 209t147.5 76zM882 1404q-15 -131 -110 -210.5t-245 -79.5
q-151 0 -248 79.5t-111 210.5h175q21 -151 184 -151q160 0 181 151h174zM951 643v-643h-206v147q-102 -170 -332 -170q-98 0 -174.5 38.5t-119.5 106.5t-43 155q0 131 86.5 206.5t248.5 87.5l282 22q52 3 52 48v23q0 91 -59.5 146.5t-161.5 55.5q-193 0 -213 -190h-213
q7 104 63 182.5t150 122.5t214 44q126 0 222.5 -48.5t150 -134.5t53.5 -199zM284 291q0 -68 52 -108.5t141 -40.5q119 0 193.5 74t74.5 194v35l-300 -19q-161 -11 -161 -135z" />
    <glyph glyph-name="uni1EB6" unicode="&#x1eb6;" horiz-adv-x="1300" 
d="M1001 1685q-15 -131 -109.5 -210.5t-244.5 -79.5q-151 0 -248 79.5t-111 210.5h175q20 -151 184 -151q160 0 180 151h174zM1264 0h-218l-116 312h-559l-114 -312h-221l499 1301h233zM647 1071l-214 -588h433zM533 -127h226v-220h-226v220z" />
    <glyph glyph-name="uni1EB7" unicode="&#x1eb7;" horiz-adv-x="1053" 
d="M882 1404q-15 -131 -110 -210.5t-245 -79.5q-151 0 -248 79.5t-111 210.5h175q21 -151 184 -151q160 0 181 151h174zM951 643v-643h-206v147q-102 -170 -332 -170q-98 0 -174.5 38.5t-119.5 106.5t-43 155q0 131 86.5 206.5t248.5 87.5l282 22q52 3 52 48v23
q0 91 -59.5 146.5t-161.5 55.5q-193 0 -213 -190h-213q7 104 63 182.5t150 122.5t214 44q126 0 222.5 -48.5t150 -134.5t53.5 -199zM284 291q0 -68 52 -108.5t141 -40.5q119 0 193.5 74t74.5 194v35l-300 -19q-161 -11 -161 -135zM460 -127h225v-220h-225v220z" />
    <glyph glyph-name="uni1EB8" unicode="&#x1eb8;" horiz-adv-x="1117" 
d="M1037 1301v-195h-728v-352h671v-183h-671v-378h728v-193h-935v1301h935zM475 -127h225v-220h-225v220z" />
    <glyph glyph-name="uni1EB9" unicode="&#x1eb9;" horiz-adv-x="1120" 
d="M76 497q0 161 60.5 280t171 184.5t258.5 65.5q140 0 248.5 -65.5t170.5 -182.5t62 -273v-61h-763q26 -299 293 -299q104 0 167 46.5t80 124.5h210q-31 -161 -146 -250.5t-309 -89.5q-233 0 -368 139.5t-135 380.5zM560 857q-239 0 -273 -264h539q-10 121 -82.5 192.5
t-183.5 71.5zM463 -127h225v-220h-225v220z" />
    <glyph glyph-name="uni1EBA" unicode="&#x1eba;" horiz-adv-x="1117" 
d="M508 1400q0 42 25.5 72.5t77.5 69.5q36 24 54 43t18 40q0 30 -21 47t-57 17q-82 0 -96 -76h-158q31 192 258 192q102 0 164 -48.5t62 -130.5q0 -45 -23.5 -73.5t-70.5 -58.5q-39 -24 -60.5 -44t-21.5 -50h-151zM1037 1301v-195h-728v-352h671v-183h-671v-378h728v-193
h-935v1301h935z" />
    <glyph glyph-name="uni1EBB" unicode="&#x1ebb;" horiz-adv-x="1120" 
d="M476 1119q0 42 25.5 72.5t77.5 69.5q36 24 54.5 43t18.5 40q0 30 -21.5 47t-57.5 17q-81 0 -96 -76h-157q30 192 257 192q103 0 165 -48.5t62 -130.5q0 -45 -24 -73.5t-70 -58.5q-40 -24 -61.5 -44t-21.5 -50h-151zM76 497q0 161 60.5 280t171 184.5t258.5 65.5
q140 0 248.5 -65.5t170.5 -182.5t62 -273v-61h-763q26 -299 293 -299q104 0 167 46.5t80 124.5h210q-31 -161 -146 -250.5t-309 -89.5q-233 0 -368 139.5t-135 380.5zM560 857q-239 0 -273 -264h539q-10 121 -82.5 192.5t-183.5 71.5z" />
    <glyph glyph-name="uni1EBC" unicode="&#x1ebc;" horiz-adv-x="1117" 
d="M410 1685q59 0 99.5 -22t72.5 -50t63.5 -49.5t71.5 -21.5q43 0 68.5 36t25.5 98h134q0 -130 -58.5 -207t-155.5 -77q-62 0 -103.5 21.5t-72 49.5t-59 49.5t-63.5 21.5q-40 0 -63 -36.5t-23 -97.5h-139q0 133 53.5 209t148.5 76zM1037 1301v-195h-728v-352h671v-183h-671
v-378h728v-193h-935v1301h935z" />
    <glyph glyph-name="uni1EBD" unicode="&#x1ebd;" horiz-adv-x="1120" 
d="M378 1404q59 0 99.5 -22t72.5 -50t63.5 -49.5t72.5 -21.5q42 0 67.5 36t25.5 98h134q0 -130 -58 -207t-156 -77q-61 0 -103 21.5t-72.5 49.5t-59 49.5t-63.5 21.5q-40 0 -63 -36.5t-23 -97.5h-139q0 133 54 209t148 76zM76 497q0 161 60.5 280t171 184.5t258.5 65.5
q140 0 248.5 -65.5t170.5 -182.5t62 -273v-61h-763q26 -299 293 -299q104 0 167 46.5t80 124.5h210q-31 -161 -146 -250.5t-309 -89.5q-233 0 -368 139.5t-135 380.5zM560 857q-239 0 -273 -264h539q-10 121 -82.5 192.5t-183.5 71.5z" />
    <glyph glyph-name="uni1EBE" unicode="&#x1ebe;" horiz-adv-x="1117" 
d="M1249 1802l-245 -232h-165l199 232h211zM487 1651h182l273 -251h-205l-157 155l-161 -155h-206zM1037 1301v-195h-728v-352h671v-183h-671v-378h728v-193h-935v1301h935z" />
    </font>
</defs>
</svg>
